<?xml version="1.0" encoding="UTF-8"?>
<!DOCTYPE svg PUBLIC "-//W3C//DTD SVG 1.1//EN" "http://www.w3.org/Graphics/SVG/1.1/DTD/svg11.dtd">
<svg version="1.1" id="Layer_1" xmlns="http://www.w3.org/2000/svg" xmlns:xlink="http://www.w3.org/1999/xlink" x="0px" y="0px" width="32px" height="32px" viewBox="0 0 32 32" enable-background="new 0 0 32 32" xml:space="preserve">
  <style type="text / css">
    .Red{fill:#CD4C32;}
    .Green{fill:#4EA17E;}
    .Blue{fill:#3E79B4;}
    .Yellow{fill:#EAB765;}
    .Black{fill:#797979;}
    .Gray{fill:#B4B4B5;}
    .White{fill:#FFFFFF;}
  </style>
  <g id="icon">
    <g id="main">
      <clipPath id="clip_mask">
        <path d="M18.0272,31.0577L20.8987,25.4h-1.6443c-0.4542,0,-0.8627,-0.2371,-1.0662,-0.6432c-0.2034,-0.4062,-0.1608,-0.8768,0.1112,-1.2407l5.1229,-6.953c0.2295,-0.3066,0.5864,-0.4631,0.9601,-0.4631h7.3221c0.1016,0,0.2006,0.0124,0.2956,0.0352V0H0v32h17.9696C17.8627,31.6952,17.8795,31.3531,18.0272,31.0577z" fill-rule="evenodd"/>
      </clipPath>
      <g id="icon" clip-path="url(#clip_mask)">
        <g id="transformed_icon" transform="translate(-1 -1)">
          <path fill="#3E79B4" class="Blue" d="M27.7,1H6.3c-0.718,0,-1.3,0.582,-1.3,1.3v27.4c0,0.718,0.582,1.3,1.3,1.3h21.4c0.718,0,1.3,-0.582,1.3,-1.3V2.3C29,1.582,28.418,1,27.7,1zM8,29H6v-2h2V29zM8,25H6v-2h2V25zM8,21H6v-2h2V21zM8,17H6v-2h2V17zM8,13H6v-2h2V13zM8,9H6V7h2V9zM8,5H6V3h2V5zM24,12.15c0,0.4694,-0.3806,0.85,-0.85,0.85h-10.3c-0.4694,0,-0.85,-0.3806,-0.85,-0.85v-4.3c0,-0.4694,0.3806,-0.85,0.85,-0.85h10.3c0.4694,0,0.85,0.3806,0.85,0.85V12.15z" />
          <path fill="#797979" class="Black" d="M5,19v2H3v-2H5zM3,15v2h2v-2H3zM3,11v2h2v-2H3zM3,23v2h2v-2H3zM3,27v2h2v-2H3zM5,7v2H3V7H5zM5,3v2H3V3H5z" />
          <path fill="#FFFFFF" class="White" d="M6,19v2H5v-2H6zM5,15v2h1v-2H5zM5,11v2h1v-2H5zM5,23v2h1v-2H5zM5,27v2h1v-2H5zM6,7v2H5V7H6zM6,3v2H5V3H6z" />
          <path fill="#B4B4B5" class="Gray" d="M8,19v2H6v-2H8zM6,15v2h2v-2H6zM6,11v2h2v-2H6zM6,23v2h2v-2H6zM6,27v2h2v-2H6zM8,7v2H6V7H8zM8,3v2H6V3H8z" />
          <path fill="#FFFFFF" class="White" d="M23.2,13H12.85c-0.4694,0,-0.85,-0.3806,-0.85,-0.85v-4.3c0,-0.4694,0.3806,-0.85,0.85,-0.85H23.2c0.4694,0,0.8,0.3806,0.8,0.85v4.3C24,12.6194,23.6694,13,23.2,13z" />
        </g>
      </g>
      <g id="overlay">
        <path fill="#EAB765" class="Yellow" d="M26.715,22.5886h3.6451c0.1808,0,0.2619,0.2267,0.122,0.3413l-11.2663,8.8251c-0.1606,0.1317,-0.3871,-0.0492,-0.2942,-0.2349l3.608,-7.0897h-3.2753c-0.1585,0,-0.2491,-0.1809,-0.1541,-0.3078l5.128,-6.982c0.0363,-0.0486,0.0935,-0.0772,0.1541,-0.0772h7.3221c0.1747,0,0.2591,0.214,0.1313,0.3332L26.715,22.5886z" fill-rule="evenodd" />
      </g>
    </g>
  </g>
</svg>
