<?xml version="1.0" encoding="UTF-8"?>
<!DOCTYPE svg PUBLIC "-//W3C//DTD SVG 1.1//EN" "http://www.w3.org/Graphics/SVG/1.1/DTD/svg11.dtd">
<svg version="1.1" id="Layer_1" xmlns="http://www.w3.org/2000/svg" xmlns:xlink="http://www.w3.org/1999/xlink" x="0px" y="0px" width="32px" height="32px" viewBox="0 0 32 32" enable-background="new 0 0 32 32" xml:space="preserve">
  <style type="text / css">
    .Red{fill:#CD4C32;}
    .Green{fill:#4EA17E;}
    .Blue{fill:#3E79B4;}
    .Yellow{fill:#EAB765;}
    .Black{fill:#797979;}
    .Gray{fill:#B4B4B5;}
    .White{fill:#FFFFFF;}
  </style>
  <g id="icon">
    <path fill="#3E79B4" class="Blue" d="M26.5,3h-5.88c1.095,0.5,2.265,0.903,2.265,1.659c0,0.098,-0.003,0.241,-0.009,0.341H25v23H7V5h2.13c-0.004,-0.1,-0.006,-0.173,-0.006,-0.248c0,-0.836,1.371,-1.252,2.5,-1.752H5.5c-0.827,0,-1.5,0.693,-1.5,1.521v24.98c0,0.828,0.71,1.499,1.537,1.499h20.965c0.827,0,1.498,-0.671,1.498,-1.499V4.521C28,3.693,27.327,3,26.5,3z" fill-rule="evenodd" />
    <path fill="#FFFFFF" class="White" d="M7,5.018h18V28H7V5.018z" fill-rule="evenodd" />
    <path fill="#797979" class="Black" d="M18.47,2.733c0,-0.236,0,-0.401,0,-0.514c0,-0.342,-0.419,-1.219,-1.148,-1.219c-0.595,0,-1.365,0,-1.365,0s-0.77,0,-1.365,0c-0.73,0,-1.148,0.877,-1.148,1.219c0,0.112,0,0.277,0,0.514c0,0.987,-3.596,1.186,-3.596,2.276c0,0.439,0.093,0.929,0.228,0.967c0.06,0.017,5.337,0.007,5.882,0.006c0.545,0.001,5.822,0.011,5.882,-0.006c0.136,-0.038,0.228,-0.528,0.228,-0.967C22.067,3.919,18.47,3.72,18.47,2.733zM15.957,3.417c-0.425,0,-0.77,-0.334,-0.77,-0.746s0.345,-0.76,0.77,-0.76c0.425,0,0.77,0.348,0.77,0.76S16.383,3.417,15.957,3.417z" fill-rule="evenodd" />
    <path fill="#4EA17E" class="Green" d="M14.534,9.645c0,0.04,-0.015,0.077,-0.043,0.105l-3.233,3.211c-0.029,0.029,-0.065,0.041,-0.103,0.041c-0.038,0,-0.073,-0.018,-0.102,-0.048l-0.633,-0.633c-0.01,-0.01,-0.018,-0.013,-0.025,-0.025L9.078,10.97c-0.058,-0.058,-0.05,-0.145,0.008,-0.203l0.474,-0.474c0.028,-0.028,0.058,-0.051,0.098,-0.051c0.04,0,0.07,0.009,0.098,0.037l1.379,1.395l2.648,-2.631c0.058,-0.058,0.152,-0.057,0.21,0.001l0.496,0.496C14.518,9.568,14.534,9.605,14.534,9.645zM14.49,21.54l-0.496,-0.496c-0.058,-0.058,-0.152,-0.059,-0.21,-0.001l-2.648,2.631l-1.379,-1.395c-0.028,-0.028,-0.058,-0.037,-0.098,-0.037c-0.04,0,-0.07,0.023,-0.098,0.051l-0.474,0.474c-0.058,0.058,-0.066,0.144,-0.008,0.203l1.319,1.327c0.007,0.012,0.015,0.015,0.025,0.025l0.633,0.633c0.029,0.029,0.063,0.048,0.102,0.048c0.038,0,0.074,-0.013,0.103,-0.041l3.233,-3.211c0.028,-0.028,0.043,-0.065,0.043,-0.105C14.534,21.605,14.518,21.568,14.49,21.54zM14.49,15.54l-0.496,-0.496c-0.058,-0.058,-0.152,-0.059,-0.21,-0.001l-2.648,2.631l-1.379,-1.395c-0.028,-0.028,-0.058,-0.037,-0.098,-0.037c-0.04,0,-0.07,0.023,-0.098,0.051l-0.474,0.474c-0.058,0.058,-0.066,0.144,-0.008,0.203l1.319,1.327c0.007,0.012,0.015,0.015,0.025,0.025l0.633,0.633c0.029,0.029,0.063,0.048,0.102,0.048c0.038,0,0.074,-0.013,0.103,-0.041l3.233,-3.211c0.028,-0.028,0.043,-0.065,0.043,-0.105C14.534,15.605,14.518,15.568,14.49,15.54z" />
    <path fill="#B4B4B5" class="Gray" d="M22.5,24h-7c-0.276,0,-0.5,-0.224,-0.5,-0.5l0,0c0,-0.276,0.224,-0.5,0.5,-0.5h7c0.276,0,0.5,0.224,0.5,0.5l0,0C23,23.776,22.776,24,22.5,24z" />
    <path fill="#B4B4B5" class="Gray" d="M22.5,12h-7c-0.276,0,-0.5,-0.224,-0.5,-0.5v0c0,-0.276,0.224,-0.5,0.5,-0.5h7c0.276,0,0.5,0.224,0.5,0.5v0C23,11.776,22.776,12,22.5,12zM23,17.5L23,17.5c0,-0.276,-0.224,-0.5,-0.5,-0.5h-7c-0.276,0,-0.5,0.224,-0.5,0.5l0,0c0,0.276,0.224,0.5,0.5,0.5h7C22.776,18,23,17.776,23,17.5z" />
  </g>
</svg>
