<?xml version="1.0" encoding="UTF-8"?>
<!DOCTYPE svg PUBLIC "-//W3C//DTD SVG 1.1//EN" "http://www.w3.org/Graphics/SVG/1.1/DTD/svg11.dtd">
<svg version="1.1" id="Layer_1" xmlns="http://www.w3.org/2000/svg" xmlns:xlink="http://www.w3.org/1999/xlink" x="0px" y="0px" width="32px" height="32px" viewBox="0 0 32 32" enable-background="new 0 0 32 32" xml:space="preserve">
  <style type="text / css">
    .Red{fill:#CD4C32;}
    .Green{fill:#4EA17E;}
    .Blue{fill:#3E79B4;}
    .Yellow{fill:#EAB765;}
    .Black{fill:#797979;}
    .Gray{fill:#B4B4B5;}
    .White{fill:#FFFFFF;}
  </style>
  <g id="icon">
    <path fill="#3E79B4" class="Blue" d="M27.5048,4.4686C22.8736,-0.1626,15.3576,-0.1552,10.7173,4.485C6.7383,8.464,6.1693,14.556,9.007,19.132l-7.6036,7.6036c-0.5336,0.5336,-0.5336,1.3988,0,1.9324l1.9324,1.9324c0.5336,0.5336,1.3988,0.5336,1.9324,0l7.6106,-7.6106c4.5717,2.8114,10.6415,2.2345,14.6096,-1.7337C32.1286,16.6157,32.1359,9.0998,27.5048,4.4686zM25.2334,19.0012c-3.3768,3.3768,-8.8516,3.3768,-12.2284,0c-3.3768,-3.3768,-3.3768,-8.8517,0,-12.2285c3.3768,-3.3768,8.8517,-3.3768,12.2284,0C28.6102,10.1495,28.6102,15.6244,25.2334,19.0012z" fill-rule="evenodd" />
  </g>
</svg>
