<?xml version="1.0" encoding="UTF-8" standalone="no"?>
<!DOCTYPE svg PUBLIC "-//W3C//DTD SVG 1.1//EN" "http://www.w3.org/Graphics/SVG/1.1/DTD/svg11.dtd">
<svg width="32" height="32" viewBox="0 0 32 32" version="1.1" xmlns="http://www.w3.org/2000/svg" xmlns:xlink="http://www.w3.org/1999/xlink" xml:space="preserve" xmlns:serif="http://www.serif.com/" >
  <style type="text / css">
    .Red{fill:#CD4C32;}
    .Green{fill:#4EA17E;}
    .Blue{fill:#3E79B4;}
    .Yellow{fill:#EAB765;}
    .Black{fill:#797979;}
    .Gray{fill:#B4B4B5;}
    .White{fill:#FFFFFF;}
  </style>
    <g id="main">
        <g id="transformed_icon" transform="matrix(1,0,0,1,-1,-1)">
            <clipPath id="_clip1">
                <path d="M21.926,33C19.519,31.6 17.9,28.988 17.9,26C17.9,21.527 21.527,17.9 26,17.9C28.988,17.9 31.6,19.519 33,21.926L33,1L1,1L1,33L21.926,33Z"/>
            </clipPath>
            <g clip-path="url(#_clip1)">
                <path fill="#FFFFFF" class="White" d="M16.5,3.5L29.85,3.5C30.209,3.5 30.5,3.791 30.5,4.15L30.5,8.5L16.5,8.5L16.5,3.5Z" />
                <path fill="#797979" class="Black" d="M29.85,3C30.033,3 30.216,3.044 30.379,3.129C30.498,3.191 30.607,3.274 30.698,3.373C30.822,3.508 30.912,3.672 30.96,3.848C30.987,3.946 31,4.047 31,4.149L31,8.5L30.5,9L16.5,9L16,8.5L16,3.5L16.5,3C20.95,3 25.4,2.998 29.85,3ZM17,4L17,8L30,8C30,6.716 30.005,5.433 30,4.149C30,4.098 29.974,4.049 29.927,4.021C29.904,4.007 29.877,4 29.85,4C25.567,3.989 21.283,4 17,4ZM29.989,4.094C29.989,4.094 29.989,4.094 29.989,4.094ZM29.98,4.075C29.98,4.075 29.98,4.075 29.98,4.075Z" />
                <path fill="#FFFFFF" class="White" d="M30,29.5L2,29.5C1.724,29.5 1.5,29.276 1.5,29L1.5,6.5L16.5,6.5L16.5,7.988C16.5,8.271 16.729,8.5 17.013,8.5L30.5,8.5L30.5,29C30.5,29.276 30.276,29.5 30,29.5Z" />
                <path fill="#797979" class="Black" d="M17,6.5C17,6.996 17,7.491 17,7.987C17,7.994 17.005,8 17.013,8L30.5,8L31,8.5C31,15.334 31.008,22.168 31,29.002C31,29.046 30.997,29.089 30.991,29.133L30.991,29.133C30.98,29.214 30.96,29.292 30.929,29.371C30.903,29.435 30.871,29.496 30.833,29.553C30.81,29.588 30.785,29.621 30.758,29.653C30.748,29.664 30.737,29.676 30.727,29.687L30.727,29.687C30.715,29.699 30.703,29.711 30.691,29.723L30.69,29.723C30.633,29.778 30.568,29.827 30.504,29.864C30.442,29.9 30.377,29.929 30.311,29.951C30.246,29.972 30.18,29.986 30.109,29.994C30.074,29.998 30.038,30 30.002,30C20.667,30.011 11.333,30.011 1.998,30C1.916,30 1.834,29.99 1.755,29.97C1.644,29.942 1.536,29.893 1.44,29.829C1.286,29.725 1.164,29.579 1.088,29.41C1.032,29.286 1.002,29.152 1,29.016C1,29.011 1,29.006 1,29L1,29L1,6.5L1.5,6L16.5,6C16.667,6.167 16.833,6.333 17,6.5ZM30,29.001C30,29.001 30,29.002 30,29.001C30,29.001 30,29.001 30,29.001ZM30,29.001C30,29 30,29.001 30,29.001ZM29.999,29L29.999,29.001C29.999,29.001 30,29 29.999,29ZM30,29.001C30,29.001 30,29.001 30,29.001ZM30,29.001L30,29.001C30,29.001 30,29.001 30,29.001ZM29.999,29C29.999,29 29.998,29.001 29.999,29C29.999,29 29.999,29 29.999,29ZM29.999,29.001C29.999,29.001 29.999,29.001 29.999,29.001ZM29.999,29C29.999,29 29.998,29.001 29.999,29C29.999,29 29.999,29 29.999,29ZM30,29C30,29 29.999,29.001 30,29C30,29 30,29 30,29ZM30,29L30,29.001C30,29.001 30,29 30,29ZM29.999,29.001C29.999,29.001 29.999,29.001 29.999,29.001ZM2.001,29.001C2.001,29.001 2,29 2.001,29.001ZM29.999,29C29.999,29 29.998,29.001 29.999,29C29.999,29 29.999,29 29.999,29ZM29.999,29.001C29.999,29.001 29.999,29.001 29.999,29.001ZM30,29.001C30,29.001 30,29 30,29.001ZM29.999,29C29.999,29 29.999,29 29.999,29ZM2.001,29.001C2.001,29.001 2,29 2.001,29.001ZM29.999,29C29.999,29 29.999,29 29.999,29ZM30,29.001C30,29.001 30,29.001 30,29.001ZM2.001,29.001C2.001,29.001 2,29 2.001,29.001ZM30,29C29.999,29 29.998,29.001 30,29C30,29 30,29 30,29ZM29.999,29C29.999,29 29.999,29 29.999,29ZM2.001,29C2.001,29 2,29 2.001,29ZM30,29C29.999,29 30,29 30,29ZM30,29L29.999,29C29.999,29 30,29 30,29ZM2.001,29L2,29C2,29 2,29 2.001,29ZM30,29L29.999,29C29.999,29 30,29 30,29ZM30,29C30,29 30,29 30,29ZM29.999,29C29.999,29 29.999,29 29.999,29ZM30,29C30,29 30,29 30,29ZM30,29L30,29ZM30,29C30,29 30,29 30,29ZM30,29C30,29 30,29 30,29ZM30,29L30,29C30,29 30,29 30,29ZM2,29L2.001,29C2.001,29 2,29 2,29ZM30,29C29.999,29.001 30,29 30,29ZM30,29L30,29ZM29.999,29C29.999,29 30,29 29.999,29ZM2,29L2.001,29C2.001,29 2,29 2,29ZM30,29C30,29 30,29 30,29ZM30,29C30,29 30,29 30,29ZM30,29L30,29C30,29 30,29 30,29ZM2.001,29C2.001,29 2,29 2.001,29ZM30,29L30,29ZM30,29C30,29 30,29 30,29ZM30,29C30,29 30,29 30,29ZM30,29C30,29 30,29 30,29ZM30,29L30,29C30,29 30,29 30,29ZM2,29C2,29 2,29 2,29ZM30,29L30,29ZM29.999,29C29.999,29 29.999,29 29.999,29ZM30,29L30,29ZM30,29C30,29 30,29 30,29ZM30,29C30,29 30,29 30,29ZM29.999,29C30,29 30,29 29.999,29ZM30,29C30,29 30,29 30,29ZM30,29C30,29 30,29 30,29ZM30,29C30,29 30,29 30,29ZM2,29C2,29 2,29 2,29ZM30,29C30,29 30,29 30,29ZM30,29C30,29 30,29 30,29ZM30,29C30,29 30,29 30,29ZM30,29C30,29 30,29 30,29ZM2,29C2,29 2,29 2,29ZM29.999,29C29.999,29 30,29 29.999,29ZM30,29C30,29 30,29 30,29ZM2,29L2.001,29C2,29 2,29 2,29ZM30,29C30,29 30,29 30,29ZM30,29C30,29 30,29 30,29ZM30,29C30,29 30,29 30,29ZM2,29C2,29 2,29 2,29ZM30,29L30,29ZM30,29C30,29 30,29 30,29ZM30,29C30,29 30,29 30,29ZM30,29C30,29 30,29 30,29ZM30,29C30,29 30,29 30,29ZM30,29C30,29 30,29 30,29ZM30,29C30,29 30,29 30,29ZM30,29C30,29 30,29 30,29ZM2,29C2,29 2,29 2,29ZM30,29C30,29 30,29 30,29ZM2,29C2,29 2,29 2,29ZM2,29C2,29 2,29 2,29ZM2,29C2,29 2,29 2,29ZM30,29C30,29 30,29 30,29ZM30,29L30,29ZM30,29C30,29 30,29 30,29ZM30,29C30,29 30,29 30,29ZM30,29C30,29 30,29 30,29ZM30,29C30,29 30,29 30,29ZM30,29L30,29ZM2,29C2,29 2,29 2,29ZM30,29C30,29 30,29 30,29ZM30,29C30,29 30,29 30,29ZM2,29C2,29 2,29 2,29ZM30,29C30,29 30,29 30,29ZM30,29C30,29 30,29 30,29ZM30,29C30,29 30,29 30,29ZM2,29C2,29 2,29 2,29ZM30,29C30,29 30,29 30,29ZM30,29C30,29 30,29 30,29ZM30,29C30,29 30,29 30,29ZM30,29C30,29 30,29 30,29ZM30,29C30,29 30,29 30,29ZM2,29C2,29 2,29 2,29ZM30,29C30,29 30,29 30,29ZM2,29C2,29 2,29 2,29ZM30,29C30,29 30,29 30,29ZM30,29C30,29 30,29 30,29ZM30,29C30,29 30,29 30,29ZM2,29C2,29 2,29 2,29ZM2,29C2,29 2,29 2,29ZM30,29C30,29 30,29 30,29ZM2,29C2,29 2,29 2,29ZM30,29C30,29 30,29 30,29ZM2,29C2,29 2,29 2,29ZM30,29C30,29 30,29 30,29ZM2,29C2,29 2,29 2,29ZM2,29C2,29 2,29 2,29ZM30,29C30,29 30,29 30,29ZM2,29C2,29 2,29 2,29ZM30,29C30,29 30,29 30,29ZM30,29C30,29 30,29 30,29ZM2,29C2,29 2,29 2,29ZM2,29C2,29 2,29 2,29ZM30,29C30,29 30,29 30,29ZM30,29C30,29 30,29 30,29ZM30,29C30,29 30,29 30,29ZM30,29C30,29 30,29 30,29ZM2,29C2,29 2,29 2,29ZM30,29C30,29 30,29 30,29ZM2,29C2,29 2,29 2,29ZM2,29C2,29 2,29 2,29ZM30,29C30,29 30,29 30,29ZM30,29L30,29ZM30,29C30,29 30,29 30,29ZM30,29C30,29 30,29 30,29ZM30,29C30,29 30,29 30,29ZM2,29C2,29 2,29 2,29ZM30,29C30,29 30,29 30,29ZM30,29C30,29 30,29 30,29ZM30,29C30,29 30,29 30,29ZM30,29C30,29 30,29 30,29ZM30,29C30,29 30,29 30,29ZM30,29C30,29 30,29 30,29ZM2,29C2,29 2,29 2,29ZM30,29M30,29C30,29 30,29 30,29ZM30,29M30,29C30,29 30,29 30,29ZM30,29C30,29 30,29 30,29ZM30,29C30,29 30,29 30,29ZM2,29C2,29 2,29 2,29ZM30,29C30,29 30,29 30,29ZM30,29C30,29 30,29 30,29ZM30,29C30,29 30,29 30,29ZM30,29C30,29 30,29 30,29ZM2,29C2,29 2,29 2,29ZM30,29C30,29 30,29 30,29ZM2,29C2,29 2,29 2,29ZM2,29C2,29 2,29 2,29ZM2,29C2,29 2,29 2,29ZM30,29C30,29 30,29 30,29ZM30,29C30,29 30,29 30,29ZM2,29C2,29 2,29 2,29ZM2,29C2,29 2,29 2,29ZM2,29C2,29 2,29 2,29ZM2,29C2,29 2,29 2,29ZM2,29C2,29 2,29 2,29ZM30,29C30,29 30,29 30,29ZM30,29C30,29 30,29 30,29ZM30,29C30,29 30,29 30,29ZM30,29C30,29 30,29 30,29ZM30,29M30,29C30,29 30,29 30,29ZM2,29C2,29 2,29 2,29ZM2,29C2,29 2,29 2,29ZM2,29C2,29 2,29 2,29ZM30,29C30,29 30,29 30,29ZM30,29C30,29 30,29 30,29ZM2,29C2,29 2,29 2,29ZM30,29C30,29 30,29 30,29ZM30,29C30,29 30,29 30,29ZM2,29C2,29 2,29 2,29ZM2,29C2,29 2,29 2,29ZM30,29L30,29ZM30,29C30,29 30,29 30,29ZM30,29C30,29 30,29 30,29ZM2,29C2,29 2,29 2,29ZM30,29C30,29 30,29 30,29ZM30,29C30,29 30,29 30,29ZM2,29C2,29 2,29 2,29ZM2,29C2,29 2,29 2,29ZM2,29C2,29 2,29 2,29ZM30,29C30,29 30,29 30,29ZM2,29C2,29 2,29 2,29ZM2,29C2,29 2,29 2,29ZM2,29L2,29C2,29 2,29 2,29ZM30,29C30,29 30,29 30,29ZM30,29C30,29 30,29 30,29ZM30,29C30,29 30,29 30,29ZM2,29C2,29 2,29 2,29ZM2,29C2,29 2,29 2,29ZM30,29C30,29 30,29 30,29ZM30,29C30,29 30,29 30,29ZM2,29C2,29 2,29 2,29ZM2,29C2,29 2,29 2,29ZM30,29C30,29 30,29 30,29ZM30,29C30,29 30,29 30,29ZM2,29C2,29 2,29 2,29ZM30,29C30,29 30,29 30,29ZM2,29C2,29 2,29 2,29ZM30,29C30,29 30,29 30,29ZM30,29C30,29 30,29 30,29ZM30,29C30,29 30,29 30,29ZM2,29C2,29 2,29 2,29ZM2,29C2,29 2,29 2,29ZM30,29C30,29 30,29 30,29ZM2,29C2,29 2,29 2,29ZM30,29C30,29 30,29 30,29ZM2,29C2,29 2,29 2,29ZM30,29C30,29 30,29 30,29ZM30,29C30,29 30,29 30,29ZM30,29C30,29 30,29 30,29ZM2,29C2,29 2,29 2,29ZM2,29C2,29 2,29 2,29ZM30,29C30,29 30,29 30,29ZM2,29C2,29 2,29 2,29ZM30,29C30,29 30,29 30,29ZM30,29C30,29 30,29 30,29ZM2,29C2,29 2,29 2,29ZM30,29C30,29 30,29 30,29ZM30,29C30,29 30,29 30,29ZM30,29C30,29 30,29 30,29ZM30,29C30,29 30,29 30,29ZM2,29C2,29 2,29 2,29ZM30,29C30,29 30,29 30,29ZM30,29C30,29 30,29 30,29ZM30,29M2,29C2,29 2,29 2,29ZM30,29C30,29 30,29 30,29ZM30,29M30,29C30,29 30,29 30,29ZM30,29C30,29 30,29 30,29ZM30,29C30,29 30,29 30,29ZM30,29C30,29 30,29 30,29ZM30,29C30,29 30,29 30,29ZM2,29C2,29 2,29 2,29ZM30,29L30,29ZM2,29C2,29 2,29 2,29ZM30,29C30,29 30,29 30,29ZM30,29C30,29 30,29 30,29ZM30,29C30,29 30,29 30,29ZM30,29C30,29 30,29 30,29ZM2,29C2,29 2,29 2,29ZM2,29C2,29 2,29 2,29ZM30,29C30,29 30,29 30,29ZM30,29C30,29 30,29 30,29ZM30,29L30,29ZM30,29C30,29 30,29 30,29ZM30,29C30,29 30,29 30,29ZM2,29L2,29C2,29 2,29 2,29ZM30,29M30,29C30,29 30,29 30,29ZM2,29C2,29 2,29 2,29ZM30,29C30,29 30,29 30,29ZM2,29C2,29 2,29 2,29ZM30,29C30,29 30,29 30,29ZM2,29C2,29 2,29 2,29ZM30,29C30,29 30,29 30,29ZM2,29C2,29 2,29 2,29ZM30,29C30,29 30,29 30,29ZM2,29C2,29 2,29 2,29ZM2,29C2,29 2,29 2,29ZM2,29L2,29C2,29 2,29 2,29ZM30,29C30,29 30,29 30,29ZM2,29C2,29 2,29 2,29ZM30,29C30,29 30,29 30,29ZM30,29C30,29 30,29 30,29ZM2,29C2,29 2,29 2,29ZM2,29C2,29 2,29 2,29ZM2,29C2,29 2,29 2,29ZM30,29C30,29 30,29 30,29ZM30,29C30,29 30,29 30,29ZM2,29C2,29 2,29 2,29ZM30,29L30,29ZM30,29C30,29 30,29 30,29ZM30,29C30,29 30,29 30,29ZM30,29C30,29 30,29 30,29ZM2,29C2,29 2,29 2,29ZM30,29C30,29 30,29 30,29ZM2,29C2,29 2,29 2,29ZM30,29C30,29 30,29 30,29ZM30,29C30,29 30,29 30,29ZM30,29M30,29C30,29 30,29 30,29ZM30,29C30,29 30,29 30,29ZM2,29C2,29 2,29 2,29ZM30,29C30,29 30,29 30,29ZM2,29C2,29 2,29 2,29ZM30,29C30,29 30,29 30,29ZM30,29C30,29 30,29 30,29ZM2,29C2,29 2,29 2,29ZM30,29C30,29 30,29 30,29ZM30,29C30,29 30,29 30,29ZM30,29C30,29 30,29 30,29ZM2,29C2,29 2,29 2,29ZM30,29C30,29 30,29 30,29ZM2,29C2,29 2,29 2,29ZM30,29C30,29 30,29 30,29ZM30,29C30,29 30,29 30,29ZM30,29M30,29C30,29 30,29 30,29ZM2,29C2,29 2,29 2,29ZM30,29C30,29 30,29 30,29ZM2,29C2,29 2,29 2,29ZM30,29C30,29 30,29 30,29ZM30,29C30,29 30,29 30,29ZM2,29C2,29 2,29 2,29ZM2,29C2,29 2,29 2,29ZM30,29C30,29 30,29 30,29ZM30,29C30,29 30,29 30,29ZM2,29C2,29 2,29 2,29ZM30,29L30,29ZM30,29L30,29ZM30,29C30,29 30,29 30,29ZM30,29C30,29 30,29 30,29ZM2,29C2,29 2,29 2,29ZM2,29C2,29 2,29 2,29ZM30,29C30,29 30,29 30,29ZM30,29C30,29 30,29 30,29ZM30,29C30,29 30,29 30,29ZM2,29C2,29 2,29 2,29ZM2,29C2,29 2,29 2,29ZM30,29C30,29 30,29 30,29ZM30,29C30,29 30,29 30,29ZM30,29C30,29 30,29 30,29ZM30,29C30,29 30,29 30,29ZM2,29C2,29 2,29 2,29ZM30,29C30,29 30,29 30,29ZM2,29C2,29 2,29 2,29ZM30,29C30,29 30,29 30,29ZM30,29C30,29 30,29 30,29ZM30,29C30,29 30,29 30,29ZM30,29C30,29 30,29 30,29ZM30,29C30,29 30,29 30,29ZM2,29C2,29 2,29 2,29ZM30,29C30,29 30,29 30,29ZM30,29C30,29 30,29 30,29ZM2,29C2,29 2,29 2,29ZM30,29C30,29 30,29 30,29ZM30,29C30,29 30,29 30,29ZM30,29C30,29 30,29 30,29ZM30,29C30,29 30,29 30,29ZM2,29C2,29 2,29 2,29ZM30,29C30,29 30,29 30,29ZM2,29C2,29 2,29 2,29ZM30,29M30,29C30,29 30,29 30,29ZM30,29C30,29 30,29 30,29ZM2,29C2,29 2,29 2,29ZM30,29C30,29 30,29 30,29ZM2,29C2,29 2,29 2,29ZM30,29C30,29 30,29 30,29ZM30,29C30,29 30,29 30,29ZM30,29C30,29 30,29 30,29ZM30,29C30,29 30,29 30,29ZM30,29C30,29 30,29 30,29ZM30,29C30,29 30,29 30,29ZM30,29C30,29 30,29 30,29ZM30,29C30,29 30,29 30,29ZM30,29C30,29 30,29 30,29ZM30,29C30,29 30,29 30,29ZM30,29C30,29 30,29 30,29ZM30,29M2,29L2,29C2,29 2,29 2,29ZM2,29L2,29C2,29 2,29 2,29ZM2,29C2,29 2,29 2,29ZM2,29L2,29C2,29 2,29 2,29ZM2,7C2,14.333 1.994,21.667 2,29L2,29L30,29C30,29 30,29 30,29L30,9C25.67,9 21.34,9.006 17.01,9C16.883,9 16.759,8.976 16.643,8.93C16.507,8.877 16.383,8.794 16.281,8.687C16.205,8.608 16.142,8.516 16.095,8.417C16.036,8.289 16.003,8.146 16,8.007C16,8.001 16,7.995 16,7.988L16,7.988L16,7C11.333,7 6.667,7 2,7ZM30,29C30,29 30,29 30,29ZM30,29L30,29ZM30,29C30,29 30,29 30,29ZM30,29C30,29 30,29 30,29ZM30,29C30,29 30,29 30,29ZM30,29C30,29 30,29 30,29ZM30,29C30,29 30,29 30,29ZM30,29C30,29 30,29 30,29ZM30,29C30,29 30,29 30,29ZM30,29C30,29 30,29 30,29ZM30,29C30,29 30,29 30,29ZM30,29C30,29 30,29 30,29ZM2,29C2,29 2,29 2,29ZM30,29C30,29 30,29 30,29ZM30,29C30,29 30,29 30,29ZM2,29C2,29 2,29 2,29ZM30,29C30,29 30,29 30,29ZM30,29C30,29 30,29 30,29ZM30,29C30,29 30,29 30,29ZM30,29C30,29 30,29 30,29ZM30,29C30,29 30,29 30,29ZM2,29C2,29 2,29 2,29ZM30,29C30,29 30,29 30,29ZM30,29C30,29 30,29 30,29ZM30,29C30,29 30,29 30,29ZM30,29C30,29 30,29 30,29ZM30,29C30,29 30,29 30,29ZM30,29C30,29 30,29 30,29ZM30,29M30,29C30,29 30,29 30,29ZM30.001,29C30.001,29 30.001,29 30.001,29ZM30,29C30,29 30,29 30,29ZM30,29C30,29 30,29 30,29ZM30,29C30,29 30.001,29 30,29ZM30,29C30,29 30,29 30,29ZM30,29C30,29 30.001,29 30,29ZM2,29C2,29 2,29 2,29ZM30,29C30,29 30,29 30,29ZM30,29C30,29 30,29 30,29ZM30,29C30,29 30,29 30,29ZM30,29C30,29 30,29 30,29ZM30,29C30,29 30,29 30,29ZM30,29C30,29 30,29 30,29ZM30,29C30,29 30,29 30,29ZM30,29C30,29 30,29 30,29ZM30.001,29C30.001,29 30.001,29 30.001,29ZM1.999,29C1.999,29 1.999,29 1.999,29ZM2,29C2,29 2,29 2,29ZM1.999,29C1.999,29 1.999,29 1.999,29ZM30,29C30,29 30,29 30,29ZM30,29C30,29 30,29 30,29ZM30.001,29C30.001,29 30.001,29 30.001,29ZM30,29C30,29 30,29 30,29ZM30,29L30,29ZM30,29L30,29ZM30.001,29C30.001,29 30.001,29 30.001,29ZM30,29C30,29 30,29 30,29ZM30,29C30,29 30,29 30,29ZM30,29C30,29 30,29 30,29ZM30,29C30,29 30,29 30,29ZM30,29C30,29 30,29 30,29ZM30,29C30,29 30,29 30,29ZM30,29C30,29 30,29 30,29ZM30,29C30,29 30,29 30,29ZM30,29C30,29 30,29 30,29ZM30,29C30,29 30,29 30,29ZM30,29C30,29 30,29 30,29ZM30.001,29C30.001,29 30.001,29 30.001,29ZM30,29C30,29 30,29 30,29ZM30,29C30,29 30,29 30,29ZM30,29M30,29L30,29ZM30,29C30,29 30,29 30,29ZM30,29C30,29 30,29 30,29ZM30,29C30,29 30,29 30,29ZM30,29M30,29M30,29C30,29 30,29 30,29ZM30,29C30,29 30,28.999 30,29ZM30,29C30,29 30,29 30,29ZM30,29C30,29 30,29 30,29ZM30,29C30,29 30,29 30,29ZM30,29C30,29 30,29 30,29ZM30,29C30,29 30,29 30,29ZM30,29C30,29 30,29 30,29ZM30,29C30,29 30,29 30,29ZM30,29C30,29 30,29 30,29ZM30,29C30,29 30,29 30,29ZM30,29C30,29 30.001,29 30,29ZM30,29C30,29 30,29 30,29ZM30,29C30,29 30,29 30,29ZM30,29C30,29 30,29 30,29ZM30,29C30,29 30,29 30,29ZM30,29C30,29 30,29 30,29ZM30,29C30,29 30,29 30,29ZM30,29C30,29 30,29 30,29ZM30,29C30,29 30,29 30,29ZM30,29L30,29ZM30,29C30,29 30,29 30,29ZM30,29C30,29 30,29 30,29ZM30,29C30,29 30,29 30,29ZM30,29C30,29 30,29 30,29ZM30,29C30,29 30,29 30,29ZM30,29C30,29 30,29 30,29ZM30,29L30,29ZM30,29C30,29 30,29 30,29ZM2,29C2,29 2,29 2,29ZM30,29C30,29 30,29 30,29ZM30,29C30,29 30,29 30,29ZM30,29C30,29 30,29 30,29ZM30,29C30,29 30,29 30,29ZM30,29C30,29 30,29 30,29ZM30,29C30,29 30,29 30,29ZM30,29C30,29 30,29 30,29ZM30,29C30,29 30,29 30,29ZM30,29C30,29 30,29 30,29ZM30,29C30,29 30,29 30,29ZM30,29C30,29 30,29 30,29ZM30,29C30,29 30,29 30,29ZM30,29L30,29ZM30,29C30,29 30,29 30,29ZM30,29C30,29 30,29 30,29ZM30,29C30,29 30,29 30,29ZM30,29L30,29ZM30,29C30,29 30,29 30,29ZM2,29C2,29 2,29 2,29ZM30,29C30,29 30,29 30,29ZM30,29C30,29 30,29 30,29ZM30,29C30,29 30,29 30,29ZM30,29C30,29 30.001,28.999 30,29ZM30,29C30,29 30,29 30,29ZM30,29C30,29 30,29 30,29ZM30,29C30,29 30,29 30,29ZM30,29C30,29 30,29 30,29ZM30,29C30,29 30,29 30,29ZM30,29C30,29 30,29 30,29ZM30,29C30,29 30,29 30,29ZM30,29C30,29 30,29 30,29ZM30,29C30,29 30,29 30,29ZM30,29C30,29 30,29 30,29ZM30,29C30,29 30,29 30,29ZM30,29C30,29 30,28.999 30,29ZM30,29L30,29ZM30,29C30,29 30,29 30,29ZM2,29C2,29 2,29 2,29ZM30,29C30,29 30,29 30,29ZM30,29C30,29 30,29 30,29ZM30,29C30,29 30,29 30,29ZM30,29C30,29 30,29 30,29ZM30,29C30,29 30,29 30,29ZM30,29C30,29 30,29 30,29ZM30,29C30,29 30,29 30,29ZM30,29C30,29 30,29 30,29ZM30,29C30,29 30,29 30,29ZM30,29C30,29 30,29 30,29ZM30,29C30,29 30,29 30,29ZM30,29C30,29 30,29 30,29ZM30,29C30,29 30,29 30,29ZM30,29C30,29 30,29 30,29ZM30,29C30,29 30,29 30,29ZM30,29C30,29 30.001,28.999 30,29ZM30,29C30,29 30,29 30,29ZM30,29C30,29 30,29 30,29ZM30,29C30,29 30,29 30,29ZM30,29C30,29 30,29 30,29ZM30,29C30,29 30,29 30,29ZM30,29C30,29 30,29 30,29ZM30,29C30,29 30,29 30,29ZM30,29C30,29 30,29 30,29ZM2,29C2,29 2,29 2,29L2,29C2,29 2,29 2,29ZM30,29L30,29ZM30,29C30,29 30,29 30,29ZM30,29C30,29 30,29 30,29ZM30,29C30,29 30,29 30,29ZM30,29C30,29 30,29 30,29ZM30,29C30,29 30,29 30,29ZM30,29L30,29ZM30,29M30,29C30,29 30,29 30,29ZM30,29C30,29 30,29 30,29ZM30,29L30,29ZM30,29C30,29 30,29 30,29ZM30,29M30,29C30,29 30,29 30,29ZM30,29C30,29 30,29 30,29ZM30,29C30,29 30,29 30,29ZM30,29C30,29 30,29 30,29ZM30,29C30,29 30,29 30,29ZM30,29C30,29 30,29 30,29ZM30,29C30,29 30,29 30,29ZM30,29C30,29 30,29 30,29ZM30,29C30,29 30,29 30,29ZM30,29C30,29 30,29 30,29ZM30,29C30,29 30,29 30,29ZM30,29C30,29 30,29 30,29ZM30,29C30,29 30,29 30,29ZM30,29C30,29 30,29 30,29ZM30,29C30,29 30,29 30,29ZM30,29C30,29 30,29 30,29ZM30,29C30,29 30,29 30,29ZM30,29C30,29 30.001,28.999 30,29ZM30,29C30,29 30,29 30,29ZM30,29C30,29 30,29 30,29ZM30,29C30,29 30,29 30,29ZM30,29C30,29 30,29 30,29ZM30,29C30,29 30,29 30,29ZM30,29C30,29 30,29 30,29ZM30,29C30,29 30,29 30,29ZM30,29C30,29 30,29 30,29ZM30,29M30,29C30,29 30,29 30,29ZM30,29C30,29 30,29 30,29ZM30,29C30,29 30,29 30,29ZM30,29C30,29 30,29 30,29ZM30,29L30,29ZM30,29C30,29 30,29 30,29ZM30,29C30,29 30,29 30,29ZM30,29C30,29 30,29 30,29ZM30,29C30,29 30,29 30,29ZM30,29C30,29 30,29 30,29ZM30,29C30,29 30,29 30,29ZM30,29C30,29 30,28.999 30,29ZM30,29C30,29 30.001,28.999 30,29ZM30,29C30,29 30,29 30,29ZM30,29C30,29 30,29 30,29ZM30,29C30,29 30,29 30,29ZM30,29C30,29 30,29 30,29ZM30,29C30,29 30.001,28.999 30,29ZM30,29C30,29 30,29 30,29ZM30,29C30,29 30.001,28.999 30,29ZM2,29C2,29 1.999,28.999 2,29ZM30,29C30,29 30,28.999 30,29ZM2,29C2,29 2,29 2,29ZM30,29C30,29 30,29 30,29ZM30,28.999C30,28.999 30.001,28.999 30.001,28.999C30.001,28.999 30.001,28.999 30,28.999ZM2,29C2,29 2,28.999 2,29ZM2,29C2,29 2,29 2,29ZM30,29C30,29 30.001,28.999 30,29ZM30,29C30,29 30,28.999 30,29ZM30,29C30,29 30.001,28.999 30,29ZM30,28.999C30,28.999 30.001,28.999 30,28.999ZM30,28.999C30,28.999 30.001,28.999 30,28.999ZM30,28.999C30,28.999 30.001,28.998 30,28.999ZM30,28.999C30,28.999 30.001,28.998 30,28.999ZM30,28.999C30,28.999 30.001,28.999 30,28.999ZM30,28.999C30,28.999 30,28.999 30,28.999ZM30.001,28.999C30.001,28.999 30.001,28.999 30.001,28.999ZM30,28.999C30,28.999 30.001,28.999 30,28.999ZM30,28.999C30,28.999 30.001,28.999 30,28.999ZM30.001,28.999C30.001,28.999 30.001,28.999 30.001,28.999ZM30.001,28.999C30.001,28.999 30.001,28.999 30.001,28.999Z" />
                <path fill="#3E79B4" class="Blue" d="M1,8L1,3.2C1,2.537 1.537,2 2.2,2L15.8,2C16.463,2 17,2.537 17,3.2L17,8L1,8Z" />
            </g>
        </g>
        <g id="overlay">
            <path fill="#FFFFFF" class="White" d="M25.035,18.835C28.436,18.835 31.194,21.593 31.194,24.995C31.194,28.396 28.436,31.154 25.035,31.154C21.633,31.154 18.875,28.396 18.875,24.995C18.876,21.593 21.633,18.835 25.035,18.835Z" />
            <path fill="#797979" class="Black" d="M25.007,18.014C21.145,18.014 18.014,21.145 18.014,25.007C18.014,28.869 21.145,32 25.007,32C28.869,32 32,28.869 32,25.007C32,21.145 28.869,18.014 25.007,18.014ZM25.007,30.932C21.735,30.932 19.083,28.279 19.083,25.007C19.083,21.735 21.735,19.083 25.007,19.083C28.279,19.083 30.932,21.735 30.932,25.007C30.932,28.279 28.279,30.932 25.007,30.932Z" />
            <path fill="#3E79B4" class="Blue" d="M23.862,25.017C23.859,25.749 23.926,26.083 24.528,26.086C25.129,26.089 25.138,25.679 25.141,24.947C25.143,24.216 24.94,19.6 24.55,19.598C24.16,19.596 23.864,24.286 23.862,25.017Z" />
            <path fill="#3E79B4" class="Blue" d="M25.351,25.606C24.833,25.085 24.568,24.919 24.141,25.343C23.715,25.767 23.829,25.922 24.346,26.444C24.863,26.965 27.906,29.552 28.183,29.278C28.459,29.003 25.868,26.128 25.351,25.606Z" />
        </g>
    </g>
</svg>
