<?xml version="1.0" encoding="UTF-8" standalone="no"?>
<!DOCTYPE svg PUBLIC "-//W3C//DTD SVG 1.1//EN" "http://www.w3.org/Graphics/SVG/1.1/DTD/svg11.dtd">
<svg width="32" height="32" viewBox="0 0 32 32" version="1.1" xmlns="http://www.w3.org/2000/svg" xmlns:xlink="http://www.w3.org/1999/xlink" xml:space="preserve" xmlns:serif="http://www.serif.com/" style="fill-rule:evenodd;clip-rule:evenodd;stroke-linejoin:round;stroke-miterlimit:1.41421;">
  <style type="text / css">
    .Red{fill:#CD4C32;}
    .Green{fill:#4EA17E;}
    .Blue{fill:#3E79B4;}
    .Yellow{fill:#EAB765;}
    .Black{fill:#797979;}
    .Gray{fill:#B4B4B5;}
    .White{fill:#FFFFFF;}
  </style>
    <g id="Bottom" transform="matrix(0.666667,0,0,0.666667,0,0)">
        <path fill="#797979" class="Black" d="M21.743,20.025L4.905,36.863L4.905,40.576L5.436,41.106L11.137,43.095L13.258,40.973L13.523,37.526L14.054,36.996L17.501,36.731L17.633,33.416L18.164,32.886L21.743,32.488L22.009,29.041L22.539,28.511L25.853,28.378L27.975,26.257L23.865,22.147L7.955,38.057L6.762,36.863L22.671,20.953L21.743,20.025Z" />
    </g>
    <g id="Top" transform="matrix(0.666667,0,0,0.666667,0,0)">
        <path fill="#3E79B4" class="Blue" d="M33.543,4.248L44.15,14.855C45.175,15.88 45.175,17.542 44.15,18.567L35.399,27.317C34.374,28.342 32.712,28.342 31.687,27.317L20.683,16.313C19.658,15.288 19.658,13.626 20.683,12.601L29.035,4.248C30.28,3.003 32.298,3.003 33.543,4.248ZM32.483,9.021L38.979,15.517C39.565,16.103 39.565,17.053 38.979,17.639L36.593,20.025C36.007,20.611 35.057,20.611 34.471,20.025L27.975,13.529C27.389,12.943 27.389,11.993 27.975,11.407L30.361,9.021C30.947,8.435 31.897,8.435 32.483,9.021Z" />
    </g>
</svg>
