<?xml version="1.0" encoding="UTF-8"?>
<!DOCTYPE svg PUBLIC "-//W3C//DTD SVG 1.1//EN" "http://www.w3.org/Graphics/SVG/1.1/DTD/svg11.dtd">
<svg version="1.1" id="Layer_1" xmlns="http://www.w3.org/2000/svg" xmlns:xlink="http://www.w3.org/1999/xlink" x="0px" y="0px" width="32px" height="32px" viewBox="0 0 32 32" enable-background="new 0 0 32 32" xml:space="preserve">
  <style type="text / css">
    .Red{fill:#CD4C32;}
    .Green{fill:#4EA17E;}
    .Blue{fill:#3E79B4;}
    .Yellow{fill:#EAB765;}
    .Black{fill:#797979;}
    .Gray{fill:#B4B4B5;}
    .White{fill:#FFFFFF;}
  </style>
  <g id="icon">
    <path fill="#EAB765" class="Yellow" d="M30.884,29.258L18.232,17.467l-4.352,4.337L16.1,24h-5.341l-3.951,2.071c-0.164,0.086,-0.348,0.131,-0.533,0.131c-0.306,0,-0.594,-0.119,-0.81,-0.335l-0.227,-0.226c-0.359,-0.358,-0.441,-0.9,-0.205,-1.348L7,20.566V15l2.292,2.267l4.216,-4.202L1.719,2.101C1.445,1.869,1,2.063,1,2.422v27.157c0,0.233,0.238,0.421,0.47,0.421h29.14C31.003,30,31.182,29.512,30.884,29.258z" fill-rule="evenodd" />
    <path fill="#797979" class="Black" d="M4,29H3v-3h1V29zM6,27.033H5V29h1V27.033zM8,27.033H7V29h1V27.033zM10,27.033H9V29h1V27.033zM12,27.033h-1V29h1V27.033zM14,26h-1v3h1V26zM24,26h-1v3h1V26zM16,27.033h-1V29h1V27.033zM18,27.033h-1V29h1V27.033zM20,27.033h-1V29h1V27.033zM22,27.033h-1V29h1V27.033z" fill-rule="evenodd" />
    <path fill="#3E79B4" class="Blue" d="M9.779,18.193l14.709,-14.66c0.058,-0.057,0.151,-0.057,0.209,0l2.945,2.935c0.058,0.057,0.058,0.151,0,0.208l-14.709,14.66c-0.058,0.057,-0.151,0.057,-0.209,0l-2.945,-2.935C9.722,18.344,9.722,18.251,9.779,18.193zM26.638,1.391c0.524,-0.522,1.056,-0.522,1.58,0l1.469,1.464c0.494,0.492,0.494,1.29,0,1.783l-1.09,1.087c-0.057,0.057,-0.151,0.057,-0.208,0l-2.966,-2.93c-0.058,-0.058,-0.058,-0.152,0,-0.209L26.638,1.391zM5.917,24.761l2.933,-5.557c0.046,-0.088,0.165,-0.106,0.235,-0.036l2.87,2.861c0.07,0.07,0.052,0.188,-0.036,0.234l-5.576,2.923c-0.057,0.03,-0.127,0.019,-0.173,-0.026l-0.227,-0.226C5.898,24.888,5.887,24.818,5.917,24.761z" fill-rule="evenodd" />
  </g>
</svg>
