<?xml version="1.0" encoding="UTF-8"?>
<!DOCTYPE svg PUBLIC "-//W3C//DTD SVG 1.1//EN" "http://www.w3.org/Graphics/SVG/1.1/DTD/svg11.dtd">
<svg version="1.1" id="Layer_1" xmlns="http://www.w3.org/2000/svg" xmlns:xlink="http://www.w3.org/1999/xlink" x="0px" y="0px" width="32px" height="32px" viewBox="0 0 32 32" enable-background="new 0 0 32 32" xml:space="preserve">
  <style type="text / css">
    .Red{fill:#CD4C32;}
    .Green{fill:#4EA17E;}
    .Blue{fill:#3E79B4;}
    .Yellow{fill:#EAB765;}
    .Black{fill:#797979;}
    .Gray{fill:#B4B4B5;}
    .White{fill:#FFFFFF;}
  </style>
  <g id="main">
    <clipPath id="clip_mask">
      <path d="M20.9262,32C18.5189,30.6,16.9,27.9878,16.9,25c0,-4.4735,3.6265,-8.1,8.1,-8.1c2.9878,0,5.6,1.6189,7,4.0262V0L0,0l0,32H20.9262z" fill-rule="evenodd"/>
    </clipPath>
    <g id="icon" clip-path="url(#clip_mask)">
      <g id="transformed_icon" transform="translate(-1 -1)">
        <path fill="#3E79B4" class="Blue" d="M7.595,20.1l0.864,2.354H6.205l0.86,-2.345c0.041,-0.105,0.084,-0.23,0.129,-0.375c0.044,-0.145,0.089,-0.3,0.134,-0.466c0.045,0.166,0.091,0.319,0.138,0.461C7.514,19.871,7.557,19.995,7.595,20.1zM16,18v10c0,1.1,-0.9,2,-2,2H4c-1.1,0,-2,-0.9,-2,-2V18c0,-1.1,0.9,-2,2,-2h10C15.1,16,16,16.9,16,18zM10.78,25.124l-2.779,-7.073H6.659l-2.779,7.073h1.022c0.111,0,0.205,-0.03,0.282,-0.091c0.076,-0.061,0.127,-0.13,0.153,-0.207l0.53,-1.455h2.927l0.53,1.455c0.032,0.083,0.084,0.154,0.158,0.211c0.073,0.058,0.167,0.086,0.282,0.086H10.78zM4.989,8.43c0.194,0.214,0.43,0.378,0.707,0.492c0.277,0.115,0.587,0.172,0.931,0.172c0.347,0,0.658,-0.057,0.934,-0.172c0.275,-0.115,0.509,-0.279,0.702,-0.492c0.193,-0.214,0.34,-0.474,0.442,-0.782c0.102,-0.308,0.153,-0.656,0.153,-1.044c0,-0.389,-0.051,-0.738,-0.153,-1.047c-0.102,-0.309,-0.249,-0.571,-0.442,-0.786c-0.193,-0.215,-0.427,-0.38,-0.702,-0.495c-0.275,-0.115,-0.587,-0.172,-0.934,-0.172c-0.347,0,-0.658,0.057,-0.934,0.172c-0.275,0.115,-0.51,0.28,-0.704,0.495c-0.194,0.215,-0.344,0.477,-0.449,0.786c-0.105,0.309,-0.158,0.658,-0.158,1.047c0,0.389,0.053,0.737,0.158,1.044C4.645,7.956,4.795,8.217,4.989,8.43zM31,18v10c0,1.1,-0.9,2,-2,2H19c-1.1,0,-2,-0.9,-2,-2V18c0,-1.1,0.9,-2,2,-2h10C30.1,16,31,16.9,31,18zM24.233,23.004c0,-0.29,-0.047,-0.538,-0.142,-0.741c-0.095,-0.204,-0.22,-0.376,-0.377,-0.516c-0.157,-0.14,-0.335,-0.257,-0.536,-0.35c-0.201,-0.093,-0.403,-0.173,-0.607,-0.24c-0.204,-0.067,-0.404,-0.132,-0.599,-0.196c-0.195,-0.064,-0.367,-0.135,-0.515,-0.215c-0.148,-0.079,-0.268,-0.174,-0.359,-0.284c-0.091,-0.11,-0.137,-0.247,-0.137,-0.412c0,-0.13,0.023,-0.25,0.069,-0.36c0.046,-0.11,0.115,-0.203,0.207,-0.281c0.092,-0.078,0.207,-0.139,0.343,-0.184c0.137,-0.044,0.295,-0.067,0.476,-0.067c0.201,0,0.375,0.025,0.523,0.074c0.148,0.049,0.278,0.104,0.389,0.165c0.111,0.06,0.209,0.115,0.293,0.165c0.084,0.049,0.158,0.074,0.222,0.074c0.064,0,0.121,-0.014,0.169,-0.042c0.048,-0.028,0.09,-0.079,0.126,-0.151l0.328,-0.613c-0.25,-0.239,-0.551,-0.424,-0.905,-0.557c-0.354,-0.132,-0.74,-0.198,-1.159,-0.198c-0.372,0,-0.702,0.058,-0.991,0.173c-0.289,0.115,-0.532,0.267,-0.731,0.456c-0.199,0.189,-0.35,0.406,-0.454,0.653c-0.104,0.246,-0.156,0.499,-0.156,0.758c0,0.32,0.047,0.589,0.141,0.808c0.094,0.218,0.217,0.401,0.37,0.549c0.153,0.147,0.327,0.266,0.523,0.356c0.196,0.09,0.395,0.166,0.599,0.227c0.204,0.061,0.403,0.121,0.597,0.18c0.195,0.059,0.37,0.128,0.525,0.207c0.156,0.079,0.28,0.178,0.374,0.295c0.094,0.117,0.141,0.268,0.141,0.452c0,0.33,-0.102,0.584,-0.307,0.761c-0.205,0.178,-0.495,0.267,-0.87,0.267c-0.243,0,-0.452,-0.033,-0.628,-0.1c-0.176,-0.067,-0.328,-0.14,-0.458,-0.221c-0.129,-0.081,-0.242,-0.154,-0.337,-0.221c-0.095,-0.067,-0.185,-0.1,-0.269,-0.1c-0.061,0,-0.116,0.016,-0.167,0.048c-0.051,0.032,-0.094,0.07,-0.129,0.114l-0.382,0.629c0.137,0.141,0.292,0.27,0.466,0.385c0.174,0.116,0.361,0.214,0.563,0.296c0.202,0.082,0.413,0.145,0.632,0.188c0.22,0.043,0.443,0.065,0.671,0.065c0.393,0,0.743,-0.059,1.048,-0.177c0.306,-0.118,0.564,-0.281,0.775,-0.488c0.211,-0.207,0.371,-0.451,0.48,-0.732C24.179,23.623,24.233,23.323,24.233,23.004zM18,15c-1.1,0,-2,-0.9,-2,-2V3c0,-1.1,0.9,-2,2,-2h10c1.1,0,2,0.9,2,2v10c0,1.1,-0.9,2,-2,2H18zM17.586,2.963l2.2,7.073h1.186l1.554,-4.834c0.019,-0.061,0.041,-0.127,0.064,-0.198s0.044,-0.148,0.064,-0.231c0.02,0.082,0.041,0.159,0.064,0.231c0.023,0.071,0.044,0.137,0.063,0.198l1.539,4.834h1.194l2.197,-7.073h-1.032c-0.111,0,-0.206,0.029,-0.284,0.088c-0.078,0.059,-0.128,0.13,-0.15,0.213L25.04,7.495c-0.026,0.099,-0.051,0.207,-0.076,0.325c-0.026,0.118,-0.049,0.24,-0.072,0.368c-0.051,-0.252,-0.113,-0.483,-0.186,-0.694l-1.38,-4.231c-0.029,-0.092,-0.082,-0.165,-0.158,-0.219c-0.076,-0.054,-0.172,-0.081,-0.289,-0.081h-0.393c-0.11,0,-0.205,0.03,-0.284,0.092c-0.079,0.061,-0.132,0.129,-0.158,0.204l-1.386,4.232c-0.039,0.101,-0.074,0.213,-0.103,0.335c-0.03,0.123,-0.056,0.254,-0.079,0.394c-0.023,-0.137,-0.046,-0.266,-0.068,-0.387c-0.022,-0.121,-0.046,-0.234,-0.072,-0.339L19.03,3.296c-0.024,-0.102,-0.071,-0.183,-0.143,-0.243c-0.071,-0.06,-0.16,-0.09,-0.267,-0.09H17.586zM3,15c-1.1,0,-2,-0.9,-2,-2V3c0,-1.1,0.9,-2,2,-2h10c1.1,0,2,0.9,2,2v10c0,1.1,-0.9,2,-2,2H3zM3.041,6.604c0,0.515,0.086,0.994,0.258,1.436c0.172,0.442,0.415,0.825,0.731,1.148c0.315,0.323,0.693,0.574,1.134,0.754c0.441,0.18,0.929,0.27,1.464,0.27c0.191,0,0.373,-0.011,0.547,-0.033c0.173,-0.022,0.343,-0.055,0.509,-0.1l1.036,1.141c0.105,0.115,0.22,0.193,0.346,0.236c0.126,0.043,0.267,0.064,0.423,0.064h1.089L8.781,9.566c0.221,-0.159,0.42,-0.344,0.595,-0.554c0.175,-0.21,0.324,-0.441,0.446,-0.693c0.122,-0.252,0.215,-0.521,0.28,-0.81c0.065,-0.288,0.097,-0.59,0.097,-0.905c0,-0.519,-0.087,-1,-0.26,-1.443c-0.173,-0.443,-0.415,-0.824,-0.726,-1.145c-0.311,-0.32,-0.687,-0.572,-1.126,-0.755c-0.44,-0.183,-0.926,-0.275,-1.46,-0.275c-0.535,0,-1.023,0.091,-1.464,0.272c-0.441,0.182,-0.819,0.433,-1.134,0.755c-0.315,0.322,-0.559,0.704,-0.731,1.147C3.127,5.604,3.041,6.085,3.041,6.604z" />
        <path fill="#FFFFFF" class="White" d="M3.041,6.604c0,-0.519,0.086,-1,0.258,-1.443c0.172,-0.443,0.415,-0.825,0.731,-1.147c0.315,-0.322,0.693,-0.573,1.134,-0.755c0.441,-0.182,0.929,-0.272,1.464,-0.272c0.533,0,1.02,0.092,1.46,0.275c0.44,0.183,0.815,0.435,1.126,0.755c0.311,0.32,0.553,0.702,0.726,1.145s0.26,0.924,0.26,1.443c0,0.315,-0.032,0.617,-0.097,0.905c-0.065,0.288,-0.158,0.558,-0.28,0.81c-0.122,0.252,-0.27,0.482,-0.446,0.693c-0.175,0.21,-0.374,0.395,-0.595,0.554l1.796,1.956H9.488c-0.156,0,-0.297,-0.021,-0.423,-0.064c-0.126,-0.043,-0.241,-0.122,-0.346,-0.236l-1.036,-1.141c-0.166,0.044,-0.335,0.078,-0.509,0.1c-0.174,0.022,-0.356,0.033,-0.547,0.033c-0.535,0,-1.023,-0.09,-1.464,-0.27c-0.441,-0.18,-0.819,-0.431,-1.134,-0.754c-0.315,-0.323,-0.559,-0.706,-0.731,-1.148C3.127,7.599,3.041,7.12,3.041,6.604zM4.383,6.604c0,0.389,0.053,0.737,0.158,1.044c0.105,0.308,0.255,0.568,0.449,0.782c0.194,0.214,0.43,0.378,0.707,0.492c0.277,0.115,0.587,0.172,0.931,0.172c0.347,0,0.658,-0.057,0.934,-0.172c0.275,-0.115,0.509,-0.279,0.702,-0.492c0.193,-0.214,0.34,-0.474,0.442,-0.782c0.102,-0.308,0.153,-0.656,0.153,-1.044c0,-0.389,-0.051,-0.738,-0.153,-1.047c-0.102,-0.309,-0.249,-0.571,-0.442,-0.786c-0.193,-0.215,-0.427,-0.38,-0.702,-0.495c-0.275,-0.115,-0.587,-0.172,-0.934,-0.172c-0.347,0,-0.658,0.057,-0.934,0.172c-0.275,0.115,-0.51,0.28,-0.704,0.495c-0.194,0.215,-0.344,0.477,-0.449,0.786C4.435,5.867,4.383,6.216,4.383,6.604zM17.586,2.963h1.034c0.107,0,0.196,0.03,0.267,0.09c0.071,0.06,0.119,0.141,0.143,0.243l1.307,4.199c0.026,0.105,0.05,0.218,0.072,0.339c0.022,0.121,0.044,0.25,0.068,0.387c0.023,-0.14,0.05,-0.272,0.079,-0.394c0.03,-0.122,0.064,-0.234,0.103,-0.335l1.386,-4.232c0.026,-0.075,0.078,-0.143,0.158,-0.204c0.079,-0.061,0.174,-0.092,0.284,-0.092h0.393c0.116,0,0.213,0.027,0.289,0.081c0.076,0.054,0.129,0.127,0.158,0.219l1.38,4.231c0.073,0.211,0.135,0.442,0.186,0.694c0.022,-0.127,0.046,-0.25,0.072,-0.368c0.025,-0.118,0.051,-0.226,0.076,-0.325l1.203,-4.231c0.022,-0.083,0.072,-0.154,0.15,-0.213c0.078,-0.059,0.173,-0.088,0.284,-0.088h1.032l-2.197,7.073H24.32L22.78,5.202c-0.019,-0.061,-0.04,-0.127,-0.063,-0.198c-0.023,-0.071,-0.044,-0.148,-0.064,-0.231c-0.02,0.083,-0.041,0.16,-0.064,0.231c-0.023,0.071,-0.044,0.137,-0.064,0.198l-1.554,4.834h-1.186L17.586,2.963zM3.879,25.124l2.779,-7.073h1.342l2.779,7.073H9.763c-0.115,0,-0.209,-0.029,-0.282,-0.086c-0.073,-0.058,-0.126,-0.128,-0.158,-0.211l-0.53,-1.455H5.866l-0.53,1.455c-0.026,0.077,-0.076,0.146,-0.153,0.207c-0.076,0.061,-0.17,0.091,-0.282,0.091H3.879zM6.205,22.454h2.254L7.595,20.1c-0.038,-0.105,-0.081,-0.228,-0.129,-0.37c-0.048,-0.142,-0.094,-0.295,-0.138,-0.461c-0.045,0.166,-0.089,0.321,-0.134,0.466c-0.045,0.145,-0.088,0.27,-0.129,0.375L6.205,22.454zM19.435,24.365l0.382,-0.629c0.035,-0.045,0.078,-0.083,0.129,-0.114c0.051,-0.032,0.107,-0.048,0.167,-0.048c0.084,0,0.174,0.033,0.269,0.1c0.095,0.067,0.208,0.14,0.337,0.221c0.129,0.081,0.282,0.154,0.458,0.221c0.176,0.067,0.385,0.1,0.628,0.1c0.375,0,0.665,-0.089,0.87,-0.267c0.205,-0.178,0.307,-0.432,0.307,-0.761c0,-0.184,-0.047,-0.335,-0.141,-0.452c-0.094,-0.117,-0.219,-0.216,-0.374,-0.295c-0.156,-0.079,-0.331,-0.148,-0.525,-0.207s-0.394,-0.119,-0.597,-0.18c-0.204,-0.061,-0.403,-0.137,-0.599,-0.227c-0.196,-0.09,-0.37,-0.209,-0.523,-0.356c-0.153,-0.147,-0.276,-0.33,-0.37,-0.549c-0.094,-0.218,-0.141,-0.488,-0.141,-0.808c0,-0.259,0.052,-0.512,0.156,-0.758c0.104,-0.246,0.256,-0.464,0.454,-0.653c0.199,-0.189,0.443,-0.341,0.731,-0.456c0.289,-0.115,0.619,-0.173,0.991,-0.173c0.419,0,0.806,0.066,1.159,0.198c0.354,0.132,0.655,0.318,0.905,0.557l-0.328,0.613c-0.036,0.072,-0.077,0.123,-0.126,0.151c-0.048,0.028,-0.105,0.042,-0.169,0.042s-0.138,-0.025,-0.222,-0.074c-0.084,-0.049,-0.181,-0.104,-0.293,-0.165c-0.111,-0.06,-0.241,-0.115,-0.389,-0.165c-0.148,-0.049,-0.322,-0.074,-0.523,-0.074c-0.181,0,-0.34,0.022,-0.476,0.067c-0.136,0.044,-0.251,0.106,-0.343,0.184c-0.092,0.078,-0.161,0.172,-0.207,0.281s-0.069,0.23,-0.069,0.36c0,0.165,0.046,0.303,0.137,0.412c0.091,0.11,0.211,0.204,0.359,0.284c0.148,0.079,0.32,0.151,0.515,0.215c0.195,0.064,0.395,0.129,0.599,0.196c0.204,0.067,0.407,0.147,0.607,0.24c0.201,0.093,0.379,0.21,0.536,0.35c0.156,0.141,0.282,0.313,0.377,0.516c0.095,0.204,0.142,0.451,0.142,0.741c0,0.319,-0.054,0.619,-0.163,0.899c-0.109,0.281,-0.269,0.525,-0.48,0.732c-0.211,0.207,-0.469,0.37,-0.775,0.488c-0.305,0.118,-0.655,0.177,-1.048,0.177c-0.228,0,-0.451,-0.022,-0.671,-0.065c-0.22,-0.043,-0.43,-0.106,-0.632,-0.188c-0.202,-0.082,-0.39,-0.181,-0.563,-0.296C19.727,24.635,19.572,24.507,19.435,24.365z" />
      </g>
    </g>
    <g id="overlay">
      <path fill="#4EA17E" class="Green" d="M25.0101,18.0201c-3.8604,0,-6.9899,3.1295,-6.9899,6.99S21.1496,32,25.0101,32S32,28.8705,32,25.0101S28.8705,18.0201,25.0101,18.0201zM28.66,25.3074l-5.8249,2.9543c-0.203,0.102,-0.4351,-0.0456,-0.4351,-0.2728v-5.9086c0,-0.2272,0.232,-0.3748,0.4351,-0.2728l5.8285,2.9543C28.888,24.8744,28.8844,25.1947,28.66,25.3074z" />
      <path fill="#FFFFFF" class="White" d="M22.8278,21.8074l5.8322,2.9543c0.2244,0.1127,0.2244,0.433,0,0.5456l-5.8322,2.9543c-0.203,0.102,-0.4423,-0.0456,-0.4423,-0.2728v-5.9086C22.3855,21.8531,22.6248,21.7055,22.8278,21.8074z" fill-rule="evenodd" />
    </g>
  </g>
</svg>
