<?xml version="1.0" encoding="UTF-8"?>
<!DOCTYPE svg PUBLIC "-//W3C//DTD SVG 1.1//EN" "http://www.w3.org/Graphics/SVG/1.1/DTD/svg11.dtd">
<svg version="1.1" id="Layer_1" xmlns="http://www.w3.org/2000/svg" xmlns:xlink="http://www.w3.org/1999/xlink" x="0px" y="0px" width="32px" height="32px" viewBox="0 0 32 32" enable-background="new 0 0 32 32" xml:space="preserve">
  <style type="text / css">
    .Red{fill:#CD4C32;}
    .Green{fill:#4EA17E;}
    .Blue{fill:#3E79B4;}
    .Yellow{fill:#EAB765;}
    .Black{fill:#797979;}
    .Gray{fill:#B4B4B5;}
    .White{fill:#FFFFFF;}
  </style>
  <g id="icon">
    <path fill="#3E79B4" class="Blue" d="M2.05,6.025c0,-1.643,1.332,-2.975,2.975,-2.975S8,4.382,8,6.025S6.668,9,5.025,9S2.05,7.668,2.05,6.025zM5.025,19C6.668,19,8,17.668,8,16.025S6.668,13.05,5.025,13.05S2.05,14.382,2.05,16.025S3.382,19,5.025,19zM5.025,29C6.668,29,8,27.668,8,26.025S6.668,23.05,5.025,23.05S2.05,24.382,2.05,26.025S3.382,29,5.025,29z" />
    <path fill="#797979" class="Black" d="M29.4833,7H10.5167c-0.2853,0,-0.5167,-0.2313,-0.5167,-0.5167v-0.9667c0,-0.2853,0.2313,-0.5167,0.5167,-0.5167h18.9667c0.2853,0,0.5167,0.2313,0.5167,0.5167v0.9667C30,6.7687,29.7687,7,29.4833,7zM30,16.4833v-0.9667c0,-0.2853,-0.2313,-0.5167,-0.5167,-0.5167H10.5167c-0.2853,0,-0.5167,0.2313,-0.5167,0.5167v0.9667c0,0.2853,0.2313,0.5167,0.5167,0.5167h18.9667C29.7687,17,30,16.7687,30,16.4833zM30,26.4833v-0.9667c0,-0.2853,-0.2313,-0.5167,-0.5167,-0.5167H10.5167c-0.2853,0,-0.5167,0.2313,-0.5167,0.5167v0.9667c0,0.2853,0.2313,0.5167,0.5167,0.5167h18.9667C29.7687,27,30,26.7687,30,26.4833z" />
  </g>
</svg>
