<?xml version="1.0" encoding="UTF-8" standalone="no"?>
<!DOCTYPE svg PUBLIC "-//W3C//DTD SVG 1.1//EN" "http://www.w3.org/Graphics/SVG/1.1/DTD/svg11.dtd">
<svg width="32" height="32" viewBox="0 0 32 32" version="1.1" xmlns="http://www.w3.org/2000/svg" xmlns:xlink="http://www.w3.org/1999/xlink" xml:space="preserve" xmlns:serif="http://www.serif.com/" >
  <style type="text / css">
    .Red{fill:#CD4C32;}
    .Green{fill:#4EA17E;}
    .Blue{fill:#3E79B4;}
    .Yellow{fill:#EAB765;}
    .Black{fill:#797979;}
    .Gray{fill:#B4B4B5;}
    .White{fill:#FFFFFF;}
  </style>
    <g id="icon">
        <path fill="#797979" class="Black" d="M19.723,0.9C19.731,0.901 19.74,0.901 19.748,0.901C19.862,0.909 19.973,0.949 20.065,1.017C20.085,1.032 20.104,1.048 20.123,1.063C20.375,1.268 20.616,1.487 20.837,1.724C21.029,1.931 21.207,2.153 21.362,2.39C21.462,2.543 21.552,2.702 21.632,2.868C21.718,3.049 21.79,3.235 21.847,3.426C21.89,3.567 21.924,3.71 21.951,3.855C21.975,3.989 21.993,4.12 22.005,4.255C22.013,4.342 22.018,4.429 22.021,4.516C22.024,4.579 22.025,4.643 22.025,4.706L22.025,4.723C22.025,4.812 22.023,4.902 22.019,4.989C22.015,5.083 22.01,5.177 22.002,5.273L22.002,5.276C21.986,5.464 21.965,5.653 21.939,5.841C21.899,6.131 21.85,6.419 21.8,6.706C21.756,6.951 21.712,7.194 21.668,7.441C21.619,7.719 21.571,7.995 21.529,8.271C21.525,8.294 21.522,8.317 21.518,8.34L21.514,8.364C21.512,8.372 21.511,8.38 21.509,8.388C21.477,8.523 21.397,8.646 21.286,8.729C21.194,8.798 21.083,8.84 20.969,8.848C20.872,8.856 20.772,8.838 20.683,8.799C20.578,8.753 20.487,8.676 20.424,8.581C20.348,8.465 20.313,8.323 20.329,8.184C20.332,8.155 20.337,8.126 20.341,8.097C20.387,7.802 20.437,7.509 20.489,7.215C20.541,6.926 20.594,6.64 20.644,6.35C20.681,6.133 20.717,5.918 20.747,5.698C20.763,5.583 20.777,5.468 20.79,5.349C20.805,5.206 20.816,5.062 20.821,4.917C20.826,4.805 20.827,4.692 20.823,4.582C20.817,4.381 20.795,4.18 20.753,3.985C20.717,3.817 20.665,3.651 20.597,3.491C20.56,3.406 20.52,3.323 20.474,3.24C20.423,3.147 20.366,3.057 20.308,2.972C20.245,2.881 20.176,2.793 20.106,2.709C19.958,2.533 19.797,2.37 19.626,2.216C19.53,2.13 19.433,2.048 19.333,1.968L19.315,1.952C19.308,1.947 19.302,1.941 19.296,1.936C19.207,1.851 19.145,1.74 19.121,1.62C19.103,1.532 19.105,1.439 19.127,1.353C19.159,1.226 19.234,1.111 19.337,1.03C19.433,0.954 19.552,0.908 19.674,0.901C19.691,0.9 19.707,0.9 19.723,0.9Z" />
        <path fill="#797979" class="Black" d="M27.212,9.954C27.545,9.954 27.877,9.985 28.2,10.056C28.341,10.087 28.479,10.126 28.616,10.173C28.892,10.267 29.157,10.395 29.406,10.548C29.543,10.633 29.676,10.726 29.804,10.826C30.003,10.982 30.19,11.153 30.365,11.333C30.521,11.494 30.67,11.663 30.812,11.839C30.832,11.864 30.851,11.888 30.871,11.913L30.886,11.933C30.89,11.939 30.895,11.946 30.9,11.953C30.967,12.055 31.003,12.178 31,12.3C30.997,12.414 30.96,12.528 30.896,12.622C30.841,12.703 30.766,12.77 30.68,12.816C30.564,12.877 30.429,12.898 30.3,12.877C30.163,12.853 30.035,12.781 29.945,12.676C29.935,12.665 29.927,12.654 29.918,12.643C29.807,12.503 29.691,12.366 29.566,12.234C29.447,12.106 29.321,11.984 29.188,11.872C29.066,11.768 28.937,11.671 28.8,11.585C28.665,11.5 28.524,11.426 28.377,11.365C28.21,11.296 28.035,11.245 27.86,11.211C27.579,11.157 27.29,11.146 27.002,11.158C26.679,11.172 26.357,11.213 26.037,11.263C25.689,11.317 25.341,11.382 24.993,11.446C24.597,11.518 24.201,11.59 23.801,11.651L23.777,11.654C23.769,11.655 23.761,11.656 23.753,11.656C23.622,11.666 23.489,11.631 23.38,11.559C23.305,11.51 23.242,11.444 23.195,11.367C23.133,11.262 23.103,11.137 23.112,11.015C23.121,10.877 23.181,10.743 23.277,10.642C23.362,10.554 23.474,10.493 23.595,10.469C23.617,10.465 23.639,10.462 23.661,10.458C24.091,10.391 24.52,10.313 24.947,10.234C25.383,10.154 25.819,10.075 26.261,10.019C26.564,9.981 26.87,9.955 27.177,9.954C27.188,9.954 27.2,9.954 27.212,9.954Z" />
        <path fill="#797979" class="Black" d="M16.291,4.07C16.3,4.07 16.309,4.071 16.318,4.071C16.471,4.08 16.621,4.137 16.742,4.232C16.848,4.316 16.93,4.429 16.978,4.556C17.016,4.658 17.032,4.767 17.024,4.875C17.023,4.892 17.021,4.909 17.019,4.926C16.978,5.284 16.931,5.641 16.875,5.999C16.84,6.221 16.803,6.442 16.753,6.662C16.723,6.798 16.689,6.933 16.64,7.062C16.555,7.285 16.445,7.496 16.328,7.704C16.246,7.847 16.161,7.989 16.088,8.136C16.069,8.173 16.051,8.211 16.035,8.25L16.034,8.251C16.028,8.286 16.026,8.323 16.024,8.36C16.017,8.475 16.019,8.591 16.022,8.707C16.031,8.991 16.056,9.275 16.085,9.559C16.102,9.718 16.12,9.878 16.141,10.036L16.141,10.037C16.142,10.046 16.143,10.055 16.144,10.064C16.161,10.234 16.118,10.41 16.022,10.554C15.937,10.682 15.812,10.782 15.669,10.837C15.509,10.899 15.328,10.904 15.164,10.851C15.01,10.8 14.873,10.698 14.781,10.564C14.719,10.475 14.677,10.372 14.659,10.265C14.654,10.237 14.651,10.208 14.647,10.179C14.612,9.908 14.583,9.634 14.56,9.359C14.539,9.11 14.523,8.859 14.52,8.611C14.518,8.448 14.521,8.285 14.538,8.122C14.551,8.011 14.57,7.9 14.604,7.792L14.605,7.791C14.607,7.785 14.609,7.779 14.611,7.773L14.611,7.771C14.625,7.733 14.64,7.695 14.656,7.657C14.728,7.492 14.813,7.332 14.902,7.175C14.992,7.017 15.086,6.862 15.165,6.697C15.19,6.644 15.214,6.59 15.235,6.535C15.25,6.498 15.26,6.458 15.269,6.419C15.307,6.271 15.334,6.12 15.36,5.969C15.41,5.681 15.45,5.393 15.487,5.103C15.502,4.982 15.517,4.86 15.53,4.738L15.531,4.738C15.532,4.729 15.533,4.72 15.534,4.711C15.559,4.541 15.644,4.382 15.771,4.265C15.898,4.15 16.065,4.08 16.237,4.071C16.255,4.07 16.273,4.07 16.291,4.07Z" />
        <path fill="#797979" class="Black" d="M21.7,15.904C21.727,15.906 21.727,15.906 21.754,15.909C21.894,15.928 22.033,15.944 22.173,15.96C22.397,15.984 22.622,16.005 22.848,16.018C23.004,16.028 23.162,16.034 23.317,16.031C23.376,16.03 23.434,16.027 23.492,16.021C23.5,16.02 23.509,16.018 23.517,16.017L23.517,16.017C23.694,15.939 23.858,15.837 24.024,15.741C24.216,15.629 24.413,15.522 24.617,15.437C24.641,15.427 24.665,15.418 24.689,15.408L24.691,15.408C24.784,15.371 24.879,15.343 24.975,15.316C25.176,15.261 25.379,15.216 25.583,15.172C25.937,15.097 26.292,15.031 26.648,14.967C26.732,14.952 26.815,14.938 26.899,14.924L26.901,14.923C26.909,14.922 26.918,14.921 26.927,14.919C27.088,14.898 27.256,14.931 27.397,15.012C27.538,15.092 27.652,15.22 27.715,15.37C27.775,15.511 27.791,15.671 27.758,15.821C27.724,15.98 27.637,16.126 27.513,16.233C27.417,16.315 27.301,16.372 27.176,16.398C27.158,16.401 27.14,16.404 27.123,16.407C26.767,16.468 26.413,16.533 26.058,16.606C25.869,16.644 25.681,16.684 25.494,16.731C25.421,16.749 25.348,16.768 25.276,16.791C25.22,16.809 25.165,16.833 25.111,16.858C24.98,16.92 24.853,16.993 24.729,17.066C24.62,17.129 24.513,17.192 24.401,17.252L24.398,17.254C24.385,17.261 24.372,17.268 24.359,17.275L24.356,17.276C24.268,17.322 24.178,17.366 24.088,17.405L24.085,17.406C24.08,17.408 24.076,17.409 24.072,17.411L24.07,17.412C24.069,17.413 24.068,17.413 24.066,17.414L24.065,17.414C24.06,17.416 24.054,17.419 24.049,17.421L24.047,17.421C24.042,17.423 24.037,17.425 24.032,17.427L24.031,17.428L24.029,17.428C24.021,17.431 24.014,17.434 24.006,17.436L24.005,17.437C24.003,17.438 24,17.439 23.997,17.44C23.997,17.44 23.994,17.441 23.992,17.441C23.991,17.442 23.989,17.442 23.988,17.443L23.986,17.443C23.976,17.447 23.966,17.45 23.956,17.453L23.954,17.453C23.953,17.454 23.951,17.454 23.95,17.455L23.949,17.455C23.943,17.457 23.937,17.458 23.931,17.46L23.93,17.46C23.923,17.462 23.916,17.464 23.908,17.466L23.907,17.467C23.904,17.467 23.901,17.468 23.901,17.468C23.882,17.473 23.862,17.478 23.843,17.482L23.842,17.482C23.695,17.513 23.544,17.525 23.392,17.529C23.22,17.535 23.048,17.53 22.875,17.522C22.585,17.508 22.292,17.482 22.001,17.45C21.865,17.435 21.729,17.419 21.593,17.401C21.579,17.399 21.565,17.397 21.551,17.395L21.55,17.395C21.541,17.394 21.532,17.392 21.523,17.391C21.355,17.361 21.197,17.273 21.084,17.142C20.984,17.026 20.921,16.878 20.906,16.725C20.891,16.573 20.924,16.416 21,16.282C21.075,16.149 21.193,16.039 21.332,15.974C21.43,15.927 21.538,15.903 21.646,15.902C21.664,15.902 21.682,15.903 21.7,15.904ZM23.523,16.017L23.522,16.017C23.523,16.017 23.523,16.017 23.523,16.017Z" />
        <path fill="#797979" class="Black" d="M20.602,18.184C20.611,18.184 20.62,18.185 20.629,18.186C20.737,18.195 20.843,18.227 20.937,18.281C21.055,18.348 21.154,18.447 21.22,18.565C21.251,18.62 21.276,18.679 21.292,18.74C21.294,18.749 21.296,18.758 21.298,18.766L21.974,21.732C21.979,21.755 21.981,21.761 21.984,21.784C21.995,21.853 21.996,21.924 21.987,21.993C21.984,22.018 21.98,22.042 21.976,22.066C21.909,22.483 21.844,22.9 21.783,23.316C21.75,23.541 21.718,23.766 21.688,23.991C21.669,24.139 21.65,24.288 21.635,24.436C21.629,24.495 21.623,24.554 21.621,24.614C21.621,24.614 21.622,24.616 21.622,24.617C21.631,24.66 21.645,24.701 21.659,24.739C21.69,24.822 21.726,24.902 21.765,24.981C21.805,25.062 21.847,25.142 21.89,25.219C21.955,25.336 22.023,25.451 22.095,25.562L22.105,25.577C22.11,25.585 22.115,25.593 22.12,25.6C22.204,25.739 22.242,25.905 22.225,26.067C22.208,26.229 22.138,26.384 22.026,26.503C21.921,26.615 21.781,26.693 21.631,26.725C21.489,26.754 21.34,26.741 21.205,26.688C21.07,26.635 20.952,26.543 20.868,26.425C20.849,26.399 20.832,26.372 20.815,26.345C20.704,26.17 20.6,25.991 20.503,25.807C20.463,25.733 20.425,25.657 20.389,25.58L20.388,25.578C20.351,25.5 20.315,25.42 20.283,25.339C20.221,25.184 20.17,25.026 20.142,24.862L20.141,24.86C20.134,24.812 20.127,24.764 20.124,24.716L20.124,24.714C20.124,24.706 20.123,24.698 20.123,24.69L20.123,24.689C20.122,24.685 20.122,24.681 20.122,24.677L20.122,24.675C20.122,24.67 20.122,24.666 20.121,24.661L20.121,24.659C20.121,24.656 20.121,24.654 20.121,24.651L20.121,24.65C20.121,24.643 20.121,24.636 20.121,24.63L20.121,24.628C20.121,24.616 20.121,24.604 20.121,24.592L20.121,24.589C20.124,24.485 20.133,24.382 20.143,24.279C20.159,24.129 20.177,23.98 20.196,23.831C20.242,23.48 20.293,23.131 20.346,22.781C20.389,22.495 20.434,22.209 20.479,21.924L19.836,19.1C19.834,19.091 19.832,19.082 19.83,19.073C19.807,18.949 19.815,18.819 19.855,18.699C19.9,18.561 19.986,18.438 20.098,18.348C20.225,18.246 20.385,18.187 20.548,18.183C20.566,18.183 20.584,18.183 20.602,18.184Z" />
        <path fill="#797979" class="Black" d="M16.325,23.398C16.334,23.398 16.343,23.399 16.352,23.399C16.487,23.407 16.62,23.452 16.732,23.528C16.881,23.629 16.991,23.785 17.036,23.961C17.057,24.04 17.064,24.122 17.058,24.203C17.057,24.212 17.056,24.221 17.055,24.23L16.751,26.991C16.748,27.015 16.748,27.021 16.744,27.044C16.729,27.124 16.702,27.201 16.663,27.271C16.651,27.292 16.648,27.297 16.635,27.318C16.545,27.456 16.458,27.594 16.371,27.732C16.19,28.02 16.012,28.311 15.843,28.606C15.758,28.754 15.675,28.903 15.599,29.057C15.57,29.114 15.543,29.17 15.521,29.229L15.521,29.23C15.519,29.248 15.519,29.268 15.52,29.287C15.522,29.385 15.538,29.483 15.556,29.579C15.59,29.758 15.636,29.934 15.69,30.105C15.695,30.119 15.699,30.132 15.703,30.145L15.712,30.172C15.714,30.181 15.717,30.19 15.719,30.199C15.762,30.364 15.746,30.544 15.674,30.701C15.609,30.84 15.501,30.959 15.368,31.036C15.219,31.121 15.042,31.154 14.872,31.126C14.72,31.101 14.577,31.029 14.467,30.921C14.39,30.845 14.33,30.752 14.291,30.651C14.28,30.621 14.271,30.59 14.261,30.56C14.194,30.349 14.138,30.134 14.094,29.918C14.052,29.712 14.023,29.503 14.02,29.297C14.018,29.163 14.028,29.029 14.057,28.897C14.09,28.751 14.149,28.612 14.213,28.476C14.278,28.34 14.348,28.208 14.42,28.077C14.572,27.8 14.733,27.53 14.897,27.262C15.012,27.075 15.13,26.887 15.249,26.7C15.259,26.685 15.268,26.669 15.278,26.654L15.28,26.652L15.565,24.066L15.568,24.039C15.569,24.03 15.571,24.021 15.572,24.012C15.603,23.844 15.694,23.687 15.825,23.576C15.949,23.471 16.108,23.408 16.27,23.399C16.288,23.398 16.306,23.398 16.325,23.398Z" />
        <path fill="#797979" class="Black" d="M5.895,9.582C5.904,9.583 5.913,9.583 5.922,9.584C6.03,9.593 6.136,9.626 6.23,9.68C6.251,9.692 6.256,9.695 6.276,9.708C6.36,9.764 6.444,9.816 6.53,9.867C6.648,9.937 6.768,10.004 6.891,10.063C6.979,10.106 7.068,10.147 7.161,10.177C7.181,10.184 7.202,10.19 7.223,10.195L7.224,10.195C7.274,10.193 7.325,10.188 7.376,10.183C7.599,10.161 7.819,10.131 8.04,10.1C8.241,10.072 8.442,10.042 8.643,10.012C8.99,9.959 9.335,9.904 9.682,9.848C9.718,9.842 9.753,9.836 9.789,9.83L9.791,9.83C9.814,9.827 9.82,9.825 9.844,9.823C9.906,9.817 9.968,9.819 10.03,9.829C10.054,9.833 10.059,9.834 10.082,9.839L13.022,10.521C13.031,10.524 13.04,10.526 13.049,10.528C13.214,10.573 13.363,10.675 13.463,10.816C13.552,10.941 13.602,11.093 13.603,11.247C13.604,11.418 13.545,11.589 13.437,11.723C13.335,11.849 13.19,11.941 13.032,11.98C12.927,12.006 12.816,12.009 12.71,11.988C12.701,11.987 12.692,11.984 12.684,11.983L9.888,11.334C9.369,11.419 8.845,11.501 8.32,11.575C8.101,11.606 7.881,11.636 7.661,11.661C7.529,11.676 7.396,11.69 7.261,11.694C7.203,11.696 7.144,11.695 7.086,11.689L7.084,11.689C6.879,11.669 6.683,11.606 6.494,11.529C6.251,11.43 6.018,11.306 5.79,11.172C5.671,11.102 5.553,11.03 5.44,10.954L5.418,10.938C5.411,10.933 5.403,10.928 5.396,10.922C5.283,10.833 5.195,10.711 5.148,10.574C5.11,10.463 5.099,10.343 5.115,10.227C5.134,10.093 5.19,9.964 5.275,9.859C5.372,9.74 5.506,9.651 5.654,9.609C5.715,9.592 5.778,9.583 5.841,9.581C5.859,9.581 5.877,9.581 5.895,9.582ZM7.228,10.196C7.228,10.196 7.228,10.196 7.228,10.196ZM7.227,10.196C7.227,10.196 7.227,10.196 7.227,10.196Z" />
        <path fill="#797979" class="Black" d="M1.557,16.129C1.566,16.13 1.575,16.131 1.584,16.132C1.629,16.137 1.673,16.146 1.717,16.159C1.747,16.168 1.776,16.179 1.807,16.188C1.925,16.225 2.043,16.258 2.165,16.286C2.285,16.314 2.408,16.338 2.531,16.349C2.568,16.352 2.606,16.354 2.642,16.351L2.642,16.351C2.696,16.331 2.748,16.305 2.799,16.279C2.955,16.202 3.106,16.115 3.255,16.028C3.62,15.815 3.978,15.589 4.332,15.36C4.399,15.317 4.465,15.274 4.531,15.23L4.532,15.229C4.553,15.216 4.558,15.213 4.579,15.201C4.658,15.157 4.745,15.127 4.835,15.113C4.844,15.112 4.853,15.111 4.862,15.11L7.599,14.803C7.608,14.802 7.617,14.801 7.626,14.8C7.779,14.789 7.935,14.825 8.067,14.904C8.184,14.973 8.281,15.075 8.344,15.194C8.421,15.338 8.449,15.506 8.424,15.667C8.402,15.8 8.344,15.928 8.256,16.032C8.157,16.149 8.022,16.235 7.873,16.274C7.847,16.28 7.82,16.286 7.793,16.29C7.785,16.291 7.776,16.292 7.767,16.293L5.207,16.58C4.91,16.774 4.61,16.964 4.307,17.148C4.082,17.284 3.856,17.418 3.623,17.542C3.498,17.609 3.373,17.673 3.24,17.728L3.238,17.729L3.235,17.73L3.233,17.731L3.23,17.732L3.227,17.733C3.195,17.746 3.162,17.759 3.128,17.771L3.126,17.772C3.115,17.775 3.105,17.779 3.095,17.782L3.093,17.783C3.09,17.784 3.087,17.785 3.084,17.785L3.082,17.786C3.082,17.786 3.081,17.787 3.08,17.787L3.078,17.787C3.07,17.79 3.062,17.792 3.054,17.795L3.053,17.795C3.051,17.796 3.049,17.796 3.047,17.797L3.046,17.797C3.038,17.799 3.03,17.802 3.022,17.804L3.02,17.804C3.019,17.805 3.018,17.805 3.017,17.805L3.015,17.806C2.946,17.823 2.876,17.835 2.806,17.843C2.736,17.85 2.667,17.853 2.597,17.852L2.595,17.852C2.585,17.852 2.574,17.852 2.564,17.852L2.562,17.852C2.41,17.848 2.256,17.83 2.11,17.805C1.872,17.764 1.638,17.705 1.406,17.634C1.381,17.627 1.357,17.619 1.332,17.611L1.328,17.61C1.305,17.603 1.282,17.595 1.258,17.587L1.258,17.587C1.249,17.584 1.24,17.581 1.232,17.578C1.098,17.526 0.978,17.435 0.893,17.317C0.798,17.186 0.747,17.023 0.75,16.86C0.754,16.707 0.805,16.555 0.897,16.431C0.966,16.337 1.059,16.259 1.164,16.207C1.268,16.154 1.386,16.127 1.503,16.127C1.521,16.127 1.539,16.128 1.557,16.129ZM2.63,16.356C2.63,16.356 2.629,16.356 2.63,16.356C2.63,16.356 2.63,16.356 2.63,16.356ZM2.63,16.356C2.63,16.356 2.629,16.356 2.63,16.356C2.63,16.356 2.63,16.356 2.63,16.356ZM2.63,16.356L2.63,16.356C2.63,16.356 2.63,16.356 2.63,16.356ZM2.63,16.356C2.631,16.356 2.63,16.356 2.63,16.356ZM2.63,16.356L2.63,16.356C2.63,16.356 2.63,16.356 2.63,16.356ZM2.63,16.356C2.63,16.356 2.63,16.356 2.63,16.356ZM2.63,16.356C2.63,16.356 2.63,16.356 2.63,16.356ZM2.63,16.356C2.63,16.356 2.63,16.356 2.63,16.356ZM2.63,16.356C2.63,16.356 2.63,16.356 2.63,16.356ZM2.63,16.356C2.63,16.356 2.63,16.356 2.63,16.356ZM2.63,16.356C2.63,16.356 2.63,16.356 2.63,16.356ZM2.63,16.356C2.63,16.356 2.63,16.356 2.63,16.356ZM2.63,16.356C2.63,16.356 2.63,16.356 2.63,16.356ZM2.63,16.356C2.63,16.356 2.63,16.356 2.63,16.356ZM2.63,16.356C2.63,16.356 2.63,16.356 2.63,16.356ZM2.63,16.356C2.63,16.356 2.63,16.356 2.63,16.356ZM2.63,16.356C2.63,16.356 2.63,16.356 2.63,16.356ZM2.63,16.356C2.63,16.356 2.63,16.356 2.63,16.356ZM2.63,16.356C2.63,16.356 2.63,16.356 2.63,16.356ZM2.63,16.356C2.63,16.356 2.63,16.356 2.63,16.356ZM2.63,16.356C2.63,16.356 2.63,16.356 2.63,16.356ZM2.638,16.354C2.636,16.354 2.638,16.354 2.638,16.354ZM2.639,16.354C2.639,16.354 2.639,16.354 2.639,16.354Z" />
        <path fill="#797979" class="Black" d="M11.671,11.026C13.561,10.252 15.129,9.657 16.84,9.209C17.108,10.178 18.187,11.303 19.42,12.547C20.631,13.769 21.697,14.808 22.622,15.079C22.205,16.728 21.643,18.234 20.694,20.13C18.71,25.114 12.837,28.527 8.092,23.74C3.348,18.952 6.887,13.184 11.671,11.026Z" />
        <path fill="#797979" class="Black" d="M22.627,13.901C21.896,13.315 21.018,12.593 20.158,11.725C19.266,10.825 18.529,9.905 17.937,9.153C17.999,9.005 18.09,8.868 18.213,8.743C19.072,7.876 21.343,7.756 22.718,9.143C24.093,10.53 24.012,12.703 23.153,13.57C22.997,13.726 22.82,13.835 22.627,13.901Z" />
    </g>
</svg>
