<?xml version="1.0" encoding="UTF-8"?>
<!DOCTYPE svg PUBLIC "-//W3C//DTD SVG 1.1//EN" "http://www.w3.org/Graphics/SVG/1.1/DTD/svg11.dtd">
<svg version="1.1" id="Layer_1" xmlns="http://www.w3.org/2000/svg" xmlns:xlink="http://www.w3.org/1999/xlink" x="0px" y="0px" width="32px" height="32px" viewBox="0 0 32 32" enable-background="new 0 0 32 32" xml:space="preserve">
  <style type="text / css">
    .Red{fill:#CD4C32;}
    .Green{fill:#4EA17E;}
    .Blue{fill:#3E79B4;}
    .Yellow{fill:#EAB765;}
    .Black{fill:#797979;}
    .Gray{fill:#B4B4B5;}
    .White{fill:#FFFFFF;}
  </style>
  <g id="icon">
    <path fill="#CD4C32" class="Red" d="M29.479,5.756c-0.101,-0.421,-0.496,-0.696,-0.921,-0.651c-5.609,0.59,-9.947,-2.089,-11.924,-3.898c-0.306,-0.28,-0.765,-0.294,-1.092,-0.039C13.149,3.04,8.68,5.561,3.572,5.101c-0.425,-0.038,-0.812,0.242,-0.911,0.662c-0.672,2.843,-0.286,12.723,4.011,18.43c2.354,3.128,5.347,5.823,9.245,6.775c0.13,0.032,0.267,0.032,0.397,0c3.89,-0.952,6.667,-3.647,9.022,-6.775C29.512,18.646,30.161,8.588,29.479,5.756zM23.179,22.606c-2.365,3.178,-4.567,4.96,-7.064,5.698c-2.616,-0.767,-5.004,-2.637,-7.283,-5.699c-1.631,-2.19,-2.835,-5.563,-3.39,-9.497c-0.321,-2.276,-0.347,-4.125,-0.283,-5.335c4.678,-0.066,8.56,-2.138,10.832,-3.702c2.543,1.955,6.392,3.736,10.865,3.736c0.043,0,0.087,0,0.13,-0.001C27.093,11.113,26.307,18.404,23.179,22.606z" />
    <path fill="#FFFFFF" class="White" d="M15.989,4.072C13.717,5.636,9.836,7.708,5.157,7.774c-0.064,1.209,-0.038,3.059,0.283,5.335c0.555,3.934,1.759,7.306,3.39,9.497c2.279,3.062,4.667,4.932,7.283,5.699c2.498,-0.739,4.699,-2.521,7.064,-5.698c3.128,-4.202,3.914,-11.493,3.805,-14.798c-0.043,0,-0.087,0.001,-0.13,0.001C22.381,7.808,18.532,6.027,15.989,4.072z" />
    <polygon fill="#CD4C32" class="Red" points="8.661,24.904 6.339,21.896 26.839,6.129 29.161,9.138" stroke-linejoin="miter"/>
  </g>
</svg>
