<?xml version="1.0" encoding="UTF-8" standalone="no"?>
<!DOCTYPE svg PUBLIC "-//W3C//DTD SVG 1.1//EN" "http://www.w3.org/Graphics/SVG/1.1/DTD/svg11.dtd">
<svg width="32" height="32" viewBox="0 0 32 32" version="1.1" xmlns="http://www.w3.org/2000/svg" xmlns:xlink="http://www.w3.org/1999/xlink" xml:space="preserve" xmlns:serif="http://www.serif.com/" >
  <style type="text / css">
    .Red{fill:#CD4C32;}
    .Green{fill:#4EA17E;}
    .Blue{fill:#3E79B4;}
    .Yellow{fill:#EAB765;}
    .Black{fill:#797979;}
    .Gray{fill:#B4B4B5;}
    .White{fill:#FFFFFF;}
  </style>
    <g id="main">
        <g id="transformed_icon" transform="matrix(1,0,0,1,1,0)">
            <clipPath id="_clip1">
                <path d="M-1,0L-1,23.157C-0.877,23.121 -0.748,23.1 -0.613,23.1L5.883,23.1L3.436,20.595C3.106,20.262 3.008,19.762 3.191,19.322C3.374,18.882 3.8,18.6 4.277,18.6L7.782,18.6C8.142,18.6 8.484,18.738 8.743,18.987L8.76,19.004C8.76,19.004 13.232,23.516 14.391,24.689C14.894,25.198 14.891,26.023 14.383,26.528C13.38,27.525 9.84,31.12 8.974,32L31,32L31,0L-1,0Z"/>
            </clipPath>
            <g clip-path="url(#_clip1)">
                <path fill="#FFFFFF" class="White" d="M26.6,30.5L5.4,30.5C4.765,30.5 4.5,30.241 4.5,29.6L4.5,2.4C4.5,1.759 4.765,1.5 5.4,1.5C5.4,1.5 19.063,1.5 19.3,1.5C19.538,1.5 19.85,1.55 20.2,1.9C20.499,2.199 25.616,7.316 27.1,8.8C27.353,9.053 27.5,9.35 27.5,9.8C27.5,10.113 27.5,29.6 27.5,29.6C27.5,30.241 27.235,30.5 26.6,30.5Z" />
                <path fill="#797979" class="Black" d="M19.3,1C19.405,1 19.51,1.008 19.614,1.027C19.772,1.055 19.926,1.108 20.069,1.184C20.187,1.245 20.297,1.32 20.399,1.405C20.452,1.449 20.503,1.496 20.552,1.545C20.76,1.753 20.967,1.96 21.174,2.167C21.784,2.777 22.395,3.388 23.005,3.998C24.251,5.244 25.497,6.49 26.743,7.736C26.98,7.973 27.217,8.21 27.454,8.447C27.523,8.516 27.588,8.589 27.65,8.672C27.769,8.834 27.861,9.016 27.919,9.208C27.971,9.383 27.996,9.566 27.999,9.748C28,9.764 28,9.781 28,9.798C28.005,16.4 28.007,23.001 28,29.603C28,29.659 27.998,29.716 27.994,29.773C27.987,29.88 27.972,29.986 27.946,30.09C27.922,30.183 27.89,30.273 27.844,30.364C27.809,30.432 27.768,30.497 27.72,30.557L27.719,30.558C27.644,30.651 27.555,30.73 27.454,30.793C27.448,30.797 27.443,30.8 27.438,30.803L27.437,30.804C27.398,30.827 27.359,30.847 27.318,30.866C27.249,30.898 27.176,30.923 27.103,30.942C27.023,30.963 26.942,30.977 26.858,30.987C26.773,30.996 26.69,31 26.603,31C19.534,31.007 12.466,31.007 5.397,31C5.263,31 5.133,30.991 4.999,30.965C4.795,30.926 4.6,30.847 4.44,30.717C4.332,30.629 4.242,30.522 4.175,30.399C4.089,30.243 4.04,30.07 4.018,29.895C4.005,29.797 4,29.697 4,29.6C3.998,20.532 3.991,11.464 4,2.396C4,2.261 4.01,2.125 4.036,1.992C4.067,1.835 4.121,1.684 4.205,1.549C4.303,1.393 4.44,1.263 4.602,1.174C4.694,1.123 4.792,1.086 4.893,1.059C5.032,1.022 5.177,1.006 5.319,1.001C5.346,1 5.373,1 5.4,1C10.033,0.999 14.667,0.999 19.3,1ZM5.4,2C5.325,2 5.249,2.004 5.175,2.019C5.143,2.026 5.111,2.034 5.082,2.051C5.071,2.057 5.062,2.066 5.055,2.076C5.04,2.098 5.032,2.124 5.025,2.15C5.011,2.206 5.005,2.263 5.002,2.32C5.001,2.346 5,2.372 5,2.399C4.995,11.466 4.995,20.534 5,29.601C5,29.676 5.004,29.751 5.019,29.824C5.026,29.854 5.034,29.885 5.049,29.913C5.059,29.932 5.075,29.947 5.101,29.958C5.161,29.985 5.229,29.992 5.294,29.996C5.328,29.999 5.363,30 5.397,30L5.399,30C12.467,30 19.535,30.015 26.603,30C26.671,30 26.739,29.997 26.806,29.984C26.839,29.978 26.872,29.971 26.902,29.957C26.919,29.949 26.935,29.94 26.946,29.923C26.956,29.908 26.962,29.89 26.968,29.873C26.985,29.821 26.992,29.766 26.996,29.712C26.999,29.676 27,29.639 27,29.603L27,29.601C27,23 27.01,16.398 27,9.797C27,9.736 26.996,9.675 26.987,9.614C26.987,9.613 26.987,9.611 26.986,9.61C26.978,9.558 26.966,9.505 26.949,9.458C26.915,9.364 26.86,9.278 26.792,9.201C26.777,9.185 26.763,9.17 26.748,9.155C26.511,8.917 26.273,8.68 26.036,8.443C24.079,6.486 22.124,4.531 20.168,2.575C20.06,2.467 19.953,2.36 19.845,2.252C19.789,2.196 19.73,2.145 19.663,2.103C19.595,2.059 19.518,2.025 19.436,2.011C19.391,2.003 19.345,2 19.3,2C14.667,2 10.033,2 5.4,2Z" />
                <path fill="#797979" class="Black" d="M20,8.7C20,8.701 20,8.703 20,8.704C20,8.725 20.003,8.746 20.007,8.766C20.009,8.776 20.013,8.79 20.018,8.803C20.037,8.854 20.068,8.899 20.114,8.935C20.167,8.977 20.235,9 20.3,9L27.3,9L27.3,10C24.966,10 22.632,10.002 20.298,10C20.105,10 19.912,9.956 19.737,9.872C19.567,9.79 19.415,9.67 19.295,9.525C19.197,9.406 19.121,9.269 19.071,9.123C19.047,9.055 19.029,8.985 19.018,8.915C19.006,8.847 19,8.777 19,8.709C19,8.706 19,8.703 19,8.701L19,8.7L19,2L20,2C20,4.233 20,6.466 20,8.7Z" />
            </g>
        </g>
        <path fill="#4EA17E" class="Green" id="overlay" d="M9.068,31.494C8.996,31.563 8.901,31.6 8.801,31.6L5.276,31.589C5.119,31.589 5.041,31.399 5.152,31.288L9.268,27.1L0.4,27.1C0.186,27.1 0,26.975 0,26.761L0,25.916L0,25.158L0,24.495C0,24.282 0.173,24.108 0.387,24.108L9.255,24.108L5.152,19.901C5.041,19.789 5.12,19.6 5.277,19.6L8.782,19.6C8.882,19.6 8.978,19.639 9.05,19.708C9.05,19.708 13.521,24.219 14.68,25.392C14.798,25.512 14.798,25.7 14.678,25.819C13.521,26.969 9.068,31.494 9.068,31.494Z" />
    </g>
</svg>
