<?xml version="1.0" encoding="UTF-8" standalone="no"?>
<!DOCTYPE svg PUBLIC "-//W3C//DTD SVG 1.1//EN" "http://www.w3.org/Graphics/SVG/1.1/DTD/svg11.dtd">
<svg width="32" height="32" viewBox="0 0 32 32" version="1.1" xmlns="http://www.w3.org/2000/svg" xmlns:xlink="http://www.w3.org/1999/xlink" xml:space="preserve" xmlns:serif="http://www.serif.com/" >
  <style type="text / css">
    .Red{fill:#CD4C32;}
    .Green{fill:#4EA17E;}
    .Blue{fill:#3E79B4;}
    .Yellow{fill:#EAB765;}
    .Black{fill:#797979;}
    .Gray{fill:#B4B4B5;}
    .White{fill:#FFFFFF;}
  </style>
    <g transform="matrix(1.22593,0,0,1.26511,-3.10557,-1.74615)">
        <ellipse fill="#FFFFFF" class="White" cx="15.584" cy="14.027" rx="11.42" ry="11.066" />
    </g>
    <g id="icon" transform="matrix(1.07142,0,0,1.07143,-1.14284,-1.14285)">
        <g transform="matrix(0.54369,0,0,0.543688,1.93204,1.93204)">
            <path fill="#797979" class="Black" d="M35.903,22.696L24.332,34.267C23.48,35.119 22.099,35.119 21.247,34.267L15.847,28.867C14.995,28.015 14.995,26.633 15.847,25.781C16.699,24.929 18.08,24.929 18.932,25.781L22.789,29.638L32.818,19.61C33.67,18.758 35.051,18.758 35.903,19.61C36.755,20.462 36.755,21.844 35.903,22.696Z" />
        </g>
        <g transform="matrix(0.54369,0,0,0.543688,2,2)">
            <path fill="#797979" class="Black" d="M25.76,0C27.865,0.001 29.975,0.258 32.02,0.769C33.722,1.195 35.377,1.795 36.959,2.561C38.373,3.246 39.723,4.061 40.987,4.99C42.306,5.959 43.528,7.05 44.641,8.251C45.705,9.399 46.663,10.642 47.5,11.96C48.245,13.132 48.895,14.366 49.441,15.645C49.891,16.698 50.27,17.785 50.574,18.883C50.791,19.67 50.971,20.467 51.112,21.273C51.268,22.164 51.378,23.067 51.44,23.975C51.507,24.958 51.518,25.948 51.473,26.93C51.44,27.665 51.376,28.399 51.28,29.128C51.192,29.803 51.077,30.473 50.934,31.144C50.733,32.084 50.482,33.008 50.175,33.924C49.681,35.4 49.051,36.833 48.298,38.196C47.976,38.777 47.633,39.345 47.268,39.899C46.392,41.228 45.401,42.467 44.296,43.614C43.449,44.493 42.54,45.311 41.58,46.061C40.773,46.69 39.929,47.272 39.054,47.801C38.145,48.351 37.197,48.846 36.223,49.281C35.415,49.641 34.585,49.96 33.746,50.234C32.945,50.495 32.129,50.717 31.31,50.898C30.079,51.169 28.831,51.348 27.576,51.436C26.538,51.509 25.495,51.52 24.457,51.468C23.609,51.426 22.765,51.343 21.921,51.217C21.396,51.139 20.871,51.044 20.356,50.934C19.587,50.77 18.832,50.572 18.084,50.339C17.127,50.041 16.184,49.685 15.277,49.281C13.975,48.7 12.72,48.01 11.529,47.22C9.939,46.165 8.466,44.932 7.15,43.558C5.275,41.6 3.707,39.342 2.532,36.897C2.264,36.341 2.017,35.775 1.79,35.201C1.28,33.908 0.875,32.572 0.581,31.212C0.196,29.43 0.002,27.605 0,25.781C-0.003,23.477 0.3,21.178 0.905,18.96C1.231,17.765 1.644,16.593 2.14,15.456C2.669,14.244 3.292,13.074 4,11.96C4.376,11.368 4.775,10.793 5.198,10.234C6.335,8.729 7.636,7.352 9.074,6.129C9.84,5.477 10.644,4.87 11.48,4.312C12.113,3.89 12.764,3.496 13.432,3.132C14.907,2.327 16.462,1.667 18.065,1.167C19.415,0.745 20.801,0.436 22.201,0.243C23.299,0.091 24.405,0.011 25.511,0.001C25.594,0 25.677,0 25.76,0ZM25.741,3.5C24.307,3.501 22.866,3.638 21.451,3.915C19.833,4.231 18.249,4.73 16.741,5.399C15.585,5.912 14.473,6.523 13.422,7.224C12.204,8.037 11.067,8.968 10.029,10.005C8.868,11.164 7.834,12.452 6.955,13.836C5.769,15.702 4.864,17.747 4.282,19.881C3.762,21.785 3.502,23.757 3.5,25.732C3.499,26.777 3.571,27.822 3.715,28.855C3.866,29.943 4.099,31.019 4.411,32.073C4.745,33.202 5.169,34.304 5.679,35.365C6.215,36.482 6.844,37.552 7.556,38.561C8.33,39.659 9.201,40.683 10.159,41.624C11.016,42.466 11.947,43.243 12.925,43.935C13.828,44.573 14.779,45.144 15.764,45.639C16.562,46.04 17.383,46.393 18.22,46.694C18.745,46.883 19.279,47.052 19.815,47.2C20.339,47.345 20.868,47.47 21.4,47.575C22.351,47.764 23.322,47.89 24.293,47.953C25.401,48.025 26.509,48.015 27.614,47.923C28.396,47.858 29.176,47.752 29.947,47.605C30.752,47.451 31.549,47.253 32.326,47.013C34.061,46.477 35.717,45.731 37.265,44.793C38.271,44.183 39.228,43.494 40.126,42.733C40.64,42.297 41.131,41.842 41.601,41.365C42.456,40.497 43.235,39.565 43.935,38.575C45.074,36.962 45.997,35.199 46.671,33.344C46.989,32.467 47.252,31.569 47.457,30.659C47.592,30.06 47.702,29.452 47.787,28.846C47.952,27.658 48.02,26.463 47.995,25.273C47.969,24.043 47.843,22.82 47.616,21.613C47.496,20.971 47.346,20.331 47.168,19.699C46.871,18.646 46.496,17.615 46.046,16.617C45.643,15.723 45.181,14.857 44.661,14.021C44.064,13.061 43.393,12.144 42.657,11.284C41.907,10.409 41.093,9.594 40.209,8.838C38.755,7.593 37.146,6.541 35.433,5.711C34.425,5.223 33.38,4.812 32.31,4.482C31.167,4.13 29.997,3.872 28.812,3.709C27.799,3.569 26.775,3.501 25.759,3.5C25.753,3.5 25.747,3.5 25.741,3.5Z" />
        </g>
    </g>
</svg>
