<?xml version="1.0" encoding="UTF-8" standalone="no"?>
<!DOCTYPE svg PUBLIC "-//W3C//DTD SVG 1.1//EN" "http://www.w3.org/Graphics/SVG/1.1/DTD/svg11.dtd">
<svg width="32" height="32" viewBox="0 0 32 32" version="1.1" xmlns="http://www.w3.org/2000/svg" xmlns:xlink="http://www.w3.org/1999/xlink" xml:space="preserve" xmlns:serif="http://www.serif.com/" >
  <style type="text / css">
    .Red{fill:#CD4C32;}
    .Green{fill:#4EA17E;}
    .Blue{fill:#3E79B4;}
    .Yellow{fill:#EAB765;}
    .Black{fill:#797979;}
    .Gray{fill:#B4B4B5;}
    .White{fill:#FFFFFF;}
  </style>
    <g id="icon">
        <g transform="matrix(1.13025,0,0,1.26455,-0.516839,0.315048)">
            <ellipse fill="#FFFFFF" class="White" cx="14.613" cy="12.404" rx="12.387" ry="11.071" />
        </g>
        <path fill="#797979" class="Black" d="M16,31C7.729,31 1,24.271 1,16C1,7.729 7.729,1 16,1C24.271,1 31,7.729 31,16C31,24.271 24.271,31 16,31ZM16,3C8.832,3 3,8.832 3,16C3,23.168 8.832,29 16,29C23.168,29 29,23.168 29,16C29,8.832 23.168,3 16,3Z" />
        <g transform="matrix(-0.00198364,-0.985064,0.985064,-0.00198364,-3.61762,40.5996)">
            <circle fill="#797979" class="Black" cx="25" cy="20" r="3"/>
        </g>
        <g transform="matrix(-0.00198364,-0.985064,0.985064,-0.00198364,-3.61762,40.5996)">
            <path fill="#797979" class="Black" d="M26.414,21.415C25.634,22.195 24.367,22.195 23.586,21.414C22.805,20.634 22.805,19.366 23.586,18.586C24.367,17.805 33.739,11.318 33.739,11.318C33.739,11.318 27.195,20.634 26.414,21.415Z" />
        </g>
        <path fill="#3E79B4" class="Blue" d="M7.215,9.382L9.138,11.888C8.416,13.09 8,14.497 8,16C8,18.644 9.285,20.99 11.264,22.446L9.488,24.864C6.767,22.861 5,19.635 5,16C5,13.517 5.825,11.224 7.215,9.382ZM9.448,7.166C11.279,5.805 13.546,5 16,5C22.071,5 27,9.929 27,16C27,19.635 25.233,22.861 22.512,24.864L20.736,22.446C22.715,20.99 24,18.644 24,16C24,11.585 20.415,8 16,8C14.535,8 13.162,8.395 11.98,9.083L9.448,7.166Z" />
    </g>
</svg>
