<?xml version="1.0" encoding="UTF-8" standalone="no"?>
<!DOCTYPE svg PUBLIC "-//W3C//DTD SVG 1.1//EN" "http://www.w3.org/Graphics/SVG/1.1/DTD/svg11.dtd">
<svg width="100%" height="100%" viewBox="0 0 32 32" version="1.1" xmlns="http://www.w3.org/2000/svg" xmlns:xlink="http://www.w3.org/1999/xlink" xml:space="preserve" xmlns:serif="http://www.serif.com/" style="fill-rule:evenodd;clip-rule:evenodd;stroke-linejoin:round;stroke-miterlimit:1.41421;">
  <style type="text / css">
    .Red{fill:#CD4C32;}
    .Green{fill:#4EA17E;}
    .Blue{fill:#3E79B4;}
    .Yellow{fill:#EAB765;}
    .Black{fill:#797979;}
    .Gray{fill:#B4B4B5;}
    .White{fill:#FFFFFF;}
  </style>
    <g id="icon">
        <g>
            <path fill="#EAB765" class="Yellow" d="M21.433,14C20.739,14 20.205,13.378 20.047,12.823C20.017,12.759 20,12.687 20,12.611L20,5C16.814,5 3.9,5 3.9,5C3.259,5 3,5.265 3,5.9L3,26.1C3,26.735 3.259,27 3.9,27L28.1,27C28.741,27 29,26.735 29,26.1C29,26.1 29,16.819 29,14L21.433,14ZM6.5,10L16.5,10C16.776,10 17,10.224 17,10.5C17,10.776 16.776,11 16.5,11L6.5,11C6.224,11 6,10.776 6,10.5C6,10.224 6.224,10 6.5,10ZM6.5,13L16.5,13C16.776,13 17,13.224 17,13.5C17,13.776 16.776,14 16.5,14L6.5,14C6.224,14 6,13.776 6,13.5C6,13.224 6.224,13 6.5,13ZM6.5,16L16.5,16C16.776,16 17,16.224 17,16.5C17,16.776 16.776,17 16.5,17L6.5,17C6.224,17 6,16.776 6,16.5C6,16.224 6.224,16 6.5,16ZM25.5,23L6.5,23C6.224,23 6,22.776 6,22.5C6,22.224 6.224,22 6.5,22L25.5,22C25.776,22 26,22.224 26,22.5C26,22.776 25.776,23 25.5,23ZM25.5,20L6.5,20C6.224,20 6,19.776 6,19.5C6,19.224 6.224,19 6.5,19L25.5,19C25.776,19 26,19.224 26,19.5C26,19.776 25.776,20 25.5,20Z" />
            <path fill="#EAB765" class="Yellow" d="M21.433,13L28.985,13C28.954,12.797 28.859,12.559 28.6,12.3C28.301,12.001 23.184,6.884 21.7,5.4C21.508,5.208 21.29,5.078 21,5.026L21,12.508C21.01,12.639 21.23,13 21.433,13Z" />
        </g>
        <path fill="#797979" class="Black" d="M25.522,22C25.529,22.001 25.537,22.001 25.544,22.002C25.662,22.012 25.775,22.066 25.857,22.15C25.94,22.235 25.991,22.349 25.999,22.467C26.006,22.57 25.98,22.675 25.925,22.763C25.863,22.863 25.765,22.94 25.652,22.976C25.61,22.99 25.566,22.998 25.522,23C25.515,23 25.507,23 25.5,23L6.5,23C6.493,23 6.485,23 6.478,23C6.375,22.995 6.274,22.958 6.192,22.894C6.099,22.821 6.033,22.715 6.01,22.599C5.987,22.483 6.005,22.36 6.063,22.256C6.11,22.173 6.181,22.103 6.266,22.058C6.331,22.024 6.404,22.004 6.478,22C6.485,22 6.493,22 6.5,22L25.5,22C25.507,22 25.515,22 25.522,22ZM25.522,19C25.529,19.001 25.537,19.001 25.544,19.002C25.647,19.011 25.747,19.053 25.825,19.12C25.909,19.192 25.968,19.293 25.99,19.401C26.011,19.502 25.999,19.61 25.956,19.704C25.911,19.805 25.832,19.89 25.734,19.942C25.669,19.976 25.596,19.996 25.522,20C25.515,20 25.507,20 25.5,20L6.5,20C6.493,20 6.485,20 6.478,20C6.375,19.995 6.274,19.958 6.192,19.894C6.099,19.821 6.033,19.715 6.01,19.599C5.987,19.483 6.005,19.36 6.063,19.256C6.11,19.173 6.181,19.103 6.266,19.058C6.331,19.024 6.404,19.004 6.478,19C6.485,19 6.493,19 6.5,19L25.5,19C25.507,19 25.515,19 25.522,19ZM16.522,16C16.529,16.001 16.537,16.001 16.544,16.002C16.647,16.011 16.747,16.053 16.825,16.12C16.909,16.192 16.968,16.293 16.99,16.401C17.012,16.51 16.997,16.625 16.947,16.724C16.901,16.816 16.825,16.894 16.734,16.942C16.669,16.976 16.596,16.996 16.522,17C16.515,17 16.507,17 16.5,17L6.5,17C6.493,17 6.485,17 6.478,17C6.367,16.995 6.259,16.952 6.175,16.88C6.091,16.808 6.032,16.708 6.01,16.599C5.991,16.505 6,16.405 6.035,16.316C6.081,16.2 6.172,16.102 6.286,16.048C6.346,16.02 6.411,16.003 6.478,16C6.485,16 6.493,16 6.5,16L16.5,16C16.507,16 16.515,16 16.522,16ZM16.522,13C16.529,13.001 16.537,13.001 16.544,13.002C16.655,13.012 16.761,13.059 16.842,13.135C16.922,13.21 16.977,13.313 16.994,13.423C17.013,13.547 16.984,13.677 16.913,13.781C16.851,13.873 16.758,13.943 16.652,13.976C16.61,13.99 16.566,13.998 16.522,14C16.515,14 16.507,14 16.5,14L6.5,14C6.493,14 6.485,14 6.478,14C6.36,13.994 6.245,13.946 6.158,13.865C6.067,13.78 6.009,13.659 6.001,13.533C5.994,13.43 6.02,13.325 6.075,13.237C6.137,13.137 6.235,13.06 6.348,13.024C6.39,13.01 6.434,13.002 6.478,13C6.485,13 6.493,13 6.5,13L16.5,13C16.507,13 16.515,13 16.522,13ZM16.522,10C16.529,10.001 16.537,10.001 16.544,10.002C16.655,10.012 16.761,10.059 16.842,10.135C16.917,10.205 16.97,10.3 16.99,10.401C17.012,10.51 16.997,10.625 16.947,10.724C16.901,10.816 16.825,10.894 16.734,10.942C16.669,10.976 16.596,10.996 16.522,11C16.515,11 16.507,11 16.5,11L6.5,11C6.493,11 6.485,11 6.478,11C6.345,10.994 6.217,10.933 6.127,10.833C6.054,10.751 6.008,10.644 6.001,10.533C5.994,10.43 6.02,10.325 6.075,10.237C6.137,10.137 6.235,10.06 6.348,10.024C6.39,10.01 6.434,10.002 6.478,10C6.485,10 6.493,10 6.5,10L16.5,10C16.507,10 16.515,10 16.522,10Z" />
    </g>
</svg>
