<?xml version="1.0" encoding="UTF-8"?>
<!DOCTYPE svg PUBLIC "-//W3C//DTD SVG 1.1//EN" "http://www.w3.org/Graphics/SVG/1.1/DTD/svg11.dtd">
<svg version="1.1" id="Layer_1" xmlns="http://www.w3.org/2000/svg" xmlns:xlink="http://www.w3.org/1999/xlink" x="0px" y="0px" width="32px" height="32px" viewBox="0 0 32 32" enable-background="new 0 0 32 32" xml:space="preserve">
  <style type="text / css">
    .Red{fill:#CD4C32;}
    .Green{fill:#4EA17E;}
    .Blue{fill:#3E79B4;}
    .Yellow{fill:#EAB765;}
    .Black{fill:#797979;}
    .Gray{fill:#B4B4B5;}
    .White{fill:#FFFFFF;}
  </style>
  <g id="icon">
    <path fill="#3E79B4" class="Blue" d="M28.3621,1H19.511c-0.4096,0,-0.796,0.0962,-1.142,0.2632c-0.2015,0.039,-0.394,0.1368,-0.55,0.2934L1.3713,18.0632c-0.4158,0.4171,-0.4158,1.0935,0,1.5107l11.1058,11.1411c0.4158,0.4172,1.09,0.4172,1.5059,0l16.4477,-16.5066c0.1218,-0.1222,0.2048,-0.2669,0.2552,-0.4206c0.2016,-0.3743,0.3142,-0.8027,0.3142,-1.258V3.6505C31,2.1867,29.8213,1,28.3621,1zM25.8647,8.5004c-1.2843,0,-2.3255,-1.0396,-2.3255,-2.3221s1.0411,-2.3221,2.3255,-2.3221s2.3255,1.0396,2.3255,2.3221S27.149,8.5004,25.8647,8.5004z" fill-rule="evenodd" />
  </g>
</svg>
