<?xml version="1.0" encoding="UTF-8" standalone="no"?>
<!DOCTYPE svg PUBLIC "-//W3C//DTD SVG 1.1//EN" "http://www.w3.org/Graphics/SVG/1.1/DTD/svg11.dtd">
<svg width="100%" height="100%" viewBox="0 0 32 32" version="1.1" xmlns="http://www.w3.org/2000/svg" xmlns:xlink="http://www.w3.org/1999/xlink" xml:space="preserve" xmlns:serif="http://www.serif.com/" style="fill-rule:evenodd;clip-rule:evenodd;stroke-linejoin:round;stroke-miterlimit:2;">
  <style type="text / css">
    .Red{fill:#CD4C32;}
    .Green{fill:#4EA17E;}
    .Blue{fill:#3E79B4;}
    .Yellow{fill:#EAB765;}
    .Black{fill:#797979;}
    .Gray{fill:#B4B4B5;}
    .White{fill:#FFFFFF;}
  </style>
    <g id="icon">
        <path class="White" d="M5.213,22.956L25.537,2.685C26.594,1.628 30.373,5.406 29.315,6.463L8.981,26.724C8.433,27.271 2.7,29.3 2.7,29.3C2.7,29.3 4.665,23.504 5.213,22.956ZM22.676,5.568L26.348,9.199M5.345,22.902L9.119,26.676" style="fill:#fff;fill-rule:nonzero;"/>
        <path class="Black" d="M4.86,22.602L25.183,2.331C25.515,2 26.008,1.913 26.586,2.093C27.201,2.285 27.943,2.798 28.573,3.428C29.202,4.057 29.716,4.8 29.907,5.414C30.087,5.992 30,6.485 29.668,6.817L9.334,27.078C9.205,27.207 8.84,27.421 8.325,27.657C6.564,28.462 2.867,29.771 2.867,29.771L1.896,30.115L2.226,29.139C2.226,29.139 3.495,25.401 4.284,23.623C4.516,23.101 4.73,22.732 4.86,22.602ZM8.306,26.57L5.369,23.634C5.238,23.902 5.076,24.3 4.892,24.756C4.415,25.934 3.861,27.483 3.514,28.475C4.496,28.117 6.025,27.548 7.19,27.06C7.642,26.871 8.038,26.704 8.306,26.57ZM6.014,22.864L9.075,25.925L25.749,9.31L22.663,6.258L6.014,22.864ZM23.371,5.552L26.458,8.604L28.962,6.109C28.996,6.075 29,6.027 29,5.976C29,5.894 28.982,5.806 28.952,5.712C28.799,5.22 28.369,4.639 27.866,4.135C27.362,3.631 26.78,3.201 26.289,3.048C26.194,3.019 26.106,3 26.024,3C25.972,3 25.924,3.005 25.89,3.039L23.371,5.552Z" style="fill:#383838;"/>
    </g>
</svg>
