<?xml version="1.0" encoding="UTF-8" standalone="no"?>
<!DOCTYPE svg PUBLIC "-//W3C//DTD SVG 1.1//EN" "http://www.w3.org/Graphics/SVG/1.1/DTD/svg11.dtd">
<svg width="100%" height="100%" viewBox="0 0 32 32" version="1.1" xmlns="http://www.w3.org/2000/svg" xmlns:xlink="http://www.w3.org/1999/xlink" xml:space="preserve" xmlns:serif="http://www.serif.com/" style="fill-rule:evenodd;clip-rule:evenodd;stroke-linejoin:round;stroke-miterlimit:2;">
  <style type="text / css">
    .Red{fill:#CD4C32;}
    .Green{fill:#4EA17E;}
    .Blue{fill:#3E79B4;}
    .Yellow{fill:#EAB765;}
    .Black{fill:#797979;}
    .Gray{fill:#B4B4B5;}
    .White{fill:#FFFFFF;}
  </style>
    <g id="icon">
        <rect class="White" x="4" y="2" width="24" height="28" style="fill:#fff;"/>
        <path class="Green" d="M4,2L4,30L28,30L28,2L4,2ZM27,29L5,29L5,3L27,3L27,29Z" style="fill:#4ea17e;fill-opacity:0.2;fill-rule:nonzero;"/>
        <path class="Green" d="M27.7,31L4.3,31C3.582,31 3,30.418 3,29.7L3,2.3C3,1.582 3.582,1 4.3,1L27.7,1C28.418,1 29,1.582 29,2.3L29,29.7C29,30.418 28.418,31 27.7,31ZM27.7,30C27.866,30 28,29.866 28,29.7L28,2.3C28,2.134 27.866,2 27.7,2L4.3,2C4.134,2 4,2.134 4,2.3L4,29.7C4,29.866 4.134,30 4.3,30L27.7,30Z" style="fill:#4ea17e;"/>
        <path class="Gray" d="M24.488,7L7.513,7C7.23,7 7,6.771 7,6.488L7,5.513C7,5.23 7.23,5 7.513,5L24.488,5C24.771,5 25,5.23 25,5.513L25,6.488C25,6.771 24.77,7 24.488,7Z" style="fill:#b4b4b5;fill-rule:nonzero;"/>
        <path class="Gray" d="M8.5,10C8.224,10 8,9.776 8,9.5C8,9.224 8.224,9 8.5,9L23.5,9C23.776,9 24,9.224 24,9.5C24,9.776 23.776,10 23.5,10L8.5,10ZM9.5,12C9.224,12 9,11.776 9,11.5C9,11.224 9.224,11 9.5,11L22.5,11C22.776,11 23,11.224 23,11.5C23,11.776 22.776,12 22.5,12L9.5,12ZM8.5,14C8.224,14 8,13.776 8,13.5C8,13.224 8.224,13 8.5,13L23.5,13C23.776,13 24,13.224 24,13.5C24,13.776 23.776,14 23.5,14L8.5,14Z" style="fill:#b4b4b5;"/>
        <path class="Gray" d="M7.5,22C7.224,22 7,21.776 7,21.5C7,21.224 7.224,21 7.5,21L13.5,21C13.776,21 14,21.224 14,21.5C14,21.776 13.776,22 13.5,22L7.5,22ZM7.5,24C7.224,24 7,23.776 7,23.5C7,23.224 7.224,23 7.5,23L11.5,23C11.776,23 12,23.224 12,23.5C12,23.776 11.776,24 11.5,24L7.5,24ZM7.5,18C7.224,18 7,17.776 7,17.5C7,17.224 7.224,17 7.5,17L13.5,17C13.776,17 14,17.224 14,17.5C14,17.776 13.776,18 13.5,18L7.5,18ZM7.5,20C7.224,20 7,19.776 7,19.5C7,19.224 7.224,19 7.5,19L11.5,19C11.776,19 12,19.224 12,19.5C12,19.776 11.776,20 11.5,20L7.5,20ZM7.5,26C7.224,26 7,25.776 7,25.5C7,25.224 7.224,25 7.5,25L12.5,25C12.776,25 13,25.224 13,25.5C13,25.776 12.776,26 12.5,26L7.5,26Z" style="fill:#b4b4b5;"/>
        <path class="Red" d="M21.011,16.021C23.206,16.021 24.986,17.801 24.986,19.996C24.986,22.192 23.206,23.971 21.011,23.971C18.815,23.971 17.036,22.192 17.036,19.996C17.036,17.801 18.815,16.021 21.011,16.021ZM23.414,23.999C22.79,24.376 22.07,24.609 21.299,24.653L22.116,27.564C22.164,27.734 22.376,27.79 22.502,27.667L23.374,26.817L24.592,26.803C24.768,26.8 24.878,26.611 24.792,26.457L23.414,23.999ZM20.722,24.65L19.903,27.564C19.856,27.733 19.644,27.79 19.518,27.667L18.645,26.817L17.427,26.802C17.251,26.8 17.142,26.611 17.228,26.457L18.616,23.979C19.236,24.361 19.953,24.599 20.722,24.65Z" style="fill:#cd4c32;fill-rule:nonzero;"/>
    </g>
</svg>
