<?xml version="1.0" encoding="UTF-8"?>
<!DOCTYPE svg PUBLIC "-//W3C//DTD SVG 1.1//EN" "http://www.w3.org/Graphics/SVG/1.1/DTD/svg11.dtd">
<svg version="1.1" id="Layer_1" xmlns="http://www.w3.org/2000/svg" xmlns:xlink="http://www.w3.org/1999/xlink" x="0px" y="0px" width="32px" height="32px" viewBox="0 0 32 32" enable-background="new 0 0 32 32" xml:space="preserve">
  <style type="text / css">
    .Red{fill:#CD4C32;}
    .Green{fill:#4EA17E;}
    .Blue{fill:#3E79B4;}
    .Yellow{fill:#EAB765;}
    .Black{fill:#797979;}
    .Gray{fill:#B4B4B5;}
    .White{fill:#FFFFFF;}
  </style>
  <g id="icon">
    <path class="Gray" d="M23,15.4v-4.096c0,-3.955,-3.206,-7.296,-7,-7.296S9,7.35,9,11.304V15.4H6v-4.096c0,-2.725,1.05,-5.296,2.955,-7.239c1.898,-1.936,4.4,-3.002,7.045,-3.002c2.644,0,5.146,1.066,7.045,3.002C24.95,6.008,26,8.579,26,11.304V15.4H23z" fill="#B4B4B5"/>
    <path class="Yellow" d="M27.071,14H4.843c-0.458,0,-0.843,0.348,-0.843,0.82v15.326c0,0.472,0.418,0.854,0.876,0.854H27.17c0.458,0,0.83,-0.382,0.83,-0.854V14.82C28,14.348,27.529,14,27.071,14zM17.3,22.692l0.5,4.263c0,0.687,-1.067,1.049,-1.75,1.049s-1.85,-0.362,-1.85,-1.049l0.6,-4.263c-0.7,-0.432,-1.235,-1.237,-1.235,-2.162c0,-1.38,1.118,-2.499,2.489,-2.499s2.484,1.119,2.484,2.499C18.538,21.454,18.1,22.26,17.3,22.692z" fill="#EAB765"/>
    <path class="White" d="M18.538,20.53c0,-1.38,-1.113,-2.499,-2.484,-2.499c-1.371,0,-2.489,1.119,-2.489,2.499c0,0.924,0.535,1.729,1.235,2.162l-0.6,4.263c0,0.687,1.167,1.049,1.85,1.049s1.75,-0.362,1.75,-1.049l-0.5,-4.263C18.1,22.26,18.538,21.454,18.538,20.53z" fill="#FFFFFF"/>
  </g>
</svg>
