<?xml version="1.0" encoding="UTF-8"?>
<!DOCTYPE svg PUBLIC "-//W3C//DTD SVG 1.1//EN" "http://www.w3.org/Graphics/SVG/1.1/DTD/svg11.dtd">
<svg version="1.1" id="Layer_1" xmlns="http://www.w3.org/2000/svg" xmlns:xlink="http://www.w3.org/1999/xlink" x="0px" y="0px" width="32px" height="32px" viewBox="0 0 32 32" enable-background="new 0 0 32 32" xml:space="preserve">
  <style type="text / css">
    .Red{fill:#CD4C32;}
    .Green{fill:#4EA17E;}
    .Blue{fill:#3E79B4;}
    .Yellow{fill:#EAB765;}
    .Black{fill:#797979;}
    .Gray{fill:#B4B4B5;}
    .White{fill:#FFFFFF;}
  </style>
  <g id="icon">
    <path class="White" d="M22,8.1c0,3.432,-2.268,9.067,-5.892,9.067S10.007,11.43,10.1,8c0.148,-5.434,4.316,-5.033,5.9,-5S22,3.1,22,8.1zM15.999,18.4c-1.54,0,-2.777,-1,-4.114,-2.4c-0.206,0.6,-1.407,0.999,-1.851,1.2c2.214,4.766,4.684,7.3,5.965,7.3c1.281,0,3.959,-2.542,6.068,-7.3c-0.514,-0.1,-1.748,-0.5,-1.954,-1.2C18.987,17.227,17.509,18.4,15.999,18.4z" fill-rule="evenodd" fill="#FFFFFF"/>
    <path class="Blue" d="M16.095,1.027c-5.819,0,-7.14,2.574,-7.14,6.66c0,4.086,2.863,10.863,7.108,10.863c4.245,0,7.02,-6.776,7.02,-10.863C23.083,3.601,21.85,1.027,16.095,1.027zM16.106,17.167c-3.524,0,-5.694,-5.501,-5.694,-8.933c0,-0.396,0.032,-0.774,0.093,-1.135c0.316,-0.494,0.636,-1.058,0.844,-1.332c1.882,1.113,7.638,1.053,9.438,0c0.103,0.419,0.414,1.073,0.75,1.516c0.042,0.305,0.064,0.622,0.064,0.951C21.6,11.666,19.63,17.167,16.106,17.167z" fill-rule="evenodd" fill="#3E79B4"/>
    <path class="Blue" d="M30.983,27.105c-0.973,-7.058,-0.861,-7.186,-9.225,-10.005c-1.645,3.9,-4.602,7.199,-5.759,7.199S11.886,21,10.446,17c-0.048,0.019,-0.351,0.14,-0.826,0.358c-8.364,2.819,-7.579,2.689,-8.552,9.747c-0.599,3.849,14.869,3.87,14.869,3.87S31.583,30.954,30.983,27.105z" fill-rule="evenodd" fill="#3E79B4"/>
  </g>
</svg>
