<?xml version="1.0" encoding="UTF-8"?>
<!DOCTYPE svg PUBLIC "-//W3C//DTD SVG 1.1//EN" "http://www.w3.org/Graphics/SVG/1.1/DTD/svg11.dtd">
<svg version="1.1" id="Layer_1" xmlns="http://www.w3.org/2000/svg" xmlns:xlink="http://www.w3.org/1999/xlink" x="0px" y="0px" width="32px" height="32px" viewBox="0 0 32 32" enable-background="new 0 0 32 32" xml:space="preserve">
  <style type="text / css">
    .Red{fill:#CD4C32;}
    .Green{fill:#4EA17E;}
    .Blue{fill:#3E79B4;}
    .Yellow{fill:#EAB765;}
    .Black{fill:#797979;}
    .Gray{fill:#B4B4B5;}
    .White{fill:#FFFFFF;}
  </style>
  <g id="icon">
    <path class="Blue" d="M24.517,1H7.483C6.664,1,6,1.664,6,2.483v27.033c0,0.819,0.664,1.483,1.483,1.483h17.033c0.819,0,1.483,-0.664,1.483,-1.483V2.483C26,1.664,25.336,1,24.517,1zM14.5,2h3c0.275,0,0.5,0.225,0.5,0.5s-0.225,0.5,-0.5,0.5h-3c-0.275,0,-0.5,-0.225,-0.5,-0.5S14.225,2,14.5,2zM17.5,30h-3c-0.275,0,-0.5,-0.225,-0.5,-0.5s0.225,-0.5,0.5,-0.5h3c0.275,0,0.5,0.225,0.5,0.5S17.775,30,17.5,30zM24,28H8V4h16V28z" fill="#3E79B4"/>
    <path class="White" d="M24,28H8V4h16V28zM18,2.5L18,2.5c0,-0.275,-0.225,-0.5,-0.5,-0.5h-3c-0.275,0,-0.5,0.225,-0.5,0.5v0c0,0.275,0.225,0.5,0.5,0.5h3C17.775,3,18,2.775,18,2.5zM18,29.5L18,29.5c0,-0.275,-0.225,-0.5,-0.5,-0.5h-3c-0.275,0,-0.5,0.225,-0.5,0.5l0,0c0,0.275,0.225,0.5,0.5,0.5h3C17.775,30,18,29.775,18,29.5z" fill="#FFFFFF"/>
    <path class="Black" d="M13.155,8.864c-0.042,-0.073,-0.039,-0.157,0.006,-0.232c0.214,-0.347,1.67,-0.607,2.829,-0.607c0.183,0,0.36,0.006,0.526,0.018c0.513,0.028,1.983,0.223,2.159,0.599c0.038,0.08,0.026,0.17,-0.033,0.242c-0.104,0.128,-0.309,0.189,-0.644,0.189h0c-0.263,0,-0.573,-0.037,-0.872,-0.071c-0.227,-0.026,-0.442,-0.051,-0.615,-0.057c-0.143,-0.008,-0.293,-0.013,-0.448,-0.013c-0.495,0,-0.984,0.041,-1.415,0.078c-0.34,0.029,-0.633,0.054,-0.87,0.054C13.526,9.064,13.256,9.04,13.155,8.864zM11.154,11.801c0.219,0,0.54,-0.129,0.985,-0.306c0.855,-0.342,2.146,-0.858,3.727,-0.858c0.241,0,0.485,0.012,0.724,0.036l0.008,0.001c1.444,0.068,2.55,0.554,3.282,0.885c0.416,0.188,0.717,0.311,0.94,0.311c0,0,0,0,0,0c0.129,0,0.23,-0.031,0.3,-0.118c0.046,-0.056,0.109,-0.17,0.02,-0.348c-0.323,-0.648,-2.533,-1.662,-4.809,-1.688c-0.179,-0.012,-0.363,-0.017,-0.547,-0.017c-2.472,0,-4.62,1.084,-4.919,1.65c-0.087,0.164,-0.033,0.277,0.007,0.33C10.916,11.734,10.998,11.801,11.154,11.801zM21.04,18.176c-0.044,-0.038,-0.085,-0.072,-0.118,-0.102c-0.598,-0.532,-0.855,-0.971,-1.153,-1.479c-0.143,-0.244,-0.291,-0.496,-0.486,-0.773c-0.44,-0.625,-1.633,-2.09,-3.193,-2.203c-1.47,-0.107,-2.668,0.535,-3.55,1.899c-0.778,1.204,-0.909,3.313,0.552,5.309l0.019,0.021c0.327,0.294,0.558,0.564,0.726,0.761c0.223,0.261,0.358,0.419,0.535,0.419c0.087,0,0.168,-0.041,0.241,-0.121c0.305,-0.337,0.016,-0.755,-0.461,-1.448c-0.049,-0.071,-0.101,-0.146,-0.154,-0.225c-0.973,-1.416,-0.952,-2.446,-0.847,-3.379c0.098,-0.869,1.389,-2.309,2.592,-2.309c0.026,0,0.053,0.001,0.079,0.002c1.183,0.067,1.744,0.793,2.238,1.433c0.118,0.152,0.229,0.296,0.344,0.425c0.257,0.288,0.403,0.514,0.573,0.775c0.209,0.322,0.446,0.687,0.948,1.243c0.57,0.615,1.193,1.029,1.552,1.029c0.135,0,0.24,-0.056,0.295,-0.158C21.937,18.984,21.52,18.588,21.04,18.176zM20.49,20.869c-1.258,-0.619,-2.062,-2.029,-2.448,-2.707c-0.05,-0.088,-0.092,-0.162,-0.127,-0.219c-0.052,-0.085,-0.105,-0.203,-0.168,-0.339c-0.265,-0.579,-0.709,-1.549,-1.866,-1.549c-0.015,0,-0.03,0,-0.044,0c-0.873,0.013,-1.327,0.489,-1.43,1.498c-0.09,0.888,0.366,1.96,1.394,3.278l0.008,0.01c0.217,0.23,0.459,0.504,0.693,0.767c0.858,0.966,1.261,1.392,1.521,1.392c0,0,0,0,0,0c0.071,0,0.133,-0.032,0.174,-0.085c0.4,-0.515,0.077,-0.834,-0.702,-1.602c-0.181,-0.178,-0.386,-0.381,-0.62,-0.621c-0.724,-0.847,-1.338,-2.143,-1.427,-2.63c-0.059,-0.323,0.022,-0.71,0.187,-0.9c0.082,-0.094,0.176,-0.134,0.288,-0.122l0.011,0.001c0.342,0.012,0.743,0.801,1.065,1.436c0.183,0.36,0.355,0.7,0.535,0.964c0.93,1.374,2.785,2.665,3.376,2.665c0.161,0,0.225,-0.085,0.249,-0.135C21.377,21.506,20.66,20.953,20.49,20.869zM20.103,13.231c-0.885,-0.781,-2.563,-1.621,-4.156,-1.621c-0.089,0,-0.177,0.003,-0.262,0.008c-1.276,0.055,-2.608,0.508,-3.653,1.242c-1.536,1.04,-2.11,2.847,-2.028,3.798c0.025,0.288,0.111,0.468,0.257,0.536c0.035,0.016,0.072,0.025,0.108,0.025h0c0.233,0,0.32,-0.271,0.478,-0.764c0.255,-0.796,0.683,-2.128,1.974,-2.905c0.67,-0.409,1.491,-0.838,2.507,-0.924c0.231,-0.02,0.452,-0.029,0.657,-0.029c1.381,0,2.201,0.427,3.413,1.324c0.319,0.236,0.722,0.68,1.113,1.109c0.623,0.685,0.989,1.073,1.246,1.073c0.06,0,0.114,-0.019,0.157,-0.056c0.039,-0.033,0.085,-0.095,0.085,-0.202C22.004,15.303,20.754,13.805,20.103,13.231z" fill="#6D6E71"/>
  </g>
</svg>
