<?xml version="1.0" encoding="UTF-8" standalone="no"?>
<!DOCTYPE svg PUBLIC "-//W3C//DTD SVG 1.1//EN" "http://www.w3.org/Graphics/SVG/1.1/DTD/svg11.dtd">
<svg width="100%" height="100%" viewBox="0 0 32 32" version="1.1" xmlns="http://www.w3.org/2000/svg" xmlns:xlink="http://www.w3.org/1999/xlink" xml:space="preserve" xmlns:serif="http://www.serif.com/" style="fill-rule:evenodd;clip-rule:evenodd;stroke-linejoin:round;stroke-miterlimit:2;">
  <style type="text / css">
    .Red{fill:#CD4C32;}
    .Green{fill:#4EA17E;}
    .Blue{fill:#3E79B4;}
    .Yellow{fill:#EAB765;}
    .Black{fill:#797979;}
    .Gray{fill:#B4B4B5;}
    .White{fill:#FFFFFF;}
  </style>
    <g id="icon">
        <path class="White" d="M27.5,30.5L4.5,30.5L4.5,1.5L21.5,1.5L27.5,7.5L27.5,30.5Z" style="fill:#fff;fill-rule:nonzero;"/>
        <path class="Black" d="M21.707,1L4,1L4,31L28,31L28,7.293L21.707,1ZM22,2.707L26.293,7L22,7L22,2.707ZM5,30L5,2L21,2L21,8L27,8L27,30L5,30Z" style="fill:#797979;fill-rule:nonzero;"/>
        <path class="White" d="M19.5,15.5L19.5,13.021C19.5,11.084 17.925,9.5 16,9.5C14.075,9.5 12.5,11.084 12.5,13.021L12.5,15.5" style="fill:#fff;fill-rule:nonzero;"/>
        <path class="Black" d="M20,15.5L19,15.5L19,13.021C19,11.36 17.651,10 16,10C14.349,10 13,11.36 13,13.021L13,15.5L12,15.5L12,13.021C12,10.808 13.801,9 16,9C18.199,9 20,10.808 20,13.021L20,15.5Z" style="fill:#797979;"/>
        <rect class="White" x="10.5" y="15.5" width="11" height="8" style="fill:#fff;fill-rule:nonzero;"/>
        <path class="Black" d="M22,15L22,24L10,24L10,15L22,15ZM11,16L11,23L21,23L21,16L11,16Z" style="fill:#797979;"/>
        <rect class="Black" x="15.5" y="19.5" width="1" height="2" style="fill:#797979;"/>
    </g>
</svg>
