<?xml version="1.0" encoding="UTF-8" standalone="no"?>
<!DOCTYPE svg PUBLIC "-//W3C//DTD SVG 1.1//EN" "http://www.w3.org/Graphics/SVG/1.1/DTD/svg11.dtd">
<svg width="32" height="32" viewBox="0 0 32 32" version="1.1" xmlns="http://www.w3.org/2000/svg" xmlns:xlink="http://www.w3.org/1999/xlink" xml:space="preserve" xmlns:serif="http://www.serif.com/" >
  <style type="text / css">
    .Red{fill:#CD4C32;}
    .Green{fill:#4EA17E;}
    .Blue{fill:#3E79B4;}
    .Yellow{fill:#EAB765;}
    .Black{fill:#797979;}
    .Gray{fill:#B4B4B5;}
    .White{fill:#FFFFFF;}
  </style>
    <g id="main">
        <g id="transformed_icon" transform="matrix(1,0,0,1,-1,-1)">
            <clipPath id="_clip1">
                <path d="M21.926,33C19.519,31.6 17.9,28.988 17.9,26C17.9,21.527 21.527,17.9 26,17.9C28.988,17.9 31.6,19.519 33,21.926L33,1L1,1L1,33L21.926,33Z"/>
            </clipPath>
            <g clip-path="url(#_clip1)">
                <path fill="#3E79B4" class="Blue" d="M29,2.688C29,1.756 28.244,1 27.313,1L5.688,1C4.755,1 4,1.756 4,2.688L4,29.313C4,30.244 4.755,31 5.688,31L27.313,31C28.244,31 29,30.244 29,29.313L29,2.688ZM24,14L11,14L11,7L24,7L24,14Z" />
                <path fill="#797979" class="Black" d="M4,17L4,19L2,19L2,17L4,17ZM2,13L2,15L4,15L4,13L2,13ZM2,9L2,11L4,11L4,9L2,9ZM2,21L2,23L4,23L4,21L2,21ZM2,25L2,27L4,27L4,25L2,25ZM4,5L4,7L2,7L2,5L4,5Z" />
                <path fill="#FFFFFF" class="White" d="M5,17L5,19L4,19L4,17L5,17ZM4,13L4,15L5,15L5,13L4,13ZM4,9L4,11L5,11L5,9L4,9ZM4,21L4,23L5,23L5,21L4,21ZM4,25L4,27L5,27L5,25L4,25ZM5,5L5,7L4,7L4,5L5,5Z" />
                <path fill="#797979" class="Black" d="M7,17L7,19L5,19L5,17L7,17ZM5,13L5,15L7,15L7,13L5,13ZM5,9L5,11L7,11L7,9L5,9ZM5,21L5,23L7,23L7,21L5,21ZM5,25L5,27L7,27L7,25L5,25ZM7,5L7,7L5,7L5,5L7,5Z" />
                <g transform="matrix(1.08333,0,0,1.16667,-1.45833,-1.75)">
                    <rect fill="#FFFFFF" class="White" x="11.5" y="7.5" width="12" height="6" />
                </g>
            </g>
        </g>
        <g id="overlay">
            <path fill="#FFFFFF" class="White" d="M25.035,18.835C28.436,18.835 31.194,21.593 31.194,24.995C31.194,28.396 28.436,31.154 25.035,31.154C21.633,31.154 18.875,28.396 18.875,24.995C18.876,21.593 21.633,18.835 25.035,18.835Z" />
            <path fill="#797979" class="Black" d="M25.007,18.014C21.145,18.014 18.014,21.145 18.014,25.007C18.014,28.869 21.145,32 25.007,32C28.869,32 32,28.869 32,25.007C32,21.145 28.869,18.014 25.007,18.014ZM25.007,30.932C21.735,30.932 19.083,28.279 19.083,25.007C19.083,21.735 21.735,19.083 25.007,19.083C28.279,19.083 30.932,21.735 30.932,25.007C30.932,28.279 28.279,30.932 25.007,30.932Z" />
            <path fill="#3E79B4" class="Blue" d="M23.862,25.017C23.859,25.749 23.926,26.083 24.528,26.086C25.129,26.089 25.138,25.679 25.141,24.947C25.143,24.216 24.94,19.6 24.55,19.598C24.16,19.596 23.864,24.286 23.862,25.017Z" />
            <path fill="#3E79B4" class="Blue" d="M25.351,25.606C24.833,25.085 24.568,24.919 24.141,25.343C23.715,25.767 23.829,25.922 24.346,26.444C24.863,26.965 27.906,29.552 28.183,29.278C28.459,29.003 25.868,26.128 25.351,25.606Z" />
        </g>
    </g>
</svg>
