<?xml version="1.0" encoding="UTF-8"?>
<!DOCTYPE svg PUBLIC "-//W3C//DTD SVG 1.1//EN" "http://www.w3.org/Graphics/SVG/1.1/DTD/svg11.dtd">
<svg version="1.1" id="Layer_1" xmlns="http://www.w3.org/2000/svg" xmlns:xlink="http://www.w3.org/1999/xlink" x="0px" y="0px" width="32px" height="32px" viewBox="0 0 32 32" enable-background="new 0 0 32 32" xml:space="preserve">
  <style type="text / css">
    .Red{fill:#CD4C32;}
    .Green{fill:#4EA17E;}
    .Blue{fill:#3E79B4;}
    .Yellow{fill:#EAB765;}
    .Black{fill:#797979;}
    .Gray{fill:#B4B4B5;}
    .White{fill:#FFFFFF;}
  </style>
  <g id="main">
    <clipPath id="clip_mask">
      <path d="M17.029,29.08c-0.1297,-0.6064,0.1837,-1.185,0.7804,-1.438c0.1288,-0.0546,0.265,-0.0823,0.405,-0.0823c0.1093,0,0.2062,0.0171,0.2878,0.0403h2.3464c-0.2384,-0.5009,-0.5745,-1.0614,-0.8886,-1.5854c-0.1462,-0.2439,-0.2938,-0.4903,-0.4374,-0.7379c-0.9175,-1.5827,-1.7841,-3.0775,-1.7841,-4.4877c0,-1.6924,0.7067,-2.8631,2.0438,-3.3855c0.3343,-0.1305,0.7161,-0.1179,1.0353,0.0316C21.1633,17.1,21.6877,17.1,22.0633,17.1h7.4484c1.144,0,1.9471,0.5319,2.4883,1.1642V0H0v32h18.8702C17.5197,31.0981,17.1196,29.5385,17.029,29.08z"/>
    </clipPath>
    <g id="icon" clip-path="url(#clip_mask)">
      <g id="transformed_icon" transform="translate(-1 -1)">
        <path fill="#FFFFFF" class="White" d="M30,29.5H2c-0.276,0,-0.5,-0.224,-0.5,-0.5V7.5h29v21.5C30.5,29.276,30.276,29.5,30,29.5z" />
        <path fill="#3E79B4" class="Blue" d="M29.6,3H2.4c-0.773,0,-1.4,0.627,-1.4,1.4v3.6h30V4.4C31,3.627,30.373,3,29.6,3zM21,7h-2V5h2V7zM25,7h-2V5h2V7zM29,7h-2V5h2V7z" />
        <rect fill="#FFFFFF" class="White" x="2" y="24" width="28" height="5" fill-rule="evenodd" />
        <path fill="#797979" class="Black" d="M30,8l0.001,21H2V8H1v21c0,0.551,0.449,1,1,1h28c0.551,0,1,-0.449,1,-1V8H30z" />
        <path fill="#FFFFFF" class="White" d="M29,7h-2V5h2V7zM25,5h-2v2h2V5zM21,5h-2v2h2V5z" />
      </g>
    </g>
    <g id="overlay">
      <path fill="#EAB765" class="Yellow" d="M21.3242,28.814c0,0.0606,-0.2763,1.4298,-1.5041,2.3263c-0.1417,0.1438,-0.2048,0.1327,-0.3798,0.0258c-1.1647,-0.7666,-1.4155,-2.2184,-1.433,-2.3001c-0.0314,-0.1468,0.0407,-0.2921,0.1926,-0.3566c0.037,-0.0157,0.0776,-0.0094,0.1177,-0.0094h2.6914C21.357,28.5,21.3242,28.5517,21.3242,28.814zM21.8404,18.5276c0.9172,0.8261,1.2753,1.8244,1.2783,1.8393c0.0294,0.1486,0.1529,0.2332,0.296,0.2332h8.2429c0.0372,0,0.0747,0.017,0.1093,0.0025c0.1434,-0.0599,0.2156,-0.1995,0.1925,-0.3445c-0.0186,-0.1158,-0.5681,-2.258,-2.4477,-2.258h-7.4483C21.3382,18,21.3684,18.1025,21.8404,18.5276zM32,28.775c0,2.9086,-2.3282,3.225,-2.4285,3.225c-0.044,0,-6.0297,0,-7.9776,0c-0.2726,0,-1.0482,-0.04,-1.198,-0.1926c-0.0563,-0.0573,0.1642,-0.2075,0.3886,-0.4076c0.0007,-0.0005,0.0015,-0.0006,0.0021,-0.0011c0.2468,-0.2229,1.1384,-1.1148,1.3747,-2.5533c0.1256,-1.1142,-0.9018,-2.5694,-1.7737,-4.0733c-0.8481,-1.4629,-1.6492,-2.8448,-1.6492,-3.9846c0,-1.7396,0.8808,-2.2475,1.4077,-2.4533c0.0994,-0.0388,0.2142,-0.0284,0.2986,0.0375c1.1525,0.9004,1.5997,1.5562,1.9764,2.6372c0.0682,0.1957,0.2268,0.4911,0.4305,0.4911h5.9586c0.1477,0,0.2749,0.1296,0.3118,0.2752c0.2566,1.0109,0.8518,2.4802,1.4274,3.6176C31.2263,26.7301,31.9943,27.8994,32,28.775z" />
    </g>
  </g>
</svg>
