<?xml version="1.0" encoding="UTF-8"?>
<!DOCTYPE svg PUBLIC "-//W3C//DTD SVG 1.1//EN" "http://www.w3.org/Graphics/SVG/1.1/DTD/svg11.dtd">
<svg version="1.1" id="Layer_1" xmlns="http://www.w3.org/2000/svg" xmlns:xlink="http://www.w3.org/1999/xlink" x="0px" y="0px" width="32px" height="32px" viewBox="0 0 32 32" enable-background="new 0 0 32 32" xml:space="preserve">
  <g id="icon">
    <path class="Black" d="M17.701,16.054c0,-1.193,0.013,-3.962,-0.003,-4.733c-0.029,-1.359,-0.79,-2.329,-1.782,-2.298c-0.95,0.03,-1.722,1.121,-1.727,2.4c-0.008,2.379,0.019,4.761,-0.079,7.136c-0.029,0.708,0.01,2.091,-0.65,2.098c-0.555,-0.244,-1.11,-0.485,-1.664,-0.733c-0.099,-0.044,-0.19,-0.112,-0.281,-0.174c-1.064,-0.722,-1.887,-0.738,-2.511,0.089c-0.615,0.815,-0.464,1.726,0.018,2.568c1.188,2.075,2.759,3.692,4.863,4.734c0.974,0.482,1.788,1.278,1.73,2.554c-0.049,1.083,0.448,1.315,1.309,1.304c1.988,-0.025,4.556,-0.021,6.545,-0.013c0.798,0.003,1.11,-0.345,1.199,-1.235c0.079,-0.781,0.458,-1.544,0.778,-2.279c0.479,-1.101,1.393,-1.741,1.544,-2.879c0.266,-1.999,0.112,-2.062,0.161,-4.096c-0.091,-3.408,-2.24,-4.321,-3.034,-2.402c-0.434,-2.227,-2.198,-2.735,-3.164,-1.483C20.231,14.617,18.625,14.152,17.701,16.054z" fill-rule="evenodd" fill="#797979"/>
    <path class="Blue" d="M11,4c0,1.657,-1.343,3,-3,3S5,5.657,5,4s1.343,-3,3,-3S11,2.343,11,4zM16,1c-1.657,0,-3,1.343,-3,3s1.343,3,3,3s3,-1.343,3,-3S17.657,1,16,1zM24,1c-1.657,0,-3,1.343,-3,3s1.343,3,3,3s3,-1.343,3,-3S25.657,1,24,1zM11,12c0,1.657,-1.343,3,-3,3s-3,-1.343,-3,-3s1.343,-3,3,-3S11,10.343,11,12zM24,9c-1.657,0,-3,1.343,-3,3s1.343,3,3,3s3,-1.343,3,-3S25.657,9,24,9z" fill="#3E79B4"/>
  </g>
</svg>
