<?xml version="1.0" encoding="UTF-8" standalone="no"?>
<!DOCTYPE svg PUBLIC "-//W3C//DTD SVG 1.1//EN" "http://www.w3.org/Graphics/SVG/1.1/DTD/svg11.dtd">
<svg width="32" height="32" viewBox="0 0 32 32" version="1.1" xmlns="http://www.w3.org/2000/svg" xmlns:xlink="http://www.w3.org/1999/xlink" xml:space="preserve" xmlns:serif="http://www.serif.com/" >
  <style type="text / css">
    .Red{fill:#CD4C32;}
    .Green{fill:#4EA17E;}
    .Blue{fill:#3E79B4;}
    .Yellow{fill:#EAB765;}
    .Black{fill:#797979;}
    .Gray{fill:#B4B4B5;}
    .White{fill:#FFFFFF;}
  </style>
    <g id="main">
        <g id="transformed_icon" transform="matrix(1,0,0,1,-1,-1)">
            <clipPath id="_clip1">
                <path d="M21.926,33C19.519,31.6 17.9,28.988 17.9,26C17.9,21.527 21.527,17.9 26,17.9C28.988,17.9 31.6,19.519 33,21.926L33,1L1,1L1,33L21.926,33Z"/>
            </clipPath>
            <g clip-path="url(#_clip1)">
                <path fill="#797979" class="Black" d="M23.088,1L8.913,1C8.409,1 8,1.409 8,1.913L8,4L24,4L24,1.913C24,1.409 23.591,1 23.088,1ZM22,3L19,3L19,2L22,2L22,3ZM8,8L24,8L24,5L8,5L8,8ZM19,6L22,6L22,7L19,7L19,6ZM8,30.088C8,30.592 8.409,31.001 8.913,31.001L23.088,31.001C23.592,31.001 24.001,30.592 24.001,30.088L24.001,9L8,9L8,30.088ZM16,23C17.105,23 18,23.895 18,25C18,26.105 17.105,27 16,27C14.895,27 14,26.105 14,25C14,23.895 14.895,23 16,23Z" />
                <path fill="#FFFFFF" class="White" d="M22,3L19,3L19,2L22,2L22,3ZM22,6L19,6L19,7L22,7L22,6ZM16,23C14.895,23 14,23.895 14,25C14,26.105 14.895,27 16,27C17.105,27 18,26.105 18,25C18,23.895 17.105,23 16,23Z" />
            </g>
        </g>
        <g id="overlay">
            <g transform="matrix(0.400124,0,0,0.400124,17.6691,17.6483)">
                <path fill="#797979" class="Black" d="M18.316,0.868C27.981,0.868 35.816,8.702 35.816,18.368C35.816,28.033 27.981,35.868 18.316,35.868C8.651,35.868 0.816,28.033 0.816,18.368C0.816,8.702 8.651,0.868 18.316,0.868Z" />
            </g>
            <g transform="matrix(0.400124,0,0,0.400124,17.6691,17.6483)">
                <path fill="#FFFFFF" class="White" d="M18.316,3.868C10.308,3.868 3.816,10.359 3.816,18.368C3.816,26.376 10.308,32.868 18.316,32.868C26.325,32.868 32.816,26.376 32.816,18.368C32.816,10.359 26.325,3.868 18.316,3.868Z" />
            </g>
            <g transform="matrix(0.400124,0,0,0.371758,17.8597,18.065)">
                <path fill="#797979" class="Black" d="M20.988,14.723L25.865,9.722C25.945,9.64 23.811,7.53 23.717,7.627L16.746,14.776L23.895,21.747C23.996,21.846 26.068,19.676 25.99,19.6L20.988,14.723Z" />
            </g>
            <g transform="matrix(0.400124,0,0,0.371807,17.5023,18.2734)">
                <path fill="#797979" class="Black" d="M15.644,22.109L10.767,17.108C10.682,17.021 12.827,14.923 12.915,15.014L19.886,22.163L12.737,29.134C12.664,29.206 10.537,27.089 10.643,26.986L15.644,22.109Z" />
            </g>
        </g>
    </g>
</svg>
