<?xml version="1.0" encoding="UTF-8"?>
<!DOCTYPE svg PUBLIC "-//W3C//DTD SVG 1.1//EN" "http://www.w3.org/Graphics/SVG/1.1/DTD/svg11.dtd">
<svg version="1.1" id="Layer_1" xmlns="http://www.w3.org/2000/svg" xmlns:xlink="http://www.w3.org/1999/xlink" x="0px" y="0px" width="32px" height="32px" viewBox="0 0 32 32" enable-background="new 0 0 32 32" xml:space="preserve">
  <style type="text / css">
    .Red{fill:#CD4C32;}
    .Green{fill:#4EA17E;}
    .Blue{fill:#3E79B4;}
    .Yellow{fill:#EAB765;}
    .Black{fill:#797979;}
    .Gray{fill:#B4B4B5;}
    .White{fill:#FFFFFF;}
  </style>
  <g id="icon">
    <path fill="#3E79B4" class="Blue" d="M30.992,13.608c-0.001,-0.399,-0.028,-0.802,-0.086,-1.196c-0.239,-1.619,-1.689,-3.11,-3.314,-3.335c-0.759,-0.105,-1.039,-0.087,-1.809,-0.086c-0.296,0,-0.477,-0.078,-0.644,-0.322c-0.676,-0.986,-1.368,-2.261,-2.066,-3.231c-0.211,-0.293,-0.486,-0.436,-0.888,-0.436c-2.54,0,-5.542,0,-8.124,0c-0.593,-0.007,-1.005,0.189,-1.321,0.662c-0.617,0.925,-1.269,2.127,-1.923,3.027c-0.095,0.131,-0.274,0.26,-0.428,0.278c-0.326,0.039,-0.76,0.016,-1.087,0.013V8.5c0,-0.66,-0.54,-1.2,-1.2,-1.2H5.4c-0.66,0,-1.2,0.54,-1.2,1.2v0.5c0,0.028,0.002,0.056,0.004,0.084c-0.145,0.052,-0.28,0.1,-0.416,0.143C2.247,9.714,1,11.371,1,13c0,3.7,0.001,7.414,0,11.1c0,0.125,-0.016,0.14,0.005,0.262c0.384,2.214,2.139,3.614,4.302,3.622c7.071,0.026,14.243,0.016,21.314,0c0.776,-0.002,1.545,-0.158,2.223,-0.584c1.459,-0.916,2.162,-2.225,2.155,-3.934C30.987,20.08,30.999,16.994,30.992,13.608zM6.5,15c-0.828,0,-1.5,-0.672,-1.5,-1.5c0,-0.828,0.672,-1.5,1.5,-1.5s1.5,0.672,1.5,1.5C8,14.328,7.328,15,6.5,15zM18,26c-4.418,0,-8,-3.582,-8,-8c0,-4.418,3.582,-8,8,-8s8,3.582,8,8C26,22.418,22.418,26,18,26zM18,12c-3.314,0,-6,2.686,-6,6s2.686,6,6,6s6,-2.686,6,-6S21.314,12,18,12zM20.208,14.519c-0.566,-0.043,-1.157,0.002,-1.759,0.151c-1.856,0.46,-3.32,1.923,-3.779,3.779c-0.149,0.602,-0.195,1.193,-0.151,1.759c0.015,0.189,-0.231,0.271,-0.336,0.112c-0.52,-0.782,-0.799,-1.74,-0.727,-2.765c0.152,-2.183,1.917,-3.947,4.1,-4.1c1.025,-0.071,1.983,0.207,2.765,0.727C20.478,14.288,20.397,14.534,20.208,14.519z" />
    <path fill="#FFFFFF" class="White" d="M8,13.5c0,0.828,-0.672,1.5,-1.5,1.5s-1.5,-0.672,-1.5,-1.5s0.672,-1.5,1.5,-1.5S8,12.672,8,13.5zM26,18c0,4.418,-3.582,8,-8,8s-8,-3.582,-8,-8c0,-4.418,3.582,-8,8,-8S26,13.582,26,18zM24,18c0,-3.314,-2.686,-6,-6,-6s-6,2.686,-6,6s2.686,6,6,6S24,21.314,24,18zM14.519,20.208c0.015,0.189,-0.231,0.271,-0.336,0.112c-0.52,-0.782,-0.799,-1.74,-0.727,-2.765c0.152,-2.183,1.917,-3.947,4.1,-4.1c1.025,-0.071,1.983,0.207,2.765,0.727c0.158,0.105,0.077,0.351,-0.112,0.336c-0.566,-0.043,-1.157,0.002,-1.759,0.151c-1.856,0.46,-3.32,1.923,-3.779,3.779C14.521,19.051,14.476,19.642,14.519,20.208z" />
  </g>
</svg>
