<?xml version="1.0" encoding="UTF-8"?>
<!DOCTYPE svg PUBLIC "-//W3C//DTD SVG 1.1//EN" "http://www.w3.org/Graphics/SVG/1.1/DTD/svg11.dtd">
<svg version="1.1" id="Layer_1" xmlns="http://www.w3.org/2000/svg" xmlns:xlink="http://www.w3.org/1999/xlink" x="0px" y="0px" width="32px" height="32px" viewBox="0 0 32 32" enable-background="new 0 0 32 32" xml:space="preserve">
  <style type="text / css">
    .Red{fill:#CD4C32;}
    .Green{fill:#4EA17E;}
    .Blue{fill:#3E79B4;}
    .Yellow{fill:#EAB765;}
    .Black{fill:#797979;}
    .Gray{fill:#B4B4B5;}
    .White{fill:#FFFFFF;}
  </style>
  <g id="icon">
    <circle fill="#FFFFFF" class="White" cx="16" cy="16" r="11.7" />
    <path fill="#797979" class="Black" d="M16,31.014c-0.509,0,-1.024,-0.026,-1.532,-0.078c-0.485,-0.049,-0.879,-0.404,-0.98,-0.881l-0.291,-1.381c-0.975,-0.215,-1.921,-0.541,-2.819,-0.973l-0.994,0.908c-0.207,0.189,-0.474,0.293,-0.754,0.293c-0.209,0,-0.413,-0.059,-0.59,-0.169c-0.761,-0.477,-1.484,-1.026,-2.15,-1.632c-0.361,-0.329,-0.466,-0.849,-0.26,-1.293l0.589,-1.275c-0.612,-0.701,-1.147,-1.465,-1.595,-2.279l-1.343,0.16c-0.044,0.005,-0.088,0.008,-0.132,0.008c-0.454,0,-0.858,-0.27,-1.031,-0.688c-0.348,-0.842,-0.62,-1.721,-0.809,-2.613c-0.101,-0.479,0.118,-0.963,0.546,-1.204l1.223,-0.687c-0.039,-0.41,-0.058,-0.822,-0.058,-1.228c0,-0.421,0.021,-0.848,0.062,-1.271l-1.224,-0.702c-0.424,-0.243,-0.639,-0.726,-0.537,-1.203c0.19,-0.884,0.463,-1.756,0.81,-2.59c0.173,-0.417,0.578,-0.686,1.03,-0.686c0.038,0,0.076,0.002,0.115,0.006l1.376,0.141c0.469,-0.842,1.03,-1.63,1.674,-2.349l-0.601,-1.192c-0.227,-0.45,-0.124,-0.998,0.25,-1.333c0.681,-0.611,1.421,-1.162,2.201,-1.639c0.175,-0.107,0.375,-0.163,0.58,-0.163c0.286,0,0.558,0.108,0.766,0.303l0.977,0.918c0.94,-0.44,1.928,-0.765,2.945,-0.968l0.28,-1.348c0.1,-0.48,0.509,-0.844,0.996,-0.885c0.426,-0.036,0.856,-0.055,1.278,-0.055c0.482,0,0.97,0.023,1.45,0.069c0.491,0.047,0.887,0.404,0.986,0.888l0.28,1.364c1.008,0.214,1.984,0.548,2.911,0.995l0.994,-0.907c0.207,-0.189,0.474,-0.293,0.754,-0.293c0.209,0,0.413,0.059,0.59,0.17c0.742,0.465,1.448,0.999,2.099,1.587c0.362,0.327,0.468,0.864,0.258,1.306l-0.592,1.247c0.631,0.714,1.181,1.494,1.64,2.325l1.345,-0.159c0.043,-0.005,0.088,-0.008,0.131,-0.008c0.453,0,0.858,0.27,1.031,0.687c0.341,0.823,0.609,1.682,0.798,2.554c0.102,0.47,-0.109,0.951,-0.523,1.196l-1.234,0.73c0.041,0.421,0.061,0.844,0.061,1.262c0,0.461,-0.025,0.927,-0.074,1.389l1.205,0.675c0.427,0.239,0.651,0.739,0.545,1.215c-0.188,0.844,-0.451,1.676,-0.781,2.473c-0.173,0.417,-0.577,0.686,-1.03,0.686h0c-0.041,0,-0.082,-0.002,-0.123,-0.007l-1.36,-0.15c-0.487,0.879,-1.073,1.697,-1.749,2.442l0.589,1.206c0.22,0.45,0.112,0.996,-0.262,1.326c-0.662,0.585,-1.381,1.115,-2.135,1.575c-0.174,0.106,-0.374,0.162,-0.579,0.162c-0.281,0,-0.55,-0.105,-0.757,-0.296l-1.001,-0.922c-0.967,0.45,-1.984,0.777,-3.031,0.976l-0.26,1.321c-0.096,0.49,-0.511,0.859,-1.009,0.898C16.778,30.999,16.386,31.014,16,31.014zM16.048,5.331c-5.91,0,-10.718,4.808,-10.718,10.718s4.808,10.718,10.718,10.718s10.718,-4.808,10.718,-10.718S21.958,5.331,16.048,5.331z" fill-rule="evenodd" />
    <path fill="#3E79B4" class="Blue" d="M25.186,22.629c-0.012,0.018,-0.024,0.036,-0.036,0.054c-0.72,-1.019,-2.15,-1.395,-5.555,-2.617c-0.701,-0.267,-0.898,-0.652,-0.846,-1.201c1.353,-1.643,2.169,-4.301,2.169,-6.159c0,-2.878,-0.967,-4.7,-4.927,-4.7c-3.96,0,-4.848,1.823,-4.848,4.7c0,1.858,0.812,4.511,2.166,6.154c0.052,0.549,-0.147,0.936,-0.847,1.203c-3.452,1.238,-4.874,1.609,-5.585,2.66c-0.009,-0.013,-0.017,-0.027,-0.026,-0.04l-0.245,0.416C8.697,26.064,12.148,28,16.05,28c3.924,0,7.391,-1.958,9.478,-4.949L25.186,22.629z" fill-rule="evenodd" />
  </g>
</svg>
