<?xml version="1.0" encoding="UTF-8" standalone="no"?>
<!DOCTYPE svg PUBLIC "-//W3C//DTD SVG 1.1//EN" "http://www.w3.org/Graphics/SVG/1.1/DTD/svg11.dtd">
<svg width="100%" height="100%" viewBox="0 0 32 32" version="1.1" xmlns="http://www.w3.org/2000/svg" xmlns:xlink="http://www.w3.org/1999/xlink" xml:space="preserve" xmlns:serif="http://www.serif.com/" style="fill-rule:evenodd;clip-rule:evenodd;stroke-linejoin:round;stroke-miterlimit:1.41421;">
  <style type="text / css">
    .Red{fill:#CD4C32;}
    .Green{fill:#4EA17E;}
    .Blue{fill:#3E79B4;}
    .Yellow{fill:#EAB765;}
    .Black{fill:#797979;}
    .Gray{fill:#B4B4B5;}
    .White{fill:#FFFFFF;}
  </style>
    <g id="main">
        <g id="transformed_icon" transform="matrix(1,0,0,1,-1,-1)">
            <clipPath id="_clip1">
                <path d="M21.926,33C19.519,31.6 17.9,28.988 17.9,26C17.9,21.527 21.527,17.9 26,17.9C28.988,17.9 31.6,19.519 33,21.926L33,1L1,1L1,33L21.926,33Z"/>
            </clipPath>
            <g clip-path="url(#_clip1)">
                <path fill="#797979" class="Black" d="M23.088,1L8.913,1C8.409,1 8,1.409 8,1.913L8,4L24,4L24,1.913C24,1.409 23.591,1 23.088,1ZM22,3L19,3L19,2L22,2L22,3ZM8,8L24,8L24,5L8,5L8,8ZM19,6L22,6L22,7L19,7L19,6ZM8,30.088C8,30.592 8.409,31.001 8.913,31.001L23.088,31.001C23.592,31.001 24.001,30.592 24.001,30.088L24.001,9L8,9L8,30.088ZM16,23C17.105,23 18,23.895 18,25C18,26.105 17.105,27 16,27C14.895,27 14,26.105 14,25C14,23.895 14.895,23 16,23Z" />
                <path fill="#FFFFFF" class="White" d="M22,3L19,3L19,2L22,2L22,3ZM22,6L19,6L19,7L22,7L22,6ZM16,23C14.895,23 14,23.895 14,25C14,26.105 14.895,27 16,27C17.105,27 18,26.105 18,25C18,23.895 17.105,23 16,23Z" />
            </g>
        </g>
        <g id="overlay">
            <g transform="matrix(0.0136719,0,0,0.0136719,18,18)">
                <path d="M512,0C794.77,0 1024,229.23 1024,512C1024,794.77 794.77,1024 512,1024C229.23,1024 0,794.77 0,512C0,229.23 229.23,0 512,0Z" style="fill:rgb(236,23,91);"/>
            </g>
            <g transform="matrix(0.0136719,0,0,0.0136719,18,18)">
                <path d="M895.337,381.014L771.704,725.941C768.796,732.761 760.35,740 750.301,740L351.036,740C344.442,740 345.575,732.774 348.985,730.262C410.069,687.405 877.195,374.589 877.195,374.589C888.575,367.152 898,372.449 895.337,381.014ZM321.063,689.347C314.593,692.254 308.176,687.718 311.19,680.464L501.531,290.826C502.971,288.633 503.69,286.235 506.311,284.761C514.773,280 519.09,292.544 519.09,292.544L615.313,482.571C615.394,486.226 615.666,488.97 613.438,492.128C610.833,495.354 321.063,689.347 321.063,689.347ZM256.082,684.117C252.897,687.934 251.899,688.315 250.032,689.185C246.277,690.922 241.104,690.135 239.779,686.169C237.837,683.698 129.297,380.926 129.297,380.926C128.577,379.486 128,377.869 128,376.117C128,371.805 131.498,368.313 135.802,368.313C139.652,368.313 145.682,373.373 145.682,373.373L330.115,496.881C330.115,496.881 340.422,503.599 340.422,509.263C340.422,513.454 335.948,520.605 335.948,520.605L256.082,684.117Z" style="fill:white;"/>
            </g>
        </g>
    </g>
</svg>
