<?xml version="1.0" encoding="UTF-8" standalone="no"?>
<!DOCTYPE svg PUBLIC "-//W3C//DTD SVG 1.1//EN" "http://www.w3.org/Graphics/SVG/1.1/DTD/svg11.dtd">
<svg width="32" height="32" viewBox="0 0 32 32" version="1.1" xmlns="http://www.w3.org/2000/svg" xmlns:xlink="http://www.w3.org/1999/xlink" xml:space="preserve" xmlns:serif="http://www.serif.com/" style="fill-rule:evenodd;clip-rule:evenodd;stroke-linejoin:round;stroke-miterlimit:2;">
  <style type="text / css">
    .Red{fill:#CD4C32;}
    .Green{fill:#4EA17E;}
    .Blue{fill:#3E79B4;}
    .Yellow{fill:#EAB765;}
    .Black{fill:#797979;}
    .Gray{fill:#B4B4B5;}
    .White{fill:#FFFFFF;}
  </style>
    <g id="icon">
        <path fill="#FFFFFF" class="White" d="M27.317,24L16.5,24L7,29.5L7,24L4.683,24C3.208,24 2,22.793 2,21.317L2,6.683C2,5.207 3.208,4 4.683,4L27.317,4C28.793,4 30,5.207 30,6.683L30,21.317C30,22.793 28.793,24 27.317,24Z" />
        <path fill="#3E79B4" class="Blue" d="M27.32,3C27.82,3.001 28.318,3.104 28.775,3.302C28.986,3.394 29.188,3.505 29.38,3.635C29.49,3.71 29.596,3.791 29.698,3.877C29.758,3.929 29.816,3.981 29.874,4.037C29.945,4.106 30.014,4.178 30.079,4.252C30.156,4.339 30.229,4.43 30.297,4.523C30.417,4.689 30.525,4.866 30.616,5.05C30.679,5.176 30.734,5.305 30.783,5.439C30.838,5.593 30.883,5.75 30.918,5.912C30.941,6.017 30.959,6.123 30.972,6.23C30.989,6.364 30.998,6.499 31,6.633C31,6.649 31,6.664 31,6.68L31,21.32C31,21.465 30.991,21.611 30.974,21.756C30.964,21.833 30.952,21.912 30.938,21.99L30.937,21.993C30.925,22.058 30.911,22.123 30.896,22.186C30.895,22.188 30.895,22.189 30.894,22.191L30.894,22.194C30.862,22.321 30.825,22.446 30.78,22.569C30.777,22.577 30.774,22.585 30.771,22.592L30.77,22.595C30.762,22.617 30.754,22.639 30.745,22.661L30.744,22.664C30.722,22.719 30.699,22.774 30.674,22.829L30.653,22.875L30.651,22.877C30.601,22.984 30.547,23.087 30.487,23.188C30.44,23.267 30.39,23.344 30.337,23.421C30.307,23.463 30.277,23.504 30.245,23.546L30.244,23.547L30.242,23.55C30.193,23.614 30.142,23.677 30.088,23.738L30.087,23.74C30.085,23.741 30.084,23.742 30.083,23.744L30.081,23.746C30.024,23.811 29.965,23.873 29.903,23.935C29.851,23.986 29.797,24.036 29.742,24.085C29.739,24.087 29.737,24.089 29.734,24.092L29.732,24.094C29.71,24.113 29.688,24.131 29.666,24.149L29.665,24.151L29.662,24.153C29.643,24.168 29.624,24.184 29.604,24.199L29.602,24.201C29.515,24.271 29.424,24.336 29.331,24.397C29.328,24.399 29.325,24.401 29.322,24.403L29.32,24.405C29.244,24.454 29.167,24.5 29.089,24.544L29.087,24.545C29.061,24.559 29.036,24.572 29.01,24.586L29.008,24.587C29.005,24.588 29.003,24.589 29,24.591L28.998,24.592C28.996,24.593 28.995,24.594 28.993,24.594L28.99,24.596C28.94,24.622 28.889,24.647 28.837,24.67L28.835,24.671C28.686,24.739 28.532,24.797 28.376,24.844C28.35,24.852 28.325,24.859 28.3,24.866L28.297,24.867C28.231,24.885 28.165,24.901 28.097,24.916L28.094,24.917C27.982,24.941 27.869,24.96 27.756,24.974C27.733,24.976 27.711,24.979 27.689,24.981L27.686,24.981C27.564,24.994 27.442,25 27.32,25L16.769,25L7.501,30.365L7.474,30.381C7.464,30.385 7.455,30.39 7.446,30.395C7.288,30.474 7.107,30.51 6.931,30.498C6.733,30.484 6.54,30.41 6.384,30.288C6.261,30.192 6.161,30.066 6.094,29.924C6.037,29.801 6.005,29.667 6,29.531C6,29.521 6,29.51 6,29.5L6,25L4.68,25C4.435,25 4.19,24.975 3.951,24.926C3.885,24.913 3.819,24.898 3.753,24.88C3.654,24.854 3.559,24.825 3.463,24.791C3.362,24.756 3.263,24.716 3.166,24.671C3.04,24.614 2.917,24.55 2.798,24.478C2.747,24.448 2.698,24.417 2.648,24.384C2.506,24.289 2.371,24.185 2.244,24.072C1.937,23.8 1.676,23.477 1.474,23.12C1.294,22.802 1.162,22.456 1.084,22.1C1.032,21.86 1.004,21.615 1,21.37C1,21.353 1,21.336 1,21.32C0.998,16.44 0.998,11.56 1,6.68C1,6.401 1.032,6.12 1.096,5.847C1.165,5.555 1.269,5.272 1.407,5.005C1.585,4.659 1.819,4.34 2.097,4.066C2.424,3.743 2.81,3.481 3.232,3.299C3.63,3.127 4.059,3.027 4.492,3.005C4.555,3.002 4.618,3 4.68,3C12.227,2.997 19.773,2.997 27.32,3ZM4.684,5C4.501,5 4.318,5.03 4.145,5.089C3.834,5.195 3.554,5.396 3.351,5.659C3.211,5.84 3.108,6.05 3.051,6.272C3.02,6.395 3.003,6.522 3,6.649C3,6.66 3,6.671 3,6.682C2.998,11.561 2.994,16.44 3,21.319C3,21.529 3.04,21.737 3.117,21.93C3.154,22.024 3.2,22.115 3.255,22.202C3.315,22.298 3.383,22.387 3.461,22.469C3.539,22.552 3.625,22.627 3.719,22.693C3.803,22.752 3.892,22.804 3.987,22.848C4.095,22.898 4.21,22.936 4.328,22.962C4.429,22.984 4.533,22.996 4.636,22.999C4.651,23 4.667,23 4.682,23L7,23C7.01,23 7.021,23 7.031,23C7.21,23.006 7.385,23.06 7.536,23.156C7.703,23.262 7.839,23.42 7.918,23.603C7.968,23.718 7.996,23.843 8,23.969C8,23.979 8,23.99 8,24L8,27.766L15.999,23.135L16.026,23.12C16.035,23.115 16.044,23.11 16.053,23.105C16.173,23.046 16.305,23.01 16.438,23.002C16.466,23 16.473,23 16.5,23L27.318,23C27.391,23 27.465,22.995 27.535,22.986C27.58,22.98 27.624,22.972 27.668,22.963C27.78,22.939 27.888,22.904 27.992,22.857C28.079,22.819 28.164,22.772 28.241,22.72C28.315,22.671 28.385,22.617 28.449,22.558C28.524,22.489 28.594,22.413 28.656,22.332C28.72,22.247 28.776,22.158 28.824,22.062C28.866,21.978 28.901,21.891 28.928,21.802C28.967,21.674 28.99,21.544 28.997,21.411C28.999,21.381 29,21.35 29,21.319C29.009,16.44 29,11.561 29,6.682C29,6.498 28.969,6.313 28.908,6.137C28.881,6.058 28.847,5.981 28.808,5.907C28.782,5.856 28.752,5.807 28.72,5.759C28.612,5.595 28.476,5.452 28.319,5.334C28.099,5.17 27.837,5.059 27.564,5.018C27.483,5.006 27.401,5 27.319,5C19.774,4.991 12.229,5 4.684,5Z" />
    </g>
</svg>
