<?xml version="1.0" encoding="UTF-8" standalone="no"?>
<!DOCTYPE svg PUBLIC "-//W3C//DTD SVG 1.1//EN" "http://www.w3.org/Graphics/SVG/1.1/DTD/svg11.dtd">
<svg width="32" height="32" viewBox="0 0 32 32" version="1.1" xmlns="http://www.w3.org/2000/svg" xmlns:xlink="http://www.w3.org/1999/xlink" xml:space="preserve" xmlns:serif="http://www.serif.com/" >
  <style type="text / css">
    .Red{fill:#CD4C32;}
    .Green{fill:#4EA17E;}
    .Blue{fill:#3E79B4;}
    .Yellow{fill:#EAB765;}
    .Black{fill:#797979;}
    .Gray{fill:#B4B4B5;}
    .White{fill:#FFFFFF;}
  </style>
    <g id="main">
        <g id="icon">
            <clipPath id="_clip1">
                <path d="M19,31.552L19,23.4C19,22.754 19.4,22.25 20.002,22.071C20.019,20.397 20.601,18.932 21.688,17.832C22.833,16.674 24.346,16.037 25.95,16.037C27.556,16.037 29.071,16.675 30.215,17.832C31.345,18.975 31.976,20.474 31.998,22.061C31.999,22.061 31.999,22.061 32,22.062L32,0L0,0L0,32L19.07,32C19.025,31.859 19,31.708 19,31.552Z"/>
            </clipPath>
            <g clip-path="url(#_clip1)">
                <g transform="matrix(0.8,0,0,0.8,0,0)">
                    <rect fill="#FFFFFF" class="White" x="2.5" y="3.5" width="35" height="33" />
                    <path fill="#3E79B4" class="Blue" d="M37,4L37,36L3,36L3,4L37,4M38,3L2,3L2,37L38,37L38,3Z" />
                </g>
                <g transform="matrix(0.8,0,0,0.8,0,0)">
                    <rect fill="#3E79B4" class="Blue" x="2" y="3" width="36" height="6" />
                </g>
                <g transform="matrix(0.8,0,0,0.8,0,0)">
                    <rect fill="#4EA17E" class="Green" x="19" y="27" width="11" height="1" />
                </g>
                <g transform="matrix(0.8,0,0,0.8,0,0)">
                    <path fill="#4EA17E" class="Green" d="M17.008,22L11.061,27.222L10.401,26.47L15.492,22L10.401,17.53L11.061,16.778C13.043,18.519 15.026,20.259 17.008,22Z" />
                </g>
            </g>
        </g>
        <g id="overlay">
            <path fill="#797979" class="Black" d="M29.5,24.2L29.5,22.148C29.5,20.174 27.859,18.507 25.95,18.507C24.041,18.507 22.5,20.174 22.5,22.148L22.5,24.2L21,24.2L21,22.148C21,20.788 21.44,19.505 22.399,18.535C23.355,17.569 24.62,17.037 25.95,17.037C27.281,17.037 28.549,17.569 29.504,18.535C30.463,19.505 31,20.788 31,22.148L31,24.2L29.5,24.2Z" />
            <path fill="#EAB765" class="Yellow" d="M31.622,23L20.497,23C20.169,23 20,23.165 20,23.4L20,31.552C20,31.787 20.185,32 20.414,32L31.572,32C31.801,32 32,31.787 32,31.552L32,23.4C32,23.165 31.751,23 31.622,23ZM26.651,27.831L26.9,29.959C26.9,30.302 26.368,30.483 26.028,30.483C25.687,30.483 25.105,30.302 25.105,29.959L25.405,27.831C25.056,27.616 24.789,27.214 24.789,26.753C24.789,26.064 25.346,25.506 26.03,25.506C26.713,25.506 27.268,26.064 27.268,26.753C27.268,27.214 27.05,27.616 26.651,27.831Z" />
            <path fill="#797979" class="Black" d="M27.268,26.753C27.268,26.064 26.713,25.506 26.03,25.506C25.346,25.506 24.789,26.064 24.789,26.753C24.789,27.214 25.055,27.616 25.404,27.831L25.105,29.959C25.105,30.302 25.687,30.483 26.028,30.483C26.368,30.483 26.9,30.302 26.9,29.959L26.651,27.831C27.05,27.616 27.268,27.214 27.268,26.753Z" />
        </g>
    </g>
</svg>
