<?xml version="1.0" encoding="UTF-8" standalone="no"?>
<!DOCTYPE svg PUBLIC "-//W3C//DTD SVG 1.1//EN" "http://www.w3.org/Graphics/SVG/1.1/DTD/svg11.dtd">
<svg width="32" height="32" viewBox="0 0 32 32" version="1.1" xmlns="http://www.w3.org/2000/svg" xmlns:xlink="http://www.w3.org/1999/xlink" xml:space="preserve" xmlns:serif="http://www.serif.com/" style="fill-rule:evenodd;clip-rule:evenodd;stroke-linecap:round;stroke-linejoin:round;">
  <style type="text / css">
    .Red{fill:#CD4C32;}
    .Green{fill:#4EA17E;}
    .Blue{fill:#3E79B4;}
    .Yellow{fill:#EAB765;}
    .Black{fill:#797979;}
    .Gray{fill:#B4B4B5;}
    .White{fill:#FFFFFF;}
  </style>
  <g id="icon">
    <g id="rect1789" transform="matrix(0.666667,0,0,0.666667,0,0)">
        <path fill="#797979" class="Black" d="M26.91,21.879C26.91,21.879 27.009,24.678 26.514,25.331C26.02,25.983 25.035,25.991 25.035,25.991C24.403,26.06 24.398,27.303 25.035,27.303L37.376,27.303C38.013,27.303 38.008,26.059 37.376,25.991C37.376,25.991 36.392,25.983 35.897,25.331C35.402,24.678 35.501,21.879 35.501,21.879L26.91,21.879Z" />
    </g>
    <g id="rect2722" transform="matrix(0.666667,0,0,0.666667,0,0)">
        <path fill="#797979" class="Black" d="M47.646,1.443C47.646,0.838 47.155,0.347 46.55,0.347L15.861,0.347C15.256,0.347 14.765,0.838 14.765,1.443L14.765,20.947C14.765,21.552 15.256,22.044 15.861,22.044L46.55,22.044C47.155,22.044 47.646,21.552 47.646,20.947L47.646,1.443Z" />
    </g>
    <g id="rect2716" transform="matrix(0.666667,0,0,0.666667,0,0)">
        <rect fill="#3E79B4" class="Blue" x="16.514" y="1.991" width="29.383" height="18.409" />
    </g>
    <g id="rect1789-6" transform="matrix(0.666667,0,0,0.666667,0,0)">
        <path fill="#797979" class="Black" d="M12.514,40.901C12.514,40.901 12.613,43.701 12.118,44.353C11.623,45.006 10.639,45.013 10.639,45.013C10.007,45.082 10.002,46.325 10.639,46.325L22.98,46.325C23.617,46.325 23.612,45.081 22.98,45.013C22.98,45.013 21.996,45.006 21.501,44.353C21.006,43.701 21.105,40.901 21.105,40.901L12.514,40.901Z" />
    </g>
    <g id="rect2722-0" transform="matrix(0.666667,0,0,0.666667,0,0)">
        <path fill="#797979" class="Black" d="M33.25,20.466C33.25,19.861 32.759,19.37 32.154,19.37L1.465,19.37C0.86,19.37 0.369,19.861 0.369,20.466L0.369,39.97C0.369,40.575 0.86,41.066 1.465,41.066L32.154,41.066C32.759,41.066 33.25,40.575 33.25,39.97L33.25,20.466Z" />
    </g>
    <g id="rect2716-2" transform="matrix(0.666667,0,0,0.666667,0,0)">
        <rect fill="#3E79B4" class="Blue" x="2.118" y="21.013" width="29.383" height="18.409" />
    </g>
    <g id="path4165" transform="matrix(0.666667,0,0,0.666667,0,0)">
        <path fill="#EAB765" class="Yellow" d="M37,8L17,20L22,20L12,30L32,18L27,18L37,8Z" />
    </g>
  </g>
</svg>
