<?xml version="1.0" encoding="UTF-8"?>
<!DOCTYPE svg PUBLIC "-//W3C//DTD SVG 1.1//EN" "http://www.w3.org/Graphics/SVG/1.1/DTD/svg11.dtd">
<svg version="1.1" id="Layer_1" xmlns="http://www.w3.org/2000/svg" xmlns:xlink="http://www.w3.org/1999/xlink" x="0px" y="0px" width="32px" height="32px" viewBox="0 0 32 32" enable-background="new 0 0 32 32" xml:space="preserve">
  <style type="text / css">
    .Red{fill:#CD4C32;}
    .Green{fill:#4EA17E;}
    .Blue{fill:#3E79B4;}
    .Yellow{fill:#EAB765;}
    .Black{fill:#797979;}
    .Gray{fill:#B4B4B5;}
    .White{fill:#FFFFFF;}
  </style>
  <g id="main">
    <g id="icon">
      <path class="Blue" d="M1.6,12L28.7,12L28.7,10L1.7,10zz" fill-rule="evenodd" fill="#3E79B4"/>
      <path class="Blue" d="M2,20L23,20L23,18L1.6,18zM28,20L28.7,20L28.7,18L28,18zz" fill-rule="evenodd" fill="#3E79B4"/>
      <path class="Blue" d="M16.53,2.697L16.96,4.061L17.45,5.812L17.95,7.86L18.38,10.11L18.68,12.48L18.77,13.67L18.8,14.86L18.77,16.03L18.68,17.2L18.38,19.56L17.95,21.82L17.45,23.91L16.96,25.7L16.53,27.11L16.11,28.35L18.4,28.35L18.82,27.12L18.91,26.82L18.9,26.81L18.89,26.8L18.88,26.79L18.72,26.58L18.6,26.34L18.52,26.09L18.5,25.83L18.51,22.31L18.6,21.85L18.86,21.48L19.23,21.22L19.69,21.13L20.14,21.22L20.34,21.36L20.67,19.64L20.98,17.3L21.06,16.13L21.09,14.98L21.06,13.78L20.98,12.57L20.67,10.19L20.24,7.92L19.75,5.855L19.25,4.087L18.82,2.71L18.4,1.496L16.11,1.496zz" fill-rule="evenodd" fill="#3E79B4"/>
      <path class="Blue" d="M11.33,2.71L10.89,4.087L10.38,5.855L9.875,7.92L9.432,10.19L9.119,12.57L9.031,13.78L9,14.98L9.031,16.13L9.119,17.3L9.432,19.64L9.875,21.88L10.38,23.95L10.89,25.72L11.33,27.12L11.77,28.35L13.93,28.35L13.51,27.11L13.08,25.7L12.58,23.91L12.09,21.82L11.66,19.56L11.35,17.2L11.27,16.03L11.24,14.86L11.27,13.67L11.35,12.48L11.66,10.11L12.09,7.86L12.58,5.812L13.08,4.061L13.51,2.697L13.93,1.496L11.77,1.496zz" fill-rule="evenodd" fill="#3E79B4"/>
      <path class="Blue" d="M13.48,0.1273L12,0.3541L10.57,0.7229L9.196,1.226L7.89,1.856L6.658,2.605L5.507,3.467L4.446,4.432L3.48,5.493L2.62,6.644L1.87,7.876L1.24,9.182L0.7369,10.55L0.3682,11.99L0.1412,13.47L0.06406,14.99L0.1412,16.52L0.3682,18L0.7369,19.43L1.24,20.8L1.87,22.11L2.62,23.34L3.48,24.49L4.446,25.55L5.507,26.52L6.658,27.38L7.89,28.13L9.196,28.76L10.57,29.26L12,29.63L13.48,29.86L15.01,29.94L16.53,29.86L18.01,29.63L19.45,29.26L20.82,28.76L20.86,28.74L18.9,26.81L18.89,26.8L18.88,26.79L18.86,26.77L18.69,26.83L17.5,27.14L16.27,27.33L15.01,27.39L13.74,27.33L12.51,27.14L11.32,26.83L10.19,26.41L9.103,25.89L8.081,25.27L7.126,24.56L6.246,23.76L5.445,22.87L4.731,21.92L4.109,20.9L3.586,19.81L3.169,18.68L2.863,17.49L2.675,16.26L2.611,14.99L2.675,13.73L2.863,12.5L3.169,11.31L3.586,10.17L4.109,9.089L4.731,8.067L5.445,7.112L6.246,6.232L7.126,5.431L8.081,4.717L9.103,4.095L10.19,3.572L11.32,3.155L12.51,2.849L13.74,2.661L15.01,2.597L16.27,2.661L17.5,2.849L18.69,3.155L19.83,3.572L20.91,4.095L21.93,4.717L22.89,5.431L23.77,6.232L24.57,7.112L25.28,8.067L25.91,9.089L26.43,10.17L26.85,11.31L27.15,12.5L27.34,13.73L27.4,14.99L27.34,16.22L27.38,16.25L27.59,16.42L27.76,16.63L27.89,16.87L27.97,17.14L28,17.42L28,22.35L28.14,22.11L28.77,20.8L29.28,19.43L29.65,18L29.87,16.52L29.95,14.99L29.87,13.47L29.65,11.99L29.28,10.55L28.77,9.182L28.14,7.876L27.39,6.644L26.53,5.493L25.57,4.432L24.51,3.467L23.36,2.605L22.12,1.856L20.82,1.226L19.45,0.7229L18.01,0.3541L16.53,0.1273L15.01,0.05zz" fill="#3E79B4"/>
    </g>
    <g id="overlay">
      <path class="Green" d="M19.6055,26.1c-0.068,-0.0721,-0.1058,-0.1675,-0.1055,-0.2667l0.0106,-3.5252c0.0004,-0.1568,0.19,-0.2351,0.301,-0.1243L24,26.3v-8.8681c0,-0.2137,0.1251,-0.4,0.3387,-0.4h0.8455h0.7578h0.6627c0.2137,0,0.3869,0.1732,0.3869,0.3869v8.8681l4.2078,-4.1034c0.1113,-0.1104,0.3006,-0.0316,0.3006,0.1252v3.5053c0,0.1,-0.0387,0.196,-0.108,0.2681c0,0,-4.5109,4.4704,-5.6841,5.6296c-0.12,0.1186,-0.3079,0.1178,-0.4268,-0.0019C24.1311,30.5524,19.6055,26.1,19.6055,26.1z" fill-rule="evenodd" fill="#4DA07D"/>
    </g>
  </g>
</svg>
