<?xml version="1.0" encoding="UTF-8" standalone="no"?>
<!DOCTYPE svg PUBLIC "-//W3C//DTD SVG 1.1//EN" "http://www.w3.org/Graphics/SVG/1.1/DTD/svg11.dtd">
<svg width="32" height="32" viewBox="0 0 32 32" version="1.1" xmlns="http://www.w3.org/2000/svg" xmlns:xlink="http://www.w3.org/1999/xlink" xml:space="preserve" xmlns:serif="http://www.serif.com/" style="fill-rule:evenodd;clip-rule:evenodd;stroke-linejoin:round;stroke-miterlimit:1.41421;">
  <style type="text / css">
    .Red{fill:#CD4C32;}
    .Green{fill:#4EA17E;}
    .Blue{fill:#3E79B4;}
    .Yellow{fill:#EAB765;}
    .Black{fill:#797979;}
    .Gray{fill:#B4B4B5;}
    .White{fill:#FFFFFF;}
  </style>
  <g id="icon">
		<g id="Stand" transform="matrix(0.666667,0,0,0.666667,0,-0.00518957)">
	        <path fill="#797979" class="Black" d="M19,36L29,36L29,40L33,40L33,42L15,42L15,40L19,40L19,36Z"/>
	    </g>
	    <g transform="matrix(0.647808,0,0,0.644652,0.388018,0.32284)">
	        <rect fill="#4EA17E" class="Green" x="5.576" y="8.807" width="37.048" height="24.82" />
	    </g>
	    <g id="Screen" transform="matrix(0.666667,0,0,0.666667,0,0)">
	        <path fill="#797979" class="Black" d="M41.103,6.001L41.206,6.005L41.308,6.012L41.409,6.021L41.509,6.032L41.609,6.046L41.708,6.063L41.806,6.081L41.903,6.103L41.999,6.126L42.095,6.152L42.189,6.18L42.282,6.21L42.375,6.243L42.466,6.278L42.556,6.315L42.646,6.354L42.734,6.395L42.82,6.438L42.906,6.483L42.99,6.53L43.073,6.579L43.155,6.631L43.236,6.684L43.315,6.738L43.393,6.795L43.469,6.854L43.544,6.914L43.617,6.976L43.689,7.04L43.759,7.105L43.828,7.172L43.895,7.241L43.96,7.311L44.024,7.383L44.086,7.456L44.146,7.531L44.205,7.607L44.262,7.685L44.316,7.764L44.369,7.845L44.421,7.927L44.47,8.01L44.517,8.094L44.562,8.18L44.605,8.266L44.646,8.354L44.685,8.444L44.722,8.534L44.757,8.625L44.79,8.718L44.82,8.811L44.848,8.905L44.874,9.001L44.897,9.097L44.919,9.194L44.937,9.292L44.954,9.391L44.968,9.491L44.979,9.591L44.988,9.692L44.995,9.794L44.999,9.897L45,10L45,32L44.999,32.103L44.995,32.206L44.988,32.308L44.979,32.409L44.968,32.509L44.954,32.609L44.937,32.708L44.919,32.806L44.897,32.903L44.874,32.999L44.848,33.095L44.82,33.189L44.79,33.282L44.757,33.375L44.722,33.466L44.685,33.556L44.646,33.646L44.605,33.734L44.562,33.82L44.517,33.906L44.47,33.99L44.421,34.073L44.369,34.155L44.316,34.236L44.262,34.315L44.205,34.393L44.146,34.469L44.086,34.544L44.024,34.617L43.96,34.689L43.895,34.759L43.828,34.828L43.759,34.895L43.689,34.96L43.617,35.024L43.544,35.086L43.469,35.146L43.393,35.205L43.315,35.262L43.236,35.316L43.155,35.369L43.073,35.421L42.99,35.47L42.906,35.517L42.82,35.562L42.734,35.605L42.646,35.646L42.556,35.685L42.466,35.722L42.375,35.757L42.282,35.79L42.189,35.82L42.095,35.848L41.999,35.874L41.903,35.897L41.806,35.919L41.708,35.937L41.609,35.954L41.509,35.968L41.409,35.979L41.308,35.988L41.206,35.995L41.103,35.999L41,36L7,36L6.897,35.999L6.794,35.995L6.692,35.988L6.591,35.979L6.491,35.968L6.391,35.954L6.292,35.937L6.194,35.919L6.097,35.897L6.001,35.874L5.905,35.848L5.811,35.82L5.718,35.79L5.625,35.757L5.534,35.722L5.444,35.685L5.354,35.646L5.266,35.605L5.18,35.562L5.094,35.517L5.01,35.47L4.927,35.421L4.845,35.369L4.764,35.316L4.685,35.262L4.607,35.205L4.531,35.146L4.456,35.086L4.383,35.024L4.311,34.96L4.241,34.895L4.172,34.828L4.105,34.759L4.04,34.689L3.976,34.617L3.914,34.544L3.854,34.469L3.795,34.393L3.738,34.315L3.684,34.236L3.631,34.155L3.579,34.073L3.53,33.99L3.483,33.906L3.438,33.82L3.395,33.734L3.354,33.646L3.315,33.556L3.278,33.466L3.243,33.375L3.21,33.282L3.18,33.189L3.152,33.095L3.126,32.999L3.103,32.903L3.081,32.806L3.063,32.708L3.046,32.609L3.032,32.509L3.021,32.409L3.012,32.308L3.005,32.206L3.001,32.103L3,32L3,10L3.001,9.897L3.005,9.794L3.012,9.692L3.021,9.591L3.032,9.491L3.046,9.391L3.063,9.292L3.081,9.194L3.103,9.097L3.126,9.001L3.152,8.905L3.18,8.811L3.21,8.718L3.243,8.625L3.278,8.534L3.315,8.444L3.354,8.354L3.395,8.266L3.438,8.18L3.483,8.094L3.53,8.01L3.579,7.927L3.631,7.845L3.684,7.764L3.738,7.685L3.795,7.607L3.854,7.531L3.914,7.456L3.976,7.383L4.04,7.311L4.105,7.241L4.172,7.172L4.241,7.105L4.311,7.04L4.383,6.976L4.456,6.914L4.531,6.854L4.607,6.795L4.685,6.738L4.764,6.684L4.845,6.631L4.927,6.579L5.01,6.53L5.094,6.483L5.18,6.438L5.266,6.395L5.354,6.354L5.444,6.315L5.534,6.278L5.625,6.243L5.718,6.21L5.811,6.18L5.905,6.152L6.001,6.126L6.097,6.103L6.194,6.081L6.292,6.063L6.391,6.046L6.491,6.032L6.591,6.021L6.692,6.012L6.794,6.005L6.897,6.001L7,6L41,6L41.103,6.001ZM7.019,9L6.973,9.001L6.946,9.002L6.92,9.003L6.895,9.006L6.87,9.008L6.845,9.012L6.82,9.016L6.796,9.021L6.773,9.026L6.749,9.031L6.726,9.038L6.703,9.045L6.68,9.052L6.658,9.06L6.635,9.068L6.613,9.077L6.591,9.087L6.569,9.097L6.548,9.108L6.527,9.119L6.506,9.131L6.485,9.143L6.464,9.156L6.444,9.169L6.424,9.183L6.404,9.198L6.385,9.212L6.366,9.228L6.347,9.244L6.329,9.26L6.311,9.276L6.294,9.294L6.276,9.311L6.26,9.329L6.244,9.347L6.228,9.366L6.212,9.385L6.198,9.404L6.183,9.424L6.169,9.444L6.156,9.464L6.143,9.485L6.131,9.506L6.119,9.527L6.108,9.548L6.097,9.569L6.087,9.591L6.077,9.613L6.068,9.635L6.06,9.658L6.052,9.68L6.045,9.703L6.038,9.726L6.031,9.749L6.026,9.773L6.021,9.796L6.016,9.82L6.012,9.845L6.008,9.87L6.006,9.895L6.003,9.92L6.002,9.946L6.001,9.973L6,10.019L6,31.981L6.001,32.027L6.003,32.08L6.006,32.105L6.008,32.13L6.016,32.18L6.021,32.204L6.026,32.227L6.031,32.251L6.052,32.32L6.06,32.343L6.068,32.365L6.077,32.387L6.097,32.431L6.119,32.473L6.143,32.515L6.156,32.536L6.169,32.556L6.183,32.576L6.198,32.596L6.212,32.615L6.244,32.653L6.276,32.689L6.294,32.706L6.311,32.724L6.347,32.756L6.385,32.788L6.404,32.802L6.424,32.817L6.444,32.831L6.464,32.844L6.485,32.857L6.527,32.881L6.569,32.903L6.613,32.923L6.635,32.932L6.657,32.94L6.68,32.948L6.749,32.969L6.773,32.974L6.796,32.979L6.82,32.984L6.87,32.992L6.895,32.994L6.92,32.997L6.973,32.999L7.019,33L40.981,33L41.027,32.999L41.054,32.998L41.08,32.997L41.105,32.994L41.13,32.992L41.155,32.988L41.18,32.984L41.204,32.979L41.227,32.974L41.251,32.969L41.274,32.962L41.297,32.955L41.32,32.948L41.343,32.94L41.365,32.932L41.387,32.923L41.409,32.913L41.431,32.903L41.452,32.892L41.473,32.881L41.494,32.869L41.515,32.857L41.536,32.844L41.556,32.831L41.576,32.817L41.596,32.802L41.615,32.788L41.634,32.772L41.653,32.757L41.671,32.74L41.689,32.723L41.706,32.706L41.724,32.689L41.74,32.671L41.756,32.653L41.772,32.634L41.788,32.615L41.802,32.596L41.817,32.576L41.831,32.556L41.844,32.536L41.857,32.515L41.869,32.494L41.881,32.473L41.892,32.452L41.903,32.431L41.913,32.409L41.923,32.387L41.932,32.365L41.94,32.342L41.948,32.32L41.955,32.297L41.962,32.274L41.969,32.251L41.974,32.227L41.979,32.204L41.984,32.18L41.988,32.155L41.992,32.13L41.994,32.105L41.997,32.08L41.998,32.054L41.999,32.027L42,31.981L42,10.019L41.999,9.973L41.998,9.946L41.997,9.92L41.994,9.895L41.992,9.87L41.988,9.845L41.984,9.82L41.979,9.796L41.974,9.773L41.969,9.749L41.962,9.726L41.955,9.703L41.948,9.68L41.94,9.658L41.932,9.635L41.923,9.613L41.913,9.591L41.903,9.569L41.892,9.548L41.881,9.527L41.869,9.506L41.857,9.485L41.844,9.464L41.831,9.444L41.817,9.424L41.802,9.404L41.788,9.385L41.772,9.366L41.756,9.347L41.74,9.329L41.724,9.311L41.706,9.294L41.689,9.276L41.671,9.26L41.653,9.243L41.634,9.228L41.615,9.212L41.595,9.198L41.576,9.183L41.556,9.169L41.536,9.156L41.515,9.143L41.494,9.131L41.473,9.119L41.452,9.108L41.431,9.097L41.409,9.087L41.387,9.077L41.365,9.068L41.342,9.06L41.32,9.052L41.297,9.045L41.274,9.038L41.251,9.031L41.227,9.026L41.204,9.021L41.18,9.016L41.155,9.012L41.13,9.008L41.105,9.006L41.08,9.003L41.054,9.002L41.027,9.001L40.981,9L7.019,9Z"/>
	    </g>
	    <g id="VNC" transform="matrix(0.666667,0,0,0.666667,0,0)">
	        <path fill="#FFFFFF" class="White" d="M10.718,16.584L10.718,20.54L13.42,23.115L16.136,20.532L16.136,16.584L18.484,16.584L18.502,21.459L13.421,26.323L8.364,21.489L8.364,16.584L10.718,16.584ZM38.965,16.631L38.965,18.893L32.131,18.893L32.131,24.061L38.965,24.061L38.965,26.323L30.049,26.323L30.049,16.631L38.965,16.631ZM21.604,16.614L21.604,17.282L27.003,22.455L27.003,16.614L29.369,16.614L29.369,26.323L27.003,26.323L27.003,25.649L21.604,20.475L21.604,26.323L19.238,26.323L19.238,16.614L21.604,16.614Z"/>
	    </g>
	</g>
</svg>
