<?xml version="1.0" encoding="UTF-8" standalone="no"?>
<!DOCTYPE svg PUBLIC "-//W3C//DTD SVG 1.1//EN" "http://www.w3.org/Graphics/SVG/1.1/DTD/svg11.dtd">
<svg width="32" height="32" viewBox="0 0 32 32" version="1.1" xmlns="http://www.w3.org/2000/svg" xmlns:xlink="http://www.w3.org/1999/xlink" xml:space="preserve" xmlns:serif="http://www.serif.com/" >
  <style type="text / css">
    .Red{fill:#CD4C32;}
    .Green{fill:#4EA17E;}
    .Blue{fill:#3E79B4;}
    .Yellow{fill:#EAB765;}
    .Black{fill:#797979;}
    .Gray{fill:#B4B4B5;}
    .White{fill:#FFFFFF;}
  </style>
    <g id="Icon" transform="matrix(0.12766,0,0,0.124042,0.694432,0.694051)">
        <g id="_-Rounded-Rectangle-" serif:id="(Rounded Rectangle)" transform="matrix(0.979727,0,0,0.951417,2.25917,5.89359)">
            <path d="M240,30.361C240,13.604 227.163,0 211.352,0L28.785,0C12.974,0 0.137,13.604 0.137,30.361L0.137,216.639C0.137,233.396 12.974,247 28.785,247L211.352,247C227.163,247 240,233.396 240,216.639L240,30.361Z" style="fill:rgb(56,194,48);"/>
        </g>
        <g transform="matrix(0.979727,0,0,0.951417,2.25917,5.89359)">
            <path d="M210.707,0.001C225.916,0.15 239.846,13.552 239.999,30.165C240.191,92.388 240.191,154.612 239.999,216.835C239.855,232.497 226.839,246.841 210.707,246.999C150.282,247.197 89.856,247.197 29.43,246.999C14.221,246.85 0.291,233.448 0.138,216.835C-0.054,154.612 -0.054,92.388 0.138,30.165C0.283,14.503 13.298,0.159 29.43,0.001C89.856,-0.197 150.282,-0.197 210.707,0.001ZM29.638,10.978C19.832,11.01 10.895,19.731 10.798,30.234C10.607,92.453 10.225,154.676 10.799,216.892C10.953,226.877 19.313,235.922 29.498,236.022C89.919,236.221 150.344,236.61 210.762,236.021C220.463,235.863 229.241,227.254 229.339,216.766C229.525,154.547 229.918,92.324 229.338,30.108C229.185,20.114 220.839,11.078 210.639,10.978C150.306,10.781 89.972,10.978 29.638,10.978Z" style="fill:rgb(1,1,1);fill-rule:nonzero;"/>
        </g>
        <g transform="matrix(1,0,0,1,-0.335834,6.13362)">
            <g transform="matrix(1.25893,0,0,1.82628,-36.2871,-148.698)">
                <ellipse cx="124.554" cy="145.925" rx="64.811" ry="26.613" style="fill:rgb(254,254,254);"/>
            </g>
            <path d="M101,173.1C89.1,170.4 83.9,168.5 73,162.9C60.1,156.3 44.9,144.5 30.6,130.2C20.3,119.7 18.9,118 19.8,116.3C22.7,111 49.5,87.9 63.6,78.7C80.8,67.4 103.2,60 120,60C137.4,60 158.8,67.3 177.5,79.4C187.5,86 194.1,91.5 209.2,106L221.1,117.5L209,130.2C187.3,152.9 166.9,166 143.5,172.1C131.9,175.2 112.3,175.6 101,173.1ZM107,161.2C107,160.8 105.3,159.8 103.3,159.1C97.8,157.1 91.9,152.8 86.7,147C71,129.5 71.9,103.1 88.9,86.1C92,83 96.9,79.4 99.8,78C106.5,74.8 106.5,73.7 99.8,75.7C91.6,78.1 79.3,84.5 69.6,91.4C59.8,98.5 41,115.5 41,117.4C41,119.3 59.3,137.4 68,143.9C77.2,150.8 89.9,157.4 99.2,160C106.7,162.2 107,162.2 107,161.2ZM142.2,159.4C152.4,156.2 162.9,150.7 172.3,143.6C182.3,136 199.4,118.6 198.7,116.7C197.9,114.5 177.6,96.5 169.5,90.8C159.1,83.3 135,72.2 135,74.8C135,75.2 137.5,76.9 140.6,78.5C148.1,82.6 156.4,91.4 160.2,99.5C166.6,113.2 164.9,130.9 155.9,143.4C151.2,149.9 141.8,157.4 135.9,159.1C133.8,159.8 132,160.7 132,161.2C132,162.4 133.2,162.2 142.2,159.4ZM131.4,148.4C137.7,146.2 146.2,138.3 149.6,131.3C151.8,126.9 152.3,124.4 152.4,118.7C152.4,106.9 148.1,98 139.2,91.5C123.1,79.9 101,84.8 91.5,102.1C87.7,109.2 86.8,121 89.5,129.1C91.8,136 101.4,145.9 108,148.3C114,150.4 125.4,150.4 131.4,148.4Z" style="fill:rgb(1,1,1);fill-rule:nonzero;"/>
            <path d="M110.8,141.6C89.9,134.1 88.1,104.2 107.9,94C116.7,89.6 128.7,90.8 136,96.9C140.5,100.5 144.8,108.4 145.6,114.2C147,124.4 140.3,136.1 130.6,140.6C124.8,143.3 116.7,143.7 110.8,141.6ZM118.9,132.3C120.3,129.3 119.2,128 115.2,128C113.8,128 111.3,126.5 109.3,124.5C106.3,121.5 105.6,121.2 103.4,122.2C102.1,122.8 101,123.7 101,124.3C101,126.4 105.3,130.9 109.2,132.9C115,135.7 117.4,135.6 118.9,132.3ZM107.2,109.2C108.1,107.6 110.4,105.5 112.3,104.5C115.5,102.8 115.7,102.4 114.8,99.8C113.7,96.7 112.9,96.5 109.7,98.1C104.4,100.8 99.3,107.7 100.4,110.6C101.3,113.1 105.4,112.2 107.2,109.2Z" style="fill:rgb(1,1,1);fill-rule:nonzero;"/>
        </g>
    </g>
</svg>
