<?xml version="1.0" encoding="UTF-8" standalone="no"?>
<!DOCTYPE svg PUBLIC "-//W3C//DTD SVG 1.1//EN" "http://www.w3.org/Graphics/SVG/1.1/DTD/svg11.dtd">
<svg width="100%" height="100%" viewBox="0 0 32 32" version="1.1" xmlns="http://www.w3.org/2000/svg" xmlns:xlink="http://www.w3.org/1999/xlink" xml:space="preserve" xmlns:serif="http://www.serif.com/" style="fill-rule:evenodd;clip-rule:evenodd;stroke-linejoin:round;stroke-miterlimit:2;">
  <style type="text / css">
    .Red{fill:#CD4C32;}
    .Green{fill:#4EA17E;}
    .Blue{fill:#3E79B4;}
    .Yellow{fill:#EAB765;}
    .Black{fill:#797979;}
    .Gray{fill:#B4B4B5;}
    .White{fill:#FFFFFF;}
  </style>
    <g id="icon">
        <path class="White" d="M30,30.5L2,30.5C1.724,30.5 1.5,30.276 1.5,30L1.5,7.5L30.5,7.5L30.5,30C30.5,30.276 30.276,30.5 30,30.5Z" style="fill:#fff;fill-rule:nonzero;"/>
        <path class="Black" d="M30,31L2,31C1.448,31 1,30.552 1,30L1,7L31,7L31,30C31,30.552 30.552,31 30,31ZM2,30L30,30C30,30 30,8 30,8L2,8L2,30Z" style="fill:#6d6e71;"/>
        <path class="Blue" d="M31,8L1,8L1,3.4C1,2.627 1.627,2 2.4,2L29.6,2C30.373,2 31,2.627 31,3.4L31,8Z" style="fill:#3e79b4;fill-rule:nonzero;"/>
        <path class="Green" d="M5,20C4.614,20 4.3,19.686 4.3,19.3C4.3,18.914 4.614,18.6 5,18.6C5,18.6 8.647,18.6 8.647,18.6L10.549,14.537C10.677,14.263 10.968,14.102 11.268,14.139C11.569,14.176 11.811,14.402 11.87,14.699L13.614,23.574L17.531,11.622C17.626,11.33 17.901,11.135 18.208,11.14C18.515,11.145 18.783,11.35 18.868,11.645L21.544,20.869L22.493,18.985C22.612,18.749 22.854,18.6 23.118,18.6L27,18.6C27.386,18.6 27.7,18.914 27.7,19.3C27.7,19.686 27.386,20 27,20L23.549,20L21.993,23.089C21.864,23.346 21.59,23.498 21.304,23.471C21.017,23.445 20.776,23.245 20.696,22.969L18.155,14.212L14.109,26.558C14.01,26.861 13.719,27.058 13.401,27.039C13.083,27.019 12.819,26.787 12.757,26.475L10.909,17.07L9.726,19.597C9.611,19.843 9.364,20 9.092,20L5,20Z" style="fill:#4ea17e;"/>
    </g>
</svg>
