<?xml version="1.0" encoding="UTF-8"?>
<!DOCTYPE svg PUBLIC "-//W3C//DTD SVG 1.1//EN" "http://www.w3.org/Graphics/SVG/1.1/DTD/svg11.dtd">
<svg version="1.1" id="Layer_1" xmlns="http://www.w3.org/2000/svg" xmlns:xlink="http://www.w3.org/1999/xlink" x="0px" y="0px" width="32px" height="32px" viewBox="0 0 32 32" enable-background="new 0 0 32 32" xml:space="preserve">
  <style type="text / css">
    .Red{fill:#CD4C32;}
    .Green{fill:#4EA17E;}
    .Blue{fill:#3E79B4;}
    .Yellow{fill:#EAB765;}
    .Black{fill:#797979;}
    .Gray{fill:#B4B4B5;}
    .White{fill:#FFFFFF;}
  </style>
  <g id="icon">
    <path class="Black" d="M26.9278,17.0385l3.7287,2.0826c0.2832,0.1582,0.4125,0.4964,0.3071,0.8032l-0.5016,1.4593c-0.1019,0.2964,-0.3956,0.4827,-0.7072,0.4484l-4.2222,-0.4643l-1.3596,1.8247l1.8028,3.6765c0.1467,0.2992,0.0514,0.6606,-0.2237,0.8486l-1.4217,0.9715c-0.2573,0.1758,-0.6018,0.1511,-0.8314,-0.0595l-3.1186,-2.8611l-2.1467,0.7156l-0.7855,3.9779c-0.0633,0.3208,-0.3489,0.5491,-0.6758,0.5402l-1.7917,-0.0484c-0.3099,-0.0084,-0.5737,-0.2282,-0.6378,-0.5315l-0.832,-3.9381l-2.0036,-0.7156L8.468,28.5358c-0.2389,0.2175,-0.599,0.2337,-0.8565,0.0384l-1.388,-1.0529c-0.251,-0.1904,-0.3356,-0.53,-0.2031,-0.8159l1.6944,-3.6561l-1.1807,-1.7174l-4.1719,0.4939c-0.3179,0.0376,-0.6181,-0.1548,-0.7166,-0.4594l-0.5194,-1.6055c-0.0983,-0.3039,0.0315,-0.635,0.3101,-0.7912l3.7025,-2.0745l-0.0716,-1.8605l-3.6331,-2.0764c-0.2774,-0.1586,-0.4044,-0.4909,-0.3033,-0.794l0.5144,-1.5433c0.0993,-0.2978,0.3919,-0.4869,0.7042,-0.4549l4.2204,0.4321l1.288,-1.7889L6.0541,5.2443c-0.1498,-0.2961,-0.0604,-0.6573,0.2102,-0.8493l1.5008,-1.0651c0.2599,-0.1844,0.6136,-0.1604,0.8462,0.0574l3.0391,2.8462l2.0751,-0.644l0.8494,-4.0712c0.0648,-0.3108,0.3388,-0.5334,0.6562,-0.5334h1.7948c0.3182,0,0.5925,0.2236,0.6566,0.5353l0.8372,4.0694l2.0036,0.7156l3.0583,-2.7835c0.2276,-0.2071,0.567,-0.2327,0.8231,-0.062l1.4214,0.9476c0.2772,0.1848,0.3767,0.5453,0.2333,0.8461l-1.7794,3.7352l1.1807,1.6816l4.207,-0.4947c0.3155,-0.0371,0.6138,0.1524,0.7142,0.4538l0.5142,1.5426c0.1,0.2999,-0.0231,0.6288,-0.2954,0.7894l-3.6373,2.1454L26.9278,17.0385zM16.0653,10.7713c-2.852,0,-5.164,2.312,-5.164,5.164s2.312,5.164,5.164,5.164s5.164,-2.312,5.164,-5.164S18.9173,10.7713,16.0653,10.7713z" fill-rule="evenodd" fill="#797979"/>
  </g>
</svg>
