<?xml version="1.0" encoding="UTF-8"?>
<!DOCTYPE svg PUBLIC "-//W3C//DTD SVG 1.1//EN" "http://www.w3.org/Graphics/SVG/1.1/DTD/svg11.dtd">
<svg version="1.1" id="Layer_1" xmlns="http://www.w3.org/2000/svg" xmlns:xlink="http://www.w3.org/1999/xlink" x="0px" y="0px" width="32px" height="32px" viewBox="0 0 32 32" enable-background="new 0 0 32 32" xml:space="preserve">
  <style type="text / css">
    .Red{fill:#CD4C32;}
    .Green{fill:#4EA17E;}
    .Blue{fill:#3E79B4;}
    .Yellow{fill:#EAB765;}
    .Black{fill:#797979;}
    .Gray{fill:#B4B4B5;}
    .White{fill:#FFFFFF;}
  </style>
  <g id="main">
    <g id="icon">
      <path class="Black" d="M14.54,0.09629L14.12,0.3211L13.46,0.7979L12.59,1.365L11.53,1.975L10.3,2.58L8.909,3.134L7.38,3.588L5.73,3.895L4.865,3.979L3.977,4.008L2.825,3.958L2.694,3.952L2.206,4.034L1.785,4.265L1.461,4.62L1.266,5.074L1.147,5.703L1.062,6.474L1.001,8.382L1.115,10.67L1.246,11.91L1.431,13.2L1.675,14.52L1.98,15.86L2.35,17.19L2.79,18.5L3.302,19.78L3.89,21.01L4.558,22.17L5.31,23.25L6.386,24.56L7.486,25.74L8.613,26.77L9.768,27.67L10.95,28.44L12.17,29.08L13.43,29.58L14.72,29.96L15.06,30L15.4,29.96L16.2,29.74L16.96,29.48L17.97,29.02L17.54,28.16L17.19,27.16L17.09,26.68L16.41,27.01L15.19,27.43L15.06,27.47L14.92,27.43L13.9,27.09L12.9,26.65L11.92,26.1L10.96,25.45L10.02,24.68L9.093,23.81L8.184,22.82L7.289,21.72L6.714,20.9L6.177,19.98L5.68,18.98L5.227,17.88L4.82,16.71L4.461,15.47L4.153,14.16L3.898,12.8L3.634,10.78L3.518,9.095L3.501,7.811L3.53,6.978L3.558,6.51L4.027,6.508L5.769,6.406L7.422,6.136L8.972,5.734L10.4,5.236L11.7,4.678L12.86,4.095L13.85,3.523L14.67,2.999L14.96,2.8L15.25,3.013L16,3.543L16.92,4.12L18.01,4.707L19.25,5.27L20.65,5.771L22.2,6.173L23.88,6.442L24.77,6.514L25.69,6.539L25.97,6.537L26.46,6.529L26.48,7.014L26.5,7.922L26.46,9.197L26.33,10.81L26.06,12.72L25.8,14.09L25.48,15.41L25.11,16.67L25.03,16.9L26.1,16.97L27.16,17.19L27.52,17.32L27.58,17.15L27.96,15.81L28.27,14.46L28.53,13.14L28.86,10.6L29,8.314L28.95,6.426L28.87,5.671L28.76,5.065L28.56,4.616L28.24,4.265L27.82,4.037L27.33,3.955L27.18,3.963L25.69,4.039L24.73,4.007L23.82,3.917L22.94,3.776L22.11,3.589L20.58,3.11L19.24,2.535L18.1,1.92L17.17,1.321L16.46,0.7916L15.98,0.3891L15.53,0.1139L15.01,0.01797zz" fill="#797979"/>
      <path class="White" d="M14.67,2.999L13.85,3.523L12.86,4.095L11.7,4.678L10.4,5.236L8.973,5.734L7.423,6.136L5.77,6.406L4.028,6.508L3.559,6.51L3.531,6.978L3.502,7.811L3.519,9.095L3.635,10.78L3.899,12.8L4.154,14.16L4.462,15.47L4.821,16.71L5.228,17.88L5.681,18.98L6.178,19.98L6.715,20.9L7.29,21.72L8.185,22.82L9.094,23.81L10.02,24.68L10.96,25.45L11.92,26.1L12.9,26.65L13.9,27.09L14.92,27.43L15.06,27.47L15.19,27.43L16.41,27.01L17.09,26.68L16.97,26.1L16.9,25L16.94,24.17L17.06,23.37L17.26,22.59L17.54,21.85L17.88,21.14L18.28,20.47L18.75,19.85L19.27,19.27L19.85,18.75L20.47,18.28L21.14,17.88L21.85,17.54L22.59,17.26L23.37,17.06L24.17,16.94L25,16.9L25.03,16.9L25.11,16.67L25.48,15.41L25.8,14.09L26.06,12.72L26.33,10.81L26.46,9.197L26.5,7.923L26.48,7.014L26.46,6.529L25.97,6.537L25.69,6.539L24.77,6.514L23.88,6.442L22.2,6.173L20.66,5.771L19.26,5.27L18.01,4.707L16.92,4.12L16,3.543L15.25,3.013L14.96,2.8zz" fill="#FFFFFF"/>
    </g>
    <g id="overlay">
      <path class="Blue" d="M25.007,18.0138c-3.8559,0,-6.993,3.1371,-6.993,6.9931c0,3.856,3.137,6.9931,6.993,6.9931S32,28.8629,32,25.0069C32,21.1508,28.863,18.0138,25.007,18.0138zM23.4161,24.939c0,-0.476,0.0367,-0.939,0.0962,-1.439h2.8798c0.0595,0.5,0.0962,0.963,0.0962,1.439c0,0.5095,-0.0445,1.061,-0.1152,1.561h-2.8416C23.4606,26,23.4161,25.4485,23.4161,24.939zM27.476,23.5h2.9201c0.132,0.5,0.2041,0.9762,0.2041,1.4935c0,0.522,-0.0734,1.0065,-0.2078,1.5065h-2.9259c0.0679,-0.5,0.1102,-1.0192,0.1102,-1.5136C27.5767,24.4951,27.5383,24,27.476,23.5zM30.0115,22.5h-2.6944c-0.2399,-1.3,-0.5849,-2.36,-0.7619,-2.8801C28.0679,20.0564,29.3186,21.1,30.0115,22.5zM25.3961,19.422c0.1358,0.3773,0.56,1.578,0.8381,3.078h-2.5641c0.2759,-1.4,0.6956,-2.6814,0.835,-3.0694c0.1655,-0.0148,0.3327,-0.0237,0.5019,-0.0237C25.138,19.4069,25.2674,19.4131,25.3961,19.422zM23.4221,19.6303c-0.183,0.5241,-0.5343,1.6697,-0.7792,2.8697h-2.6403C20.6899,21.1,21.9259,20.0733,23.4221,19.6303zM19.618,23.5h2.8617c-0.064,0.5,-0.1035,0.9951,-0.1035,1.4864c0,0.4944,0.0434,1.0136,0.1132,1.5136h-2.8677c-0.1344,-0.5,-0.2078,-0.9845,-0.2078,-1.5065C19.4139,24.4762,19.4859,24,19.618,23.5zM20.0092,27.5h2.651c0.2558,1.3,0.6165,2.375,0.7868,2.8638C21.9444,29.9265,20.7017,28.9,20.0092,27.5zM24.5281,30.5716c-0.1046,-0.2971,-0.536,-1.5716,-0.8299,-3.0716h2.508c-0.297,1.5,-0.7343,2.8007,-0.833,3.0802c-0.1212,0.0079,-0.243,0.0133,-0.3661,0.0133C24.8456,30.5935,24.6861,30.5851,24.5281,30.5716zM26.5311,30.374c0.1642,-0.4834,0.5184,-1.574,0.7692,-2.874h2.7046C29.3069,28.9,28.0498,29.9432,26.5311,30.374z" fill="#3E79B4"/>
    </g>
  </g>
</svg>
