<?xml version="1.0" encoding="UTF-8" standalone="no"?>
<!DOCTYPE svg PUBLIC "-//W3C//DTD SVG 1.1//EN" "http://www.w3.org/Graphics/SVG/1.1/DTD/svg11.dtd">
<svg width="100%" height="100%" viewBox="0 0 32 32" version="1.1" xmlns="http://www.w3.org/2000/svg" xmlns:xlink="http://www.w3.org/1999/xlink" xml:space="preserve" xmlns:serif="http://www.serif.com/" style="fill-rule:evenodd;clip-rule:evenodd;stroke-linejoin:round;stroke-miterlimit:1.41421;">
  <style type="text / css">
    .Red{fill:#CD4C32;}
    .Green{fill:#4EA17E;}
    .Blue{fill:#3E79B4;}
    .Yellow{fill:#EAB765;}
    .Black{fill:#797979;}
    .Gray{fill:#B4B4B5;}
    .White{fill:#FFFFFF;}
  </style>
    <g id="Rounded-Rectangle-1" serif:id="Rounded Rectangle 1" transform="matrix(0.333333,0,0,0.333333,0,0)">
        <path fill="#797979" class="Black" d="M48,6C71.156,6 90,24.841 90,47.994L90,90L6,90L6,47.994C6,24.841 24.847,6 48,6M48,3C23.147,3 3,23.141 3,47.994L3,93L93,93L93,47.994C93,23.141 72.856,3 48,3L48,3Z" style="fill-rule:nonzero;"/>
    </g>
    <g id="Tunnel-Perspective" serif:id="Tunnel Perspective" transform="matrix(0.333333,0,0,0.333333,0,0)">
        <path fill="#3E79B4" class="Blue" d="M48,12C28.128,12 12,28.122 12,47.994L12,84L39,57L39,48C39,43.031 43.031,39 48,39C52.969,39 57,43.031 57,48L57,57L84,84L84,47.994C84,28.122 67.875,12 48,12Z" style="fill-rule:nonzero;"/>
    </g>
</svg>
