<?xml version="1.0" encoding="UTF-8"?>
<!DOCTYPE svg PUBLIC "-//W3C//DTD SVG 1.1//EN" "http://www.w3.org/Graphics/SVG/1.1/DTD/svg11.dtd">
<svg version="1.1" id="Layer_1" xmlns="http://www.w3.org/2000/svg" xmlns:xlink="http://www.w3.org/1999/xlink" x="0px" y="0px" width="32px" height="32px" viewBox="0 0 32 32" enable-background="new 0 0 32 32" xml:space="preserve">
  <style type="text / css">
    .Red{fill:#CD4C32;}
    .Green{fill:#4EA17E;}
    .Blue{fill:#3E79B4;}
    .Yellow{fill:#EAB765;}
    .Black{fill:#797979;}
    .Gray{fill:#B4B4B5;}
    .White{fill:#FFFFFF;}
  </style>
  <g id="icon">
    <path fill="#797979" class="Black" d="M27.7182,19.0025l3.0178,1.0978c0.2292,0.0834,0.3664,0.3206,0.3258,0.5632l-0.1931,1.1543c-0.0392,0.2345,-0.2341,0.4102,-0.4692,0.4231l-3.1855,0.1745l-0.7841,1.5339l1.7859,2.529c0.1453,0.2058,0.119,0.4881,-0.0619,0.6628l-0.9345,0.9029c-0.1691,0.1634,-0.4274,0.1875,-0.6233,0.0583l-2.6611,-1.7559l-1.5031,0.801l-0.0951,3.0745c-0.0077,0.2479,-0.1913,0.4541,-0.4346,0.4879l-1.3336,0.1853c-0.2307,0.032,-0.453,-0.0999,-0.5376,-0.319l-1.0986,-2.8448l-1.5722,-0.2879l-1.9134,2.4472c-0.1504,0.1924,-0.4153,0.249,-0.6299,0.1346l-1.1574,-0.6165c-0.2093,-0.1115,-0.3135,-0.3552,-0.2503,-0.5856l0.808,-2.9461l-1.0851,-1.1395l-3.0309,0.8855c-0.231,0.0675,-0.4769,-0.0394,-0.5872,-0.2552l-0.5814,-1.1375c-0.1101,-0.2153,-0.0544,-0.4792,0.133,-0.6305l2.4896,-2.0105l-0.2808,-1.3837l-2.9462,-1.105c-0.225,-0.0844,-0.3597,-0.3174,-0.3219,-0.5568l0.1923,-1.2188c0.0371,-0.2352,0.2308,-0.4129,0.4661,-0.4276l3.1802,-0.1984l0.7354,-1.4983l-1.773,-2.4455c-0.1473,-0.2031,-0.1252,-0.4845,0.0518,-0.6617l0.9817,-0.9828c0.17,-0.1702,0.4351,-0.1959,0.634,-0.0617l2.6003,1.7546l1.4588,-0.7386l0.1311,-3.1523c0.01,-0.2406,0.1857,-0.4412,0.421,-0.4804l1.33,-0.2219c0.2358,-0.0393,0.4664,0.0941,0.5521,0.3195l1.1185,2.9424l1.5722,0.2879l1.9254,-2.4616c0.1433,-0.1832,0.3917,-0.2443,0.6023,-0.1482l1.1693,0.5335c0.2281,0.1041,0.3458,0.3615,0.2765,0.6044l-0.8613,3.0158l1.0807,1.1127l3.0568,-0.8904c0.2293,-0.0668,0.4734,0.0382,0.5848,0.2513l0.5699,1.0911c0.1108,0.2121,0.0598,0.4735,-0.1223,0.6274l-2.4326,2.0555L27.7182,19.0025zM18.9021,15.6546c-2.1133,0.3526,-3.5435,2.369,-3.1944,4.5038s2.3453,3.5794,4.4586,3.2268s3.5435,-2.3691,3.1944,-4.5038S21.0154,15.302,18.9021,15.6546z" fill-rule="evenodd" />
    <path fill="#3E79B4" class="Blue" d="M13.1305,10.443l0.3973,-0.9618c0.0954,-0.231,0.0125,-0.4978,-0.1964,-0.6323l-1.2858,-0.828c0.0464,-0.3654,0.0508,-0.7417,0.0114,-1.1232l1.3227,-0.8421c0.2096,-0.1334,0.2938,-0.3998,0.1996,-0.6313l-0.3924,-0.964c-0.0942,-0.2315,-0.3396,-0.3609,-0.5815,-0.3068l-1.4829,0.3316c-0.2394,-0.322,-0.5166,-0.6114,-0.8243,-0.8628l0.346,-1.541c0.0548,-0.2441,-0.0721,-0.4926,-0.3008,-0.589l-0.9523,-0.4014c-0.2286,-0.0964,-0.4928,-0.0127,-0.626,0.1984l-0.8192,1.298c-0.3646,-0.0519,-0.7403,-0.0617,-1.1216,-0.0254l-0.8245,-1.3214c-0.1321,-0.2117,-0.3958,-0.2968,-0.6249,-0.2016l-0.9543,0.3964c-0.2291,0.0952,-0.3573,0.343,-0.3038,0.5874l0.3181,1.4516c-0.337,0.2491,-0.619,0.5494,-0.8798,0.8746l-1.4511,-0.3295c-0.2414,-0.0548,-0.4868,0.0734,-0.5821,0.304l-0.398,0.9635c-0.0953,0.2306,-0.0128,0.497,0.1955,0.6318l1.2123,0.7841c-0.0565,0.3901,-0.0761,0.7888,-0.0343,1.1978l-1.2586,0.7972c-0.2101,0.1331,-0.2949,0.3996,-0.2008,0.6314l0.3903,0.9615c0.0941,0.2318,0.3397,0.3615,0.5819,0.3073l1.3919,-0.3119c0.2565,0.3504,0.5651,0.643,0.9014,0.9107l-0.3195,1.4335c-0.0543,0.2439,0.0726,0.4919,0.3009,0.5882l0.9537,0.402c0.2283,0.0962,0.492,0.0129,0.6254,-0.1975l0.7767,-1.2254c0.3834,0.0517,0.7749,0.0666,1.1761,0.0207l0.7984,1.2861c0.1318,0.2122,0.3956,0.2978,0.6251,0.2028l0.9519,-0.3943c0.2295,-0.095,0.3579,-0.3432,0.3042,-0.5878l-0.3189,-1.4523c0.3285,-0.2518,0.6227,-0.5435,0.8759,-0.8686l1.4936,0.3427C12.7889,10.8022,13.035,10.674,13.1305,10.443zM7.5561,9.6189C6.3427,9.777,5.2322,8.9116,5.0757,7.686c-0.1566,-1.2257,0.7002,-2.3474,1.9135,-2.5056c1.2134,-0.1581,2.3239,0.7073,2.4804,1.9329C9.6261,8.339,8.7694,9.4608,7.5561,9.6189z" fill-rule="evenodd" />
  </g>
</svg>
