<?xml version="1.0" encoding="UTF-8"?>
<!DOCTYPE svg PUBLIC "-//W3C//DTD SVG 1.1//EN" "http://www.w3.org/Graphics/SVG/1.1/DTD/svg11.dtd">
<svg version="1.1" id="Layer_1" xmlns="http://www.w3.org/2000/svg" xmlns:xlink="http://www.w3.org/1999/xlink" x="0px" y="0px" width="32px" height="32px" viewBox="0 0 32 32" enable-background="new 0 0 32 32" xml:space="preserve">
  <style type="text / css">
    .Red{fill:#CD4C32;}
    .Green{fill:#4EA17E;}
    .Blue{fill:#3E79B4;}
    .Yellow{fill:#EAB765;}
    .Black{fill:#797979;}
    .Gray{fill:#B4B4B5;}
    .White{fill:#FFFFFF;}
  </style>
  <g id="icon">
    <path fill="#FFFFFF" class="White" d="M30.1,7.8c-1.484,-1.484,-5.601,-5.601,-5.9,-5.9c-0.35,-0.35,-0.662,-0.4,-0.9,-0.4S8.4,1.5,8.4,1.5c-0.635,0,-0.9,0.259,-0.9,0.9v6.916C8.299,9.11,9.137,9,10,9c5.514,0,10,4.486,10,10s-4.486,10,-10,10c-0.863,0,-1.701,-0.11,-2.5,-0.316V28.7v0.9c0,0.641,0.265,0.9,0.9,0.9h21.2c0.635,0,0.9,-0.259,0.9,-0.9c0,0,0,-20.488,0,-20.8C30.5,8.35,30.353,8.053,30.1,7.8z" />
    <path fill="#797979" class="Black" d="M30.454,7.446l-5.9,-5.9C24.186,1.179,23.776,1,23.3,1H8.4c-0.916,0,-1.4,0.484,-1.4,1.4v7.06c0.327,-0.103,0.66,-0.19,1,-0.259V2.4c0,-0.363,0.037,-0.4,0.4,-0.4h14.6v5.7c0,0.717,0.583,1.3,1.3,1.3h5.7v20.6c0,0.363,-0.037,0.4,-0.4,0.4H8.4c-0.363,0,-0.4,-0.037,-0.4,-0.4v-0.801c-0.34,-0.069,-0.673,-0.156,-1,-0.259V29.6c0,0.916,0.484,1.4,1.4,1.4h21.2c0.916,0,1.4,-0.484,1.4,-1.4V8.8C31,8.249,30.826,7.819,30.454,7.446zM24.3,8c-0.165,0,-0.3,-0.135,-0.3,-0.3V2.407L29.593,8H24.3z" />
    <path fill="#3E79B4" class="Blue" d="M10.013,27.987c-4.955,0,-8.987,-4.031,-8.987,-8.987s4.031,-8.987,8.987,-8.987c4.955,0,8.987,4.031,8.987,8.987S14.969,27.987,10.013,27.987zM8.438,22.38c0.351,1.717,0.842,3.201,0.985,3.615l0.022,0.063l0.066,0.005c0.179,0.013,0.343,0.02,0.502,0.02c0.111,0,0.227,-0.003,0.357,-0.011l0.068,-0.004l0.022,-0.064c0.143,-0.413,0.635,-1.896,0.988,-3.624l0.025,-0.121h-3.06L8.438,22.38zM12.973,22.34c-0.282,1.397,-0.66,2.639,-0.861,3.255l-0.062,0.19l0.19,-0.063c1.698,-0.564,3.111,-1.741,3.978,-3.313l0.083,-0.15H12.99L12.973,22.34zM3.809,22.408c0.857,1.555,2.252,2.725,3.927,3.296l0.193,0.066l-0.065,-0.193c-0.249,-0.745,-0.604,-1.911,-0.879,-3.238l-0.017,-0.081H3.726L3.809,22.408zM13.245,17.265c0.071,0.611,0.107,1.192,0.107,1.726c0,0.538,-0.04,1.13,-0.118,1.76l-0.014,0.113h3.624l0.02,-0.075c0.153,-0.585,0.231,-1.187,0.231,-1.789c0,-0.595,-0.076,-1.192,-0.227,-1.772l-0.02,-0.076h-3.617L13.245,17.265zM8.146,17.241c-0.07,0.599,-0.105,1.167,-0.105,1.689c0,0.56,0.043,1.181,0.128,1.846l0.011,0.088h3.526l0.011,-0.088c0.085,-0.665,0.128,-1.286,0.128,-1.846c0,-0.522,-0.035,-1.09,-0.105,-1.689l-0.01,-0.089H8.157L8.146,17.241zM3.158,17.228c-0.15,0.58,-0.227,1.177,-0.227,1.772c0,0.601,0.078,1.203,0.231,1.789l0.02,0.075h3.55l-0.014,-0.114c-0.08,-0.631,-0.121,-1.223,-0.121,-1.76c0,-0.534,0.037,-1.115,0.11,-1.726l0.014,-0.113H3.178L3.158,17.228zM12.144,12.416c0.244,0.749,0.591,1.923,0.851,3.26l0.016,0.082h3.298l-0.082,-0.149c-0.86,-1.569,-2.265,-2.748,-3.955,-3.319l-0.191,-0.064L12.144,12.416zM10.013,11.918c-0.171,0,-0.345,0.007,-0.533,0.021l-0.066,0.005l-0.022,0.062c-0.188,0.533,-0.66,1.955,-0.992,3.631l-0.024,0.121h3.132l-0.024,-0.121c-0.333,-1.684,-0.807,-3.107,-0.995,-3.64l-0.022,-0.063l-0.067,-0.004C10.259,11.922,10.132,11.918,10.013,11.918zM7.703,12.307c-1.667,0.577,-3.053,1.75,-3.904,3.302l-0.082,0.149h3.229l0.016,-0.081c0.267,-1.331,0.62,-2.498,0.869,-3.243l0.065,-0.195L7.703,12.307z" />
  </g>
</svg>
