<?xml version="1.0" encoding="UTF-8" standalone="no"?>
<!DOCTYPE svg PUBLIC "-//W3C//DTD SVG 1.1//EN" "http://www.w3.org/Graphics/SVG/1.1/DTD/svg11.dtd">
<svg width="32" height="32" viewBox="0 0 32 32" version="1.1" xmlns="http://www.w3.org/2000/svg" xmlns:xlink="http://www.w3.org/1999/xlink" xml:space="preserve" xmlns:serif="http://www.serif.com/" >
  <style type="text / css">
    .Red{fill:#CD4C32;}
    .Green{fill:#4EA17E;}
    .Blue{fill:#3E79B4;}
    .Yellow{fill:#EAB765;}
    .Black{fill:#797979;}
    .Gray{fill:#B4B4B5;}
    .White{fill:#FFFFFF;}
  </style>
    <g id="main">
        <g id="transformed_icon" transform="matrix(1,0,0,1,-1,-1)">
            <clipPath id="_clip1">
                <path d="M19,31.9L19,21.1C19,19.942 19.942,19 21.1,19L31.9,19C32.304,19 32.68,19.116 33,19.315L33,1L1,1L1,33L19.315,33C19.116,32.68 19,32.304 19,31.9Z"/>
            </clipPath>
            <g clip-path="url(#_clip1)">
                <path fill="#3E79B4" class="Blue" d="M29.6,3L2.4,3C1.627,3 1,3.627 1,4.4L1,8L31,8L31,4.4C31,3.627 30.373,3 29.6,3Z" />
                <rect fill="#797979" class="Black" x="2" y="8" width="28" height="21" />
                <path fill="#797979" class="Black" d="M30,8L30.001,29L2,29L2,8L1,8L1,29C1,29.551 1.449,30 2,30L30,30C30.551,30 31,29.551 31,29L31,8L30,8Z" />
            </g>
        </g>
        <g transform="matrix(0.865849,0,0,0.865849,4.29285,4.29285)">
            <g id="overlay">
                <g>
                    <g transform="matrix(1,0,0,1,17,16.999)">
                        <path fill="#3E79B4" class="Blue" d="M6.835,4.629L7.925,7.599L5.082,7.599L6.166,4.641C6.218,4.508 6.273,4.351 6.329,4.168C6.385,3.985 6.441,3.789 6.498,3.581C6.554,3.79 6.612,3.984 6.673,4.162C6.733,4.34 6.787,4.496 6.835,4.629ZM15,2.286L15,12.715C15,13.972 13.971,15.001 12.714,15.001L2.286,15.001C1.029,15 0,13.971 0,12.714L0,2.286C0,1.029 1.029,0 2.286,0L12.715,0C13.971,0 15,1.029 15,2.286ZM10.854,10.967L7.347,2.044L5.654,2.044L2.148,10.967L3.437,10.967C3.578,10.967 3.696,10.929 3.792,10.852C3.888,10.775 3.953,10.688 3.985,10.591L4.654,8.756L8.347,8.756L9.016,10.591C9.056,10.696 9.122,10.785 9.215,10.858C9.307,10.931 9.426,10.967 9.57,10.967L10.854,10.967Z" />
                    </g>
                    <g transform="matrix(1,0,0,1,17,16.999)">
                        <path fill="#FFFFFF" class="White" d="M2.148,10.967L5.654,2.044L7.347,2.044L10.853,10.967L9.57,10.967C9.425,10.967 9.307,10.931 9.215,10.858C9.123,10.785 9.056,10.696 9.016,10.591L8.347,8.756L4.654,8.756L3.985,10.591C3.953,10.688 3.889,10.775 3.792,10.852C3.695,10.929 3.577,10.967 3.437,10.967L2.148,10.967ZM5.082,7.599L7.926,7.599L6.836,4.629C6.788,4.496 6.733,4.341 6.673,4.162C6.613,3.983 6.555,3.79 6.498,3.581C6.442,3.79 6.385,3.986 6.329,4.168C6.273,4.351 6.219,4.508 6.166,4.641L5.082,7.599Z" />
                    </g>
                </g>
            </g>
        </g>
    </g>
</svg>
