<?xml version="1.0" encoding="UTF-8"?>
<!DOCTYPE svg PUBLIC "-//W3C//DTD SVG 1.1//EN" "http://www.w3.org/Graphics/SVG/1.1/DTD/svg11.dtd">
<svg version="1.1" id="Layer_1" xmlns="http://www.w3.org/2000/svg" xmlns:xlink="http://www.w3.org/1999/xlink" x="0px" y="0px" width="32px" height="32px" viewBox="0 0 32 32" enable-background="new 0 0 32 32" xml:space="preserve">
  <style type="text/css">
      .Red{fill:#CD4C32;}
      .Green{fill:#4EA17E;}
      .Blue{fill:#3E79B4;}
      .Yellow{fill:#EAB765;}
      .Black{fill:#797979;}
      .Gray{fill:#B4B4B5;}
      .White{fill:#FFFFFF;}
  </style>
    <g id="icon">
    <g>
      <polygon fill="#797979" class="Black" points="18.4247,14.8247 22.2,11.1161 19.8757,8.8 16.1045,12.5045" fill-rule="evenodd" stroke-linejoin="miter"/>
        <polygon fill="#797979" class="Black" points="11.6582,16.8719 9.9,18.6 12.2243,20.9161 13.9502,19.2197" fill-rule="evenodd" stroke-linejoin="miter"/>
    </g>
        <path fill="#3E79B4" class="Blue" d="M1.0005,25.7148c-0.0316,-0.2685,1.4532,-0.8859,3.1652,-2.6561c1.427,-1.4755,0.283,-0.67,1.9169,-2.2473c2.5429,-2.455,2.9243,-2.2777,3.1402,-2.329c0.4713,0.3212,2.829,2.6727,3.1017,3.1918c0.0583,0.1111,0.1942,0.5989,-2.2953,3.2551c-1.5509,1.6547,-0.6471,0.3793,-2.1024,1.801c-1.7371,1.6969,-2.4286,3.3343,-2.756,3.2412C4.1288,29.6752,1.0994,26.5554,1.0005,25.7148z" fill-rule="evenodd" />
        <g>
      <path fill="#797979" class="Black" d="M30.6472,10.2297l-1.8073,-1.8009c-0.2264,-0.2257,-0.5936,-0.2257,-0.8201,0l-0.208,0.2073c-0.1522,-0.0897,-1.1046,-0.9792,-1.2474,-1.0643l-2.8742,2.8117l1.1376,1.226l-0.2152,0.2144c-0.2265,0.2257,-0.2265,0.5915,0,0.8172l1.8073,1.8009c0.2265,0.2256,0.5936,0.2256,0.8201,0l3.4072,-3.3951C30.8736,10.8212,30.8736,10.4553,30.6472,10.2297z" fill-rule="evenodd" />
            <path fill="#797979" class="Black" d="M23.6352,11.2143l0.6874,-0.747c0,0,2.6896,-2.6181,2.702,-2.6304c0.1957,-0.195,0.2512,-0.2504,0.2648,-0.2639c0.2265,-0.2256,0.2265,-0.5915,0,-0.8172c0,0,-2.6671,-2.6576,-3.0355,-3.0247c-2.1294,-2.2643,-8.1681,-1.008,-9.2864,-0.1151c2.1801,0.6941,2.5639,-0.3952,5.7531,3.0127c-0.2596,0.646,-0.8438,0.8407,-0.8438,0.8407c-0.2265,0.2257,-0.2265,0.5915,0,0.8172l2.9382,2.9278C23.0415,11.44,23.4087,11.44,23.6352,11.2143z" fill-rule="evenodd" />
    </g>
        <path fill="#797979" class="Black" d="M28.853,28.2361l-1.3254,1.3185c-0.5959,0.5938,-1.5622,0.5938,-2.1581,0L9.2119,13.2913c-2.5815,0.8489,-4.8327,0.1165,-5.8706,-0.9177c-1.361,-1.3562,-2.7053,-4.1091,-1.7231,-7.2089c0.0183,-0.0361,0.0516,-0.0854,0.0814,-0.1316l4.3891,4.3735c0.9476,0.9443,1.6137,0.6238,2.4239,-0.1835c0.8101,-0.8073,0.963,-1.9398,0.3562,-2.5443L4.5262,2.3515c0.0527,-0.0299,0.1074,-0.0622,0.1515,-0.0817c3.242,-0.8812,5.9067,0.5784,7.0446,1.7525c1.4323,1.4779,1.6271,3.3267,0.7847,5.9671l16.346,16.0961C29.449,26.6794,29.449,27.6422,28.853,28.2361zM27.0606,26.2669c-0.4241,-0.4226,-1.1118,-0.4226,-1.5359,0c-0.4241,0.4226,-0.4241,1.1079,0,1.5305c0.4241,0.4226,1.1118,0.4226,1.5359,0C27.4847,27.3748,27.4847,26.6895,27.0606,26.2669z" fill-rule="evenodd" />
  </g>
</svg>
