<?xml version="1.0" encoding="UTF-8" standalone="no"?>
<!DOCTYPE svg PUBLIC "-//W3C//DTD SVG 1.1//EN" "http://www.w3.org/Graphics/SVG/1.1/DTD/svg11.dtd">
<svg width="32" height="32" viewBox="0 0 32 32" version="1.1" xmlns="http://www.w3.org/2000/svg" xmlns:xlink="http://www.w3.org/1999/xlink" xml:space="preserve" xmlns:serif="http://www.serif.com/" >
  <style type="text / css">
    .Red{fill:#CD4C32;}
    .Green{fill:#4EA17E;}
    .Blue{fill:#3E79B4;}
    .Yellow{fill:#EAB765;}
    .Black{fill:#797979;}
    .Gray{fill:#B4B4B5;}
    .White{fill:#FFFFFF;}
  </style>
    <g id="icon">
        <path fill="#FFFFFF" class="White" d="M26.6,30.5L5.4,30.5C4.765,30.5 4.5,30.241 4.5,29.6L4.5,2.4C4.5,1.759 4.765,1.5 5.4,1.5C5.4,1.5 19.063,1.5 19.3,1.5C19.538,1.5 19.85,1.55 20.2,1.9C20.499,2.199 25.616,7.316 27.1,8.8C27.353,9.053 27.5,9.35 27.5,9.8C27.5,10.113 27.5,29.6 27.5,29.6C27.5,30.241 27.235,30.5 26.6,30.5Z" />
        <path fill="#797979" class="Black" d="M19.3,1C19.405,1 19.51,1.008 19.614,1.027C19.772,1.055 19.926,1.108 20.069,1.184C20.187,1.245 20.297,1.32 20.399,1.405C20.452,1.449 20.503,1.496 20.552,1.545L27.454,8.447C27.523,8.516 27.588,8.589 27.65,8.672C27.769,8.834 27.861,9.016 27.919,9.208C27.971,9.383 27.996,9.566 27.999,9.748C28,9.764 28,9.781 28,9.798C28.005,16.4 28.007,23.001 28,29.603C28,29.659 27.998,29.716 27.994,29.773C27.987,29.88 27.972,29.986 27.946,30.09C27.922,30.183 27.89,30.273 27.844,30.364C27.809,30.432 27.768,30.497 27.72,30.557L27.719,30.558C27.644,30.651 27.555,30.73 27.454,30.793C27.448,30.797 27.443,30.8 27.438,30.803L27.437,30.804C27.398,30.827 27.359,30.847 27.318,30.866C27.249,30.898 27.176,30.923 27.103,30.942C27.023,30.963 26.942,30.977 26.858,30.987C26.773,30.996 26.69,31 26.603,31C19.534,31.007 12.466,31.007 5.397,31C5.263,31 5.133,30.991 4.999,30.965C4.795,30.926 4.6,30.847 4.44,30.717C4.332,30.629 4.242,30.522 4.175,30.399C4.089,30.243 4.04,30.07 4.018,29.895C4.005,29.797 4,29.697 4,29.6C3.998,20.532 3.991,11.464 4,2.396C4,2.261 4.01,2.125 4.036,1.992C4.067,1.835 4.121,1.684 4.205,1.549C4.303,1.393 4.44,1.263 4.602,1.174C4.694,1.123 4.792,1.086 4.893,1.059C5.032,1.022 5.177,1.006 5.319,1.001C5.346,1 5.373,1 5.4,1C10.033,0.999 14.667,0.999 19.3,1ZM5.4,2C5.325,2 5.249,2.004 5.175,2.019C5.143,2.026 5.111,2.034 5.082,2.051C5.071,2.057 5.062,2.066 5.055,2.076C5.04,2.098 5.032,2.124 5.025,2.15C5.011,2.206 5.005,2.263 5.002,2.32C5.001,2.346 5,2.372 5,2.399C4.995,11.466 4.995,20.534 5,29.601C5,29.676 5.004,29.751 5.019,29.824C5.026,29.854 5.034,29.885 5.049,29.913C5.059,29.932 5.075,29.947 5.101,29.958C5.161,29.985 5.229,29.992 5.294,29.996C5.328,29.999 5.363,30 5.397,30L5.399,30C12.467,30 19.535,30.015 26.603,30C26.671,30 26.739,29.997 26.806,29.984C26.839,29.978 26.872,29.971 26.902,29.957C26.919,29.949 26.935,29.94 26.946,29.923C26.956,29.908 26.962,29.89 26.968,29.873C26.985,29.821 26.992,29.766 26.996,29.712C26.999,29.676 27,29.639 27,29.603L27,29.601C27,23 27.01,16.398 27,9.797C27,9.736 26.996,9.675 26.987,9.614C26.987,9.613 26.987,9.611 26.986,9.61C26.978,9.558 26.966,9.505 26.949,9.458C26.915,9.364 26.86,9.278 26.792,9.201C26.777,9.185 26.763,9.17 26.748,9.155C26.511,8.917 26.273,8.68 26.036,8.443L19.845,2.252C19.789,2.196 19.73,2.145 19.663,2.103C19.595,2.059 19.518,2.025 19.436,2.011C19.391,2.003 19.346,2 19.301,2C14.667,1.998 10.034,2 5.4,2Z" />
        <path fill="#797979" class="Black" d="M20,8.7C20,8.701 20,8.703 20,8.704C20,8.725 20.003,8.746 20.007,8.766C20.009,8.776 20.013,8.79 20.018,8.803C20.037,8.854 20.068,8.899 20.114,8.935C20.167,8.977 20.235,9 20.3,9L27.3,9L27.3,10C24.966,10 22.632,10.002 20.298,10C20.105,10 19.912,9.956 19.737,9.872C19.567,9.79 19.415,9.67 19.295,9.525C19.197,9.406 19.121,9.269 19.071,9.123C19.047,9.055 19.029,8.985 19.018,8.915C19.006,8.847 19,8.777 19,8.709C19,8.706 19,8.703 19,8.701L19,8.7L19,2L20,2C20,4.233 20,6.466 20,8.7Z" />
        <path fill="#797979" class="Black" d="M23.444,20.946C24.553,20.946 25.453,21.847 25.453,22.956L25.453,26.975C25.453,28.084 24.553,28.984 23.444,28.984L7.976,28.984C6.867,28.984 5.966,28.084 5.966,26.975L5.966,22.956C5.966,21.847 6.867,20.946 7.976,20.946L23.444,20.946ZM14.83,28.525C15.436,28.525 15.901,28.367 16.225,28.05C16.548,27.734 16.71,27.242 16.71,26.575L16.71,23.245C16.71,22.659 16.558,22.205 16.255,21.885C15.951,21.565 15.506,21.405 14.92,21.405L13.41,21.405L13.41,28.525L14.83,28.525ZM12.81,28.525L11.71,25.275C12.036,25.095 12.265,24.859 12.395,24.565C12.525,24.272 12.59,23.915 12.59,23.495C12.59,22.102 11.99,21.405 10.79,21.405L9.15,21.405L9.15,28.525L10.17,28.525L10.17,25.485L10.78,25.485L11.73,28.525L12.81,28.525ZM22.27,28.525L22.27,21.405L21.28,21.405L19.98,25.175L19.96,25.175L18.65,21.405L17.67,21.405L17.67,28.525L18.69,28.525L18.69,24.195L18.71,24.195L19.71,27.255L20.22,27.255L21.23,24.195L21.25,24.195L21.25,28.525L22.27,28.525ZM14.9,22.365C15.2,22.365 15.406,22.442 15.52,22.595C15.633,22.749 15.69,22.965 15.69,23.245L15.69,26.675C15.69,26.982 15.63,27.207 15.51,27.35C15.39,27.494 15.186,27.565 14.9,27.565L14.43,27.565L14.43,22.365L14.9,22.365ZM10.7,22.365C11.053,22.365 11.293,22.459 11.42,22.645C11.48,22.745 11.52,22.864 11.54,23C11.56,23.137 11.57,23.295 11.57,23.475C11.57,23.655 11.56,23.814 11.54,23.95C11.52,24.087 11.483,24.202 11.43,24.295C11.37,24.389 11.286,24.46 11.18,24.51C11.073,24.56 10.93,24.585 10.75,24.585L10.17,24.585L10.17,22.365L10.7,22.365Z" />
    </g>
</svg>
