<?xml version="1.0" encoding="UTF-8"?>
<!DOCTYPE svg PUBLIC "-//W3C//DTD SVG 1.1//EN" "http://www.w3.org/Graphics/SVG/1.1/DTD/svg11.dtd">
<svg version="1.1" id="Layer_1" xmlns="http://www.w3.org/2000/svg" xmlns:xlink="http://www.w3.org/1999/xlink" x="0px" y="0px" width="32px" height="32px" viewBox="0 0 32 32" enable-background="new 0 0 32 32" xml:space="preserve">
  <style type="text / css">
    .Red{fill:#CD4C32;}
    .Green{fill:#4EA17E;}
    .Blue{fill:#3E79B4;}
    .Yellow{fill:#EAB765;}
    .Black{fill:#797979;}
    .Gray{fill:#B4B4B5;}
    .White{fill:#FFFFFF;}
  </style>
  <g id="icon">
    <path fill="#3E79B4" class="Blue" d="M29.6,3H2.4c-0.773,0,-1.4,0.627,-1.4,1.4v3.6h30V4.4C31,3.627,30.373,3,29.6,3zM21,7h-2V5h2V7zM25,7h-2V5h2V7zM29,7h-2V5h2V7z" />
    <path fill="#797979" class="Black" d="M2,8v21h28V8H2zM7.131,25.836c0.556,0,1.145,-0.113,1.519,-0.272l0.227,1.1c-0.329,0.159,-1.055,0.34,-1.985,0.34c-2.427,0,-3.901,-1.619,-3.901,-3.956c0,-2.518,1.758,-4.037,4.094,-4.037c0.918,0,1.565,0.193,1.848,0.34l-0.295,1.111c-0.363,-0.159,-0.874,-0.295,-1.497,-0.295c-1.554,0,-2.676,0.975,-2.676,2.813C4.466,24.67,5.441,25.836,7.131,25.836zM10.984,25.904c-0.488,0,-0.839,-0.386,-0.839,-0.885c0,-0.522,0.351,-0.896,0.862,-0.896c0.511,0,0.851,0.363,0.851,0.896C11.858,25.519,11.517,25.904,10.984,25.904zM10.984,22.083c-0.488,0,-0.839,-0.386,-0.839,-0.885c0,-0.522,0.351,-0.896,0.862,-0.896c0.511,0,0.851,0.363,0.851,0.896C11.858,21.697,11.517,22.083,10.984,22.083zM15.177,27.022L12.524,19h0.975l2.654,8.022H15.177zM22.012,23.417L17,25.979v-1l4.039,-1.978v-0.022L17,21v-1l5.012,2.563V23.417z" fill-rule="evenodd" />
    <path fill="#FFFFFF" class="White" d="M8.878,26.664c-0.329,0.159,-1.055,0.34,-1.985,0.34c-2.427,0,-3.901,-1.619,-3.901,-3.956c0,-2.518,1.758,-4.037,4.094,-4.037c0.918,0,1.565,0.193,1.848,0.34l-0.295,1.111c-0.363,-0.159,-0.874,-0.295,-1.497,-0.295c-1.554,0,-2.676,0.975,-2.676,2.813c0,1.689,0.975,2.855,2.665,2.855c0.556,0,1.145,-0.113,1.519,-0.272L8.878,26.664zM10.145,21.198c0,-0.522,0.351,-0.896,0.862,-0.896c0.511,0,0.851,0.363,0.851,0.896c0,0.499,-0.34,0.885,-0.874,0.885C10.497,22.083,10.145,21.697,10.145,21.198zM10.145,25.02c0,-0.522,0.351,-0.896,0.862,-0.896c0.511,0,0.851,0.363,0.851,0.896c0,0.499,-0.34,0.885,-0.874,0.885C10.497,25.904,10.145,25.519,10.145,25.02zM15.177,27.022L12.524,19h0.975l2.654,8.022H15.177zM22.012,23.417L17,25.979v-1l4.039,-1.978v-0.022L17,21v-1l5.012,2.563V23.417z" />
    <path fill="#797979" class="Black" d="M30,8l0.001,21H2V8H1v21c0,0.551,0.449,1,1,1h28c0.551,0,1,-0.449,1,-1V8H30z" />
    <path fill="#FFFFFF" class="White" d="M29,7h-2V5h2V7zM25,5h-2v2h2V5zM21,5h-2v2h2V5z" />
  </g>
</svg>
