<?xml version="1.0" encoding="UTF-8" standalone="no"?>
<!DOCTYPE svg PUBLIC "-//W3C//DTD SVG 1.1//EN" "http://www.w3.org/Graphics/SVG/1.1/DTD/svg11.dtd">
<svg width="32" height="32" viewBox="0 0 32 32" version="1.1" xmlns="http://www.w3.org/2000/svg" xmlns:xlink="http://www.w3.org/1999/xlink" xml:space="preserve" xmlns:serif="http://www.serif.com/" style="fill-rule:evenodd;clip-rule:evenodd;stroke-linejoin:round;stroke-miterlimit:1.41421;">
  <style type="text / css">
    .Red{fill:#CD4C32;}
    .Green{fill:#4EA17E;}
    .Blue{fill:#3E79B4;}
    .Yellow{fill:#EAB765;}
    .Black{fill:#797979;}
    .Gray{fill:#B4B4B5;}
    .White{fill:#FFFFFF;}
  </style>
    <g id="icon">
        <path fill="#FFFFFF" class="White" d="M30.1,7.8C28.616,6.316 24.499,2.199 24.2,1.9C23.85,1.55 23.538,1.5 23.3,1.5C23.062,1.5 8.4,1.5 8.4,1.5C7.765,1.5 7.5,1.759 7.5,2.4L7.5,15L21.5,15C25.084,15 28,17.916 28,21.5C28,25.084 25.084,28 21.5,28L7.5,28L7.5,29.6C7.5,30.241 7.765,30.5 8.4,30.5L29.6,30.5C30.235,30.5 30.5,30.241 30.5,29.6C30.5,29.6 30.5,9.112 30.5,8.8C30.5,8.35 30.353,8.053 30.1,7.8Z" />
        <path fill="#797979" class="Black" d="M30.454,7.446L24.554,1.546C24.186,1.179 23.776,1 23.3,1L8.4,1C7.484,1 7,1.484 7,2.4L7,15L8,15L8,2.4C8,2.037 8.037,2 8.4,2L23,2L23,7.7C23,8.417 23.583,9 24.3,9L30,9L30,29.6C30,29.963 29.963,30 29.6,30L8.4,30C8.037,30 8,29.963 8,29.6L8,28L7,28L7,29.6C7,30.516 7.484,31 8.4,31L29.6,31C30.516,31 31,30.516 31,29.6L31,8.8C31,8.249 30.826,7.819 30.454,7.446ZM24.3,8C24.135,8 24,7.865 24,7.7L24,2.407L29.593,8L24.3,8Z" />
        <path fill="#3E79B4" class="Blue" d="M26.973,25C27.622,23.989 28,22.788 28,21.5L28,28L21.5,28C22.77,28 23.955,27.632 24.958,27L27,27L27,25L26.973,25ZM28,12L28,21.5C28,20.212 27.622,19.011 26.973,18L27,18L27,16L24.958,16C23.956,15.368 22.77,15 21.5,15L27,15L27,13L21.5,13L21,13L21,15L20,15L20,13L16,13L16,15L15,15L15,13L11,13L11,15L10,15L10,13L10,12.7L10,12L10,6L21,6L21,12L28,12ZM15,10L11,10L11,12L15,12L15,10ZM15,7L11,7L11,9L15,9L15,7ZM20,10L16,10L16,12L20,12L20,10ZM20,7L16,7L16,9L20,9L20,7Z" style="fill-opacity:0.5;"/>
        <path fill="#3E79B4" class="Blue" d="M21.5,16L6.5,16C3.462,16 1,18.462 1,21.5C1,24.538 3.462,27 6.5,27L21.5,27C24.538,27 27,24.538 27,21.5C27,18.462 24.538,16 21.5,16ZM10.835,24.02C10.694,24.159 10.541,24.287 10.38,24.402C10.212,24.521 10.026,24.625 9.828,24.71C9.631,24.795 9.413,24.861 9.181,24.909C8.949,24.956 8.693,24.98 8.42,24.98C7.964,24.98 7.535,24.897 7.144,24.733C6.749,24.567 6.402,24.325 6.113,24.013C5.827,23.704 5.603,23.328 5.446,22.896C5.292,22.472 5.214,21.992 5.214,21.471C5.214,20.966 5.292,20.496 5.446,20.073C5.603,19.642 5.829,19.265 6.119,18.952C6.412,18.636 6.767,18.389 7.174,18.217C7.577,18.047 8.024,17.961 8.502,17.961C8.721,17.961 8.932,17.978 9.129,18.013C9.329,18.048 9.523,18.101 9.705,18.172C9.884,18.242 10.057,18.328 10.221,18.429C10.38,18.527 10.537,18.641 10.689,18.768C10.9,18.946 10.927,19.261 10.75,19.473C10.572,19.684 10.257,19.711 10.045,19.534C9.931,19.438 9.814,19.353 9.697,19.281C9.585,19.212 9.465,19.152 9.343,19.105C9.223,19.058 9.094,19.023 8.958,18.999C8.818,18.975 8.664,18.962 8.503,18.962C8.159,18.962 7.842,19.022 7.563,19.139C7.284,19.257 7.052,19.418 6.853,19.632C6.654,19.847 6.497,20.11 6.386,20.415C6.272,20.728 6.214,21.084 6.214,21.472C6.214,21.877 6.272,22.242 6.386,22.556C6.497,22.862 6.652,23.124 6.847,23.335C7.041,23.545 7.265,23.701 7.531,23.813C7.798,23.925 8.097,23.982 8.419,23.982C8.626,23.982 8.815,23.965 8.981,23.931C9.146,23.897 9.298,23.851 9.432,23.793C9.566,23.736 9.689,23.667 9.8,23.588C9.917,23.505 10.029,23.411 10.131,23.31C10.327,23.116 10.644,23.118 10.838,23.315C11.033,23.51 11.031,23.826 10.835,24.02ZM16.172,23.619C16.067,23.893 15.912,24.136 15.712,24.342C15.511,24.548 15.264,24.712 14.978,24.828C14.696,24.943 14.377,25.001 14.029,25.001C13.795,25.001 13.579,24.979 13.388,24.936C13.192,24.891 13.008,24.826 12.842,24.74C12.677,24.655 12.523,24.551 12.384,24.43C12.255,24.317 12.131,24.188 12.013,24.046C11.85,23.848 11.863,23.559 12.043,23.377L12.06,23.36C12.254,23.164 12.571,23.162 12.767,23.356C12.814,23.403 12.851,23.457 12.875,23.515C12.929,23.574 12.985,23.628 13.041,23.677C13.119,23.745 13.205,23.803 13.298,23.851C13.39,23.898 13.494,23.935 13.608,23.961C13.727,23.988 13.868,24.002 14.028,24.002C14.246,24.002 14.438,23.969 14.6,23.903C14.76,23.838 14.889,23.754 14.994,23.645C15.1,23.536 15.179,23.411 15.236,23.263C15.294,23.11 15.324,22.941 15.324,22.76C15.324,22.607 15.3,22.483 15.254,22.399C15.2,22.3 15.131,22.219 15.043,22.152C14.94,22.073 14.817,22.005 14.679,21.952C14.502,21.884 14.32,21.818 14.139,21.758C13.945,21.693 13.751,21.623 13.562,21.552C13.336,21.467 13.131,21.357 12.953,21.225C12.756,21.079 12.593,20.898 12.471,20.685C12.34,20.456 12.273,20.179 12.273,19.863C12.273,19.622 12.318,19.386 12.407,19.164C12.498,18.937 12.632,18.734 12.805,18.561C12.977,18.39 13.189,18.252 13.436,18.153C13.681,18.054 13.958,18.004 14.261,18.004C14.453,18.004 14.629,18.022 14.784,18.057C14.935,18.091 15.074,18.136 15.196,18.19C15.32,18.246 15.43,18.309 15.524,18.377C15.606,18.437 15.673,18.492 15.732,18.546C15.759,18.57 15.782,18.593 15.803,18.612C15.963,18.695 16.073,18.863 16.073,19.056C16.073,19.332 15.849,19.556 15.573,19.556C15.467,19.556 15.308,19.525 15.154,19.375C15.129,19.351 15.096,19.32 15.055,19.282C15.024,19.254 14.983,19.22 14.932,19.183C14.896,19.157 14.848,19.13 14.788,19.103C14.727,19.076 14.652,19.052 14.565,19.032C14.482,19.013 14.379,19.004 14.261,19.004C14.087,19.004 13.936,19.03 13.811,19.08C13.689,19.13 13.587,19.194 13.51,19.271C13.433,19.348 13.376,19.434 13.336,19.535C13.294,19.641 13.273,19.749 13.273,19.864C13.273,20.002 13.296,20.114 13.338,20.189C13.391,20.282 13.459,20.358 13.546,20.422C13.651,20.499 13.775,20.565 13.915,20.618C14.092,20.685 14.275,20.75 14.458,20.812C14.653,20.877 14.848,20.948 15.038,21.021C15.266,21.109 15.472,21.223 15.652,21.361C15.849,21.512 16.01,21.7 16.131,21.921C16.259,22.155 16.324,22.438 16.324,22.763C16.327,23.062 16.275,23.351 16.172,23.619ZM22.862,18.692L20.362,24.692C20.284,24.878 20.102,25 19.9,25C19.698,25 19.516,24.879 19.438,24.692L16.938,18.692C16.832,18.437 16.952,18.144 17.207,18.038C17.462,17.932 17.755,18.052 17.861,18.307L19.9,23.2L21.938,18.308C22.044,18.053 22.337,17.932 22.592,18.039C22.847,18.145 22.968,18.437 22.862,18.692Z" />
        <path fill="#FFFFFF" class="White" d="M14.267,18C14.342,18 14.416,18.003 14.49,18.009C14.541,18.013 14.591,18.018 14.641,18.025C14.701,18.034 14.762,18.046 14.821,18.06C14.905,18.08 14.99,18.105 15.069,18.133C15.17,18.17 15.267,18.214 15.362,18.267C15.403,18.29 15.444,18.316 15.483,18.342L15.484,18.343C15.498,18.352 15.511,18.361 15.524,18.371L15.527,18.373C15.604,18.43 15.679,18.491 15.751,18.557C15.769,18.573 15.787,18.59 15.804,18.607L15.806,18.608L15.81,18.61L15.829,18.621C15.835,18.625 15.842,18.628 15.848,18.632C15.929,18.685 15.993,18.761 16.032,18.848C16.075,18.942 16.087,19.05 16.066,19.151C16.047,19.245 16,19.333 15.933,19.402C15.846,19.491 15.723,19.546 15.598,19.552C15.591,19.552 15.583,19.552 15.576,19.552L15.574,19.552C15.571,19.552 15.569,19.552 15.567,19.552L15.565,19.552C15.561,19.552 15.557,19.552 15.553,19.552L15.549,19.551L15.545,19.551L15.542,19.551L15.54,19.551L15.538,19.551L15.536,19.551L15.533,19.55C15.531,19.55 15.529,19.55 15.527,19.55L15.525,19.55C15.523,19.549 15.521,19.549 15.518,19.549L15.516,19.549L15.514,19.549L15.512,19.548C15.51,19.548 15.508,19.548 15.506,19.547L15.504,19.547L15.501,19.547L15.499,19.547C15.497,19.546 15.495,19.546 15.493,19.546L15.491,19.545C15.488,19.545 15.486,19.545 15.483,19.544L15.481,19.544C15.48,19.543 15.478,19.543 15.477,19.543L15.475,19.543C15.472,19.542 15.468,19.541 15.465,19.541L15.461,19.54C15.46,19.54 15.458,19.539 15.457,19.539L15.455,19.539C15.452,19.538 15.449,19.537 15.446,19.536L15.444,19.536C15.439,19.535 15.435,19.534 15.431,19.533L15.429,19.532L15.427,19.532L15.424,19.53L15.422,19.53L15.42,19.529L15.416,19.528L15.415,19.528L15.413,19.527L15.411,19.527L15.41,19.526L15.406,19.525L15.404,19.525L15.403,19.524L15.399,19.523L15.398,19.522L15.396,19.522L15.394,19.521L15.393,19.521L15.391,19.52C15.388,19.519 15.387,19.519 15.385,19.518C15.384,19.518 15.383,19.517 15.383,19.517L15.38,19.516L15.378,19.515L15.377,19.515L15.373,19.513L15.372,19.513L15.37,19.512L15.368,19.512C15.367,19.511 15.366,19.51 15.364,19.51L15.363,19.509C15.361,19.509 15.359,19.508 15.358,19.507L15.357,19.507L15.355,19.506L15.354,19.505C15.35,19.504 15.346,19.502 15.342,19.5L15.341,19.5L15.338,19.498L15.337,19.498C15.334,19.496 15.331,19.495 15.328,19.494L15.327,19.493C15.325,19.492 15.323,19.491 15.321,19.49L15.32,19.49C15.319,19.489 15.318,19.488 15.317,19.488L15.315,19.487L15.314,19.486L15.313,19.486C15.311,19.485 15.31,19.484 15.309,19.484L15.308,19.483C15.307,19.482 15.305,19.482 15.304,19.481L15.303,19.48C15.301,19.479 15.299,19.478 15.297,19.477L15.296,19.476C15.294,19.476 15.293,19.475 15.292,19.474L15.291,19.474C15.29,19.473 15.289,19.472 15.287,19.472L15.286,19.471C15.285,19.47 15.284,19.47 15.283,19.469L15.282,19.468L15.281,19.468L15.28,19.467C15.277,19.465 15.275,19.464 15.272,19.462L15.271,19.462L15.27,19.461L15.269,19.46C15.267,19.459 15.265,19.458 15.263,19.457L15.262,19.455L15.26,19.454L15.257,19.453L15.256,19.452C15.256,19.452 15.251,19.448 15.246,19.445C15.246,19.445 15.24,19.44 15.236,19.438C15.236,19.438 15.232,19.435 15.229,19.433C15.22,19.426 15.21,19.418 15.2,19.41L15.199,19.409C15.168,19.383 15.14,19.354 15.11,19.326C15.08,19.299 15.051,19.271 15.019,19.244C14.992,19.222 14.964,19.2 14.936,19.179C14.935,19.179 14.928,19.174 14.922,19.17C14.871,19.135 14.815,19.107 14.759,19.085C14.691,19.058 14.619,19.038 14.548,19.024C14.445,19.003 14.338,18.999 14.235,19C14.16,19.001 14.085,19.008 14.01,19.021C13.946,19.032 13.883,19.049 13.822,19.073C13.797,19.083 13.772,19.094 13.749,19.105C13.699,19.129 13.65,19.157 13.603,19.19C13.562,19.22 13.523,19.255 13.489,19.292C13.462,19.322 13.436,19.354 13.414,19.387C13.341,19.495 13.297,19.624 13.282,19.758C13.273,19.838 13.274,19.919 13.284,19.997C13.293,20.062 13.308,20.127 13.341,20.184C13.385,20.261 13.442,20.33 13.51,20.387C13.599,20.462 13.702,20.52 13.805,20.567C13.858,20.592 13.914,20.612 13.968,20.633C14.132,20.694 14.296,20.753 14.462,20.808C14.656,20.874 14.85,20.943 15.042,21.018L15.045,21.019C15.233,21.092 15.414,21.185 15.579,21.301C15.686,21.376 15.786,21.461 15.875,21.557C15.964,21.653 16.043,21.759 16.11,21.874C16.147,21.938 16.181,22.005 16.208,22.074C16.294,22.289 16.327,22.521 16.328,22.752C16.328,22.892 16.318,23.032 16.295,23.171C16.279,23.269 16.256,23.367 16.228,23.461C16.144,23.741 16.005,24.006 15.816,24.23C15.752,24.305 15.683,24.376 15.61,24.441C15.512,24.528 15.406,24.606 15.294,24.673C15.19,24.734 15.081,24.788 14.969,24.833C14.891,24.864 14.811,24.891 14.729,24.913C14.717,24.916 14.705,24.919 14.693,24.922L14.692,24.923C14.649,24.934 14.607,24.943 14.563,24.952L14.562,24.952C14.536,24.957 14.51,24.962 14.484,24.966L14.482,24.966C14.397,24.98 14.311,24.989 14.227,24.995C14.123,25.001 14.021,25.002 13.917,24.999C13.733,24.993 13.548,24.973 13.368,24.931C13.246,24.902 13.125,24.864 13.008,24.816C12.952,24.793 12.897,24.767 12.842,24.739C12.723,24.677 12.608,24.606 12.503,24.525C12.442,24.478 12.382,24.427 12.325,24.375C12.214,24.273 12.111,24.162 12.015,24.045L12.002,24.027C11.99,24.011 11.987,24.007 11.976,23.991C11.918,23.896 11.892,23.781 11.905,23.67C11.917,23.567 11.963,23.467 12.033,23.391C12.041,23.381 12.057,23.366 12.065,23.357C12.081,23.342 12.098,23.327 12.115,23.314C12.197,23.251 12.299,23.215 12.402,23.211C12.528,23.207 12.653,23.252 12.748,23.335C12.798,23.379 12.839,23.432 12.868,23.492C12.872,23.499 12.875,23.505 12.878,23.512L12.879,23.515C12.93,23.571 12.984,23.624 13.042,23.674L13.044,23.677C13.121,23.745 13.207,23.802 13.299,23.849C13.355,23.879 13.414,23.903 13.476,23.923C13.555,23.95 13.637,23.968 13.72,23.98C13.846,23.999 13.975,24.004 14.103,24C14.177,23.997 14.251,23.991 14.325,23.979C14.405,23.966 14.484,23.946 14.562,23.918C14.599,23.905 14.635,23.889 14.67,23.873C14.752,23.834 14.83,23.788 14.902,23.731C15.037,23.624 15.144,23.48 15.215,23.323C15.242,23.263 15.263,23.202 15.28,23.138C15.315,23.009 15.33,22.877 15.328,22.737C15.327,22.66 15.32,22.582 15.3,22.507C15.289,22.466 15.274,22.427 15.252,22.389C15.211,22.316 15.157,22.247 15.097,22.193C15.037,22.138 14.969,22.093 14.899,22.053C14.83,22.013 14.758,21.98 14.684,21.951C14.506,21.882 14.328,21.819 14.146,21.757L14.142,21.756C13.95,21.691 13.758,21.622 13.566,21.55L13.564,21.549C13.401,21.488 13.242,21.411 13.095,21.318C12.986,21.249 12.884,21.173 12.791,21.085C12.676,20.976 12.576,20.852 12.494,20.716C12.443,20.631 12.4,20.541 12.367,20.447C12.305,20.267 12.278,20.075 12.276,19.884C12.274,19.685 12.302,19.486 12.362,19.296C12.412,19.135 12.484,18.98 12.578,18.838C12.635,18.753 12.698,18.673 12.768,18.599C12.837,18.526 12.911,18.46 12.992,18.399C13.07,18.34 13.153,18.288 13.239,18.242C13.353,18.182 13.473,18.131 13.597,18.093L13.599,18.093C13.614,18.088 13.629,18.084 13.644,18.08L13.645,18.079C13.66,18.075 13.674,18.072 13.688,18.068L13.691,18.067C13.735,18.056 13.78,18.046 13.825,18.038L13.827,18.038C13.835,18.036 13.843,18.035 13.851,18.034L13.852,18.033C13.962,18.015 14.071,18.005 14.183,18.001C14.211,18 14.239,18 14.267,18ZM22.431,18.001C22.439,18.002 22.446,18.002 22.453,18.003C22.571,18.015 22.682,18.071 22.764,18.157C22.83,18.227 22.875,18.316 22.892,18.41C22.908,18.497 22.9,18.588 22.87,18.672C22.867,18.679 22.864,18.685 22.862,18.692L20.362,24.692C20.359,24.699 20.356,24.706 20.353,24.713C20.296,24.833 20.19,24.929 20.063,24.973C19.945,25.014 19.811,25.008 19.695,24.956C19.587,24.908 19.498,24.82 19.447,24.713C19.444,24.706 19.441,24.699 19.438,24.692L16.938,18.692C16.936,18.685 16.933,18.679 16.93,18.672C16.892,18.568 16.89,18.452 16.924,18.346C16.958,18.241 17.028,18.148 17.12,18.086C17.2,18.032 17.295,18.002 17.391,18C17.494,17.998 17.597,18.029 17.683,18.088C17.756,18.138 17.815,18.208 17.853,18.287C17.856,18.294 17.859,18.301 17.862,18.308L19.9,23.2L21.938,18.308L21.947,18.287C21.956,18.27 21.958,18.265 21.968,18.248C22.02,18.159 22.1,18.087 22.194,18.044C22.248,18.02 22.306,18.005 22.365,18.001C22.385,18 22.39,18 22.409,18C22.417,18 22.424,18.001 22.431,18.001ZM8.507,17.959C8.632,17.959 8.758,17.965 8.882,17.977C9.068,17.996 9.253,18.029 9.432,18.079C9.485,18.093 9.538,18.11 9.589,18.127C9.653,18.149 9.717,18.173 9.781,18.2C9.925,18.26 10.063,18.33 10.199,18.413C10.322,18.487 10.44,18.568 10.553,18.656C10.599,18.691 10.644,18.728 10.689,18.766L10.706,18.78C10.711,18.785 10.716,18.79 10.722,18.796C10.794,18.869 10.844,18.964 10.86,19.067C10.878,19.176 10.859,19.291 10.806,19.388C10.76,19.472 10.689,19.543 10.604,19.588C10.501,19.644 10.377,19.662 10.261,19.637C10.189,19.621 10.121,19.589 10.062,19.544C10.04,19.527 10.019,19.508 9.997,19.491C9.899,19.412 9.797,19.339 9.691,19.274C9.61,19.224 9.526,19.18 9.439,19.141C9.409,19.128 9.378,19.115 9.346,19.102L9.345,19.102C9.345,19.102 9.341,19.1 9.339,19.099C9.211,19.051 9.076,19.015 8.944,18.993C8.791,18.968 8.636,18.958 8.483,18.959C8.331,18.96 8.177,18.973 8.031,18.999C7.873,19.028 7.718,19.072 7.57,19.134C7.409,19.2 7.252,19.289 7.11,19.397C7.018,19.467 6.931,19.545 6.853,19.63C6.745,19.746 6.653,19.873 6.573,20.01C6.482,20.166 6.41,20.332 6.354,20.505C6.262,20.792 6.22,21.095 6.215,21.398C6.209,21.695 6.234,21.994 6.304,22.282C6.329,22.387 6.361,22.489 6.4,22.591C6.487,22.821 6.606,23.041 6.76,23.233C6.879,23.38 7.018,23.51 7.173,23.617C7.262,23.677 7.356,23.731 7.452,23.776C7.551,23.822 7.652,23.861 7.754,23.89C7.844,23.916 7.935,23.936 8.028,23.951C8.102,23.962 8.177,23.97 8.251,23.975C8.392,23.984 8.537,23.981 8.678,23.971C8.768,23.964 8.857,23.953 8.945,23.936C9.053,23.916 9.16,23.889 9.262,23.856C9.436,23.799 9.6,23.721 9.751,23.621C9.851,23.555 9.945,23.481 10.035,23.4C10.067,23.371 10.099,23.341 10.13,23.311L10.131,23.31C10.136,23.305 10.141,23.3 10.147,23.295C10.229,23.22 10.336,23.174 10.446,23.166C10.557,23.158 10.669,23.188 10.761,23.25C10.841,23.303 10.905,23.38 10.943,23.468C10.992,23.583 10.996,23.716 10.953,23.835C10.931,23.897 10.896,23.955 10.85,24.004C10.832,24.024 10.812,24.043 10.792,24.062C10.662,24.187 10.523,24.302 10.375,24.406C10.281,24.472 10.184,24.532 10.083,24.587C10.013,24.625 9.942,24.66 9.87,24.692C9.759,24.741 9.645,24.784 9.527,24.821C9.414,24.856 9.298,24.885 9.18,24.909C9.028,24.94 8.876,24.959 8.722,24.97C8.647,24.975 8.574,24.978 8.494,24.979C8.471,24.98 8.448,24.98 8.425,24.98L8.422,24.98C8.333,24.98 8.242,24.977 8.153,24.97C8.01,24.96 7.871,24.942 7.733,24.914C7.596,24.886 7.462,24.85 7.331,24.805C7.155,24.744 6.986,24.668 6.825,24.577C6.674,24.492 6.531,24.393 6.399,24.283C6.252,24.162 6.117,24.026 5.996,23.878C5.797,23.635 5.637,23.361 5.514,23.07C5.405,22.81 5.327,22.54 5.279,22.259C5.241,22.041 5.221,21.819 5.216,21.598C5.207,21.254 5.233,20.907 5.304,20.569C5.338,20.409 5.382,20.25 5.437,20.096C5.55,19.778 5.707,19.474 5.91,19.201C5.974,19.116 6.042,19.034 6.114,18.956C6.223,18.837 6.342,18.728 6.472,18.626C6.618,18.512 6.775,18.411 6.94,18.325C7.013,18.287 7.088,18.252 7.163,18.22C7.383,18.126 7.61,18.06 7.843,18.017C7.934,18 8.026,17.988 8.118,17.978C8.184,17.971 8.251,17.967 8.315,17.963C8.375,17.961 8.434,17.959 8.494,17.959L8.496,17.959L8.499,17.959C8.502,17.959 8.504,17.959 8.507,17.959ZM14.936,19.18L14.936,19.18C14.936,19.18 14.936,19.18 14.936,19.18ZM15.829,18.633C15.829,18.633 15.828,18.632 15.829,18.633ZM15.819,18.626C15.819,18.626 15.819,18.626 15.819,18.626ZM15.61,18.553L15.609,18.553L15.607,18.553L15.606,18.553L15.604,18.553L15.602,18.553C15.605,18.553 15.608,18.553 15.61,18.553ZM15.576,18.552L15.596,18.552C15.596,18.552 15.594,18.552 15.595,18.552L15.593,18.552L15.589,18.552C15.587,18.552 15.585,18.552 15.584,18.552L15.582,18.552L15.578,18.552C15.577,18.552 15.577,18.552 15.576,18.552Z" />
    </g>
</svg>
