<?xml version="1.0" encoding="UTF-8"?>
<!DOCTYPE svg PUBLIC "-//W3C//DTD SVG 1.1//EN" "http://www.w3.org/Graphics/SVG/1.1/DTD/svg11.dtd">
<svg version="1.1" id="Layer_1" xmlns="http://www.w3.org/2000/svg" xmlns:xlink="http://www.w3.org/1999/xlink" x="0px" y="0px" width="32px" height="32px" viewBox="0 0 32 32" enable-background="new 0 0 32 32" xml:space="preserve">
  <style type="text / css">
    .Red{fill:#CD4C32;}
    .Green{fill:#4EA17E;}
    .Blue{fill:#3E79B4;}
    .Yellow{fill:#EAB765;}
    .Black{fill:#797979;}
    .Gray{fill:#B4B4B5;}
    .White{fill:#FFFFFF;}
  </style>
  <g id="icon">
    <path fill="#797979" class="Black" d="M30.875,15.47l-0.41,1.199c-0.07,0.204,-0.271,0.332,-0.485,0.308l-3.252,-0.359l-1.035,1.395l1.393,2.854c0.1,0.205,0.035,0.451,-0.153,0.58l-1.152,0.791c-0.177,0.121,-0.414,0.104,-0.572,-0.041l-1.336,-1.232l0.271,-0.081c0.652,-0.195,1.089,-0.83,1.037,-1.508l-0.1,-1.326c-0.048,-0.628,-0.49,-1.153,-1.102,-1.306c-0.055,-0.014,-0.112,-0.025,-0.169,-0.032l-2.644,-0.338l-0.106,-0.277c1.407,-0.601,2.393,-2.003,2.393,-3.636c0,-2.181,-1.759,-3.949,-3.929,-3.949c-0.784,0,-1.514,0.232,-2.128,0.63l0.003,-0.075c0.029,-0.689,-0.435,-1.311,-1.105,-1.478l-1.404,-0.351c-0.668,-0.167,-1.369,0.162,-1.668,0.782l-1.144,2.373l-0.481,0.028l-1.423,-2.215c-0.011,-0.017,-0.023,-0.033,-0.035,-0.049l2.159,0.222l0.98,-1.368l-1.394,-2.769c-0.102,-0.202,-0.041,-0.449,0.144,-0.581l1.212,-0.865c0.178,-0.127,0.422,-0.111,0.582,0.039l2.342,2.204l1.579,-0.493l0.655,-3.155c0.044,-0.213,0.232,-0.366,0.45,-0.366h1.447c0.218,0,0.406,0.153,0.45,0.367l0.646,3.154l1.525,0.547l2.356,-2.155c0.156,-0.143,0.39,-0.161,0.566,-0.043l1.152,0.772c0.189,0.127,0.257,0.373,0.159,0.578L25.775,7.15l0.898,1.286l3.241,-0.383c0.217,-0.026,0.421,0.105,0.49,0.312l0.419,1.262c0.068,0.205,-0.016,0.43,-0.202,0.54l-2.805,1.663l-0.027,1.478l2.876,1.614C30.859,15.029,30.947,15.26,30.875,15.47z" fill-rule="evenodd" />
    <path fill="#4EA17E" class="Green" d="M20.35,22.287l2.399,2.263c0.161,0.152,0.191,0.398,0.071,0.584l-0.688,1.064c-0.117,0.181,-0.344,0.256,-0.545,0.181l-3.068,-1.136l-1.342,1.103l0.66,3.107c0.047,0.223,-0.076,0.446,-0.289,0.526l-1.309,0.489c-0.201,0.075,-0.427,0.001,-0.545,-0.178l-1.794,-2.731l-1.717,0.135l-1.336,2.847c-0.095,0.203,-0.323,0.308,-0.539,0.247L8.914,30.4c-0.205,-0.057,-0.344,-0.247,-0.336,-0.46l0.117,-3.117l-1.347,-0.9l-2.793,1.513c-0.195,0.106,-0.439,0.057,-0.578,-0.117l-0.882,-1.103c-0.134,-0.168,-0.134,-0.407,0.001,-0.575l1.956,-2.435l-0.554,-1.492l-3.212,-0.407c-0.218,-0.028,-0.386,-0.206,-0.401,-0.425l-0.092,-1.374c-0.015,-0.218,0.126,-0.416,0.337,-0.474l3.159,-0.868l0.292,-1.394l-2.329,-2.24c-0.157,-0.151,-0.186,-0.393,-0.07,-0.577l0.712,-1.123c0.115,-0.182,0.342,-0.259,0.544,-0.186l3.073,1.112l1.282,-1.09l-0.682,-3.024c-0.05,-0.221,0.069,-0.446,0.28,-0.529l1.386,-0.545c0.204,-0.08,0.436,-0.005,0.555,0.179l1.738,2.706l1.651,-0.095l1.4,-2.903c0.095,-0.196,0.314,-0.299,0.525,-0.246l1.404,0.351c0.212,0.053,0.357,0.247,0.348,0.465l-0.137,3.217l1.347,0.9l2.807,-1.52c0.186,-0.101,0.417,-0.061,0.559,0.096l0.931,1.028c0.153,0.169,0.159,0.424,0.015,0.6l-2.036,2.48l0.56,1.465l3.238,0.413c0.216,0.028,0.383,0.204,0.4,0.421l0.1,1.326c0.016,0.215,-0.12,0.413,-0.327,0.475l-3.124,0.934L20.35,22.287zM13.491,15.635c-2.106,-0.526,-4.241,0.764,-4.769,2.88c-0.528,2.116,0.75,4.258,2.856,4.783c2.106,0.526,4.241,-0.764,4.769,-2.88S15.597,16.161,13.491,15.635z" fill-rule="evenodd" />
  </g>
</svg>
