<?xml version="1.0" encoding="UTF-8" standalone="no"?>
<!DOCTYPE svg PUBLIC "-//W3C//DTD SVG 1.1//EN" "http://www.w3.org/Graphics/SVG/1.1/DTD/svg11.dtd">
<svg version="1.1" id="Layer_1" xmlns="http://www.w3.org/2000/svg" xmlns:xlink="http://www.w3.org/1999/xlink" x="0px" y="0px" width="32px" height="32px" viewBox="0 0 32 32" enable-background="new 0 0 32 32" xml:space="preserve">
      <style type="text / css">
    .Red{fill:#CD4C32;}
    .Green{fill:#4EA17E;}
    .Blue{fill:#3E79B4;}
    .Yellow{fill:#EAB765;}
    .Black{fill:#797979;}
    .Gray{fill:#B4B4B5;}
    .White{fill:#FFFFFF;}
  </style>
  <g id="icon">
    <g transform="matrix(0.914286,0,0,0.914286,-0.746057,-0.7936)">
        <path fill="#797979" class="Black" d="M18.316,0.868C27.981,0.868 35.816,8.702 35.816,18.368C35.816,28.033 27.981,35.868 18.316,35.868C8.651,35.868 0.816,28.033 0.816,18.368C0.816,8.702 8.651,0.868 18.316,0.868Z" />
    </g>
    <g transform="matrix(0.914286,0,0,0.914286,-0.746057,-0.7936)">
        <path fill="#FFFFFF" class="White" d="M18.316,3.868C10.308,3.868 3.816,10.359 3.816,18.368C3.816,26.376 10.308,32.868 18.316,32.868C26.325,32.868 32.816,26.376 32.816,18.368C32.816,10.359 26.325,3.868 18.316,3.868Z" />
    </g>
    <g transform="matrix(0.914286,0,0,0.849468,-0.310628,0.158381)">
        <path fill="#797979" class="Black" d="M20.988,14.723L25.865,9.722C25.945,9.64 23.811,7.53 23.717,7.627L16.746,14.776L23.895,21.747C23.996,21.846 26.068,19.676 25.99,19.6L20.988,14.723Z" />
    </g>
    <g transform="matrix(0.914286,0,0,0.84958,-1.12723,0.634688)">
        <path fill="#797979" class="Black" d="M15.644,22.109L10.767,17.108C10.682,17.021 12.827,14.923 12.915,15.014L19.886,22.163L12.737,29.134C12.664,29.206 10.537,27.089 10.643,26.986L15.644,22.109Z" />
    </g>
  </g>
</svg>
