<?xml version="1.0" encoding="UTF-8" standalone="no"?>
<!DOCTYPE svg PUBLIC "-//W3C//DTD SVG 1.1//EN" "http://www.w3.org/Graphics/SVG/1.1/DTD/svg11.dtd">
<svg width="32" height="32" viewBox="0 0 32 32" version="1.1" xmlns="http://www.w3.org/2000/svg" xmlns:xlink="http://www.w3.org/1999/xlink" xml:space="preserve" xmlns:serif="http://www.serif.com/" >
  <style type="text / css">
    .Red{fill:#CD4C32;}
    .Green{fill:#4EA17E;}
    .Blue{fill:#3E79B4;}
    .Yellow{fill:#EAB765;}
    .Black{fill:#797979;}
    .Gray{fill:#B4B4B5;}
    .White{fill:#FFFFFF;}
  </style>
    <g id="Icon" transform="matrix(0.124951,0,0,0.125,0,0)">
        <rect id="Background" x="0" y="0" width="256" height="256" style="fill:white;"/>
        <path id="Green" d="M183.372,188L256,188L256,236L183.372,236L183.372,235.878C170.011,235.878 159.163,225.151 159.163,211.939C159.163,198.727 170.011,188 183.372,188L183.372,188Z" style="fill:rgb(0,126,0);"/>
        <path id="Red" d="M85.927,161.128L61.04,161.128L61.04,177.162L92.687,177.162L85.927,161.128ZM0,161.128L26.074,161.128L26.074,177.162L0,177.162L0,161.128ZM102.973,146L129.448,146L129.448,161.128L102.973,161.128L102.973,146ZM61.04,145.796L61.04,161.128L26.074,161.128L26.074,145.796L61.04,145.796ZM233.385,145.796L256,145.796L256,161.128L233.285,161.128L233.285,145.796L233.385,145.796ZM0,129.965L26.074,129.965L26.074,146L0,146L0,129.965ZM163.591,129.965L163.591,146L129.448,146L129.448,129.965L163.591,129.965ZM198.242,129.965L233.385,129.965L233.385,145.796L233.285,145.796L198.242,145.796L198.242,129.965ZM26.074,114.971L61.04,114.971L61.04,130L72.785,130L79.458,145.796L61.04,145.796L61.04,130L26.074,130L26.074,114.971ZM102.973,114.971L129.448,114.971L129.448,130.855L102.973,130.855L102.973,114.971ZM198.242,114.987L177.939,114.971L171.796,129.949L198.242,129.965L198.242,114.987ZM233.385,114.971L256,114.971L256,129.949L233.385,129.949L233.385,114.971ZM163.591,100.073L163.591,115.125L129.448,115.125L129.448,100.073L163.591,100.073ZM0,99.89L26.074,99.89L26.074,114.971L0,114.971L0,99.89ZM233.385,99.89L233.385,114.92L198.242,114.92L198.242,99.89L233.385,99.89ZM198.242,84.006L198.242,99.89L184.141,99.89L190.705,84.006L198.242,84.006ZM129.448,68.954L163.591,68.954L163.591,84.006L180.541,84.006L180.541,99.89L163.591,99.89L163.591,84.006L129.448,84.006L129.448,68.954ZM233.385,84.006L256.1,84.006L256.1,99.837L233.385,99.837L233.385,84.006ZM198.242,68.977L233.385,68.977L233.385,83.955L198.242,83.955L198.242,68.977ZM163.591,52.887L188.696,52.887L188.696,69.078L163.591,69.078L163.591,52.887ZM163.591,37.909L163.591,52.887L129.448,52.887L129.448,37.909L163.591,37.909Z" style="fill:rgb(112,3,3);"/>
        <path id="V" d="M101.8,198.8C58.9,96.9 37.7,47.1 35.5,43.4C32.6,38.4 24.5,30.9 19.5,28.6C17.5,27.6 13.2,26.4 10,25.8L4,24.6L4,20.3L4,16L105,16L105,25L98.3,25C83.2,25.1 76.8,34.9 81.5,50.9C82.9,55.3 103.6,105.7 108.9,117.5C109.9,119.7 112.9,126.7 115.4,133C118,139.3 120.7,145.9 121.5,147.5C122.2,149.2 125.2,156.1 128.1,163C130.9,169.9 133.6,175.8 134,176.3C134.3,176.7 136.5,172.4 138.8,166.8C147.3,145.7 161.8,110.3 163.3,107C169.3,93.4 187.3,47 188.4,41.9C189.8,36.2 189.8,35.3 188.3,32.2C186,27.5 180.5,25.1 171.8,25L165,25L165,20.5L165,16L235,16L235,24.7L229.9,25.4C217.4,27.1 211.1,34.2 202,57C199.7,62.8 197.4,68.2 197,69.1C196.2,70.6 184.5,98.9 168.5,138C166.1,143.8 156.1,168.1 146.1,192L128,236L122.766,236L117.5,236L101.8,198.8Z" style="fill:rgb(1,1,1);fill-rule:nonzero;"/>
    </g>
</svg>
