<?xml version="1.0" encoding="UTF-8" standalone="no"?>
<!DOCTYPE svg PUBLIC "-//W3C//DTD SVG 1.1//EN" "http://www.w3.org/Graphics/SVG/1.1/DTD/svg11.dtd">
<svg width="32" height="32" viewBox="0 0 32 32" version="1.1" xmlns="http://www.w3.org/2000/svg" xmlns:xlink="http://www.w3.org/1999/xlink" xml:space="preserve" xmlns:serif="http://www.serif.com/" >
  <style type="text / css">
    .Red{fill:#CD4C32;}
    .Green{fill:#4EA17E;}
    .Blue{fill:#3E79B4;}
    .Yellow{fill:#EAB765;}
    .Black{fill:#797979;}
    .Gray{fill:#B4B4B5;}
    .White{fill:#FFFFFF;}
  </style>
  <g id="icon">
    <g transform="matrix(0.7,0,0,0.7,-0.8,-0.8)">
        <path d="M44,24C44,35.044 35.044,44 24,44C12.956,44 4,35.044 4,24C4,12.956 12.956,4 24,4C35.044,4 44,12.956 44,24Z" style="fill:rgb(76,175,80);fill-rule:nonzero;"/>
    </g>
    <g transform="matrix(0.7,0,0,0.7,-0.8,-0.8)">
        <path d="M24,4L24,24L32,28L23.157,44C23.474,44 23.683,44 24,44C35.053,44 44,35.053 44,24C44,12.947 35.053,4 24,4Z" style="fill:rgb(255,193,7);fill-rule:nonzero;"/>
    </g>
    <g transform="matrix(0.7,0,0,0.7,-0.8,-0.8)">
        <path d="M44,24C44,35.044 35.044,44 24,44C12.956,44 4,35.044 4,24C4,12.956 12.956,4 24,4C35.044,4 44,12.956 44,24Z" style="fill:rgb(76,175,80);fill-rule:nonzero;"/>
    </g>
    <g transform="matrix(0.7,0,0,0.7,-0.8,-0.8)">
        <path d="M24,4L24,24L32,28L23.157,44C23.474,44 23.683,44 24,44C35.053,44 44,35.053 44,24C44,12.947 35.053,4 24,4Z" style="fill:rgb(255,193,7);fill-rule:nonzero;"/>
    </g>
    <g transform="matrix(0.7,0,0,0.7,-0.8,-0.8)">
        <path d="M41.84,15L24,15L24,28L21,27L7.16,13.26L7.14,13.26C10.68,7.69 16.91,4 24,4C31.8,4 38.55,8.48 41.84,15Z" style="fill:rgb(244,67,54);fill-rule:nonzero;"/>
    </g>
    <g transform="matrix(0.7,0,0,0.7,-0.8,-0.8)">
        <path d="M7.158,13.264L16.001,28.126L21,27L7.158,13.264Z" style="fill:rgb(221,44,0);fill-rule:nonzero;"/>
    </g>
    <g transform="matrix(0.7,0,0,0.7,-0.8,-0.8)">
        <path d="M23.157,44L32.091,27.941L28,25L23.157,44Z" style="fill:rgb(85,139,47);fill-rule:nonzero;"/>
    </g>
    <g transform="matrix(0.7,0,0,0.7,-0.8,-0.8)">
        <path d="M41.865,15L24,15L22.421,19.58L41.865,15Z" style="fill:rgb(249,168,37);fill-rule:nonzero;"/>
    </g>
    <g transform="matrix(0.7,0,0,0.7,-0.8,-0.8)">
        <path d="M33,24C33,28.969 28.969,33 24,33C19.031,33 15,28.969 15,24C15,19.031 19.031,15 24,15C28.969,15 33,19.031 33,24Z" style="fill:white;fill-rule:nonzero;"/>
    </g>
    <g transform="matrix(0.7,0,0,0.7,-0.8,-0.8)">
        <path d="M31,24C31,27.867 27.867,31 24,31C20.133,31 17,27.867 17,24C17,20.133 20.133,17 24,17C27.867,17 31,20.133 31,24Z" style="fill:rgb(33,150,243);fill-rule:nonzero;"/>
    </g>
  </g>
</svg>
