<?xml version="1.0" encoding="UTF-8" standalone="no"?>
<!DOCTYPE svg PUBLIC "-//W3C//DTD SVG 1.1//EN" "http://www.w3.org/Graphics/SVG/1.1/DTD/svg11.dtd">
<svg width="32px" height="32px" viewBox="0 0 32 32" version="1.1" xmlns="http://www.w3.org/2000/svg" xmlns:xlink="http://www.w3.org/1999/xlink" xml:space="preserve" xmlns:serif="http://www.serif.com/" style="fill-rule:evenodd;clip-rule:evenodd;stroke-linejoin:round;stroke-miterlimit:1.41421;">
  <style type="text / css">
    .Red{fill:#CD4C32;}
    .Green{fill:#4EA17E;}
    .Blue{fill:#3E79B4;}
    .Yellow{fill:#EAB765;}
    .Black{fill:#797979;}
    .Gray{fill:#B4B4B5;}
    .White{fill:#FFFFFF;}
  </style>
  <g id="icon">
    <g id="g65" transform="matrix(0.03125,0,0,0.03125,-0.00244184,1.00997e-05)">
        <g transform="matrix(120.874,0,0,103.704,-398.874,-257.003)">
            <ellipse fill="#FFFFFF" class="White" cx="7.534" cy="7.415" rx="3.5" ry="4.083" />
        </g>
        <path fill="#3E79B4" class="Blue" id="path87" d="M917,0L105.8,0C47.33,0.753 -0.281,48.59 0,106.3L0,917.7C-0.279,975.632 47.703,1023.57 106.4,1024L917.6,1024C976.297,1023.57 1024.28,975.632 1024,917.7L1024,106.3C1024,106.133 1024,105.967 1024,105.8C1024,47.834 975.733,0.108 917,0ZM511.6,935.4C277.967,933.62 87.138,742.565 88.7,512C87.138,281.435 277.967,90.38 511.6,88.6C745.347,90.219 936.362,281.324 934.8,512C936.362,742.676 745.347,933.781 511.6,935.4Z" />
        <path fill="#3E79B4" class="Blue" id="path89" d="M904.2,512L610.7,376.3L634.28,463.25L389.08,463.25L412.66,376.3L119.16,512.1L412.86,647.8L389.28,560.85L634.48,560.85L610.9,647.8L904.2,512.1" />
    </g>
  </g>  
</svg>
