<?xml version="1.0" encoding="UTF-8" standalone="no"?>
<!DOCTYPE svg PUBLIC "-//W3C//DTD SVG 1.1//EN" "http://www.w3.org/Graphics/SVG/1.1/DTD/svg11.dtd">
<svg width="32" height="32" viewBox="0 0 32 32" version="1.1" xmlns="http://www.w3.org/2000/svg" xmlns:xlink="http://www.w3.org/1999/xlink" xml:space="preserve" xmlns:serif="http://www.serif.com/" >
  <style type="text / css">
    .Red{fill:#CD4C32;}
    .Green{fill:#4EA17E;}
    .Blue{fill:#3E79B4;}
    .Yellow{fill:#EAB765;}
    .Black{fill:#797979;}
    .Gray{fill:#B4B4B5;}
    .White{fill:#FFFFFF;}
  </style>
    <g id="icon">
      <g transform="matrix(0.888889,0,0,0.888889,0,0)">
          <path fill="#797979" class="Black" d="M13.59,12C13.59,10.025 15.215,8.4 17.19,8.4L27,8.4L27,5C27,3.903 26.097,3 25,3L11,3C9.903,3 9,3.903 9,5L9,13.4L13.59,13.4L13.59,12Z" />
      </g>
      <g transform="matrix(0.888889,0,0,0.888889,0,0)">
          <path fill="#797979" class="Black" d="M30,10L17.19,10C16.093,10 15.19,10.903 15.19,12L15.19,13.4L20,13.4C21.975,13.4 23.6,15.025 23.6,17L23.6,25L22,25L22,17C22,15.903 21.097,15 20,15L6,15C4.903,15 4,15.903 4,17L4,31C4,32.097 4.903,33 6,33L20,33C21.097,33 22,32.097 22,31L22,29.6L17.19,29.6C15.215,29.6 13.59,27.975 13.59,26L13.59,20L15.19,20L15.19,26C15.19,27.097 16.093,28 17.19,28L30,28C31.097,28 32,27.097 32,26L32,12C32,10.903 31.097,10 30,10Z" />
      </g>
    </g>
</svg>
