<?xml version="1.0" encoding="UTF-8" standalone="no"?>
<!DOCTYPE svg PUBLIC "-//W3C//DTD SVG 1.1//EN" "http://www.w3.org/Graphics/SVG/1.1/DTD/svg11.dtd">
<svg width="50" height="50" viewBox="0 0 32 32" version="1.1" xmlns="http://www.w3.org/2000/svg" xmlns:xlink="http://www.w3.org/1999/xlink" xml:space="preserve" xmlns:serif="http://www.serif.com/" style="fill-rule:evenodd;clip-rule:evenodd;stroke-linejoin:round;stroke-miterlimit:1.41421;">
    <g transform="matrix(0.0364682,0,0,0.0364682,2,7.65457)">
        <path d="M767.337,98.014L643.704,442.941C640.796,449.761 632.35,457 622.301,457L223.036,457C216.442,457 217.575,449.774 220.985,447.262C282.069,404.405 749.195,91.589 749.195,91.589C760.575,84.152 770,89.449 767.337,98.014Z" style="fill:rgb(88,88,88);"/>
    </g>
    <g transform="matrix(0.0364682,0,0,0.0364682,2,7.65457)">
        <path d="M193.063,406.347C186.593,409.254 180.176,404.718 183.19,397.464L373.531,7.826C374.971,5.633 375.69,3.235 378.311,1.761C386.773,-3 391.09,9.544 391.09,9.544L487.313,199.571C487.394,203.226 487.666,205.97 485.438,209.128C482.833,212.354 193.063,406.347 193.063,406.347Z" style="fill:rgb(105,105,105);"/>
    </g>
    <g transform="matrix(0.0364682,0,0,0.0364682,2,7.65457)">
        <path d="M128.082,401.117C124.897,404.934 123.899,405.315 122.032,406.185C118.277,407.922 113.104,407.135 111.779,403.169C109.837,400.698 0,94.869 0,93.117C0,88.805 3.498,85.313 7.802,85.313C11.652,85.313 17.682,90.373 17.682,90.373L202.115,213.881C202.115,213.881 212.422,220.599 212.422,226.263C212.422,230.454 207.948,237.605 207.948,237.605L128.082,401.117Z" style="fill:rgb(127,127,127);"/>
    </g>
</svg>
