<?xml version="1.0" encoding="UTF-8" standalone="no"?>
<!DOCTYPE svg PUBLIC "-//W3C//DTD SVG 1.1//EN" "http://www.w3.org/Graphics/SVG/1.1/DTD/svg11.dtd">
<svg width="32" height="32" viewBox="0 0 32 32" version="1.1" xmlns="http://www.w3.org/2000/svg" xmlns:xlink="http://www.w3.org/1999/xlink" xml:space="preserve" xmlns:serif="http://www.serif.com/" >
  <style type="text / css">
    .Red{fill:#CD4C32;}
    .Green{fill:#4EA17E;}
    .Blue{fill:#3E79B4;}
    .Yellow{fill:#EAB765;}
    .Black{fill:#797979;}
    .Gray{fill:#B4B4B5;}
    .White{fill:#FFFFFF;}
  </style>
    <g id="icon">
        <path fill="#FFFFFF" class="White" d="M30,30.5L2,30.5C1.724,30.5 1.5,30.276 1.5,30L1.5,7.5L30.5,7.5L30.5,30C30.5,30.276 30.276,30.5 30,30.5Z" />
        <path fill="#797979" class="Black" d="M31,7.5C31,15.001 31.009,22.501 31,30.002C31,30.045 30.997,30.089 30.991,30.132C30.982,30.199 30.968,30.261 30.946,30.326C30.935,30.357 30.923,30.387 30.909,30.417L30.908,30.418L30.902,30.431C30.868,30.503 30.825,30.571 30.775,30.632C30.773,30.634 30.771,30.637 30.769,30.639C30.769,30.639 30.77,30.638 30.769,30.639C30.769,30.639 30.769,30.64 30.768,30.64C30.751,30.661 30.732,30.682 30.712,30.702C30.712,30.702 30.713,30.701 30.712,30.702C30.709,30.705 30.705,30.709 30.702,30.712C30.701,30.713 30.702,30.712 30.702,30.712C30.682,30.732 30.661,30.751 30.64,30.768C30.64,30.769 30.639,30.769 30.639,30.769C30.638,30.77 30.639,30.769 30.639,30.769C30.582,30.816 30.521,30.856 30.459,30.889C30.448,30.894 30.437,30.9 30.426,30.905C30.425,30.905 30.426,30.905 30.426,30.905C30.424,30.906 30.423,30.906 30.423,30.906C30.348,30.941 30.271,30.967 30.188,30.982C30.185,30.983 30.183,30.983 30.18,30.984C30.18,30.984 30.176,30.985 30.172,30.985C30.116,30.995 30.06,31 30.003,31L30.002,31C20.667,31.011 11.333,31.011 1.998,31C1.881,31 1.767,30.981 1.649,30.937C1.601,30.918 1.553,30.896 1.509,30.871C1.414,30.818 1.329,30.749 1.257,30.669C1.138,30.536 1.054,30.371 1.019,30.197C1.007,30.132 1,30.066 1,30L1,7.5L1.5,7L30.5,7C30.667,7.167 30.833,7.333 31,7.5ZM30,30.001C30,30.001 30,30.002 30,30.001C30,30.001 30,30.001 30,30.001ZM30,30.001L30,30.001C30,30.001 30,30 30,30.001ZM30,30.001L30,30.001C30,30.001 30,30 30,30.001ZM30,30.001C30,30.001 30,30.001 30,30.001C30,30.001 30,30.001 30,30.001ZM30,30L29.999,30.001C29.999,30.001 30,30 30,30ZM30,30L30,30.001C30,30.001 30,30 30,30ZM29.999,30.001C29.999,30.001 29.999,30.001 29.999,30.001ZM2.001,30.001C2.001,30.001 2,30 2.001,30.001ZM29.999,30C29.999,30 29.998,30.001 29.999,30C29.999,30 29.999,30 29.999,30ZM2.001,30.001C2,30 2.001,30.001 2.001,30.001ZM2.001,30.001C2,30 2.001,30.001 2.001,30.001ZM29.999,30.001C29.999,30.001 29.999,30 29.999,30.001ZM29.999,30C29.999,30 29.998,30.001 30,30C30,30 29.999,30 29.999,30ZM29.999,30C29.999,30 29.998,30.001 29.999,30C29.999,30 29.999,30 29.999,30ZM29.999,30.001C29.999,30.001 29.999,30.001 29.999,30.001ZM29.999,30C29.999,30 29.998,30.001 29.999,30C29.999,30 29.999,30 29.999,30ZM30,30L29.999,30.001C29.999,30.001 30,30 30,30ZM29.999,30L29.999,30.001C29.999,30.001 30,30 29.999,30ZM29.999,30C29.999,30 30,30 29.999,30ZM29.999,30C29.999,30.001 30,30 29.999,30ZM2.001,30.001C2.001,30.001 2,30 2.001,30.001ZM30,30L29.999,30.001C29.999,30 30,30 30,30ZM29.999,30L29.999,30ZM2.001,30.001C2.001,30.001 2,30 2.001,30.001ZM2.001,30.001C2,30 2.001,30 2.001,30.001ZM30,30C30,30 29.999,30.001 30,30C30,30 30,30 30,30ZM2.001,30.001C2,30 2.001,30 2.001,30.001ZM2,30C2.001,30 2.001,30.001 2,30C2,30 2,30 2,30ZM29.999,30C29.999,30 29.999,30.001 29.999,30C29.999,30 29.999,30 29.999,30ZM29.999,30C29.999,30 29.999,30 29.999,30ZM2,30C2.001,30.001 2,30 2,30ZM30,30C29.999,30 29.999,30.001 30,30C30,30 30,30 30,30ZM30,30L29.999,30C29.999,30 30,30 30,30ZM2.001,30C2.001,30 2,30 2.001,30ZM29.999,30C29.999,30 29.999,30 29.999,30ZM2.001,30C2.001,30 2,30 2.001,30ZM2,30C2.001,30.001 2,30 2,30ZM2,30L2.001,30C2.001,30 2,30 2,30ZM29.999,30C29.999,30 29.999,30 29.999,30ZM30,30L29.999,30C29.999,30 30,30 30,30ZM29.999,30C29.999,30 30,30 29.999,30ZM2.001,30C2,30 2.001,30 2.001,30ZM29.999,30C29.999,30 29.999,30 29.999,30ZM30,30C30,30 30,30 30,30ZM29.999,30C29.999,30 30,30 29.999,30ZM30,30C30,30 30,30 30,30ZM2.001,30C2.001,30 2,30 2.001,30ZM30,30L30,30C30,30 30,30 30,30ZM29.999,30C29.999,30 29.999,30 29.999,30ZM29.999,30C29.999,30 29.999,30 29.999,30ZM29.999,30C29.999,30 30,30 29.999,30ZM2,30C2,30 2,30 2,30ZM2.001,30C2,30 2.001,30 2.001,30ZM30,30C30,30 30,30 30,30ZM30,30C30,30 30,30 30,30ZM29.999,30C29.999,30 29.999,30 29.999,30ZM30,30C30,30 30,30 30,30ZM2,30C2,30 2,30 2,30ZM30,30C30,30 30,30 30,30ZM30,30C30,30 30,30 30,30ZM2,30C2,30 2,30 2,30ZM30,30C30,30 30,30 30,30ZM2,30C2,30 2,30 2,30ZM2,30C2,30 2,30 2,30ZM2,30C2,30 2,30 2,30ZM30,30C30,30 30,30 30,30ZM30,30C30,30 30,30 30,30ZM30,30C30,30 30,30 30,30ZM30,30C30,30 30,30 30,30ZM30,30C30,30 30,30 30,30ZM30,30C30,30 30,30 30,30ZM30,30C30,30 30,30 30,30ZM30,30C30,30 30,30 30,30ZM30,30C30,30 30,30 30,30ZM2,30C2,30 2,30 2,30ZM30,30C30,30 30,30 30,30ZM2,30C2,30 2,30 2,30ZM30,30C30,30 30,30 30,30ZM2,30C2,30 2,30 2,30ZM2,30C2,30 2,30 2,30ZM2,30C2,30 2,30 2,30ZM30,30C30,30 30,30 30,30ZM30,30L30,30ZM30,30C30,30 30,30 30,30ZM30,30C30,30 30,30 30,30ZM2,30C2,30 2,30 2,30ZM30,30C30,30 30,30 30,30ZM30,30C30,30 30,30 30,30ZM30,30C30,30 30,30 30,30ZM30,30C30,30 30,30 30,30ZM30,30L30,30ZM30,30C30,30 30,30 30,30ZM30,30C30,30 30,30 30,30ZM2,30C2,30 2,30 2,30ZM2,30C2,30 2,30 2,30ZM2,30C2,30 2,30 2,30ZM2,30C2,30 2,30 2,30ZM2,30C2,30 2,30 2,30ZM30,30C30,30 30,30 30,30ZM2,30C2,30 2,30 2,30ZM30,30C30,30 30,30 30,30ZM30,30C30,30 30,30 30,30ZM30,30C30,30 30,30 30,30ZM30,30C30,30 30,30 30,30ZM30,30C30,30 30,30 30,30ZM30,30C30,30 30,30 30,30ZM2,30C2,30 2,30 2,30ZM30,30C30,30 30,30 30,30ZM30,30C30,30 30,30 30,30ZM30,30C30,30 30,30 30,30ZM30,30C30,30 30,30 30,30ZM30,30C30,30 30,30 30,30ZM2,30C2,30 2,30 2,30ZM30,30C30,30 30,30 30,30ZM2,30C2,30 2,30 2,30ZM2,30C2,30 2,30 2,30ZM2,30C2,30 2,30 2,30ZM30,30C30,30 30,30 30,30ZM30,30C30,30 30,30 30,30ZM30,30C30,30 30,30 30,30ZM30,30C30,30 30,30 30,30ZM30,30C30,30 30,30 30,30ZM2,30C2,30 2,30 2,30ZM30,30C30,30 30,30 30,30ZM30,30L30,30ZM30,30C30,30 30,30 30,30ZM2,30C2,30 2,30 2,30ZM30,30C30,30 30,30 30,30ZM30,30C30,30 30,30 30,30ZM30,30C30,30 30,30 30,30ZM30,30C30,30 30,30 30,30ZM2,30C2,30 2,30 2,30ZM30,30C30,30 30,30 30,30ZM30,30C30,30 30,30 30,30ZM30,30C30,30 30,30 30,30ZM30,30C30,30 30,30 30,30ZM2,30C2,30 2,30 2,30ZM30,30C30,30 30,30 30,30ZM30,30C30,30 30,30 30,30ZM30,30C30,30 30,30 30,30ZM30,30L30,30ZM30,30C30,30 30,30 30,30ZM30,30C30,30 30,30 30,30ZM2,30C2,30 2,30 2,30ZM30,30C30,30 30,30 30,30ZM2,30L2,30C2,30 2,30 2,30ZM30,30C30,30 30,30 30,30ZM2,30C2,30 2,30 2,30ZM30,30C30,30 30,30 30,30ZM30,30C30,30 30,30 30,30ZM30,30C30,30 30,30 30,30ZM30,30C30,30 30,30 30,30ZM30,30L30,30ZM30,30C30,30 30,30 30,30ZM30,30C30,30 30,30 30,30ZM30,30M30,30L30,30ZM30,30C30,30 30,30 30,30ZM30,30C30,30 30,30 30,30ZM2,30C2,30 2,30 2,30ZM30,30C30,30 30,30 30,30ZM30,30C30,30 30,30 30,30ZM30,30C30,30 30,30 30,30ZM30,30C30,30 30,30 30,30ZM30,30C30,30 30,30 30,30ZM2,30C2,30 2,30 2,30ZM2,30C2,30 2,30 2,30ZM30,30C30,30 30,30 30,30ZM30,30C30,30 30,30 30,30ZM30,30C30,30 30,30 30,30ZM2,30C2,30 2,30 2,30ZM2,30C2,30 2,30 2,30ZM2,30C2,30 2,30 2,30ZM2,30C2,30 2,30 2,30ZM2,30C2,30 2,30 2,30ZM2,30C2,30 2,30 2,30ZM2,30C2,30 2,30 2,30ZM2,30C2,30 2,30 2,30ZM2,30C2,30 2,30 2,30ZM2,30C2,30 2,30 2,30ZM30,30C30,30 30,30 30,30ZM2,30C2,30 2,30 2,30ZM2,30C2,30 2,30 2,30ZM30,30C30,30 30,30 30,30ZM30,30C30,30 30,30 30,30ZM2,30C2,30 2,30 2,30ZM30,30C30,30 30,30 30,30ZM2,30C2,30 2,30 2,30ZM30,30C30,30 30,30 30,30ZM2,30C2,30 2,30 2,30ZM30,30C30,30 30,30 30,30ZM30,30C30,30 30,30 30,30ZM30,30C30,30 30,30 30,30ZM30,30C30,30 30,30 30,30ZM2,30C2,30 2,30 2,30ZM30,30C30,30 30,30 30,30ZM30,30C30,30 30,30 30,30ZM30,30C30,30 30,30 30,30ZM2,30C2,30 2,30 2,30ZM30,30L30,30ZM30,30C30,30 30,30 30,30ZM2,30L2,30C2,30 2,30 2,30ZM30,30L30,30ZM30,30L30,30ZM30,30C30,30 30,30 30,30ZM2,30C2,30 2,30 2,30ZM30,30L30,30ZM30,30L30,30ZM30,30C30,30 30,30 30,30ZM30,30L30,30ZM30,30C30,30 30,30 30,30ZM2,30C2,30 2,30 2,30ZM30,30C30,30 30,30 30,30ZM30,30C30,30 30,30 30,30ZM2,30C2,30 2,30 2,30ZM2,30C2,30 2,30 2,30ZM30,30C30,30 30,30 30,30ZM2,30C2,30 2,30 2,30ZM2,30C2,30 2,30 2,30ZM2,30L2,30C2,30 2,30 2,30ZM30,30C30,30 30,30 30,30ZM30,30C30,30 30,30 30,30ZM2,30C2,30 2,30 2,30ZM2,30C2,30 2,30 2,30ZM30,30C30,30 30,30 30,30ZM2,30C2,30 2,30 2,30ZM30,30C30,30 30,30 30,30ZM30,30C30,30 30,30 30,30ZM30,30C30,30 30,30 30,30ZM30,30C30,30 30,30 30,30ZM30,30C30,30 30,30 30,30ZM2,30C2,30 2,30 2,30ZM30,30C30,30 30,30 30,30ZM30,30L30,30ZM30,30C30,30 30,30 30,30ZM30,30C30,30 30,30 30,30ZM30,30C30,30 30,30 30,30ZM30,30C30,30 30,30 30,30ZM30,30C30,30 30,30 30,30ZM30,30C30,30 30,30 30,30ZM30,30C30,30 30,30 30,30ZM30,30C30,30 30,30 30,30ZM2,30C2,30 2,30 2,30ZM30,30C30,30 30,30 30,30ZM30,30C30,30 30,30 30,30ZM30,30C30,30 30,30 30,30ZM2,30C2,30 2,30 2,30ZM30,30C30,30 30,30 30,30ZM30,30C30,30 30,30 30,30ZM30,30C30,30 30,30 30,30ZM2,30C2,30 2,30 2,30ZM30,30C30,30 30,30 30,30ZM30,30C30,30 30,30 30,30ZM2,30C2,30 2,30 2,30ZM30,30C30,30 30,30 30,30ZM30,30C30,30 30,30 30,30ZM30,30C30,30 30,30 30,30ZM30,30C30,30 30,30 30,30ZM30,30C30,30 30,30 30,30ZM30,30C30,30 30,30 30,30ZM30,30C30,30 30,30 30,30ZM2,30C2,30 2,30 2,30ZM30,30C30,30 30,30 30,30ZM30,30C30,30 30,30 30,30ZM30,30C30,30 30,30 30,30ZM30,30C30,30 30,30 30,30ZM30,30C30,30 30,30 30,30ZM30,30C30,30 30,30 30,30ZM30,30C30,30 30,30 30,30ZM30,30C30,30 30,30 30,30ZM30,30C30,30 30,30 30,30ZM30,30C30,30 30,30 30,30ZM30,30C30,30 30,30 30,30ZM30,30C30,30 30,30 30,30ZM30,30C30,30 30,30 30,30ZM2,30C2,30 2,30 2,30ZM30,30C30,30 30,30 30,30ZM30,30C30,30 30,30 30,30ZM2,30C2,30 2,30 2,30ZM2,30C2,30 2,30 2,30ZM2,30C2,30 2,30 2,30ZM30,30C30,30 30,30 30,30ZM2,30C2,30 2,30 2,30ZM2,30C2,30 2,30 2,30ZM30,30C30,30 30,30 30,30ZM30,30C30,30 30,30 30,30ZM30,30C30,30 30,30 30,30ZM30,30C30,30 30,30 30,30ZM30,30C30,30 30,30 30,30ZM30,30C30,30 30,30 30,30ZM30,30C30,30 30,30 30,30ZM30,30C30,30 30,30 30,30ZM2,30C2,30 2,30 2,30ZM30,30C30,30 30,30 30,30ZM2,30C2,30 2,30 2,30ZM2,30C2,30 2,30 2,30ZM30,30C30,30 30,30 30,30ZM30,30C30,30 30,30 30,30ZM2,30C2,30 2,30 2,30ZM2,30C2,30 2,30 2,30ZM2,30C2,30 2,30 2,30ZM30,30L30,30ZM30,30C30,30 30,30 30,30ZM30,30C30,30 30,30 30,30ZM2,30C2,30 2,30 2,30ZM30,30C30,30 30,30 30,30ZM2,30C2,30 2,30 2,30ZM30,30C30,30 30,30 30,30ZM30,30C30,30 30,30 30,30ZM2,30C2,30 2,30 2,30ZM30,30C30,30 30,30 30,30ZM30,30C30,30 30,30 30,30ZM30,30C30,30 30,30 30,30ZM30,30C30,30 30,30 30,30ZM30,30C30,30 30,30 30,30ZM2,30C2,30 2,30 2,30ZM30,30C30,30 30,30 30,30ZM30,30C30,30 30,30 30,30ZM30,30C30,30 30,30 30,30ZM30,30C30,30 30,30 30,30ZM30,30C30,30 30,30 30,30ZM30,30C30,30 30,30 30,30ZM30,30C30,30 30,30 30,30ZM30,30C30,30 30,30 30,30ZM30,30C30,30 30,30 30,30ZM30,30C30,30 30,30 30,30ZM30,30C30,30 30,30 30,30ZM30,30C30,30 30,30 30,30ZM30,30C30,30 30,30 30,30ZM2,30C2,30 2,30 2,30ZM30,30C30,30 30,30 30,30ZM2,30C2,30 2,30 2,30ZM2,30C2,30 2,30 2,30ZM30,30C30,30 30,30 30,30ZM2,30C2,30 2,30 2,30ZM30,30C30,30 30,30 30,30ZM30,30C30,30 30,30 30,30ZM30,30C30,30 30,30 30,30ZM30,30C30,30 30,30 30,30ZM30,30C30,30 30,30 30,30ZM30,30C30,30 30,30 30,30ZM2,30C2,30 2,30 2,30ZM30,30C30,30 30,30 30,30ZM30,30C30,30 30,30 30,30ZM30,30C30,30 30,30 30,30ZM30,30C30,30 30,30 30,30ZM30,30C30,30 30,30 30,30ZM30,30C30,30 30,30 30,30ZM30,30C30,30 30,30 30,30ZM30,30C30,30 30,30 30,30ZM30,30C30,30 30,30 30,30ZM2,30C2,30 2,30 2,30ZM30,30C30,30 30,30 30,30ZM30,30C30,30 30,30 30,30ZM30,30C30,30 30,30 30,30ZM30,30C30,30 30,30 30,30ZM30,30C30,30 30,30 30,30ZM30,30C30,30 30,30 30,30ZM2,30C2,30 2,30 2,30ZM30,30C30,30 30,30 30,30ZM2,30C2,30 2,30 2,30ZM30,30C30,30 30,30 30,30ZM2,30C2,30 2,30 2,30ZM30,30C30,30 30,30 30,30ZM2,30C2,30 2,30 2,30ZM30,30C30,30 30,30 30,30ZM30,30C30,30 30,30 30,30ZM2,30C2,30 2,30 2,30ZM30,30C30,30 30,30 30,30ZM2,30C2,30 2,30 2,30ZM30,30C30,30 30,30 30,30ZM2,30C2,30 2,30 2,30ZM2,30C2,30 2,30 2,30ZM30,30C30,30 30,30 30,30ZM30,30C30,30 30,30 30,30ZM30,30C30,30 30,30 30,30ZM30,30C30,30 30,30 30,30ZM30,30C30,30 30,30 30,30ZM30,30C30,30 30,30 30,30ZM2,30C2,30 2,30 2,30ZM30,30C30,30 30,30 30,30ZM30,30C30,30 30,30 30,30ZM30,30C30,30 30,30 30,30ZM30,30C30,30 30,30 30,30ZM2,30C2,30 2,30 2,30ZM2,30C2,30 2,30 2,30ZM30,30C30,30 30,30 30,30ZM2,30C2,30 2,30 2,30ZM2,30C2,30 2,30 2,30ZM2,30L2,30C2,30 2,30 2,30ZM2,30C2,30 2,30 2,30ZM2,30C2,30 2,30 2,30ZM2,8L2,30L2,30L30,30C30,30 30,30 30,30L30,8C20.667,8 11.333,8 2,8ZM30,30C30,30 30,30 30,30ZM30,30C30,30 30,30 30,30ZM30,30C30,30 30,30 30,30ZM30,30C30,30 30,30 30,30ZM30,30C30,30 30,30 30,30ZM30,30C30,30 30,30 30,30ZM30,30C30,30 30,30 30,30ZM30,30C30,30 30,30 30,30ZM30,30C30,30 30,30 30,30ZM30,30C30,30 30,30 30,30ZM30,30C30,30 30,30 30,30ZM30,30C30,30 30,30 30,30ZM30,30C30,30 30,30 30,30ZM30,30C30,30 30,30 30,30ZM30,30C30,30 30,30 30,30ZM30,30C30,30 30.001,30 30,30ZM30,30C30,30 30,30 30,30ZM30,30C30,30 30,30 30,30ZM2,30C2,30 2,30 2,30ZM30,30C30,30 30,30 30,30ZM30,30C30,30 30,30 30,30ZM2,30C2,30 2,30 2,30ZM30,30C30,30 30,30 30,30ZM30,30C30,30 30,30 30,30ZM2,30C2,30 2,30 2,30ZM2,30C2,30 2,30 2,30ZM30,30C30,30 30,30 30,30ZM30,30C30,30 30,30 30,30ZM30,30C30,30 30,30 30,30ZM30,30C30,30 30,30 30,30ZM2,30C2,30 2,30 2,30ZM30.001,30C30.001,30 30.001,30 30.001,30ZM1.999,30C1.999,30 1.998,30 1.999,30ZM2,30C2,30 2,30 2,30ZM2,30C2,30 2,30 2,30ZM30,30C30,30 30,30 30,30ZM30,30C30,30 30,30 30,30ZM30,30C30,30 30,30 30,30ZM30,30L30,30ZM30,30C30,30 30,30 30,30ZM30,30C30,30 30,30 30,30ZM2,30C2,30 2,30 2,30ZM30,30C30,30 30,30 30,30ZM2,30C2,30 2,30 2,30ZM30,30C30,30 30,30 30,30ZM30,30C30,30 30,30 30,30ZM30,30C30,30 30,30 30,30ZM30,30C30,30 30,30 30,30ZM30,30C30,30 30,30 30,30ZM30.001,30C30.001,30 30.001,30 30.001,30ZM2,30C2,30 2,30 2,30ZM30.001,30C30,30 30.002,30 30.001,30ZM1.999,30C1.999,30 1.998,30 1.999,30ZM2,30C2,30 2,30 2,30ZM2,30C2,30 2,30 2,30ZM30,30C30,30 30,30 30,30ZM30,30C30,30 30,30 30,30ZM30,30C30,30 30,30 30,30ZM30.001,30C30.001,30 30.001,30 30.001,30ZM30,30C30,30 30,30 30,30ZM2,30C2,30 2,30 2,30ZM2,30C2,30 2,30 2,30ZM2,30C2,30 2,30 2,30ZM30,30C30,30 30,30 30,30ZM30.001,30C30.001,30 30.001,30 30.001,30ZM2,30C2,30 2,30 2,30ZM30,30C30,30 30,30 30,30ZM30,30C30,30 30,30 30,30ZM30,30C30,30 30,30 30,30ZM30,30C30,30 30,30 30,30ZM30,30C30,30 30,30 30,30ZM30,30C30,30 30,30 30,30ZM30,30C30,30 30,30 30,30ZM2,30C2,30 2,30 2,30ZM30,30C30,30 30,30 30,30ZM30,30C30,30 30,30 30,30ZM30,30C30,30 30,30 30,30ZM30,30C30,30 30,30 30,30ZM30,30C30,30 30,30 30,30ZM30,30C30,30 30,30 30,30ZM2,30C2,30 2,30 2,30ZM30,30C30,30 30,30 30,30ZM30,30C30,30 30,30 30,30ZM2,30C2,30 2,30 2,30ZM30,30C30,30 30,30 30,30ZM30,30C30,30 30,30 30,30ZM30,30C30,30 30,30 30,30ZM2,30C2,30 2,30 2,30ZM30,30C30,30 30,30 30,30ZM30,30C30,30 30,30 30,30ZM2,30C2,30 2,30 2,30ZM2,30C2,30 2,30 2,30ZM30,30C30,30 30,30 30,30ZM30,30C30,30 30,30 30,30ZM30,30C30,30 30,30 30,30ZM30,30C30,30 30,30 30,30ZM30,30C30,30 30,30 30,30ZM30,30C30,30 30,30 30,30ZM30,30C30,30 30,30 30,30ZM30,30C30,30 30,30 30,30ZM30,30C30,30 30,30 30,30ZM30,30C30,30 30,30 30,30ZM2,30C2,30 2,30 2,30ZM30,30C30,30 30,30 30,30ZM30,30C30,30 30,30 30,30ZM30,30C30,30 30,30 30,30ZM2,30C2,30 2,30 2,30ZM30,30C30,30 30,30 30,30ZM30,30C30,30 30,30 30,30ZM2,30C2,30 2,30 2,30ZM30,30C30,30 30,30 30,30ZM30,30C30,30 30,30 30,30ZM30,30C30,30 30,30 30,30ZM30,30C30,30 30,30 30,30ZM30,30C30,30 30,30 30,30ZM2,30C2,30 2,30 2,30ZM30,30C30,30 30,30 30,30ZM30,30C30,30 30,30 30,30ZM2,30C2,30 2,30 2,30ZM2,30C2,30 2,30 2,30ZM30,30C30,30 30,30 30,30ZM30,30C30,30 30,30 30,30ZM30,30C30,30 30,30 30,30ZM2,30C2,30 2,30 2,30ZM2,30C2,30 2,30 2,30ZM30,30C30,30 30,30 30,30ZM30,30C30,30 30,30 30,30ZM30,30C30,30 30,30 30,30ZM30,30C30,30 30,30 30,30ZM30,30C30,30 30,30 30,30ZM30,30C30,30 30,30 30,30ZM30,30C30,30 30,30 30,30ZM30,30C30,30 30,30 30,30ZM30,30C30,30 30,30 30,30ZM2,30C2,30 2,30 2,30ZM30,30C30,30 30,30 30,30ZM2,30C2,30 2,30 2,30ZM30,30M30,30C30,30 30,30 30,30ZM2,30C2,30 2,30 2,30ZM2,30C2,30 2,30 2,30ZM2,30C2,30 2,30 2,30ZM30,30C30,30 30,30 30,30ZM30,30C30,30 30,30 30,30ZM2,30C2,30 2,30 2,30ZM30,30C30,30 30,30 30,30ZM30,30C30,30 30,30 30,30ZM30,30C30,30 30,30 30,30ZM2,30C2,30 2,30 2,30ZM30,30C30,30 30,30 30,30ZM30,30C30,30 30,30 30,30ZM30,30C30,30 30,30 30,30ZM2,30C2,30 2,30 2,30ZM30,30C30,30 30,30 30,30ZM30,30C30,30 30,30 30,30ZM30,30C30,30 30,30 30,30ZM30,30C30,30 30,30 30,30ZM30,30C30,30 30,30 30,30ZM30,30C30,30 30,30 30,30ZM2,30C2,30 2,30 2,30ZM2,30C2,30 2,30 2,30ZM30,30C30,30 30,30 30,30ZM30,30C30,30 30,30 30,30ZM2,30C2,30 2,30 2,30ZM30,30C30,30 30,30 30,30ZM2,30C2,30 2,30 2,30ZM30,30C30,30 30,30 30,30ZM30,30C30,30 30,30 30,30ZM30,30C30,30 30,30 30,30ZM30,30C30,30 30,30 30,30ZM30,30C30,30 30,30 30,30ZM30,30C30,30 30,30 30,30ZM30,30C30,30 30,30 30,30ZM30,30C30,30 30,30 30,30ZM30,30C30,30 30,30 30,30ZM2,30C2,30 2,30 2,30ZM30,30C30,30 30,30 30,30ZM30,30C30,30 30,30 30,30ZM2,30C2,30 2,30 2,30ZM30,30C30,30 30,30 30,30ZM30,30C30,30 30,30 30,30ZM30,30C30,30 30,30 30,30ZM30,30C30,30 30,30 30,30ZM30,30C30,30 30,30 30,30ZM30,30C30,30 30,30 30,30ZM30,30C30,30 30,30 30,30ZM30,30C30,30 30,30 30,30ZM30,30C30,30 30,30 30,30ZM30,30C30,30 30,30 30,30ZM30,30C30,30 30,30 30,30ZM30,30C30,30 30,30 30,30ZM30,30C30,30 30,30 30,30ZM30,30C30,30 30,30 30,30ZM30,30C30,30 30,30 30,30ZM30,30C30,30 30,30 30,30ZM30,30C30,30 30,30 30,30ZM30,30C30,30 30,30 30,30ZM30,30C30,30 30,30 30,30ZM30,30C30,30 30,30 30,30ZM30,30C30,30 30,30 30,30ZM2,30C2,30 2,30 2,30ZM30,30C30,30 30,30 30,30ZM30,30C30,30 30,30 30,30ZM30,30C30,30 30,30 30,30ZM30,30C30,30 30,30 30,30ZM30,30C30,30 30,30 30,30ZM30,30C30,30 30,30 30,30ZM30,30C30,30 30,30 30,30ZM30,30C30,30 30,30 30,30ZM30,30C30,30 30,30 30,30ZM30,30C30,30 30,30 30,30ZM30,30C30,30 30,30 30,30ZM30,30C30,30 30,30 30,30ZM30,30C30,30 30,30 30,30ZM2,30C2,30 2,30 2,30ZM30,30C30,30 30,30 30,30ZM30,30C30,30 30,30 30,30ZM2,30C2,30 2,30 2,30ZM30,30C30,30 30,30 30,30ZM30,30C30,30 30,30 30,30ZM30,30C30,30 30,30 30,30ZM30,30C30,30 30,30 30,30ZM30,30C30,30 30,30 30,30ZM30,30C30,30 30,30 30,30ZM30,30C30,30 30,30 30,30ZM2,30C2,30 2,30 2,30ZM30,30C30,30 30,29.999 30,30ZM30,30C30,30 30,30 30,30ZM30,30C30,30 30,30 30,30ZM2,30C2,30 2,30 2,30ZM30,30C30,30 30,30 30,30ZM30,30C30,30 30,30 30,30ZM30,30C30,30 30,30 30,30ZM30,30C30,30 30,30 30,30ZM30,30C30,30 30,30 30,30ZM30,30C30,30 30,30 30,30ZM30,30C30,30 30,30 30,30ZM30,30C30,30 30,30 30,30ZM30,30C30,30 30,30 30,30ZM2,30C2,30 2,30 2,30ZM30,30C30,30 30,30 30,30ZM30,30C30,30 30,30 30,30ZM30,30C30,30 30,30 30,30ZM30,30C30,30 30,30 30,30ZM30,30C30,30 30,30 30,30ZM30,30C30,30 30,30 30,30ZM30,30C30,30 30,30 30,30ZM30,30C30,30 30,30 30,30ZM30,30C30,30 30,30 30,30ZM30,30C30,30 30,30 30,30ZM30,30C30,30 30,30 30,30ZM30,30C30,30 30,30 30,30ZM30,30C30,30 30,30 30,30ZM30,30C30,30 30,30 30,30ZM2,30C2,30 2,30 2,30ZM30,30C30,30 30,30 30,30ZM30,30C30,30 30,30 30,30ZM30,30C30,30 30,30 30,30ZM30,30C30,30 30,30 30,30ZM30,30C30,30 30,30 30,30ZM30,30C30,30 30,30 30,30ZM30,30C30,30 30,30 30,30ZM30,30C30,30 30,30 30,30ZM30,30C30,30 30,30 30,30ZM30,30C30,30 30,30 30,30ZM30,30C30,30 30,30 30,30ZM30,30C30,30 30,30 30,30ZM30,30C30,30 30,30 30,30ZM30,30C30,30 30,30 30,30ZM2,30C2,30 2,30 2,30ZM30,30C30,30 30,30 30,30ZM30,30C30,30 30,30 30,30ZM30,30C30,30 30,30 30,30ZM30,30C30,30 30,30 30,30ZM30,30C30,30 30,30 30,30ZM30,30C30,30 30,30 30,30ZM30,30C30,30 30,30 30,30ZM30,30C30,30 30,30 30,30ZM30,30L30,30ZM30,30L30,30ZM30,30C30,30 30,30 30,30ZM30,30L30,30ZM30,30C30,30 30,30 30,30ZM30,30L30,30ZM30,30C30,30 30,30 30,30ZM30,30C30,30 30,30 30,30ZM30,30C30,30 30,30 30,30ZM30,30C30,30 30,30 30,30ZM30,30C30,30 30,30 30,30ZM30,30C30,30 30,30 30,30ZM30,30C30,30 30,30 30,30ZM30,30C30,30 30,30 30,30ZM30,30C30,30 30,30 30,30ZM30,30C30,30 30,30 30,30ZM30,30C30,30 30,30 30,30ZM2,30C2,30 2,30 2,30ZM30,30C30,30 30,30 30,30ZM30,30C30,30 30,30 30,30ZM30,30C30,30 30,30 30,30ZM30,30C30,30 30,30 30,30ZM30,30C30,30 30,30 30,30ZM30,30C30,30 30,30 30,30ZM30,30C30,30 30,30 30,30ZM30,30C30,30 30,30 30,30ZM30,30C30,30 30,30 30,30ZM30,30C30,30 30,30 30,30ZM30,30C30,30 30,30 30,30ZM30,30C30,30 30,30 30,30ZM30,30C30,30 30,30 30,30ZM30,30C30,30 30,30 30,30ZM30,30C30,30 30,30 30,30ZM30,30C30,30 30,30 30,30ZM30,30C30,30 30,30 30,30ZM30,30C30,30 30,30 30,30ZM30,30C30,30 30.001,29.999 30,30ZM30,30C30,30 30,30 30,30ZM30,30C30,30 30,30 30,30ZM30,30L30,30ZM2,30C2,30 2,30 2,30ZM30,30C30,30 30,30 30,30ZM30,30C30,30 30,30 30,30ZM30,30C30,30 30.001,29.999 30,30ZM30,30C30,30 30,30 30,30ZM30,30C30,30 30,30 30,30ZM30,30C30,30 30,30 30,30ZM30,30C30,30 30,30 30,30ZM30,30C30,30 30,30 30,30ZM30,30C30,30 30,30 30,30ZM30,30C30,30 30,30 30,30ZM2,30C2,30 2,30 2,30ZM30,30C30,30 30,30 30,30ZM30,30C30,30 30,30 30,30ZM30,30C30,30 30,30 30,30ZM30,30C30,30 30,29.999 30,30ZM30,30C30,30 30,30 30,30ZM30,30C30,30 30,30 30,30ZM30,30C30,30 30,30 30,30ZM30,30M30,29.999C30,29.999 30,29.999 30,29.999ZM30,30C30,30 30,30 30,30ZM30,30C30,30 30,30 30,30ZM30,30C30,30 30,30 30,30ZM30,30C30,30 30,30 30,30ZM30,30C30,30 30,30 30,30ZM30,30C30,30 30,30 30,30ZM30,30C30,30 30,30 30,30ZM30,30C30,30 30,30 30,30ZM30,30C30,30 30,30 30,30ZM30,30C30,30 30,30 30,30ZM30,30C30,30 30,30 30,30ZM30,30C30,30 30,30 30,30ZM30,30C30,30 30,30 30,30ZM30,30C30,30 30,30 30,30ZM30,30C30,30 30,30 30,30ZM30,30C30,30 30,30 30,30ZM30,30C30,30 30,30 30,30ZM30,30C30,30 30,30 30,30ZM30,30C30,30 30,30 30,30ZM2,30C2,30 2,29.999 2,30ZM30,30C30,30 30,30 30,30ZM30,30C30,30 30,30 30,30ZM30,30C30,30 30,30 30,30ZM30,30C30,30 30,30 30,30ZM30,30C30,30 30,30 30,30ZM30,30C30,30 30,30 30,30ZM30,30C30,30 30,30 30,30ZM30,30C30,30 30,30 30,30ZM30,30C30,30 30,30 30,30ZM30,30C30,30 30,30 30,30ZM30,30C30,30 30,29.999 30,30ZM30,30C30,30 30,30 30,30ZM30,30C30,30 30,30 30,30ZM30,30C30,30 30,30 30,30ZM30,29.999C30,29.999 30.001,29.999 30.001,29.999C30.001,29.999 30.001,29.999 30,29.999ZM30,30C30,30 30,29.999 30,30ZM30,30C30,30 30,30 30,30ZM30,30C30,30 30,30 30,30ZM30,30C30,30 30,30 30,30ZM30,30C30,30 30,30 30,30ZM30,30C30,30 30,30 30,30ZM2,30C2,30 2,30 2,30ZM2,30C2,30 2,30 2,30ZM30,30C30,30 30,30 30,30ZM30,30C30,30 30,30 30,30ZM30,30C30,30 30,30 30,30ZM30,30M30,30C30,30 30,30 30,30ZM30,30C30,30 30,30 30,30ZM30,30C30,30 30,30 30,30ZM30,30C30,30 30,30 30,30ZM30,30C30,30 30,30 30,30ZM30,30C30,30 30,30 30,30ZM30,30M30,30C30,30 30,30 30,30ZM30,30C30,30 30,30 30,30ZM30,30C30,30 30,30 30,30ZM30,30C30,30 30,30 30,30ZM30,30C30,30 30,30 30,30ZM30,30C30,30 30,30 30,30ZM30,30C30,30 30,30 30,30ZM30,30C30,30 30,30 30,30ZM30,30C30,30 30,30 30,30ZM30,30C30,30 30,30 30,30ZM30,30C30,30 30,30 30,30ZM30,30C30,30 30,29.999 30,30ZM30,30C30,30 30,30 30,30ZM30,30C30,30 30,30 30,30ZM30,30C30,30 30,30 30,30ZM30,29.999C30,30 30,29.999 30,29.999ZM30,29.999C30,30 30.001,29.999 30,29.999ZM30,30C30,30 30,30 30,30ZM30,30C30,30 30.001,29.999 30,30ZM2,30C2,30 2,29.999 2,30ZM30,29.999C30,30 30.001,29.999 30,29.999ZM2,30C2,30 1.999,29.999 2,30ZM30,29.999C30,29.999 30.001,29.999 30,29.999ZM30,29.999C30,30 30,29.999 30,29.999ZM30,30C30,30 30.001,29.999 30,30ZM2,30C2,30 2,29.999 2,30ZM30,29.999C30,29.999 30.001,29.999 30,29.999ZM30.001,29.999C30.001,29.999 30.001,29.999 30.001,29.999ZM30,29.999C30,29.999 30,29.999 30,29.999ZM30,29.999C30,29.999 30,29.999 30,29.999ZM2,29.999C2,29.999 1.999,29.999 2,29.999ZM30,29.999C30,29.999 30,29.999 30,29.999ZM30,29.999C30,29.999 30.001,29.999 30,29.999ZM30,29.999C30,29.999 30,29.999 30,29.999ZM30,29.999C30,29.999 30.001,29.999 30,29.999ZM30,29.999C30,29.999 30.001,29.999 30,29.999ZM30,29.999C30,29.999 30.001,29.999 30,29.999ZM30,29.999C30,29.999 30.001,29.999 30,29.999ZM30,29.999C30,29.999 30.001,29.998 30,29.999ZM30,29.999C30,29.999 30.001,29.999 30,29.999ZM30,29.999C30,29.999 30.001,29.999 30,29.999ZM30.001,29.999C30.001,29.999 30.001,29.999 30.001,29.999ZM30.001,29.999C30.001,29.999 30.001,29.999 30.001,29.999Z" />
        <path fill="#3E79B4" class="Blue" d="M31,8L1,8L1,3.4C1,2.627 1.627,2 2.4,2L29.6,2C30.373,2 31,2.627 31,3.4L31,8Z" />
        <path fill="#4EA17E" class="Green" d="M11.229,14.136C11.252,14.137 11.258,14.138 11.281,14.141C11.411,14.159 11.535,14.215 11.635,14.3C11.742,14.39 11.821,14.513 11.858,14.648C11.864,14.67 11.865,14.676 11.87,14.699L13.614,23.574L17.531,11.622L17.539,11.597C17.543,11.589 17.546,11.581 17.549,11.573C17.605,11.436 17.707,11.318 17.834,11.241C17.946,11.173 18.077,11.138 18.208,11.14C18.348,11.142 18.486,11.188 18.6,11.268C18.721,11.354 18.814,11.479 18.861,11.62C18.863,11.628 18.866,11.637 18.868,11.645L21.544,20.869L22.493,18.985L22.505,18.962C22.516,18.942 22.519,18.937 22.531,18.918C22.606,18.803 22.716,18.711 22.842,18.657C22.913,18.626 22.989,18.608 23.067,18.602C23.089,18.6 23.095,18.6 23.118,18.6L27,18.6C27.009,18.6 27.017,18.6 27.026,18.6C27.165,18.606 27.303,18.654 27.416,18.737C27.521,18.814 27.604,18.922 27.652,19.044C27.703,19.174 27.714,19.32 27.682,19.456C27.644,19.626 27.539,19.779 27.394,19.878C27.286,19.952 27.157,19.995 27.026,20C27.017,20 27.009,20 27,20L23.549,20L21.993,23.089L21.981,23.112C21.977,23.12 21.972,23.127 21.968,23.135C21.887,23.269 21.76,23.375 21.612,23.43C21.498,23.473 21.372,23.485 21.252,23.464C21.106,23.44 20.968,23.367 20.865,23.26C20.792,23.185 20.736,23.093 20.703,22.994C20.701,22.986 20.698,22.977 20.696,22.969L18.155,14.212L14.109,26.558L14.101,26.583C14.097,26.591 14.094,26.599 14.091,26.607C14.041,26.729 13.956,26.836 13.848,26.912C13.719,27.003 13.559,27.048 13.401,27.039C13.27,27.031 13.141,26.985 13.034,26.908C12.899,26.81 12.801,26.664 12.763,26.501C12.761,26.492 12.759,26.484 12.757,26.475L10.909,17.07L9.726,19.597L9.714,19.621C9.703,19.641 9.701,19.647 9.688,19.667C9.61,19.794 9.49,19.895 9.35,19.951C9.285,19.977 9.215,19.993 9.145,19.998C9.121,20 9.115,20 9.092,20L5,20C4.991,20 4.983,20 4.974,20C4.869,19.996 4.766,19.968 4.673,19.919C4.519,19.837 4.397,19.697 4.339,19.531C4.296,19.408 4.288,19.272 4.318,19.144C4.345,19.025 4.404,18.913 4.487,18.824C4.594,18.709 4.74,18.631 4.896,18.608C4.922,18.604 4.948,18.601 4.974,18.6C4.983,18.6 4.991,18.6 5,18.6L8.647,18.6L10.549,14.537L10.561,14.514C10.572,14.493 10.574,14.488 10.586,14.468C10.641,14.379 10.716,14.302 10.805,14.245C10.907,14.179 11.028,14.14 11.15,14.135C11.174,14.134 11.179,14.134 11.203,14.134C11.212,14.135 11.22,14.135 11.229,14.136Z" />
    </g>
</svg>
