<?xml version="1.0" encoding="UTF-8"?>
<!DOCTYPE svg PUBLIC "-//W3C//DTD SVG 1.1//EN" "http://www.w3.org/Graphics/SVG/1.1/DTD/svg11.dtd">
<svg version="1.1" id="Layer_1" xmlns="http://www.w3.org/2000/svg" xmlns:xlink="http://www.w3.org/1999/xlink" x="0px" y="0px" width="32px" height="32px" viewBox="0 0 32 32" enable-background="new 0 0 32 32" xml:space="preserve">
  <style type="text / css">
    .Red{fill:#CD4C32;}
    .Green{fill:#4EA17E;}
    .Blue{fill:#3E79B4;}
    .Yellow{fill:#EAB765;}
    .Black{fill:#797979;}
    .Gray{fill:#B4B4B5;}
    .White{fill:#FFFFFF;}
  </style>
  <g id="icon">
    <g>
      <path fill="#3E79B4" class="Blue" d="M16.363,13H2.638C1.737,13,1,13.737,1,14.638v9.725c0,0.901,0.737,1.638,1.638,1.638h13.725c0.901,0,1.638,-0.737,1.638,-1.638v-9.725C18,13.737,17.263,13,16.363,13zM16,24H3v-9h13V24z" />
      <rect fill="#3E79B4" class="Blue" x="7" y="24.6" width="5" height="3" />
      <rect fill="#FFFFFF" class="White" x="3" y="15" width="13" height="9" />
      <path fill="#3E79B4" class="Blue" d="M16.025,28H2.975c-0.538,0,-0.975,0.437,-0.975,0.975v1.05c0,0.538,0.437,0.975,0.975,0.975h13.05c0.538,0,0.975,-0.437,0.975,-0.975v-1.05C17,28.437,16.563,28,16.025,28zM10.9,30H4.2c-0.275,0,-0.5,-0.225,-0.5,-0.5s0.225,-0.5,0.5,-0.5h6.7c0.275,0,0.5,0.225,0.5,0.5S11.175,30,10.9,30zM14.15,30.2c-0.58,0,-1.05,-0.291,-1.05,-0.65s0.47,-0.65,1.05,-0.65s1.05,0.291,1.05,0.65C15.2,30.074,14.73,30.2,14.15,30.2z" />
      <path fill="#FFFFFF" class="White" d="M10.9,30H4.2c-0.275,0,-0.5,-0.225,-0.5,-0.5l0,0c0,-0.275,0.225,-0.5,0.5,-0.5h6.7c0.275,0,0.5,0.225,0.5,0.5l0,0C11.4,29.775,11.175,30,10.9,30z" />
      <path fill="#FFFFFF" class="White" d="M13.1,29.55c0,0.359,0.47,0.65,1.05,0.65s1.05,-0.126,1.05,-0.65c0,-0.359,-0.47,-0.65,-1.05,-0.65S13.1,29.191,13.1,29.55z" />
    </g>
    <g>
      <path fill="#3E79B4" class="Blue" d="M29.363,1H15.638C14.737,1,14,1.737,14,2.638V12h2V3h13v9H16.95c1.115,0,2.021,0.891,2.047,2h10.365c0.901,0,1.638,-0.737,1.638,-1.638V2.638C31,1.737,30.263,1,29.363,1z" />
      <rect fill="#3E79B4" class="Blue" x="20" y="12.6" width="5" height="3" />
      <polygon fill="#FFFFFF" class="White" points="16,3 16,12 16.95,12 29,12 29,3"  stroke-linejoin="miter"/>
      <path fill="#3E79B4" class="Blue" d="M29.025,16H19v1h4.9c0.275,0,0.5,0.225,0.5,0.5s-0.225,0.5,-0.5,0.5h-4.9v1h10.025c0.538,0,0.975,-0.437,0.975,-0.975v-1.05C30,16.437,29.563,16,29.025,16zM27.15,18.2c-0.58,0,-1.05,-0.291,-1.05,-0.65s0.47,-0.65,1.05,-0.65s1.05,0.291,1.05,0.65C28.2,18.074,27.73,18.2,27.15,18.2z" />
      <path fill="#FFFFFF" class="White" d="M23.9,17h-4.9v1h4.9c0.275,0,0.5,-0.225,0.5,-0.5S24.175,17,23.9,17z" />
      <path fill="#FFFFFF" class="White" d="M27.15,16.9c-0.58,0,-1.05,0.291,-1.05,0.65s0.47,0.65,1.05,0.65s1.05,-0.126,1.05,-0.65C28.2,17.191,27.73,16.9,27.15,16.9z" />
    </g>
    <path fill="#4EA17E" class="Green" d="M31,30h-4.5v-2h4.5V30zM19.5,28h-2v2h2V28zM24,19.5h-2v7h2V19.5z" />
    <polygon fill="#797979" class="Black" points="24,27 24,27 22,27 22,27 20,27 20,31 26,31 26,27" stroke-linejoin="miter"/>
  </g>
</svg>
