<?xml version="1.0" encoding="UTF-8" standalone="no"?>
<!DOCTYPE svg PUBLIC "-//W3C//DTD SVG 1.1//EN" "http://www.w3.org/Graphics/SVG/1.1/DTD/svg11.dtd">
<svg width="32" height="32" viewBox="0 0 32 32" version="1.1" xmlns="http://www.w3.org/2000/svg" xmlns:xlink="http://www.w3.org/1999/xlink" xml:space="preserve" xmlns:serif="http://www.serif.com/" >
  <style type="text / css">
    .Red{fill:#CD4C32;}
    .Green{fill:#4EA17E;}
    .Blue{fill:#3E79B4;}
    .Yellow{fill:#EAB765;}
    .Black{fill:#797979;}
    .Gray{fill:#B4B4B5;}
    .White{fill:#FFFFFF;}
  </style>
    <g id="main">
        <g id="transformed_icon" transform="matrix(1,0,0,1,-1,-1)">
            <clipPath id="_clip1">
                <path d="M21.926,33C19.519,31.6 17.9,28.988 17.9,26C17.9,21.527 21.527,17.9 26,17.9C28.988,17.9 31.6,19.519 33,21.926L33,1L1,1L1,33L21.926,33Z"/>
            </clipPath>
            <g clip-path="url(#_clip1)">
                <path fill="#3E79B4" class="Blue" d="M27.313,1L5.688,1C4.755,1 4,1.756 4,2.688L4,29.313C4,30.244 4.755,31 5.688,31L27.313,31C28.244,31 29,30.244 29,29.313L29,2.688C29,1.756 28.244,1 27.313,1ZM27,29L6,29L6,3L27,3L27,29Z" />
                <rect fill="#FFFFFF" class="White" x="6" y="3" width="21" height="26" />
                <path fill="#797979" class="Black" d="M4,17L4,19L2,19L2,17L4,17ZM2,13L2,15L4,15L4,13L2,13ZM2,9L2,11L4,11L4,9L2,9ZM2,21L2,23L4,23L4,21L2,21ZM2,25L2,27L4,27L4,25L2,25ZM4,5L4,7L2,7L2,5L4,5Z" />
                <path fill="#797979" class="Black" d="M5,17L5,19L4,19L4,17L5,17ZM4,13L4,15L5,15L5,13L4,13ZM4,9L4,11L5,11L5,9L4,9ZM4,21L4,23L5,23L5,21L4,21ZM4,25L4,27L5,27L5,25L4,25ZM5,5L5,7L4,7L4,5L5,5Z" />
                <path fill="#797979" class="Black" fill-opacity="0.5" d="M7,17L7,19L5,19L5,17L7,17ZM5,13L5,15L7,15L7,13L5,13ZM5,9L5,11L7,11L7,9L5,9ZM5,21L5,23L7,23L7,21L5,21ZM5,25L5,27L7,27L7,25L5,25ZM7,5L7,7L5,7L5,5L7,5Z" />
                <path fill="#797979" class="Black" fill-opacity="0.5" d="M18.522,24C18.529,24.001 18.537,24.001 18.544,24.002C18.654,24.012 18.76,24.059 18.842,24.135C18.933,24.221 18.991,24.341 18.999,24.467C19.006,24.57 18.98,24.675 18.925,24.763C18.863,24.863 18.765,24.94 18.652,24.976C18.61,24.99 18.566,24.998 18.522,25C18.515,25 18.507,25 18.5,25L10.5,25C10.493,25 10.485,25 10.478,25C10.346,24.994 10.217,24.933 10.127,24.833C10.054,24.751 10.008,24.644 10.001,24.533C9.993,24.415 10.029,24.296 10.099,24.201C10.161,24.118 10.249,24.055 10.348,24.024C10.39,24.01 10.434,24.002 10.478,24C10.485,24 10.493,24 10.5,24L18.5,24C18.507,24 18.515,24 18.522,24ZM23.522,22C23.529,22.001 23.537,22.001 23.544,22.002C23.64,22.01 23.733,22.047 23.808,22.106C23.907,22.183 23.975,22.299 23.994,22.423C24.012,22.539 23.987,22.662 23.925,22.763C23.863,22.863 23.765,22.94 23.652,22.976C23.61,22.99 23.566,22.998 23.522,23C23.515,23 23.507,23 23.5,23L10.5,23C10.493,23 10.485,23 10.478,23C10.353,22.994 10.231,22.941 10.143,22.85C10.06,22.765 10.009,22.651 10.001,22.533C9.994,22.43 10.02,22.325 10.075,22.237C10.125,22.156 10.199,22.089 10.286,22.048C10.346,22.02 10.411,22.003 10.478,22C10.485,22 10.493,22 10.5,22L23.5,22C23.507,22 23.515,22 23.522,22ZM23.522,20C23.529,20.001 23.537,20.001 23.544,20.002C23.662,20.012 23.775,20.066 23.857,20.15C23.94,20.235 23.991,20.349 23.999,20.467C24.006,20.57 23.98,20.675 23.925,20.763C23.864,20.863 23.765,20.94 23.652,20.976C23.61,20.99 23.566,20.998 23.522,21C23.515,21 23.507,21 23.5,21L10.5,21C10.493,21 10.485,21 10.478,21C10.367,20.995 10.259,20.952 10.175,20.88C10.091,20.808 10.032,20.708 10.01,20.599C9.991,20.505 10,20.405 10.035,20.316C10.073,20.22 10.141,20.137 10.228,20.08C10.302,20.032 10.389,20.004 10.478,20C10.485,20 10.493,20 10.5,20L23.5,20C23.507,20 23.515,20 23.522,20ZM23.522,18C23.529,18.001 23.537,18.001 23.544,18.002C23.654,18.012 23.76,18.059 23.842,18.135C23.933,18.22 23.991,18.341 23.999,18.467C24.006,18.57 23.98,18.675 23.925,18.763C23.864,18.863 23.765,18.94 23.652,18.976C23.61,18.99 23.566,18.998 23.522,19C23.515,19 23.507,19 23.5,19L10.5,19C10.493,19 10.485,19 10.478,19C10.367,18.995 10.259,18.952 10.175,18.88C10.08,18.799 10.017,18.68 10.003,18.555C9.989,18.431 10.024,18.302 10.099,18.201C10.161,18.118 10.249,18.055 10.348,18.024C10.39,18.01 10.434,18.002 10.478,18C10.485,18 10.493,18 10.5,18L23.5,18C23.507,18 23.515,18 23.522,18ZM18.522,15C18.529,15.001 18.537,15.001 18.544,15.002C18.676,15.014 18.802,15.08 18.887,15.183C18.971,15.286 19.012,15.423 18.997,15.555C18.986,15.651 18.948,15.743 18.887,15.817C18.826,15.891 18.744,15.947 18.652,15.976C18.61,15.99 18.566,15.998 18.522,16C18.515,16 18.507,16 18.5,16L10.5,16C10.493,16 10.485,16 10.478,16C10.375,15.995 10.273,15.958 10.192,15.894C10.105,15.826 10.041,15.728 10.015,15.62C9.985,15.499 10.002,15.367 10.063,15.256C10.11,15.173 10.181,15.103 10.266,15.058C10.331,15.024 10.404,15.004 10.478,15C10.485,15 10.493,15 10.5,15L18.5,15C18.507,15 18.515,15 18.522,15ZM23.522,13C23.529,13.001 23.537,13.001 23.544,13.002C23.647,13.011 23.747,13.053 23.825,13.12C23.909,13.192 23.968,13.293 23.99,13.401C24.012,13.51 23.997,13.625 23.947,13.724C23.901,13.816 23.825,13.894 23.734,13.942C23.669,13.976 23.596,13.996 23.522,14C23.515,14 23.507,14 23.5,14L10.5,14C10.493,14 10.485,14 10.478,14C10.375,13.995 10.274,13.958 10.192,13.894C10.105,13.826 10.041,13.728 10.015,13.62C9.985,13.499 10.002,13.366 10.063,13.256C10.11,13.173 10.181,13.103 10.266,13.058C10.331,13.024 10.404,13.004 10.478,13C10.485,13 10.493,13 10.5,13L23.5,13C23.507,13 23.515,13 23.522,13ZM23.522,11C23.529,11.001 23.537,11.001 23.544,11.002C23.654,11.012 23.761,11.059 23.842,11.135C23.917,11.205 23.97,11.3 23.99,11.401C24.012,11.51 23.997,11.625 23.947,11.724C23.901,11.816 23.825,11.894 23.734,11.942C23.669,11.976 23.596,11.996 23.522,12C23.515,12 23.507,12 23.5,12L10.5,12C10.493,12 10.485,12 10.478,12C10.375,11.995 10.273,11.958 10.192,11.894C10.105,11.826 10.041,11.728 10.015,11.62C9.985,11.499 10.002,11.367 10.063,11.256C10.11,11.173 10.181,11.103 10.266,11.058C10.331,11.024 10.404,11.004 10.478,11C10.485,11 10.493,11 10.5,11L23.5,11C23.507,11 23.515,11 23.522,11ZM23.522,9C23.529,9.001 23.537,9.001 23.544,9.002C23.669,9.013 23.788,9.073 23.873,9.167C23.946,9.249 23.992,9.356 23.999,9.467C24.006,9.57 23.98,9.675 23.925,9.763C23.864,9.863 23.765,9.94 23.652,9.976C23.61,9.99 23.566,9.998 23.522,10C23.515,10 23.507,10 23.5,10L10.5,10C10.493,10 10.485,10 10.478,10C10.375,9.995 10.273,9.958 10.192,9.894C10.105,9.826 10.041,9.728 10.015,9.62C9.979,9.478 10.009,9.321 10.099,9.201C10.161,9.118 10.249,9.055 10.348,9.024C10.39,9.01 10.434,9.002 10.478,9C10.485,9 10.493,9 10.5,9L23.5,9C23.507,9 23.515,9 23.522,9ZM23.522,7C23.529,7.001 23.537,7.001 23.544,7.002C23.654,7.012 23.761,7.059 23.842,7.135C23.917,7.205 23.97,7.3 23.99,7.401C24.012,7.51 23.997,7.625 23.947,7.724C23.901,7.816 23.825,7.894 23.734,7.942C23.669,7.976 23.596,7.996 23.522,8C23.515,8 23.507,8 23.5,8L10.5,8C10.493,8 10.485,8 10.478,8C10.345,7.994 10.217,7.933 10.127,7.833C10.054,7.751 10.008,7.644 10.001,7.533C9.992,7.401 10.038,7.266 10.127,7.167C10.216,7.068 10.345,7.006 10.478,7C10.485,7 10.493,7 10.5,7L23.5,7C23.507,7 23.515,7 23.522,7Z" />
            </g>
        </g>
        <g id="overlay">
            <path fill="#797979" class="Black" d="M25,18C21.134,18 18,21.134 18,25C18,28.866 21.134,32 25,32C28.866,32 32,28.866 32,25C32,21.134 28.866,18 25,18ZM25,29.375C22.584,29.375 20.625,27.416 20.625,25C20.625,22.584 22.584,20.625 25,20.625C27.416,20.625 29.375,22.584 29.375,25C29.375,27.416 27.416,29.375 25,29.375Z" />
            <path fill="#FFFFFF" class="White" d="M29.375,25C29.375,27.416 27.416,29.375 25,29.375C22.584,29.375 20.625,27.416 20.625,25C20.625,22.584 22.584,20.625 25,20.625C27.416,20.625 29.375,22.584 29.375,25Z" />
            <circle fill="#CD4C32" class="Red" cx="24.956" cy="24.956" r="3.325" />
        </g>
    </g>
</svg>
