<?xml version="1.0" encoding="UTF-8" standalone="no"?>
<!DOCTYPE svg PUBLIC "-//W3C//DTD SVG 1.1//EN" "http://www.w3.org/Graphics/SVG/1.1/DTD/svg11.dtd">
<svg width="32" height="32" viewBox="0 0 32 32" version="1.1" xmlns="http://www.w3.org/2000/svg" xmlns:xlink="http://www.w3.org/1999/xlink" xml:space="preserve" xmlns:serif="http://www.serif.com/" >
  <style type="text / css">
    .Red{fill:#CD4C32;}
    .Green{fill:#4EA17E;}
    .Blue{fill:#3E79B4;}
    .Yellow{fill:#EAB765;}
    .Black{fill:#797979;}
    .Gray{fill:#B4B4B5;}
    .White{fill:#FFFFFF;}
  </style>
    <g id="main">
        <g id="transformed_icon" transform="matrix(1,0,0,1,-1,-1)">
            <clipPath id="_clip1">
                <path d="M22.221,32.762C22.04,32.322 22.14,31.819 22.476,31.482L24.915,29L18.432,29C17.647,29 17,28.412 17,27.661L17,25.395C17,24.631 17.654,24 18.419,24L24.915,24L22.467,21.494C22.138,21.162 22.039,20.662 22.223,20.222C22.406,19.782 22.832,19.5 23.309,19.5L26.814,19.5C27.174,19.5 27.515,19.637 27.775,19.887L27.792,19.904C27.792,19.904 31.44,23.584 33,25.161L33,1L1,1L1,33L22.354,33C22.301,32.927 22.257,32.847 22.221,32.762Z"/>
            </clipPath>
            <g clip-path="url(#_clip1)">
                <path fill="#FFFFFF" class="White" d="M26.6,30.5L5.4,30.5C4.765,30.5 4.5,30.241 4.5,29.6L4.5,2.4C4.5,1.759 4.765,1.5 5.4,1.5C5.4,1.5 19.063,1.5 19.3,1.5C19.538,1.5 19.85,1.55 20.2,1.9C20.499,2.199 25.616,7.316 27.1,8.8C27.353,9.053 27.5,9.35 27.5,9.8C27.5,10.113 27.5,29.6 27.5,29.6C27.5,30.241 27.235,30.5 26.6,30.5Z" />
                <path fill="#797979" class="Black" d="M19.3,1C19.415,1 19.53,1.01 19.642,1.032C19.813,1.066 19.98,1.13 20.133,1.218C20.261,1.292 20.38,1.383 20.489,1.484C20.525,1.518 20.56,1.553 20.595,1.588C20.735,1.728 20.875,1.867 21.014,2.007C21.502,2.495 21.989,2.982 22.477,3.47C23.899,4.892 25.321,6.314 26.743,7.736C26.981,7.974 27.218,8.211 27.455,8.448C27.52,8.513 27.581,8.582 27.635,8.653C27.721,8.766 27.794,8.89 27.851,9.021C27.898,9.129 27.933,9.242 27.957,9.36C27.987,9.504 28,9.65 28,9.798C28.005,16.4 28.007,23.001 28,29.603C28,29.659 27.998,29.716 27.994,29.773C27.987,29.88 27.972,29.986 27.946,30.09C27.922,30.183 27.89,30.273 27.844,30.364C27.809,30.432 27.768,30.497 27.72,30.557L27.719,30.558C27.644,30.651 27.555,30.73 27.454,30.793C27.448,30.797 27.443,30.8 27.438,30.803L27.437,30.804C27.398,30.827 27.359,30.847 27.318,30.866C27.249,30.898 27.176,30.923 27.103,30.942C27.023,30.963 26.942,30.977 26.858,30.987C26.773,30.996 26.69,31 26.603,31C19.534,31.007 12.466,31.007 5.397,31C5.29,31 5.182,30.994 5.078,30.978C4.996,30.967 4.915,30.949 4.834,30.924C4.72,30.888 4.611,30.838 4.511,30.77C4.426,30.712 4.349,30.641 4.285,30.563C4.188,30.444 4.118,30.302 4.074,30.159C4.047,30.073 4.03,29.984 4.018,29.897C4.006,29.804 4.001,29.71 4,29.616C4,29.611 4,29.606 4,29.6C3.998,20.532 3.989,11.464 4,2.396C4,2.243 4.013,2.089 4.047,1.941C4.079,1.803 4.13,1.669 4.205,1.549C4.303,1.392 4.441,1.263 4.602,1.174C4.738,1.099 4.887,1.053 5.041,1.027C5.159,1.008 5.279,1 5.4,1C10.033,0.999 14.667,0.999 19.3,1ZM5.4,2C5.325,2 5.249,2.004 5.175,2.019C5.143,2.026 5.11,2.035 5.082,2.051C5.074,2.056 5.067,2.061 5.062,2.067C5.052,2.079 5.045,2.092 5.04,2.106C5.021,2.153 5.013,2.203 5.007,2.253C5.002,2.301 5,2.35 5,2.399C4.996,11.466 4.996,20.534 5,29.601C5,29.676 5.004,29.751 5.019,29.824C5.026,29.856 5.034,29.889 5.052,29.919C5.058,29.93 5.068,29.94 5.08,29.948C5.109,29.965 5.142,29.974 5.174,29.981C5.246,29.996 5.322,30 5.397,30L5.399,30C12.467,30 19.535,30.015 26.603,30C26.671,30 26.739,29.997 26.806,29.984C26.839,29.978 26.872,29.971 26.902,29.957C26.919,29.949 26.935,29.94 26.946,29.923C26.956,29.908 26.962,29.89 26.968,29.873C26.985,29.821 26.992,29.766 26.996,29.712C26.999,29.676 27,29.639 27,29.603L27,29.601C27,23 27.01,16.398 27,9.797C27,9.736 26.996,9.675 26.987,9.614C26.987,9.613 26.987,9.611 26.986,9.61C26.978,9.558 26.966,9.505 26.949,9.458C26.938,9.427 26.925,9.397 26.909,9.368C26.868,9.289 26.811,9.218 26.748,9.155C26.511,8.917 26.273,8.68 26.036,8.443C25.354,7.761 24.672,7.079 23.99,6.397C23.087,5.494 22.184,4.591 21.28,3.688C21.009,3.416 20.738,3.145 20.467,2.874C20.274,2.681 20.081,2.488 19.888,2.295C19.822,2.229 19.755,2.164 19.675,2.111C19.604,2.063 19.524,2.027 19.441,2.012C19.395,2.003 19.349,2 19.302,2C14.668,1.994 10.034,2 5.4,2Z" />
                <path fill="#797979" class="Black" d="M20,8.7C20,8.735 20.006,8.771 20.018,8.803C20.037,8.855 20.073,8.903 20.114,8.935C20.167,8.977 20.235,9 20.3,9L27.3,9L27.3,10C24.966,10 22.632,10.002 20.298,10C20.102,10 19.906,9.955 19.729,9.868C19.536,9.774 19.367,9.631 19.242,9.456C19.185,9.375 19.136,9.288 19.098,9.196C19.07,9.127 19.047,9.056 19.031,8.982C19.011,8.892 19.001,8.799 19,8.709C19,8.706 19,8.703 19,8.701L19,8.7L19,2L20,2C20,4.233 20,6.466 20,8.7Z" />
            </g>
        </g>
        <path fill="#3E79B4" class="Blue" id="overlay" d="M26.1,31.395C26.028,31.463 25.933,31.5 25.833,31.5L22.308,31.489C22.151,31.489 22.073,31.299 22.184,31.188L26.3,27L17.432,27C17.218,27 17.032,26.875 17.032,26.661L17.032,25.816L17.032,25.058L17.032,24.395C17.032,24.182 17.205,24.008 17.419,24.008L26.287,24.008L22.184,19.801C22.073,19.689 22.152,19.5 22.309,19.5L25.814,19.5C25.914,19.5 26.01,19.539 26.082,19.608C26.082,19.608 30.553,24.119 31.712,25.292C31.83,25.412 31.83,25.6 31.71,25.719C30.552,26.869 26.1,31.395 26.1,31.395Z" />
    </g>
</svg>
