<?xml version="1.0" encoding="UTF-8"?>
<!DOCTYPE svg PUBLIC "-//W3C//DTD SVG 1.1//EN" "http://www.w3.org/Graphics/SVG/1.1/DTD/svg11.dtd">
<svg version="1.1" id="Layer_1" xmlns="http://www.w3.org/2000/svg" xmlns:xlink="http://www.w3.org/1999/xlink" x="0px" y="0px" width="32px" height="32px" viewBox="0 0 32 32" enable-background="new 0 0 32 32" xml:space="preserve">
  <style type="text / css">
    .Red{fill:#CD4C32;}
    .Green{fill:#4EA17E;}
    .Blue{fill:#3E79B4;}
    .Yellow{fill:#EAB765;}
    .Black{fill:#797979;}
    .Gray{fill:#B4B4B5;}
    .White{fill:#FFFFFF;}
  </style>
  <g id="icon">
    <path fill="#3E79B4" class="Blue" d="M23.1317,8.1519c0,0,-5.9976,0.2908,-8.126,0.3871c-1.3156,0.0605,-2.0311,-1.064,-0.8705,-2.226c0.8918,-0.8907,1.2165,-1.1422,1.0642,-2.8054c-0.1745,-1.9046,-2.0787,-2.5237,-3.6414,-2.506c-1.6347,0.0195,-3.4241,0.8852,-3.9512,2.4556c-0.3466,1.0299,-0.3365,2.0681,0.5601,2.7293c0.4892,0.3613,1.5718,0.8942,0.3574,1.8691c-0.6553,0.5266,-7.2544,-0.0981,-7.2544,-0.0981s-0.2906,5.1392,-0.0838,6.7548c0.1182,0.9283,1.2665,1.3627,2.0189,0.3586c1.1605,-1.5474,4.7076,-0.0056,4.87,3.0322c0.1707,3.187,-3.5652,4.1619,-4.2904,2.9188c-0.6769,-1.1617,-2.6107,-1.4507,-2.6944,0.031c-0.1297,2.307,0.9495,9.1641,0.9495,9.1641s4.3375,1.0257,6.2924,0.7103c0.9081,-0.1482,1.325,-1.7168,0.4833,-2.4535c-0.7743,-0.6769,-0.7425,-4.6323,3.201,-4.4116c3.9435,0.2206,3.4073,3.4732,2.6028,3.9775c-0.7739,0.4834,-0.7854,2.4256,0.8229,2.8537c2.2007,0.5874,7.7156,-1.1514,7.7156,-1.1514s-0.5435,-5.4161,-0.2483,-7.1711c0.3153,-1.8792,2.4688,-0.7454,2.7379,-0.3864c1.7414,2.3223,5.353,1.0528,5.353,-2.8454c0,-5.6773,-5.1573,-4.7121,-5.6426,-3.3484c-0.5364,1.5018,-2.3116,1.1168,-2.5046,0.1941C22.3995,14.0292,23.1317,8.1519,23.1317,8.1519z" fill-rule="evenodd" />
  </g>
</svg>
