<?xml version="1.0" encoding="UTF-8"?>
<!DOCTYPE svg PUBLIC "-//W3C//DTD SVG 1.1//EN" "http://www.w3.org/Graphics/SVG/1.1/DTD/svg11.dtd">
<svg version="1.1" id="Layer_1" xmlns="http://www.w3.org/2000/svg" xmlns:xlink="http://www.w3.org/1999/xlink" x="0px" y="0px" width="32px" height="32px" viewBox="0 0 32 32" enable-background="new 0 0 32 32" xml:space="preserve">
  <style type="text / css">
    .Red{fill:#CD4C32;}
    .Green{fill:#4EA17E;}
    .Blue{fill:#3E79B4;}
    .Yellow{fill:#EAB765;}
    .Black{fill:#797979;}
    .Gray{fill:#B4B4B5;}
    .White{fill:#FFFFFF;}
  </style>
  <g id="icon">
    <path fill="#3E79B4" class="Blue" d="M25,25.3712V1.3022c-0.005,-0.1707,-0.128,-0.3022,-0.2937,-0.3022h-2.4c-0.1684,0,-0.3063,0.1378,-0.3063,0.3063V25.359l-5.7951,-5.8236c-0.0756,-0.0757,-0.2049,-0.0222,-0.2049,0.0848v3.7515c0,0.1275,0.0507,0.2497,0.1409,0.3398l7.1604,7.1702c0.1799,0.1592,0.2409,0.1592,0.4166,-0.0094l7.1411,-7.1674c0.0903,-0.0901,0.141,-0.2123,0.141,-0.3398v-3.7448c0,-0.1069,-0.1293,-0.1604,-0.2049,-0.0849L25,25.3712z" />
    <path fill="#4EA17E" class="Green" d="M7,6.5288v24.169c0.005,0.1707,0.128,0.3022,0.2937,0.3022h2.4c0.1684,0,0.3063,-0.1378,0.3063,-0.3063V6.541l5.7951,5.8236c0.0756,0.0757,0.2049,0.0222,0.2049,-0.0848V8.5282c0,-0.1275,-0.0507,-0.2497,-0.1409,-0.3398L8.6987,1.0183c-0.1799,-0.1593,-0.2409,-0.1593,-0.4166,0.0094L1.141,8.1951C1.0507,8.2852,1,8.4074,1,8.5349v3.7448c0,0.1069,0.1293,0.1604,0.2049,0.0849L7,6.5288z" />
  </g>
</svg>
