<?xml version="1.0" encoding="UTF-8" standalone="no"?>
<!DOCTYPE svg PUBLIC "-//W3C//DTD SVG 1.1//EN" "http://www.w3.org/Graphics/SVG/1.1/DTD/svg11.dtd">
<svg width="32" height="32" viewBox="0 0 32 32" version="1.1" xmlns="http://www.w3.org/2000/svg" xmlns:xlink="http://www.w3.org/1999/xlink" xml:space="preserve" xmlns:serif="http://www.serif.com/" >
  <style type="text / css">
    .Red{fill:#CD4C32;}
    .Green{fill:#4EA17E;}
    .Blue{fill:#3E79B4;}
    .Yellow{fill:#EAB765;}
    .Black{fill:#797979;}
    .Gray{fill:#B4B4B5;}
    .White{fill:#FFFFFF;}
  </style>
    <g id="icon">
        <path fill="#FFFFFF" class="White" d="M29.7,30.5L2.3,30.5C1.858,30.5 1.5,30.142 1.5,29.7L1.5,2.3C1.5,1.858 1.858,1.5 2.3,1.5L29.7,1.5C30.142,1.5 30.5,1.858 30.5,2.3L30.5,29.7C30.5,30.142 30.142,30.5 29.7,30.5Z" />
        <path fill="#797979" class="Black" d="M29.7,1C29.917,1 30.134,1.055 30.325,1.16C30.445,1.226 30.555,1.312 30.647,1.41C30.759,1.528 30.848,1.669 30.907,1.818C30.934,1.884 30.955,1.952 30.97,2.021C30.989,2.11 30.999,2.201 31,2.291C31,2.294 31,2.297 31,2.299C31.007,11.434 31.014,20.568 31,29.702C31,29.76 30.996,29.817 30.988,29.874C30.979,29.946 30.963,30.018 30.942,30.085C30.895,30.235 30.821,30.378 30.723,30.502C30.657,30.587 30.581,30.662 30.497,30.727C30.433,30.776 30.366,30.819 30.293,30.857C30.184,30.913 30.066,30.954 29.944,30.977C29.867,30.992 29.788,30.999 29.709,31C29.706,31 29.703,31 29.701,31C20.566,31.007 11.432,31.014 2.298,31C2.203,31 2.108,30.989 2.018,30.969C1.85,30.932 1.689,30.861 1.548,30.761C1.357,30.625 1.203,30.437 1.108,30.22C1.05,30.085 1.014,29.941 1.003,29.795C1.001,29.763 1,29.732 1,29.7C0.997,20.566 0.993,11.432 1,2.298C1,2.154 1.024,2.01 1.072,1.872C1.126,1.717 1.21,1.572 1.318,1.448C1.458,1.287 1.638,1.161 1.835,1.086C1.982,1.029 2.14,1 2.3,1C11.433,0.997 20.567,0.997 29.7,1ZM2.3,2C2.241,2 2.183,2.018 2.134,2.05C2.052,2.105 2,2.198 2,2.3C1.993,11.433 1.978,20.567 2,29.701C2,29.768 2.024,29.836 2.066,29.887C2.106,29.937 2.162,29.974 2.223,29.99C2.248,29.997 2.274,30 2.299,30C11.433,30.014 20.567,30.014 29.701,30C29.756,30 29.811,29.984 29.854,29.958C29.887,29.938 29.915,29.913 29.94,29.881C29.954,29.862 29.965,29.842 29.975,29.821C29.986,29.795 29.994,29.767 29.998,29.736C29.999,29.725 30,29.713 30,29.701C30.014,20.567 30.014,11.433 30,2.299C30,2.273 29.997,2.247 29.989,2.219C29.97,2.149 29.924,2.087 29.862,2.047C29.814,2.017 29.758,2 29.7,2C20.567,1.993 11.434,2 2.3,2Z" />
        <rect fill="#4EA17E" class="Green" x="4" y="4" width="8" height="8" />
        <rect fill="#EAB765" class="Yellow" x="12" y="4" width="8" height="8" />
        <rect fill="#CD4C32" class="Red" x="20" y="4" width="8" height="8" />
        <rect fill="#B4B4B5" class="Gray" x="20" y="12" width="8" height="8" />
        <rect fill="#3E79B4" class="Blue" x="12" y="12" width="8" height="8" />
        <rect fill="#797979" class="Black" x="4" y="12" width="8" height="8" />
        <rect fill="#CD4C32" class="Red" x="4" y="20" width="8" height="8" />
        <rect fill="#4EA17E" class="Green" x="12" y="20" width="8" height="8" />
        <rect fill="#EAB765" class="Yellow" x="20" y="20" width="8" height="8" />
    </g>
</svg>
