<?xml version="1.0" encoding="UTF-8"?>
<!DOCTYPE svg PUBLIC "-//W3C//DTD SVG 1.1//EN" "http://www.w3.org/Graphics/SVG/1.1/DTD/svg11.dtd">
<svg version="1.1" id="Layer_1" xmlns="http://www.w3.org/2000/svg" xmlns:xlink="http://www.w3.org/1999/xlink" x="0px" y="0px" width="32px" height="32px" viewBox="0 0 32 32" enable-background="new 0 0 32 32" xml:space="preserve">
  <style type="text / css">
    .Red{fill:#CD4C32;}
    .Green{fill:#4EA17E;}
    .Blue{fill:#3E79B4;}
    .Yellow{fill:#EAB765;}
    .Black{fill:#797979;}
    .Gray{fill:#B4B4B5;}
    .White{fill:#FFFFFF;}
  </style>
  <g id="main">
    <clipPath id="clip_mask">
      <path d="M22.2686,31.6885l-0.1849,-1.0527c-0.1368,-0.0502,-0.2677,-0.103,-0.394,-0.1592l-0.8457,0.5955c-0.2686,0.1892,-0.5843,0.2893,-0.9129,0.2893c-0.4244,0,-0.8231,-0.1654,-1.1228,-0.4657l-0.8355,-0.8371c-0.5467,-0.5479,-0.6192,-1.4041,-0.1725,-2.0359l0.6491,-0.9181c-0.0396,-0.0961,-0.0772,-0.1941,-0.1127,-0.2942l-1.0257,-0.1806c-0.7597,-0.1337,-1.311,-0.7905,-1.311,-1.5619v-1.1883c0,-0.7713,0.5514,-1.4282,1.311,-1.562l1.0979,-0.1931c0.0456,-0.1204,0.0931,-0.2359,0.1429,-0.3473l-0.6247,-0.8878c-0.4448,-0.6321,-0.3709,-1.4875,0.1756,-2.034l0.839,-0.8389c0.2995,-0.2995,0.6979,-0.4645,1.1216,-0.4645c0.3283,0,0.6438,0.0999,0.9124,0.2889l0.9791,0.6888c0.0727,-0.0302,0.1459,-0.059,0.2196,-0.0865l0.1964,-1.129c0.1325,-0.7615,0.7896,-1.3141,1.5625,-1.3141h1.1864c0.7728,0,1.4299,0.5526,1.5625,1.3141l0.2075,1.1927c0.0976,0.0393,0.1942,0.0809,0.2898,0.1247l0.9314,-0.6554c0.2685,-0.189,0.584,-0.2889,0.9123,-0.2889c0.4237,0,0.822,0.1649,1.1216,0.4645l0.839,0.8389c0.5465,0.5465,0.6203,1.4019,0.1757,2.034l-0.6963,0.9896c0.0293,0.0688,0.0574,0.1379,0.0844,0.2074l1.1384,0.198c0.1096,0.0191,0.2142,0.0501,0.3142,0.0897V0H0v32h22.3579C22.3186,31.9009,22.2877,31.7971,22.2686,31.6885z" fill-rule="evenodd"/>
    </clipPath>
    <g id="icon" clip-path="url(#clip_mask)">
      <g id="transformed_icon" transform="translate(-1 -1)">
        <path fill="#4EA17E" class="Green" d="M28.2,13H18V2.8c0,-0.4418,-0.3582,-0.8,-0.8,-0.8h-3.4c-0.4418,0,-0.8,0.3582,-0.8,0.8v10.2H2.8c-0.4418,0,-0.8,0.3582,-0.8,0.8v3.4c0,0.4418,0.3582,0.8,0.8,0.8h10.2v10.2c0,0.4418,0.3582,0.8,0.8,0.8h3.4c0.4418,0,0.8,-0.3582,0.8,-0.8V18h10.2c0.4418,0,0.8,-0.3582,0.8,-0.8v-3.4C29,13.3582,28.6418,13,28.2,13z" />
      </g>
    </g>
    <g id="overlay">
      <path fill="#797979" class="Black" d="M32,25.1684v-1.1862c0,-0.2849,-0.2049,-0.5284,-0.4855,-0.5773l-1.7273,-0.3005c-0.111,-0.4044,-0.2712,-0.8016,-0.4802,-1.1849l1.0345,-1.4702c0.1639,-0.233,0.1365,-0.5501,-0.0649,-0.7515l-0.8389,-0.8389c-0.2014,-0.2014,-0.5185,-0.2288,-0.7515,-0.0649l-1.4282,1.0049c-0.3951,-0.2322,-0.8161,-0.4135,-1.2529,-0.5414l-0.3083,-1.772c-0.0488,-0.2806,-0.2924,-0.4855,-0.5773,-0.4855h-1.1864c-0.2849,0,-0.5284,0.2049,-0.5773,0.4855l-0.3003,1.7262c-0.4096,0.107,-0.8125,0.2629,-1.2013,0.4699l-1.454,-1.023c-0.233,-0.1639,-0.5501,-0.1365,-0.7515,0.0649l-0.8389,0.8389c-0.2014,0.2014,-0.2288,0.5185,-0.0649,0.7515l0.9738,1.384c-0.2485,0.4108,-0.416,0.8511,-0.5502,1.3083l-1.6841,0.2963c-0.2801,0.0493,-0.4844,0.2926,-0.4844,0.5771v1.1883c0,0.2844,0.2043,0.5278,0.4844,0.5771l1.63,0.2869c0.1111,0.4348,0.265,0.8622,0.4886,1.2734l-0.9861,1.3947c-0.1646,0.2328,-0.1377,0.5503,0.0637,0.7522l0.8356,0.8373c0.2014,0.2018,0.5189,0.2294,0.7521,0.0652l1.3403,-0.9438c0.4257,0.2545,0.8815,0.4252,1.3557,0.5575l0.2893,1.6473c0.0492,0.2802,0.2926,0.4846,0.5771,0.4846h1.1882c0.2844,0,0.5278,-0.2043,0.5771,-0.4844l0.2871,-1.6311c0.4295,-0.1154,0.8514,-0.2731,1.257,-0.4989l1.4109,0.9975c0.2328,0.1646,0.5503,0.1377,0.7522,-0.0637l0.8373,-0.8356c0.2018,-0.2014,0.2294,-0.5189,0.0652,-0.7521l-0.9749,-1.3844c0.2382,-0.41,0.4225,-0.8465,0.5487,-1.3003l1.7351,-0.3013C31.795,25.697,32,25.4533,32,25.1684zM25.7239,26.7708c-1.2182,0.7033,-2.7759,0.2859,-3.4792,-0.9322c-0.7033,-1.2182,-0.2859,-2.7758,0.9322,-3.4792c1.2182,-0.7033,2.7758,-0.2859,3.4792,0.9322C27.3594,24.5098,26.942,26.0675,25.7239,26.7708z" fill-rule="evenodd" />
    </g>
  </g>
</svg>
