<?xml version="1.0" encoding="UTF-8" standalone="no"?>
<!DOCTYPE svg PUBLIC "-//W3C//DTD SVG 1.1//EN" "http://www.w3.org/Graphics/SVG/1.1/DTD/svg11.dtd">
<svg width="32" height="32" viewBox="0 0 32 32" version="1.1" xmlns="http://www.w3.org/2000/svg" xmlns:xlink="http://www.w3.org/1999/xlink" xml:space="preserve" xmlns:serif="http://www.serif.com/" >
  <style type="text / css">
    .Red{fill:#CD4C32;}
    .Green{fill:#4EA17E;}
    .Blue{fill:#3E79B4;}
    .Yellow{fill:#EAB765;}
    .Black{fill:#797979;}
    .Gray{fill:#B4B4B5;}
    .White{fill:#FFFFFF;}
  </style>
    <g id="main">
        <g id="transformed_icon" transform="matrix(1,0,0,1,-1,-1)">
            <clipPath id="_clip1">
                <path d="M21.926,33C19.519,31.6 17.9,28.988 17.9,26C17.9,21.527 21.527,17.9 26,17.9C28.988,17.9 31.6,19.519 33,21.926L33,1L1,1L1,33L21.926,33Z"/>
            </clipPath>
            <g clip-path="url(#_clip1)">
                <path fill="#FFFFFF" class="White" d="M30,29.5L2,29.5C1.724,29.5 1.5,29.276 1.5,29L1.5,6.5L30.5,6.5L30.5,29C30.5,29.276 30.276,29.5 30,29.5Z" />
                <path fill="#797979" class="Black" d="M31,6.5C31,14.001 31.009,21.501 31,29.002C31,29.046 30.997,29.089 30.991,29.133L30.991,29.133C30.98,29.214 30.96,29.292 30.929,29.371C30.903,29.435 30.871,29.496 30.833,29.553C30.81,29.588 30.785,29.621 30.758,29.653C30.748,29.664 30.737,29.676 30.727,29.687L30.727,29.687C30.715,29.699 30.703,29.711 30.691,29.723L30.69,29.723C30.633,29.778 30.568,29.827 30.504,29.864C30.442,29.9 30.377,29.929 30.311,29.951C30.246,29.972 30.18,29.986 30.109,29.994C30.074,29.998 30.038,30 30.002,30C20.667,30.011 11.333,30.011 1.998,30C1.916,30 1.834,29.99 1.755,29.97C1.644,29.942 1.536,29.893 1.44,29.829C1.286,29.725 1.164,29.579 1.088,29.41C1.032,29.286 1.002,29.152 1,29.016C1,29.011 1,29.006 1,29L1,29L1,6.5L1.5,6L30.5,6C30.667,6.167 30.833,6.333 31,6.5ZM30,29.001C30,29.001 30,29.002 30,29.001C30,29.001 30,29.001 30,29.001ZM30,29.001C30,29 30,29.001 30,29.001ZM29.999,29L29.999,29.001C29.999,29.001 30,29 29.999,29ZM30,29.001C30,29.001 30,29.001 30,29.001ZM30,29.001C30,29.001 30,29 30,29.001ZM29.999,29C29.999,29 29.998,29.001 29.999,29C29.999,29 29.999,29 29.999,29ZM29.999,29.001C29.999,29.001 29.999,29.001 29.999,29.001ZM29.999,29C29.999,29 29.998,29.001 29.999,29C29.999,29 29.999,29 29.999,29ZM30,29C30,29 29.999,29.001 30,29C30,29 30,29 30,29ZM30,29L30,29.001C30,29.001 30,29 30,29ZM29.999,29.001C29.999,29.001 29.999,29.001 29.999,29.001ZM2.001,29.001C2.001,29.001 2,29 2.001,29.001ZM29.999,29C29.999,29 29.998,29.001 29.999,29C29.999,29 29.999,29 29.999,29ZM29.999,29.001C29.999,29.001 29.999,29.001 29.999,29.001ZM30,29.001C30,29.001 30,29 30,29.001ZM29.999,29C29.999,29 29.999,29 29.999,29ZM2.001,29.001C2.001,29.001 2,29 2.001,29.001ZM29.999,29C29.999,29 29.999,29 29.999,29ZM30,29.001C30,29.001 30,29.001 30,29.001ZM2.001,29.001C2.001,29.001 2,29 2.001,29.001ZM30,29C30,29 29.998,29.001 30,29C30,29 30,29 30,29ZM29.999,29C29.999,29 29.999,29 29.999,29ZM2.001,29C2.001,29 2,29 2.001,29ZM30,29C30,29 30,29 30,29ZM30,29L29.999,29C29.999,29 30,29 30,29ZM2.001,29L2,29C2,29 2,29 2.001,29ZM30,29L29.999,29C29.999,29 30,29 30,29ZM30,29C30,29 30,29 30,29ZM29.999,29C29.999,29 29.999,29 29.999,29ZM30,29C30,29 30,29 30,29ZM30,29L30,29ZM30,29C30,29 30,29 30,29ZM30,29C30,29 30,29 30,29ZM30,29L30,29C30,29 30,29 30,29ZM2,29L2.001,29C2.001,29 2,29 2,29ZM30,29C29.999,29.001 30,29 30,29ZM30,29L30,29ZM29.999,29C29.999,29 30,29 29.999,29ZM2,29L2.001,29C2.001,29 2,29 2,29ZM30,29C30,29 30,29 30,29ZM30,29C30,29 30,29 30,29ZM30,29L30,29C30,29 30,29 30,29ZM2.001,29C2.001,29 2,29 2.001,29ZM30,29L30,29ZM30,29C30,29 30,29 30,29ZM30,29C30,29 30,29 30,29ZM30,29C30,29 30,29 30,29ZM30,29L30,29C30,29 30,29 30,29ZM2,29C2,29 2,29 2,29ZM30,29L30,29ZM29.999,29C29.999,29 29.999,29 29.999,29ZM30,29L30,29ZM30,29C30,29 30,29 30,29ZM30,29C30,29 30,29 30,29ZM29.999,29C30,29 30,29 29.999,29ZM30,29C30,29 30,29 30,29ZM30,29C30,29 30,29 30,29ZM30,29C30,29 30,29 30,29ZM2,29C2,29 2,29 2,29ZM30,29C30,29 30,29 30,29ZM30,29C29.999,29 30,29 30,29ZM30,29C30,29 30,29 30,29ZM30,29C30,29 30,29 30,29ZM30,29C30,29 30,29 30,29ZM2,29C2,29 2,29 2,29ZM30,29C30,29 29.999,29.001 30,29C30,29 30,29 30,29ZM30,29C30,29 30,29 30,29ZM30,29C30,29 30,29 30,29ZM2,29L2.001,29C2,29 2,29 2,29ZM30,29C30,29 30,29 30,29ZM30,29C30,29 30,29 30,29ZM30,29C30,29 30,29 30,29ZM2,29C2,29 2,29 2,29ZM30,29L30,29ZM30,29C30,29 30,29 30,29ZM30,29C30,29 30,29 30,29ZM30,29C30,29 30,29 30,29ZM30,29C30,29 30,29 30,29ZM30,29C30,29 30,29 30,29ZM30,29C30,29 30,29 30,29ZM30,29C30,29 30,29 30,29ZM30,29C30,29 30,29 30,29ZM2,29C2,29 2,29 2,29ZM30,29C30,29 30,29 30,29ZM2,29C2,29 2,29 2,29ZM2,29C2,29 2,29 2,29ZM2,29C2,29 2,29 2,29ZM30,29C30,29 30,29 30,29ZM30,29L30,29ZM30,29C30,29 30,29 30,29ZM30,29C30,29 30,29 30,29ZM30,29C30,29 30,29 30,29ZM2,29C2,29 2,29 2,29ZM30,29C30,29 30,29 30,29ZM2,29C2,29 2,29 2,29ZM30,29C30,29 30,29 30,29ZM30,29C30,29 30,29 30,29ZM30,29C30,29 30,29 30,29ZM2,29C2,29 2,29 2,29ZM30,29C30,29 30,29 30,29ZM30,29C30,29 30,29 30,29ZM30,29C30,29 30,29 30,29ZM30,29C30,29 30,29 30,29ZM30,29C30,29 30,29 30,29ZM2,29C2,29 2,29 2,29ZM30,29C30,29 30,29 30,29ZM2,29C2,29 2,29 2,29ZM30,29C30,29 30,29 30,29ZM30,29C30,29 30,29 30,29ZM30,29C30,29 30,29 30,29ZM30,29C30,29 30,29 30,29ZM2,29C2,29 2,29 2,29ZM30,29C30,29 30,29 30,29ZM2,29C2,29 2,29 2,29ZM30,29C30,29 30,29 30,29ZM2,29C2,29 2,29 2,29ZM30,29C30,29 30,29 30,29ZM2,29C2,29 2,29 2,29ZM2,29C2,29 2,29 2,29ZM2,29C2,29 2,29 2,29ZM30,29C30,29 30,29 30,29ZM2,29C2,29 2,29 2,29ZM2,29C2,29 2,29 2,29ZM30,29C30,29 30,29 30,29ZM2,29C2,29 2,29 2,29ZM30,29C30,29 30,29 30,29ZM30,29C30,29 30,29 30,29ZM2,29C2,29 2,29 2,29ZM30,29C30,29 30,29 30,29ZM2,29C2,29 2,29 2,29ZM2,29C2,29 2,29 2,29ZM30,29C30,29 30,29 30,29ZM30,29L30,29ZM30,29C30,29 30,29 30,29ZM30,29C30,29 30,29 30,29ZM30,29C30,29 30,29 30,29ZM30,29C30,29 30,29 30,29ZM2,29C2,29 2,29 2,29ZM30,29C30,29 30,29 30,29ZM30,29C30,29 30,29 30,29ZM30,29C30,29 30,29 30,29ZM30,29C30,29 30,29 30,29ZM30,29C30,29 30,29 30,29ZM30,29C30,29 30,29 30,29ZM2,29C2,29 2,29 2,29ZM30,29M30,29C30,29 30,29 30,29ZM30,29M30,29C30,29 30,29 30,29ZM30,29C30,29 30,29 30,29ZM30,29C30,29 30,29 30,29ZM30,29M30,29C30,29 30,29 30,29ZM30,29C30,29 30,29 30,29ZM30,29C30,29 30,29 30,29ZM2,29C2,29 2,29 2,29ZM2,29C2,29 2,29 2,29ZM2,29C2,29 2,29 2,29ZM30,29C30,29 30,29 30,29ZM30,29C30,29 30,29 30,29ZM2,29C2,29 2,29 2,29ZM2,29C2,29 2,29 2,29ZM2,29C2,29 2,29 2,29ZM2,29C2,29 2,29 2,29ZM2,29C2,29 2,29 2,29ZM30,29C30,29 30,29 30,29ZM30,29C30,29 30,29 30,29ZM30,29C30,29 30,29 30,29ZM30,29M30,29C30,29 30,29 30,29ZM2,29C2,29 2,29 2,29ZM2,29C2,29 2,29 2,29ZM2,29C2,29 2,29 2,29ZM30,29C30,29 30,29 30,29ZM30,29C30,29 30,29 30,29ZM2,29C2,29 2,29 2,29ZM30,29C30,29 30,29 30,29ZM30,29C30,29 30,29 30,29ZM2,29C2,29 2,29 2,29ZM2,29C2,29 2,29 2,29ZM30,29L30,29ZM30,29C30,29 30,29 30,29ZM30,29C30,29 30,29 30,29ZM2,29C2,29 2,29 2,29ZM2,29C2,29 2,29 2,29ZM2,29C2,29 2,29 2,29ZM2,29C2,29 2,29 2,29ZM30,29C30,29 30,29 30,29ZM2,29C2,29 2,29 2,29ZM2,29C2,29 2,29 2,29ZM30,29C30,29 30,29 30,29ZM30,29C30,29 30,29 30,29ZM30,29C30,29 30,29 30,29ZM2,29C2,29 2,29 2,29ZM2,29C2,29 2,29 2,29ZM30,29C30,29 30,29 30,29ZM30,29C30,29 30,29 30,29ZM2,29C2,29 2,29 2,29ZM2,29C2,29 2,29 2,29ZM30,29C30,29 30,29 30,29ZM30,29C30,29 30,29 30,29ZM2,29C2,29 2,29 2,29ZM30,29C30,29 30,29 30,29ZM2,29C2,29 2,29 2,29ZM30,29C30,29 30,29 30,29ZM30,29C30,29 30,29 30,29ZM30,29C30,29 30,29 30,29ZM2,29C2,29 2,29 2,29ZM2,29C2,29 2,29 2,29ZM30,29C30,29 30,29 30,29ZM2,29C2,29 2,29 2,29ZM30,29C30,29 30,29 30,29ZM2,29C2,29 2,29 2,29ZM30,29C30,29 30,29 30,29ZM30,29C30,29 30,29 30,29ZM30,29C30,29 30,29 30,29ZM2,29C2,29 2,29 2,29ZM2,29C2,29 2,29 2,29ZM30,29C30,29 30,29 30,29ZM2,29C2,29 2,29 2,29ZM30,29C30,29 30,29 30,29ZM30,29C30,29 30,29 30,29ZM2,29C2,29 2,29 2,29ZM30,29C30,29 30,29 30,29ZM30,29C30,29 30,29 30,29ZM30,29C30,29 30,29 30,29ZM30,29C30,29 30,29 30,29ZM2,29C2,29 2,29 2,29ZM30,29C30,29 30,29 30,29ZM30,29C30,29 30,29 30,29ZM30,29M2,29C2,29 2,29 2,29ZM30,29C30,29 30,29 30,29ZM30,29M30,29C30,29 30,29 30,29ZM30,29C30,29 30,29 30,29ZM30,29C30,29 30,29 30,29ZM30,29C30,29 30,29 30,29ZM30,29C30,29 30,29 30,29ZM2,29C2,29 2,29 2,29ZM30,29L30,29ZM2,29C2,29 2,29 2,29ZM30,29C30,29 30,29 30,29ZM30,29C30,29 30,29 30,29ZM30,29C30,29 30,29 30,29ZM30,29C30,29 30,29 30,29ZM2,29C2,29 2,29 2,29ZM2,29C2,29 2,29 2,29ZM30,29C30,29 30,29 30,29ZM30,29C30,29 30,29 30,29ZM30,29L30,29ZM30,29C30,29 30,29 30,29ZM30,29C30,29 30,29 30,29ZM2,29L2,29C2,29 2,29 2,29ZM30,29M30,29C30,29 30,29 30,29ZM2,29C2,29 2,29 2,29ZM30,29C30,29 30,29 30,29ZM2,29C2,29 2,29 2,29ZM30,29C30,29 30,29 30,29ZM2,29C2,29 2,29 2,29ZM30,29C30,29 30,29 30,29ZM2,29C2,29 2,29 2,29ZM30,29C30,29 30,29 30,29ZM2,29C2,29 2,29 2,29ZM30,29C30,29 30,29 30,29ZM2,29C2,29 2,29 2,29ZM30,29C30,29 30,29 30,29ZM30,29C30,29 30,29 30,29ZM2,29C2,29 2,29 2,29ZM2,29C2,29 2,29 2,29ZM2,29C2,29 2,29 2,29ZM30,29C30,29 30,29 30,29ZM30,29C30,29 30,29 30,29ZM2,29C2,29 2,29 2,29ZM30,29L30,29ZM30,29C30,29 30,29 30,29ZM30,29C30,29 30,29 30,29ZM30,29C30,29 30,29 30,29ZM2,29C2,29 2,29 2,29ZM30,29C30,29 30,29 30,29ZM2,29C2,29 2,29 2,29ZM30,29C30,29 30,29 30,29ZM30,29C30,29 30,29 30,29ZM30,29M30,29C30,29 30,29 30,29ZM30,29C30,29 30,29 30,29ZM2,29C2,29 2,29 2,29ZM30,29C30,29 30,29 30,29ZM2,29C2,29 2,29 2,29ZM30,29C30,29 30,29 30,29ZM30,29C30,29 30,29 30,29ZM2,29C2,29 2,29 2,29ZM30,29C30,29 30,29 30,29ZM30,29C30,29 30,29 30,29ZM30,29C30,29 30,29 30,29ZM2,29C2,29 2,29 2,29ZM30,29C30,29 30,29 30,29ZM2,29C2,29 2,29 2,29ZM30,29C30,29 30,29 30,29ZM30,29C30,29 30,29 30,29ZM30,29M30,29C30,29 30,29 30,29ZM2,29C2,29 2,29 2,29ZM30,29C30,29 30,29 30,29ZM2,29C2,29 2,29 2,29ZM30,29C30,29 30,29 30,29ZM30,29C30,29 30,29 30,29ZM2,29C2,29 2,29 2,29ZM2,29C2,29 2,29 2,29ZM30,29C30,29 30,29 30,29ZM30,29C30,29 30,29 30,29ZM2,29C2,29 2,29 2,29ZM30,29L30,29ZM30,29L30,29ZM30,29C30,29 30,29 30,29ZM30,29C30,29 30,29 30,29ZM2,29C2,29 2,29 2,29ZM2,29C2,29 2,29 2,29ZM30,29C30,29 30,29 30,29ZM30,29C30,29 30,29 30,29ZM30,29C30,29 30,29 30,29ZM2,29C2,29 2,29 2,29ZM2,29C2,29 2,29 2,29ZM30,29C30,29 30,29 30,29ZM30,29C30,29 30,29 30,29ZM30,29C30,29 30,29 30,29ZM30,29C30,29 30,29 30,29ZM30,29C30,29 30,29 30,29ZM30,29C30,29 30,29 30,29ZM2,29C2,29 2,29 2,29ZM30,29C30,29 30,29 30,29ZM2,29C2,29 2,29 2,29ZM30,29C30,29 30,29 30,29ZM30,29C30,29 30,29 30,29ZM30,29C30,29 30,29 30,29ZM30,29C30,29 30,29 30,29ZM30,29C30,29 30,29 30,29ZM2,29C2,29 2,29 2,29ZM30,29C30,29 30,29 30,29ZM30,29C30,29 30,29 30,29ZM2,29C2,29 2,29 2,29ZM30,29C30,29 30,29 30,29ZM30,29C30,29 30,29 30,29ZM30,29C30,29 30,29 30,29ZM30,29C30,29 30,29 30,29ZM2,29C2,29 2,29 2,29ZM30,29C30,29 30,29 30,29ZM2,29C2,29 2,29 2,29ZM30,29M30,29C30,29 30,29 30,29ZM30,29C30,29 30,29 30,29ZM2,29C2,29 2,29 2,29ZM30,29C30,29 30,29 30,29ZM2,29C2,29 2,29 2,29ZM30,29C30,29 30,29 30,29ZM30,29C30,29 30,29 30,29ZM30,29C30,29 30,29 30,29ZM30,29C30,29 30,29 30,29ZM30,29C30,29 30,29 30,29ZM30,29C30,29 30,29 30,29ZM30,29C30,29 30,29 30,29ZM30,29C30,29 30,29 30,29ZM30,29C30,29 30,29 30,29ZM30,29C30,29 30,29 30,29ZM30,29C30,29 30,29 30,29ZM30,29M2,29L2,29C2,29 2,29 2,29ZM2,29L2,29C2,29 2,29 2,29ZM2,29C2,29 2,29 2,29ZM2,29L2,29C2,29 2,29 2,29ZM2,7C2,14.333 1.994,21.667 2,29L2,29L30,29C30,29 30,29 30,29L30,7C20.667,7 11.333,7 2,7ZM30,29C30,29 30,29 30,29ZM30,29L30,29ZM30,29C30,29 30,29 30,29ZM30,29C30,29 30,29 30,29ZM30,29C30,29 30,29 30,29ZM30,29C30,29 30,29 30,29ZM30,29C30,29 30,29 30,29ZM30,29C30,29 30,29 30,29ZM30,29C30,29 30,29 30,29ZM30,29C30,29 30,29 30,29ZM30,29C30,29 30,29 30,29ZM30,29C30,29 30,29 30,29ZM30,29C30,29 30,29 30,29ZM30,29C30,29 30,29 30,29ZM2,29C2,29 2,29 2,29ZM30,29C30,29 30,29 30,29ZM30,29C30,29 30,29 30,29ZM2,29C2,29 2,29 2,29ZM30,29C30,29 30,29 30,29ZM30,29C30,29 30,29 30,29ZM30,29L30,29ZM30,29C30,29 30,29 30,29ZM2,29C2,29 2,29 2,29ZM30,29C30,29 30,29 30,29ZM30,29C30,29 30,29 30,29ZM30,29C30,29 30,29 30,29ZM30,29C30,29 30,29 30,29ZM30,29C30,29 30,29 30,29ZM30,29C30,29 30,29 30,29ZM30,29C30,29 30,29 30,29ZM30.001,29C30.001,29 30.001,29 30.001,29ZM30,29C30,29 30,29 30,29ZM30,29C30,29 30,29 30,29ZM30,29C30,29 30.001,29 30,29ZM30,29C30,29 30,29 30,29ZM30,29C30,29 30.001,29 30,29ZM2,29C2,29 2,29 2,29ZM30,29C30,29 30,29 30,29ZM30,29C30,29 30,29 30,29ZM30,29C30,29 30,29 30,29ZM30,29C30,29 30,29 30,29ZM30,29C30,29 30,29 30,29ZM30,29C30,29 30,29 30,29ZM30,29C30,29 30,29 30,29ZM30.001,29C30.001,29 30.001,29 30.001,29ZM1.999,29L1.999,29C1.999,29 1.999,29 1.999,29ZM2,29C2,29 2,29 2,29ZM1.999,29C1.999,29 1.999,29 1.999,29ZM30,29C30,29 30,29 30,29ZM30,29C30,29 30,29 30,29ZM30.001,29C30.001,29 30.001,29 30.001,29ZM30,29C30,29 30,29 30,29ZM30,29L30,29ZM30,29L30,29ZM1.999,29C1.999,29 1.999,29 1.999,29ZM30.001,29C30.001,29 30.001,29 30.001,29ZM30,29C30,29 30,29 30,29ZM30,29C30,29 30,29 30,29ZM30,29C30,29 30,29 30,29ZM30,29C30,29 30,29 30,29ZM30,29C30,29 30,29 30,29ZM30,29C30,29 30,29 30,29ZM30,29C30,29 30,29 30,29ZM30,29C30,29 30,29 30,29ZM30,29C30,29 30,29 30,29ZM30,29C30,29 30,29 30,29ZM30,29C30,29 30,29 30,29ZM30.001,29C30.001,29 30.001,29 30.001,29ZM30,29C30,29 30,29 30,29ZM30,29C30,29 30,29 30,29ZM30,29M30,29L30,29ZM30,29C30,29 30,29 30,29ZM30,29C30,29 30,29 30,29ZM30,29C30,29 30,29 30,29ZM30,29M30,29M30,29C30,29 30,29 30,29ZM30,29C30,29 30,28.999 30,29ZM30,29C30,29 30,29 30,29ZM30,29C30,29 30,29 30,29ZM30,29C30,29 30,29 30,29ZM30,29C30,29 30,29 30,29ZM30,29C30,29 30,29 30,29ZM30,29C30,29 30,29 30,29ZM30,29C30,29 30,29 30,29ZM30,29C30,29 30,29 30,29ZM30,29C30,29 30,29 30,29ZM30,29C30,29 30.001,29 30,29ZM30,29C30,29 30,29 30,29ZM30,29C30,29 30,29 30,29ZM30,29C30,29 30,29 30,29ZM30,29C30,29 30,29 30,29ZM30,29C30,29 30,29 30,29ZM30,29C30,29 30,29 30,29ZM30,29C30,29 30,29 30,29ZM30,29C30,29 30,29 30,29ZM30,29L30,29ZM30,29C30,29 30,29 30,29ZM30,29C30,29 30,29 30,29ZM30,29C30,29 30,29 30,29ZM30,29C30,29 30,29 30,29ZM30,29C30,29 30,29 30,29ZM30,29C30,29 30,29 30,29ZM30,29L30,29ZM30,29C30,29 30,29 30,29ZM2,29C2,29 2,29 2,29ZM30,29C30,29 30,29 30,29ZM30,29C30,29 30,29 30,29ZM30,29C30,29 30,29 30,29ZM30,29C30,29 30,29 30,29ZM30,29C30,29 30,29 30,29ZM30,29C30,29 30,29 30,29ZM30,29C30,29 30,29 30,29ZM30,29C30,29 30,29 30,29ZM30,29C30,29 30,29 30,29ZM30,29C30,29 30,29 30,29ZM30,29C30,29 30,29 30,29ZM30,29C30,29 30,29 30,29ZM30,29L30,29ZM30,29C30,29 30,29 30,29ZM30,29C30,29 30,29 30,29ZM30,29C30,29 30,29 30,29ZM30,29L30,29ZM30,29C30,29 30,29 30,29ZM2,29C2,29 2,29 2,29ZM30,29C30,29 30,29 30,29ZM30,29C30,29 30,29 30,29ZM30,29C30,29 30,29 30,29ZM30,29C30,29 30.001,28.999 30,29ZM30,29C30,29 30,29 30,29ZM30,29C30,29 30,29 30,29ZM30,29C30,29 30,29 30,29ZM30,29C30,29 30,29 30,29ZM30,29C30,29 30,29 30,29ZM30,29C30,29 30,29 30,29ZM30,29C30,29 30,29 30,29ZM30,29C30,29 30,29 30,29ZM30,29C30,29 30,29 30,29ZM30,29C30,29 30,29 30,29ZM30,29C30,29 30,29 30,29ZM30,29C30,29 30,29 30,29ZM30,29L30,29ZM30,29C30,29 30,29 30,29ZM2,29C2,29 2,29 2,29ZM30,29C30,29 30,29 30,29ZM30,29C30,29 30,29 30,29ZM30,29C30,29 30,29 30,29ZM30,29C30,29 30,29 30,29ZM30,29C30,29 30,29 30,29ZM30,29C30,29 30,29 30,29ZM30,29C30,29 30,29 30,29ZM30,29C30,29 30,29 30,29ZM30,29C30,29 30,29 30,29ZM30,29C30,29 30,28.999 30,29ZM30,29C30,29 30,29 30,29ZM30,29C30,29 30,29 30,29ZM30,29C30,29 30,29 30,29ZM30,29C30,29 30,29 30,29ZM30,29C30,29 30,29 30,29ZM30,29C30,29 30,29 30,29ZM30,29C30,29 30,29 30,29ZM30,29C30,29 30.001,28.999 30,29ZM30,29C30,29 30,29 30,29ZM30,29C30,29 30,29 30,29ZM30,29C30,29 30,29 30,29ZM30,29C30,29 30,29 30,29ZM30,29C30,29 30,29 30,29ZM30,29C30,29 30,29 30,29ZM30,29C30,29 30,29 30,29ZM30,29C30,29 30,29 30,29ZM30,29C30,29 30,29 30,29ZM30,29C30,29 30,29 30,29ZM30,29C30,29 30,29 30,29ZM2,29C2,29 2,29 2,29L2,29C2,29 2,29 2,29ZM30,29L30,29ZM30,29C30,29 30,29 30,29ZM30,29C30,29 30,29 30,29ZM30,29C30,29 30,29 30,29ZM30,29C30,29 30,29 30,29ZM30,29L30,29ZM30,29M30,29C30,29 30,29 30,29ZM30,29C30,29 30,29 30,29ZM30,29L30,29ZM30,29C30,29 30,29 30,29ZM30,29M30,29C30,29 30,29 30,29ZM30,29C30,29 30,29 30,29ZM30,29C30,29 30,29 30,29ZM30,29C30,29 30,29 30,29ZM30,29C30,29 30,29 30,29ZM30,29M30,29C30,29 30,29 30,29ZM30,29C30,29 30,29 30,29ZM30,29C30,29 30,29 30,29ZM30,29C30,29 30,29 30,29ZM30,29C30,29 30,29 30,29ZM30,29C30,29 30,29 30,29ZM30,29C30,29 30,29 30,29ZM30,29C30,29 30,29 30,29ZM30,29C30,29 30,29 30,29ZM30,29C30,29 30,29 30,29ZM30,29C30,29 30,29 30,29ZM30,29C30,29 30.001,28.999 30,29ZM30,29C30,29 30,29 30,29ZM30,29C30,29 30,29 30,29ZM30,29C30,29 30,29 30,29ZM30,29C30,29 30,29 30,29ZM30,29C30,29 30,29 30,29ZM30,29C30,29 30,29 30,29ZM30,29C30,29 30,29 30,29ZM30,29C30,29 30,29 30,29ZM30,29C30,29 30,29 30,29ZM30,29C30,29 30,29 30,29ZM30,29C30,29 30,29 30,29ZM30,29C30,29 30,29 30,29ZM30,29C30,29 30,29 30,29ZM30,29C30,29 30,29 30,29ZM30,29C30,29 30,29 30,29ZM30,29C30,29 30,29 30,29ZM30,29C30,29 30,29 30,29ZM30,29C30,29 30.001,28.999 30,29ZM30,29C30,29 30,28.999 30,29ZM30,29C30,29 30.001,28.999 30,29ZM30,29C30,29 30,29 30,29ZM30,29C30,29 30,29 30,29ZM30,29C30,29 30,29 30,29ZM30,29C30,29 30.001,28.999 30,29ZM30,29C30,29 30,29 30,29ZM30,29C30,29 30.001,28.999 30,29ZM2,29C2,29 1.999,28.999 2,29ZM30,29C30,29 30,28.999 30,29ZM2,29C2,29 2,29 2,29ZM30,29C30,29 30,29 30,29ZM30,28.999C30,28.999 30.001,28.999 30.001,28.999C30.001,28.999 30.001,28.999 30,28.999ZM2,29C2,29 2,28.999 2,29ZM2,29C2,29 2,29 2,29ZM30,29C30,29 30.001,28.999 30,29ZM30,29C30,29 30,28.999 30,29ZM30,29C30,29 30.001,28.999 30,29ZM30,28.999C30,28.999 30.001,28.999 30,28.999ZM30,28.999C30,28.999 30.001,28.999 30,28.999ZM30,28.999C30,28.999 30.001,28.998 30,28.999ZM30,28.999C30,28.999 30.001,28.998 30,28.999ZM30,28.999C30,28.999 30.001,28.999 30,28.999ZM30,28.999C30,28.999 30,28.999 30,28.999ZM30.001,28.999C30.001,28.999 30.001,28.999 30.001,28.999ZM30,28.999C30,28.999 30.001,28.999 30,28.999ZM30,28.999C30,28.999 30.001,28.999 30,28.999ZM30.001,28.999C30.001,28.999 30.001,28.999 30.001,28.999ZM30.001,28.999C30.001,28.999 30.001,28.999 30.001,28.999Z" />
                <path fill="#4EA17E" class="Green" d="M31,7L1,7L1,3.4C1,2.627 1.627,2 2.4,2L29.6,2C30.373,2 31,2.627 31,3.4L31,7Z" />
                <path fill="#797979" class="Black" fill-opacity="0.5" d="M26.522,25C26.529,25.001 26.537,25.001 26.544,25.002C26.676,25.014 26.802,25.08 26.887,25.183C26.971,25.286 27.012,25.423 26.997,25.555C26.986,25.651 26.948,25.743 26.887,25.817C26.826,25.891 26.744,25.947 26.652,25.976C26.61,25.99 26.566,25.998 26.522,26C26.515,26 26.507,26 26.5,26L19.5,26C19.493,26 19.485,26 19.478,26C19.346,25.994 19.217,25.933 19.127,25.833C19.029,25.724 18.983,25.572 19.006,25.423C19.025,25.299 19.093,25.184 19.192,25.106C19.273,25.043 19.374,25.005 19.478,25C19.485,25 19.493,25 19.5,25L26.5,25C26.507,25 26.515,25 26.522,25ZM17.522,25C17.529,25.001 17.537,25.001 17.544,25.002C17.647,25.011 17.747,25.053 17.825,25.12C17.909,25.192 17.968,25.293 17.99,25.401C18.019,25.545 17.982,25.7 17.887,25.817C17.826,25.891 17.744,25.947 17.652,25.976C17.61,25.99 17.566,25.998 17.522,26C17.515,26 17.507,26 17.5,26L13.5,26C13.493,26 13.485,26 13.478,26C13.346,25.994 13.217,25.933 13.127,25.833C13.054,25.751 13.008,25.644 13.001,25.533C12.992,25.401 13.038,25.266 13.127,25.167C13.216,25.068 13.345,25.006 13.478,25C13.485,25 13.493,25 13.5,25L17.5,25C17.507,25 17.515,25 17.522,25ZM11.522,25C11.529,25.001 11.537,25.001 11.544,25.002C11.654,25.012 11.761,25.059 11.842,25.135C11.933,25.22 11.991,25.341 11.999,25.467C12.006,25.57 11.98,25.675 11.925,25.763C11.863,25.863 11.765,25.94 11.652,25.976C11.61,25.99 11.566,25.998 11.522,26C11.515,26 11.507,26 11.5,26L8.5,26C8.493,26 8.485,26 8.478,26C8.345,25.994 8.217,25.933 8.127,25.833C8.044,25.74 7.997,25.615 8,25.489C8.002,25.386 8.037,25.284 8.099,25.201C8.161,25.118 8.249,25.055 8.348,25.024C8.39,25.01 8.434,25.002 8.478,25C8.485,25 8.493,25 8.5,25L11.5,25C11.507,25 11.515,25 11.522,25ZM6.522,25C6.529,25.001 6.537,25.001 6.544,25.002C6.669,25.013 6.788,25.073 6.873,25.167C6.946,25.249 6.992,25.356 6.999,25.467C7.006,25.57 6.98,25.675 6.925,25.763C6.863,25.863 6.765,25.94 6.652,25.976C6.61,25.99 6.566,25.998 6.522,26C6.515,26 6.507,26 6.5,26L5.5,26C5.493,26 5.485,26 5.478,26C5.353,25.994 5.23,25.939 5.143,25.85C5.065,25.771 5.015,25.666 5.003,25.555C4.991,25.445 5.017,25.331 5.075,25.237C5.125,25.156 5.199,25.089 5.286,25.048C5.346,25.02 5.411,25.003 5.478,25C5.485,25 5.493,25 5.5,25L6.5,25C6.507,25 6.515,25 6.522,25ZM26.522,23C26.529,23.001 26.537,23.001 26.544,23.002C26.662,23.012 26.775,23.066 26.857,23.15C26.94,23.235 26.991,23.349 26.999,23.467C27.006,23.57 26.98,23.675 26.925,23.763C26.863,23.863 26.765,23.94 26.652,23.976C26.61,23.99 26.566,23.998 26.522,24C26.515,24 26.507,24 26.5,24L19.5,24C19.493,24 19.485,24 19.478,24C19.346,23.994 19.217,23.933 19.127,23.833C19.044,23.74 18.997,23.615 19,23.489C19.003,23.364 19.055,23.24 19.143,23.15C19.23,23.061 19.352,23.006 19.478,23C19.485,23 19.493,23 19.5,23L26.5,23C26.507,23 26.515,23 26.522,23ZM6.522,23C6.529,23.001 6.537,23.001 6.544,23.002C6.669,23.013 6.788,23.072 6.873,23.167C6.946,23.249 6.992,23.356 6.999,23.467C7.006,23.57 6.98,23.675 6.925,23.763C6.863,23.863 6.765,23.94 6.652,23.976C6.61,23.99 6.566,23.998 6.522,24C6.515,24 6.507,24 6.5,24L5.5,24C5.493,24 5.485,24 5.478,24C5.375,23.995 5.274,23.958 5.192,23.894C5.093,23.817 5.025,23.702 5.006,23.577C4.989,23.468 5.009,23.353 5.063,23.256C5.11,23.173 5.181,23.103 5.266,23.058C5.331,23.024 5.404,23.004 5.478,23C5.485,23 5.493,23 5.5,23L6.5,23C6.507,23 6.515,23 6.522,23ZM11.522,23C11.529,23.001 11.537,23.001 11.544,23.002C11.654,23.012 11.761,23.059 11.842,23.135C11.933,23.221 11.991,23.341 11.999,23.467C12.006,23.57 11.98,23.675 11.925,23.763C11.863,23.863 11.765,23.94 11.652,23.976C11.61,23.99 11.566,23.998 11.522,24C11.515,24 11.507,24 11.5,24L8.5,24C8.493,24 8.485,24 8.478,24C8.375,23.995 8.274,23.958 8.192,23.894C8.099,23.821 8.033,23.715 8.01,23.599C7.988,23.49 8.003,23.375 8.053,23.276C8.099,23.184 8.175,23.106 8.266,23.058C8.331,23.024 8.404,23.004 8.478,23C8.485,23 8.493,23 8.5,23L11.5,23C11.507,23 11.515,23 11.522,23ZM17.522,23C17.529,23.001 17.537,23.001 17.544,23.002C17.669,23.013 17.788,23.072 17.873,23.167C17.946,23.249 17.992,23.356 17.999,23.467C18.006,23.57 17.98,23.675 17.925,23.763C17.875,23.844 17.801,23.911 17.714,23.952C17.654,23.98 17.589,23.997 17.522,24C17.515,24 17.507,24 17.5,24L13.5,24C13.493,24 13.485,24 13.478,24C13.346,23.994 13.217,23.933 13.127,23.833C13.044,23.74 12.997,23.615 13,23.489C13.003,23.364 13.055,23.24 13.143,23.15C13.23,23.061 13.352,23.006 13.478,23C13.485,23 13.493,23 13.5,23L17.5,23C17.507,23 17.515,23 17.522,23ZM26.522,21C26.529,21.001 26.537,21.001 26.544,21.002C26.676,21.014 26.802,21.08 26.887,21.183C26.966,21.28 27.007,21.408 26.999,21.533C26.991,21.651 26.94,21.765 26.857,21.85C26.77,21.939 26.648,21.994 26.522,22C26.515,22 26.507,22 26.5,22L19.5,22C19.493,22 19.485,22 19.478,22C19.346,21.994 19.217,21.933 19.127,21.833C19.044,21.74 18.997,21.615 19,21.489C19.003,21.364 19.055,21.24 19.143,21.15C19.23,21.061 19.352,21.006 19.478,21C19.485,21 19.493,21 19.5,21L26.5,21C26.507,21 26.515,21 26.522,21ZM17.522,21C17.529,21.001 17.537,21.001 17.544,21.002C17.647,21.011 17.747,21.053 17.825,21.12C17.92,21.202 17.983,21.319 17.997,21.445C18.011,21.569 17.976,21.699 17.901,21.799C17.839,21.882 17.751,21.945 17.652,21.976C17.61,21.99 17.566,21.998 17.522,22C17.515,22 17.507,22 17.5,22L13.5,22C13.493,22 13.485,22 13.478,22C13.367,21.995 13.259,21.952 13.175,21.88C13.091,21.808 13.032,21.708 13.01,21.599C12.991,21.505 13,21.405 13.035,21.316C13.073,21.22 13.141,21.137 13.228,21.08C13.302,21.032 13.389,21.004 13.478,21C13.485,21 13.493,21 13.5,21L17.5,21C17.507,21 17.515,21 17.522,21ZM6.522,21C6.529,21.001 6.537,21.001 6.544,21.002C6.669,21.013 6.788,21.073 6.873,21.167C6.946,21.249 6.992,21.356 6.999,21.467C7.006,21.57 6.98,21.675 6.925,21.763C6.863,21.863 6.765,21.94 6.652,21.976C6.61,21.99 6.566,21.998 6.522,22C6.515,22 6.507,22 6.5,22L5.5,22C5.493,22 5.485,22 5.478,22C5.367,21.995 5.259,21.952 5.175,21.88C5.085,21.803 5.024,21.694 5.006,21.577C4.989,21.468 5.009,21.353 5.063,21.256C5.11,21.173 5.181,21.103 5.266,21.058C5.331,21.024 5.404,21.004 5.478,21C5.485,21 5.493,21 5.5,21L6.5,21C6.507,21 6.515,21 6.522,21ZM11.522,21C11.529,21.001 11.537,21.001 11.544,21.002C11.669,21.013 11.788,21.073 11.873,21.167C11.946,21.249 11.992,21.356 11.999,21.467C12.006,21.57 11.98,21.675 11.925,21.763C11.863,21.863 11.765,21.94 11.652,21.976C11.61,21.99 11.566,21.998 11.522,22C11.515,22 11.507,22 11.5,22L8.5,22C8.493,22 8.485,22 8.478,22C8.367,21.995 8.259,21.952 8.175,21.88C8.097,21.813 8.04,21.721 8.015,21.62C7.986,21.506 8,21.382 8.053,21.276C8.099,21.184 8.175,21.106 8.266,21.058C8.331,21.024 8.404,21.004 8.478,21C8.485,21 8.493,21 8.5,21L11.5,21C11.507,21 11.515,21 11.522,21ZM26.522,19C26.529,19.001 26.537,19.001 26.544,19.002C26.676,19.014 26.802,19.08 26.887,19.183C26.966,19.28 27.007,19.408 26.999,19.533C26.991,19.651 26.94,19.765 26.857,19.85C26.77,19.939 26.647,19.994 26.522,20C26.515,20 26.507,20 26.5,20L19.5,20C19.493,20 19.485,20 19.478,20C19.346,19.994 19.217,19.933 19.127,19.833C19.044,19.74 18.997,19.615 19,19.489C19.003,19.364 19.055,19.24 19.143,19.15C19.23,19.061 19.352,19.006 19.478,19C19.485,19 19.493,19 19.5,19L26.5,19C26.507,19 26.515,19 26.522,19ZM17.522,19C17.529,19.001 17.537,19.001 17.544,19.002C17.647,19.011 17.747,19.053 17.825,19.12C17.931,19.211 17.997,19.347 18,19.489C18.002,19.599 17.967,19.711 17.901,19.799C17.839,19.882 17.751,19.945 17.652,19.976C17.61,19.99 17.566,19.998 17.522,20C17.515,20 17.507,20 17.5,20L13.5,20C13.493,20 13.485,20 13.478,20C13.367,19.995 13.259,19.952 13.175,19.88C13.091,19.808 13.032,19.708 13.01,19.599C12.991,19.505 13,19.405 13.035,19.316C13.073,19.22 13.141,19.137 13.228,19.08C13.302,19.032 13.39,19.004 13.478,19C13.485,19 13.493,19 13.5,19L17.5,19C17.507,19 17.515,19 17.522,19ZM11.522,19C11.529,19.001 11.537,19.001 11.544,19.002C11.669,19.013 11.788,19.073 11.873,19.167C11.946,19.249 11.992,19.356 11.999,19.467C12.006,19.57 11.98,19.675 11.925,19.763C11.863,19.863 11.765,19.94 11.652,19.976C11.61,19.99 11.566,19.998 11.522,20C11.515,20 11.507,20 11.5,20L8.5,20C8.493,20 8.485,20 8.478,20C8.375,19.995 8.273,19.958 8.192,19.894C8.099,19.821 8.033,19.715 8.01,19.599C7.988,19.49 8.003,19.375 8.053,19.276C8.099,19.184 8.175,19.106 8.266,19.058C8.331,19.024 8.404,19.004 8.478,19C8.485,19 8.493,19 8.5,19L11.5,19C11.507,19 11.515,19 11.522,19ZM6.522,19C6.529,19.001 6.537,19.001 6.544,19.002C6.654,19.012 6.761,19.059 6.842,19.135C6.933,19.22 6.991,19.341 6.999,19.467C7.006,19.57 6.98,19.675 6.925,19.763C6.863,19.863 6.765,19.94 6.652,19.976C6.61,19.99 6.566,19.998 6.522,20C6.515,20 6.507,20 6.5,20L5.5,20C5.493,20 5.485,20 5.478,20C5.353,19.994 5.23,19.939 5.143,19.85C5.05,19.755 4.997,19.623 5,19.489C5.003,19.371 5.049,19.254 5.127,19.167C5.216,19.068 5.344,19.006 5.478,19C5.485,19 5.493,19 5.5,19L6.5,19C6.507,19 6.515,19 6.522,19ZM26.522,17C26.529,17.001 26.537,17.001 26.544,17.002C26.647,17.011 26.747,17.053 26.825,17.12C26.909,17.192 26.968,17.293 26.99,17.401C27.015,17.524 26.992,17.655 26.925,17.763C26.864,17.863 26.765,17.94 26.652,17.976C26.61,17.99 26.566,17.998 26.522,18C26.515,18 26.507,18 26.5,18L19.5,18C19.493,18 19.485,18 19.478,18C19.346,17.994 19.217,17.933 19.127,17.833C19.029,17.724 18.983,17.572 19.006,17.423C19.025,17.299 19.093,17.184 19.192,17.106C19.273,17.043 19.374,17.005 19.478,17C19.485,17 19.493,17 19.5,17L26.5,17C26.507,17 26.515,17 26.522,17ZM6.522,17C6.529,17.001 6.537,17.001 6.544,17.002C6.669,17.013 6.788,17.073 6.873,17.167C6.946,17.249 6.992,17.356 6.999,17.467C7.006,17.57 6.98,17.675 6.925,17.763C6.875,17.844 6.801,17.911 6.714,17.952C6.654,17.98 6.589,17.997 6.522,18C6.515,18 6.507,18 6.5,18L5.5,18C5.493,18 5.485,18 5.478,18C5.345,17.994 5.217,17.933 5.127,17.833C5.039,17.735 4.992,17.601 5.001,17.467C5.008,17.356 5.054,17.249 5.127,17.167C5.216,17.068 5.345,17.006 5.478,17C5.485,17 5.493,17 5.5,17L6.5,17C6.507,17 6.515,17 6.522,17ZM17.522,17C17.529,17.001 17.537,17.001 17.544,17.002C17.647,17.011 17.747,17.053 17.825,17.12C17.909,17.192 17.968,17.293 17.99,17.401C18.012,17.51 17.997,17.625 17.947,17.724C17.901,17.816 17.825,17.894 17.734,17.942C17.669,17.976 17.596,17.996 17.522,18C17.515,18 17.507,18 17.5,18L13.5,18C13.493,18 13.485,18 13.478,18C13.367,17.995 13.259,17.952 13.175,17.88C13.091,17.808 13.032,17.708 13.01,17.599C12.984,17.469 13.011,17.33 13.087,17.219C13.149,17.127 13.242,17.057 13.348,17.024C13.39,17.01 13.434,17.002 13.478,17C13.485,17 13.493,17 13.5,17L17.5,17C17.507,17 17.515,17 17.522,17ZM11.522,17C11.529,17.001 11.537,17.001 11.544,17.002C11.669,17.013 11.789,17.073 11.873,17.167C11.951,17.254 11.997,17.37 12,17.489C12.002,17.585 11.976,17.681 11.925,17.763C11.863,17.863 11.765,17.94 11.652,17.976C11.61,17.99 11.566,17.998 11.522,18C11.515,18 11.507,18 11.5,18L8.5,18C8.493,18 8.485,18 8.478,18C8.367,17.995 8.259,17.952 8.175,17.88C8.091,17.808 8.032,17.708 8.01,17.599C7.991,17.505 8,17.405 8.035,17.316C8.081,17.2 8.172,17.102 8.286,17.048C8.346,17.02 8.411,17.003 8.478,17C8.485,17 8.493,17 8.5,17L11.5,17C11.507,17 11.515,17 11.522,17ZM17.522,15C17.529,15.001 17.537,15.001 17.544,15.002C17.655,15.012 17.761,15.059 17.842,15.135C17.917,15.205 17.97,15.3 17.99,15.401C18.012,15.51 17.997,15.625 17.947,15.724C17.901,15.816 17.825,15.894 17.734,15.942C17.669,15.976 17.596,15.996 17.522,16C17.515,16 17.507,16 17.5,16L13.5,16C13.493,16 13.485,16 13.478,16C13.375,15.995 13.273,15.958 13.192,15.894C13.099,15.821 13.033,15.715 13.01,15.599C12.987,15.483 13.005,15.36 13.063,15.256C13.11,15.173 13.181,15.103 13.266,15.058C13.331,15.024 13.404,15.004 13.478,15C13.485,15 13.493,15 13.5,15L17.5,15C17.507,15 17.515,15 17.522,15ZM11.522,15C11.529,15.001 11.537,15.001 11.544,15.002C11.669,15.013 11.789,15.073 11.873,15.167C11.961,15.265 12.008,15.4 11.999,15.533C11.991,15.659 11.933,15.78 11.842,15.865C11.756,15.946 11.64,15.994 11.522,16C11.515,16 11.507,16 11.5,16L8.5,16C8.493,16 8.485,16 8.478,16C8.382,15.995 8.288,15.963 8.21,15.907C8.114,15.839 8.043,15.735 8.015,15.62C7.99,15.52 7.997,15.413 8.035,15.316C8.073,15.22 8.141,15.137 8.228,15.08C8.302,15.032 8.389,15.004 8.478,15C8.485,15 8.493,15 8.5,15L11.5,15C11.507,15 11.515,15 11.522,15ZM6.522,15C6.529,15.001 6.537,15.001 6.544,15.002C6.647,15.011 6.747,15.053 6.825,15.12C6.926,15.206 6.99,15.334 6.999,15.467C7.007,15.585 6.971,15.704 6.901,15.799C6.839,15.882 6.751,15.945 6.652,15.976C6.61,15.99 6.566,15.998 6.522,16C6.515,16 6.507,16 6.5,16L5.5,16C5.493,16 5.485,16 5.478,16C5.375,15.995 5.274,15.958 5.192,15.894C5.082,15.808 5.011,15.675 5.001,15.533C4.993,15.415 5.029,15.296 5.099,15.201C5.161,15.118 5.249,15.055 5.348,15.024C5.39,15.01 5.434,15.002 5.478,15C5.485,15 5.493,15 5.5,15L6.5,15C6.507,15 6.515,15 6.522,15ZM26.522,15C26.529,15.001 26.537,15.001 26.544,15.002C26.654,15.012 26.761,15.059 26.842,15.135C26.917,15.205 26.97,15.3 26.99,15.401C27.012,15.51 26.997,15.625 26.947,15.724C26.901,15.816 26.825,15.894 26.734,15.942C26.669,15.976 26.596,15.996 26.522,16C26.515,16 26.507,16 26.5,16L19.5,16C19.493,16 19.485,16 19.478,16C19.375,15.995 19.273,15.958 19.192,15.894C19.105,15.826 19.041,15.728 19.015,15.62C18.985,15.499 19.002,15.367 19.063,15.256C19.11,15.173 19.181,15.103 19.266,15.058C19.331,15.024 19.404,15.004 19.478,15C19.485,15 19.493,15 19.5,15L26.5,15C26.507,15 26.515,15 26.522,15ZM17.522,13C17.529,13.001 17.537,13.001 17.544,13.002C17.647,13.011 17.747,13.053 17.825,13.12C17.915,13.197 17.976,13.306 17.994,13.423C18.013,13.547 17.984,13.677 17.913,13.781C17.851,13.873 17.758,13.943 17.652,13.976C17.61,13.99 17.566,13.998 17.522,14C17.515,14 17.507,14 17.5,14L13.5,14C13.493,14 13.485,14 13.478,14C13.375,13.995 13.273,13.958 13.192,13.894C13.111,13.83 13.05,13.741 13.021,13.642C12.989,13.536 12.994,13.42 13.035,13.316C13.078,13.207 13.162,13.113 13.266,13.058C13.331,13.024 13.404,13.004 13.478,13C13.485,13 13.493,13 13.5,13L17.5,13C17.507,13 17.515,13 17.522,13ZM6.522,13C6.529,13.001 6.537,13.001 6.544,13.002C6.669,13.013 6.788,13.073 6.873,13.167C6.946,13.249 6.992,13.356 6.999,13.467C7.006,13.57 6.98,13.675 6.925,13.763C6.875,13.844 6.801,13.911 6.714,13.952C6.654,13.98 6.589,13.997 6.522,14C6.515,14 6.507,14 6.5,14L5.5,14C5.493,14 5.485,14 5.478,14C5.375,13.995 5.274,13.958 5.192,13.894C5.111,13.83 5.05,13.741 5.021,13.642C4.989,13.536 4.994,13.42 5.035,13.316C5.078,13.207 5.162,13.113 5.266,13.058C5.331,13.024 5.404,13.004 5.478,13C5.485,13 5.493,13 5.5,13L6.5,13C6.507,13 6.515,13 6.522,13ZM26.522,13C26.529,13.001 26.537,13.001 26.544,13.002C26.647,13.011 26.747,13.053 26.825,13.12C26.909,13.192 26.968,13.293 26.99,13.401C27.012,13.51 26.997,13.625 26.947,13.724C26.901,13.816 26.825,13.894 26.734,13.942C26.669,13.976 26.596,13.996 26.522,14C26.515,14 26.507,14 26.5,14L19.5,14C19.493,14 19.485,14 19.478,14C19.375,13.995 19.273,13.958 19.192,13.894C19.105,13.826 19.041,13.728 19.015,13.62C18.985,13.499 19.002,13.366 19.063,13.256C19.11,13.173 19.181,13.103 19.266,13.058C19.331,13.024 19.404,13.004 19.478,13C19.485,13 19.493,13 19.5,13L26.5,13C26.507,13 26.515,13 26.522,13ZM11.522,13C11.529,13.001 11.537,13.001 11.544,13.002C11.669,13.013 11.788,13.072 11.873,13.167C11.946,13.249 11.992,13.356 11.999,13.467C12.006,13.57 11.98,13.675 11.925,13.763C11.875,13.844 11.801,13.911 11.714,13.952C11.654,13.98 11.589,13.997 11.522,14C11.515,14 11.507,14 11.5,14L8.5,14C8.493,14 8.485,14 8.478,14C8.382,13.995 8.288,13.963 8.21,13.907C8.108,13.834 8.035,13.722 8.01,13.599C7.991,13.505 8,13.405 8.035,13.316C8.081,13.2 8.172,13.102 8.286,13.048C8.346,13.02 8.411,13.003 8.478,13C8.485,13 8.493,13 8.5,13L11.5,13C11.507,13 11.515,13 11.522,13ZM26.522,11C26.529,11.001 26.537,11.001 26.544,11.002C26.654,11.012 26.761,11.059 26.842,11.135C26.917,11.205 26.97,11.3 26.99,11.401C27.012,11.51 26.997,11.625 26.947,11.724C26.901,11.816 26.825,11.894 26.734,11.942C26.669,11.976 26.596,11.996 26.522,12C26.515,12 26.507,12 26.5,12L19.5,12C19.493,12 19.485,12 19.478,12C19.375,11.995 19.273,11.958 19.192,11.894C19.105,11.826 19.041,11.728 19.015,11.62C18.985,11.499 19.002,11.367 19.063,11.256C19.11,11.173 19.181,11.103 19.266,11.058C19.331,11.024 19.404,11.004 19.478,11C19.485,11 19.493,11 19.5,11L26.5,11C26.507,11 26.515,11 26.522,11ZM17.522,11C17.529,11.001 17.537,11.001 17.544,11.002C17.655,11.012 17.761,11.059 17.842,11.135C17.917,11.205 17.97,11.3 17.99,11.401C18.012,11.51 17.997,11.625 17.947,11.724C17.901,11.816 17.825,11.894 17.734,11.942C17.669,11.976 17.596,11.996 17.522,12C17.515,12 17.507,12 17.5,12L13.5,12C13.493,12 13.485,12 13.478,12C13.375,11.995 13.273,11.958 13.192,11.894C13.111,11.83 13.05,11.741 13.021,11.642C12.983,11.515 12.998,11.374 13.063,11.256C13.11,11.173 13.181,11.103 13.266,11.058C13.331,11.024 13.404,11.004 13.478,11C13.485,11 13.493,11 13.5,11L17.5,11C17.507,11 17.515,11 17.522,11ZM11.522,11C11.529,11.001 11.537,11.001 11.544,11.002C11.669,11.013 11.789,11.073 11.873,11.167C11.956,11.26 12.003,11.385 12,11.511C11.997,11.629 11.951,11.746 11.873,11.833C11.784,11.932 11.656,11.994 11.522,12C11.515,12 11.507,12 11.5,12L8.5,12C8.493,12 8.485,12 8.478,12C8.345,11.994 8.217,11.933 8.127,11.833C8.054,11.751 8.008,11.644 8.001,11.533C7.994,11.43 8.02,11.325 8.075,11.237C8.137,11.137 8.235,11.06 8.348,11.024C8.39,11.01 8.434,11.002 8.478,11C8.485,11 8.493,11 8.5,11L11.5,11C11.507,11 11.515,11 11.522,11ZM6.522,11C6.529,11.001 6.537,11.001 6.544,11.002C6.647,11.011 6.747,11.053 6.825,11.12C6.909,11.192 6.968,11.293 6.99,11.401C7.015,11.524 6.991,11.656 6.925,11.763C6.864,11.863 6.765,11.94 6.652,11.976C6.61,11.99 6.566,11.998 6.522,12C6.515,12 6.507,12 6.5,12L5.5,12C5.493,12 5.485,12 5.478,12C5.382,11.995 5.288,11.963 5.21,11.907C5.12,11.843 5.052,11.748 5.021,11.642C4.989,11.536 4.994,11.42 5.035,11.316C5.07,11.227 5.132,11.149 5.21,11.093C5.288,11.037 5.382,11.005 5.478,11C5.485,11 5.493,11 5.5,11L6.5,11C6.507,11 6.515,11 6.522,11Z" />
            </g>
        </g>
        <g id="overlay">
            <path fill="#3E79B4" class="Blue" d="M25,18C21.134,18 18,21.134 18,25C18,28.866 21.134,32 25,32C28.866,32 32,28.866 32,25C32,21.134 28.866,18 25,18ZM26,29.8C26,29.911 25.911,30 25.8,30L24.2,30C24.09,30 24,29.911 24,29.8L24,23.2C24,23.09 24.09,23 24.2,23L25.8,23C25.911,23 26,23.09 26,23.2L26,29.8ZM26,21.5C26,21.61 25.911,21.7 25.8,21.7L24.2,21.7C24.09,21.7 24,21.61 24,21.5L24,20.2C24,20.09 24.09,20 24.2,20L25.8,20C25.911,20 26,20.09 26,20.2L26,21.5Z" />
            <path fill="#FFFFFF" class="White" d="M26,20.2C26,20.09 25.911,20 25.8,20L24.2,20C24.09,20 24,20.09 24,20.2L24,21.5C24,21.61 24.09,21.7 24.2,21.7L25.8,21.7C25.911,21.7 26,21.61 26,21.5L26,20.2Z" />
            <path fill="#FFFFFF" class="White" d="M26,23.2C26,23.09 25.911,23 25.8,23L24.2,23C24.09,23 24,23.09 24,23.2L24,29.8C24,29.91 24.09,30 24.2,30L25.8,30C25.911,30 26,29.91 26,29.8L26,23.2Z" />
        </g>
    </g>
</svg>
