<?xml version="1.0" encoding="UTF-8" standalone="no"?>
<!DOCTYPE svg PUBLIC "-//W3C//DTD SVG 1.1//EN" "http://www.w3.org/Graphics/SVG/1.1/DTD/svg11.dtd">
<svg width="32" height="32" viewBox="0 0 32 32" version="1.1" xmlns="http://www.w3.org/2000/svg" xmlns:xlink="http://www.w3.org/1999/xlink" xml:space="preserve" xmlns:serif="http://www.serif.com/" style="fill-rule:evenodd;clip-rule:evenodd;stroke-linejoin:round;stroke-miterlimit:1.41421;">
  <style type="text / css">
    .Red{fill:#CD4C32;}
    .Green{fill:#4EA17E;}
    .Blue{fill:#3E79B4;}
    .Yellow{fill:#EAB765;}
    .Black{fill:#797979;}
    .Gray{fill:#B4B4B5;}
    .White{fill:#FFFFFF;}
  </style>
    <g id="main">
        <g id="transformed_icon" transform="matrix(1,0,0,1,1,0)">
            <clipPath id="_clip1">
                <path d="M-1,0L-1,23.157C-0.877,23.121 -0.748,23.1 -0.613,23.1L5.883,23.1L3.436,20.595C3.106,20.262 3.008,19.762 3.191,19.322C3.374,18.882 3.8,18.6 4.277,18.6L7.782,18.6C8.142,18.6 8.484,18.738 8.743,18.987L8.76,19.004C8.76,19.004 13.232,23.516 14.391,24.689C14.894,25.198 14.891,26.023 14.383,26.528C13.38,27.525 9.84,31.12 8.974,32L31,32L31,0L-1,0Z"/>
            </clipPath>
            <g clip-path="url(#_clip1)">
                <g transform="matrix(1,0,0,1,-1,0)">
                    <path fill="#3E79B4" class="Blue" d="M2,11L29.994,11C29.994,11 30,24.497 30,27.965C30,28.497 29.454,29 28.974,29C28.334,29 3.796,29 3.062,29C2.507,29 2,28.497 2,27.896C2,26.997 2,11 2,11Z" />
                </g>
                <g id="overlay" transform="matrix(1,0,0,1,-9.5,-4.50015)">
                    <clipPath id="_clip2">
                        <path d="M10.5,15.5L38.494,15.5C38.494,15.5 38.5,28.997 38.5,32.465C38.5,32.997 37.954,33.5 37.474,33.5C36.834,33.5 12.296,33.5 11.562,33.5C11.007,33.5 10.5,32.997 10.5,32.396C10.5,31.497 10.5,15.5 10.5,15.5Z"/>
                    </clipPath>
                    <g clip-path="url(#_clip2)">
                        <path fill="#FFFFFF" class="White" d="M32,25.168L32,23.982C32,23.697 31.795,23.454 31.515,23.405L29.787,23.104C29.676,22.7 29.516,22.303 29.307,21.92L30.342,20.449C30.505,20.216 30.478,19.899 30.277,19.698L29.438,18.859C29.236,18.658 28.919,18.63 28.686,18.794L27.258,19.799C26.863,19.567 26.442,19.385 26.005,19.258L25.697,17.486C25.648,17.205 25.404,17 25.12,17L23.933,17C23.648,17 23.405,17.205 23.356,17.486L23.056,19.212C22.646,19.319 22.243,19.475 21.854,19.682L20.4,18.659C20.167,18.495 19.85,18.522 19.649,18.724L18.81,19.562C18.608,19.764 18.581,20.081 18.745,20.314L19.719,21.698C19.47,22.109 19.303,22.549 19.169,23.006L17.484,23.302C17.204,23.352 17,23.595 17,23.88L17,25.068C17,25.352 17.204,25.596 17.484,25.645L19.114,25.932C19.226,26.367 19.379,26.794 19.603,27.205L18.617,28.6C18.452,28.833 18.479,29.15 18.681,29.352L19.516,30.19C19.718,30.391 20.035,30.419 20.268,30.255L21.609,29.311C22.034,29.565 22.49,29.736 22.964,29.868L23.254,31.516C23.303,31.796 23.546,32 23.831,32L25.019,32C25.303,32 25.547,31.796 25.596,31.516L25.883,29.885C26.313,29.769 26.735,29.612 27.14,29.386L28.551,30.383C28.784,30.548 29.101,30.521 29.303,30.32L30.141,29.484C30.342,29.283 30.37,28.965 30.206,28.732L29.231,27.348C29.469,26.938 29.653,26.501 29.779,26.047L31.515,25.746C31.795,25.697 32,25.453 32,25.168ZM25.724,26.771C24.506,27.474 22.948,27.057 22.245,25.839C21.541,24.62 21.959,23.063 23.177,22.359C24.395,21.656 25.953,22.074 26.656,23.292C27.359,24.51 26.942,26.068 25.724,26.771Z" />
                    </g>
                </g>
                <g transform="matrix(1,0,0,1,-1,0)">
                    <path fill="#797979" class="Black" d="M30,10L2,10L2,5.2C2,4.537 2.537,4 3.2,4L12.172,4C12.702,4 13.211,4.211 13.586,4.586L15.414,6.414C15.789,6.789 16.298,7 16.828,7L28.8,7C29.463,7 30,7.537 30,8.2L30,10Z" />
                </g>
            </g>
        </g>
        <path fill="#4EA17E" class="Green" id="overlay1" serif:id="overlay" d="M9.068,31.494C8.996,31.563 8.901,31.6 8.801,31.6L5.276,31.589C5.119,31.589 5.041,31.399 5.152,31.288L9.268,27.1L0.4,27.1C0.186,27.1 0,26.975 0,26.761L0,25.916L0,25.158L0,24.495C0,24.282 0.173,24.108 0.387,24.108L9.255,24.108L5.152,19.901C5.041,19.789 5.12,19.6 5.277,19.6L8.782,19.6C8.882,19.6 8.978,19.639 9.05,19.708C9.05,19.708 13.521,24.219 14.68,25.392C14.798,25.512 14.798,25.7 14.678,25.819C13.521,26.969 9.068,31.494 9.068,31.494Z" />
    </g>
</svg>
