<?xml version="1.0" encoding="UTF-8" standalone="no"?>
<!DOCTYPE svg PUBLIC "-//W3C//DTD SVG 1.1//EN" "http://www.w3.org/Graphics/SVG/1.1/DTD/svg11.dtd">
<svg width="32" height="32" viewBox="0 0 32 32" version="1.1" xmlns="http://www.w3.org/2000/svg" xmlns:xlink="http://www.w3.org/1999/xlink" xml:space="preserve" xmlns:serif="http://www.serif.com/" >
  <style type="text / css">
    .Red{fill:#CD4C32;}
    .Green{fill:#4EA17E;}
    .Blue{fill:#3E79B4;}
    .Yellow{fill:#EAB765;}
    .Black{fill:#797979;}
    .Gray{fill:#B4B4B5;}
    .White{fill:#FFFFFF;}
  </style>
    <g id="icon">
        <path fill="#FFFFFF" class="White" d="M26.6,30.5L5.4,30.5C4.765,30.5 4.5,30.241 4.5,29.6L4.5,2.4C4.5,1.759 4.765,1.5 5.4,1.5C5.4,1.5 19.063,1.5 19.3,1.5C19.538,1.5 19.85,1.55 20.2,1.9C20.499,2.199 25.616,7.316 27.1,8.8C27.353,9.053 27.5,9.35 27.5,9.8C27.5,10.113 27.5,29.6 27.5,29.6C27.5,30.241 27.235,30.5 26.6,30.5Z" />
        <path fill="#797979" class="Black" d="M19.3,1C19.405,1 19.51,1.008 19.614,1.027C19.772,1.055 19.926,1.108 20.069,1.184C20.187,1.245 20.297,1.32 20.399,1.405C20.452,1.449 20.503,1.496 20.552,1.545L27.454,8.447C27.523,8.516 27.588,8.589 27.65,8.672C27.769,8.834 27.861,9.016 27.919,9.208C27.971,9.383 27.996,9.566 27.999,9.748C28,9.764 28,9.781 28,9.798C28.005,16.4 28.007,23.001 28,29.603C28,29.659 27.998,29.716 27.994,29.773C27.987,29.88 27.972,29.986 27.946,30.09C27.922,30.183 27.89,30.273 27.844,30.364C27.809,30.432 27.768,30.497 27.72,30.557L27.719,30.558C27.644,30.651 27.555,30.73 27.454,30.793C27.448,30.797 27.443,30.8 27.438,30.803L27.437,30.804C27.398,30.827 27.359,30.847 27.318,30.866C27.249,30.898 27.176,30.923 27.103,30.942C27.023,30.963 26.942,30.977 26.858,30.987C26.773,30.996 26.69,31 26.603,31C19.534,31.007 12.466,31.007 5.397,31C5.263,31 5.133,30.991 4.999,30.965C4.795,30.926 4.6,30.847 4.44,30.717C4.332,30.629 4.242,30.522 4.175,30.399C4.089,30.243 4.04,30.07 4.018,29.895C4.005,29.797 4,29.697 4,29.6C3.998,20.532 3.991,11.464 4,2.396C4,2.261 4.01,2.125 4.036,1.992C4.067,1.835 4.121,1.684 4.205,1.549C4.303,1.393 4.44,1.263 4.602,1.174C4.694,1.123 4.792,1.086 4.893,1.059C5.032,1.022 5.177,1.006 5.319,1.001C5.346,1 5.373,1 5.4,1C10.033,0.999 14.667,0.999 19.3,1ZM5.4,2C5.325,2 5.249,2.004 5.175,2.019C5.143,2.026 5.111,2.034 5.082,2.051C5.071,2.057 5.062,2.066 5.055,2.076C5.04,2.098 5.032,2.124 5.025,2.15C5.011,2.206 5.005,2.263 5.002,2.32C5.001,2.346 5,2.372 5,2.399C4.995,11.466 4.995,20.534 5,29.601C5,29.676 5.004,29.751 5.019,29.824C5.026,29.854 5.034,29.885 5.049,29.913C5.059,29.932 5.075,29.947 5.101,29.958C5.161,29.985 5.229,29.992 5.294,29.996C5.328,29.999 5.363,30 5.397,30L5.399,30C12.467,30 19.535,30.015 26.603,30C26.671,30 26.739,29.997 26.806,29.984C26.839,29.978 26.872,29.971 26.902,29.957C26.919,29.949 26.935,29.94 26.946,29.923C26.956,29.908 26.962,29.89 26.968,29.873C26.985,29.821 26.992,29.766 26.996,29.712C26.999,29.676 27,29.639 27,29.603L27,29.601C27,23 27.01,16.398 27,9.797C27,9.736 26.996,9.675 26.987,9.614C26.987,9.613 26.987,9.611 26.986,9.61C26.978,9.558 26.966,9.505 26.949,9.458C26.915,9.364 26.86,9.278 26.792,9.201C26.777,9.185 26.763,9.17 26.748,9.155C26.511,8.917 26.273,8.68 26.036,8.443L19.845,2.252C19.789,2.196 19.73,2.145 19.663,2.103C19.595,2.059 19.518,2.025 19.436,2.011C19.391,2.003 19.346,2 19.301,2C14.667,1.998 10.034,2 5.4,2Z" />
        <path fill="#797979" class="Black" d="M20,8.7C20,8.701 20,8.703 20,8.704C20,8.725 20.003,8.746 20.007,8.766C20.009,8.776 20.013,8.79 20.018,8.803C20.037,8.854 20.068,8.899 20.114,8.935C20.167,8.977 20.235,9 20.3,9L27.3,9L27.3,10C24.966,10 22.632,10.002 20.298,10C20.105,10 19.912,9.956 19.737,9.872C19.567,9.79 19.415,9.67 19.295,9.525C19.197,9.406 19.121,9.269 19.071,9.123C19.047,9.055 19.029,8.985 19.018,8.915C19.006,8.847 19,8.777 19,8.709C19,8.706 19,8.703 19,8.701L19,8.7L19,2L20,2C20,4.233 20,6.466 20,8.7Z" />
        <g transform="matrix(0.0664104,0,0,0.0664104,15.821,17.3966)">
            <g transform="matrix(30.5317,0,0,31.2641,-228.52,-256.733)">
                <ellipse fill="#FFFFFF" class="White" cx="7.574" cy="9.466" rx="4.439" ry="4.335" />
            </g>
            <g transform="matrix(30.5317,0,0,31.2641,-228.52,-256.733)">
                <path fill="#797979" class="Black" d="M7.577,5.131C8.021,5.131 8.465,5.196 8.89,5.325C9.291,5.447 9.673,5.624 10.022,5.85C10.548,6.191 10.999,6.641 11.335,7.163C11.515,7.443 11.662,7.742 11.772,8.054C11.839,8.245 11.893,8.441 11.932,8.639C12.025,9.107 12.038,9.591 11.971,10.062C11.909,10.503 11.777,10.934 11.579,11.336C11.35,11.804 11.033,12.231 10.65,12.591C10.55,12.684 10.446,12.774 10.337,12.858C10.121,13.027 9.889,13.175 9.645,13.301C9.39,13.433 9.123,13.54 8.847,13.62C8.569,13.702 8.282,13.756 7.992,13.783C7.573,13.821 7.147,13.802 6.734,13.724C6.438,13.669 6.149,13.584 5.871,13.471C5.619,13.368 5.376,13.243 5.148,13.097C5.032,13.023 4.919,12.943 4.81,12.858C4.388,12.53 4.028,12.127 3.753,11.674C3.51,11.275 3.334,10.837 3.234,10.383C3.168,10.083 3.134,9.777 3.134,9.47C3.134,9.09 3.184,8.711 3.285,8.345C3.431,7.809 3.686,7.301 4.029,6.857C4.182,6.659 4.353,6.474 4.538,6.304C4.963,5.915 5.467,5.607 6.013,5.407C6.409,5.261 6.827,5.172 7.25,5.142C7.356,5.135 7.463,5.131 7.57,5.131C7.572,5.131 7.575,5.131 7.577,5.131ZM7.57,5.563C7.183,5.564 6.795,5.618 6.424,5.727C6.168,5.802 5.92,5.903 5.686,6.026C5.379,6.187 5.095,6.387 4.841,6.619C4.446,6.981 4.127,7.421 3.91,7.904C3.741,8.282 3.634,8.685 3.595,9.095C3.574,9.305 3.571,9.516 3.586,9.727C3.605,10.021 3.66,10.315 3.747,10.598C3.806,10.788 3.88,10.973 3.968,11.152C4.132,11.486 4.345,11.796 4.597,12.07C4.898,12.398 5.254,12.675 5.648,12.887C5.883,13.013 6.131,13.117 6.389,13.195C6.698,13.289 7.02,13.345 7.342,13.363C7.675,13.382 8.01,13.36 8.336,13.299C8.644,13.24 8.943,13.147 9.229,13.02C9.477,12.909 9.714,12.774 9.935,12.615C10.223,12.408 10.483,12.163 10.705,11.891C10.873,11.684 11.021,11.46 11.143,11.224C11.246,11.025 11.331,10.819 11.397,10.606C11.455,10.422 11.499,10.231 11.528,10.04C11.55,9.893 11.563,9.744 11.568,9.595C11.578,9.298 11.554,8.999 11.495,8.707C11.44,8.436 11.355,8.171 11.243,7.918C11.156,7.72 11.051,7.53 10.931,7.349C10.815,7.174 10.686,7.01 10.542,6.854C10.234,6.521 9.867,6.239 9.462,6.026C9.15,5.862 8.817,5.74 8.47,5.662C8.209,5.603 7.942,5.571 7.674,5.564C7.639,5.563 7.605,5.563 7.57,5.563Z" />
            </g>
            <g transform="matrix(30.025,0,0,30.025,-222.433,-246.444)">
                <ellipse fill="#3E79B4" class="Blue" fill-opacity="0.4" cx="7.522" cy="9.516" rx="3.578" ry="3.581" />
            </g>
            <g transform="matrix(1,0,0,1,0.573442,2.32983)">
                <g transform="matrix(0.0555104,0,0,-0.0555104,-281.385,275.51)">
                    <path fill="#797979" class="Black" d="M4975,5896C4896,5878 4804,5840 4727,5794C4647,5745 4499,5596 4435,5500C4335,5349 4239,5130 4175,4905C4144,4798 4090,4538 4097,4528C4099,4523 4182,4520 4280,4520C4458,4520 4460,4520 4464,4543C4521,4814 4577,4989 4660,5155C4755,5347 4871,5476 4990,5521C5064,5549 5175,5550 5248,5522C5464,5439 5657,5101 5754,4635L5777,4525L5964,4522L6151,4520L6144,4557C6090,4869 6001,5148 5888,5360C5746,5627 5556,5805 5335,5876C5236,5908 5068,5917 4975,5896Z" />
                </g>
                <g transform="matrix(0.0555104,0,0,-0.0555104,-281.385,275.51)">
                    <path fill="#797979" class="Black" d="M3920,4295L3920,4140L6320,4140L6320,4450L5120,4450L3920,4450L3920,4295Z" />
                </g>
                <g transform="matrix(0.0555104,0,0,-0.0555104,-281.385,275.51)">
                    <path fill="#797979" class="Black" d="M3927,4063C3923,4060 3920,3990 3920,3908L3920,3760L4940,3760L4940,4070L4437,4070C4160,4070 3930,4067 3927,4063Z" />
                </g>
                <g transform="matrix(0.0555104,0,0,-0.0555104,-281.385,275.51)">
                    <path fill="#797979" class="Black" d="M5300,3915L5300,3760L5690,3758C5905,3756 6133,3755 6198,3755L6315,3755L6318,3913L6321,4070L5810,4070L5300,4070L5300,3915Z" />
                </g>
                <g transform="matrix(0.0555104,0,0,-0.0555104,-281.385,275.51)">
                    <path fill="#797979" class="Black" d="M5523,3683L5300,3680L5300,3525L5300,3370L6321,3370L6318,3528L6315,3685L6030,3685C5873,3685 5645,3684 5523,3683Z" />
                </g>
                <g transform="matrix(0.0555104,0,0,-0.0555104,-281.385,275.51)">
                    <path fill="#797979" class="Black" d="M3922,3528L3925,3375L4433,3372L4940,3370L4940,3680L4430,3680L3919,3680L3922,3528Z" />
                </g>
                <g transform="matrix(0.0555104,0,0,-0.0555104,-281.385,275.51)">
                    <path fill="#797979" class="Black" d="M3920,3145L3920,2990L6320,2990L6320,3300L5120,3300L3920,3300L3920,3145Z" />
                </g>
            </g>
        </g>
    </g>
</svg>
