<?xml version="1.0" encoding="UTF-8"?>
<!DOCTYPE svg PUBLIC "-//W3C//DTD SVG 1.1//EN" "http://www.w3.org/Graphics/SVG/1.1/DTD/svg11.dtd">
<svg version="1.1" id="Layer_1" xmlns="http://www.w3.org/2000/svg" xmlns:xlink="http://www.w3.org/1999/xlink" x="0px" y="0px" width="32px" height="32px" viewBox="0 0 32 32" enable-background="new 0 0 32 32" xml:space="preserve">
  <style type="text / css">
    .Red{fill:#CD4C32;}
    .Green{fill:#4EA17E;}
    .Blue{fill:#3E79B4;}
    .Yellow{fill:#EAB765;}
    .Black{fill:#797979;}
    .Gray{fill:#B4B4B5;}
    .White{fill:#FFFFFF;}
  </style>
  <g id="icon">
    <path fill="#3E79B4" class="Blue" d="M29.756,6.065c-0.161,-0.654,-0.747,-1.11,-1.425,-1.11c-0.051,0,-0.102,0.003,-0.152,0.008c-0.494,0.051,-0.993,0.076,-1.485,0.076c-5.224,0,-8.755,-2.794,-9.713,-3.65c-0.267,-0.239,-0.613,-0.371,-0.972,-0.371c-0.321,0,-0.639,0.108,-0.894,0.303C13.663,2.43,9.772,5.008,4.977,5.008c-0.385,0,-0.772,-0.017,-1.152,-0.05c-0.044,-0.004,-0.087,-0.006,-0.131,-0.006c-0.681,0,-1.268,0.461,-1.428,1.122C1.554,9.017,2.071,18.751,6.31,24.25c2.838,3.683,5.915,5.878,9.408,6.711c0.11,0.026,0.224,0.039,0.339,0.039c0.114,0,0.228,-0.013,0.34,-0.04c4.365,-1.043,7.203,-4.134,9.189,-6.71C29.845,18.722,30.449,8.873,29.756,6.065zM27.063,13.718c-0.637,3.74,-1.865,6.939,-3.459,9.006c-1.767,2.293,-4.03,4.765,-7.415,5.708l-0.134,0.037l-0.134,-0.037c-2.764,-0.763,-5.261,-2.631,-7.632,-5.708c-1.582,-2.052,-2.786,-5.221,-3.391,-8.923c-0.474,-2.902,-0.416,-5.039,-0.368,-5.823l0.028,-0.468l0.469,-0.002c4.752,-0.016,8.706,-2.206,10.64,-3.509l0.295,-0.199l0.285,0.213c1.756,1.317,5.448,3.526,10.446,3.526c0.093,0,0.187,-0.001,0.28,-0.002l0.485,-0.008l0.022,0.485C27.526,8.968,27.53,10.979,27.063,13.718z" />
    <path fill="#FFFFFF" class="White" d="M15.922,28.432c-2.764,-0.763,-5.261,-2.631,-7.632,-5.708c-1.582,-2.052,-2.786,-5.221,-3.391,-8.923c-0.474,-2.902,-0.416,-5.039,-0.368,-5.823l0.028,-0.468l0.469,-0.002c4.752,-0.016,8.706,-2.206,10.64,-3.509l0.295,-0.199l0.285,0.213c1.756,1.317,5.448,3.526,10.446,3.526c0.093,0,0.187,-0.001,0.28,-0.002l0.485,-0.008l0.022,0.485c0.044,0.955,0.048,2.965,-0.418,5.704c-0.637,3.74,-1.865,6.939,-3.459,9.006c-1.767,2.293,-4.03,4.765,-7.415,5.708l-0.134,0.037L15.922,28.432z" />
    <polygon fill="#3E79B4" class="Blue" points="28.5,16 16,16 16,3.6 28.5,7.6" stroke-linejoin="miter" />
    <polygon fill="#3E79B4" class="Blue" points="16,29 7.9,24.9 4.5,16 16,16" stroke-linejoin="miter" />
  </g>
</svg>
