<?xml version="1.0" encoding="UTF-8" standalone="no"?>
<!DOCTYPE svg PUBLIC "-//W3C//DTD SVG 1.1//EN" "http://www.w3.org/Graphics/SVG/1.1/DTD/svg11.dtd">
<svg width="32px" height="32px" viewBox="0 0 32 32" version="1.1" xmlns="http://www.w3.org/2000/svg" xmlns:xlink="http://www.w3.org/1999/xlink" xml:space="preserve" xmlns:serif="http://www.serif.com/" style="fill-rule:evenodd;clip-rule:evenodd;stroke-linejoin:round;stroke-miterlimit:1.41421;">
  <style type="text/css">
      .Red{fill:#CD4C32;}
      .Green{fill:#4EA17E;}
      .Blue{fill:#3E79B4;}
      .Yellow{fill:#EAB765;}
      .Black{fill:#797979;}
      .Gray{fill:#B4B4B5;}
      .White{fill:#FFFFFF;}
  </style>
  <g id="icon" transform="matrix(2,0,0,2,16,15.977)">
      <g transform="matrix(0.0336902,0,0,0.0312528,-8.74998,-7.97772)">
          <path class="Green" d="M497.177,111.309L382.17,222.6L382.17,0.023L497.177,111.309ZM356.177,37.101C356.177,37.101 251.5,59.176 207.768,122.435C234.12,153.535 285.681,230.029 285.681,230.029C285.681,230.029 320.428,178.087 356.174,178.087L356.174,37.1L356.177,37.101ZM22.261,467.478C22.261,467.478 116.854,442.57 166.961,382.145C140.609,351.045 85.337,278.261 85.337,278.261C85.337,278.261 53.978,318.206 22.265,326.493L22.265,467.478L22.261,467.478Z" />
      </g>
      <g transform="matrix(0.0336902,0,0,0.0312528,-8.74998,-7.97772)">
          <path class="Blue" d="M497.177,400.691L382.17,289.4L382.17,511.977L497.177,400.691ZM356.177,467.478C356.177,467.478 243.669,457.629 148.409,311.652C127.352,282.609 64.928,185.024 22.261,185.507L22.261,44.522C136.323,44.522 230.029,200.348 230.029,200.348C230.029,200.348 299.529,322.783 356.174,326.493L356.174,467.478L356.177,467.478Z" />
      </g>
  </g>
</svg>
