<?xml version="1.0" encoding="UTF-8" standalone="no"?>
<!DOCTYPE svg PUBLIC "-//W3C//DTD SVG 1.1//EN" "http://www.w3.org/Graphics/SVG/1.1/DTD/svg11.dtd">
<svg width="32" height="32" viewBox="0 0 32 32" version="1.1" xmlns="http://www.w3.org/2000/svg" xmlns:xlink="http://www.w3.org/1999/xlink" xml:space="preserve" xmlns:serif="http://www.serif.com/" >
  <style type="text / css">
    .Red{fill:#CD4C32;}
    .Green{fill:#4EA17E;}
    .Blue{fill:#3E79B4;}
    .Yellow{fill:#EAB765;}
    .Black{fill:#797979;}
    .Gray{fill:#B4B4B5;}
    .White{fill:#FFFFFF;}
  </style>
    <g id="icon">
        <path fill="#FFFFFF" class="White" d="M30,22.5L9,22.5C8.724,22.5 8.5,22.276 8.5,22L8.5,6.5L30.5,6.5L30.5,22C30.5,22.276 30.276,22.5 30,22.5Z" />
        <path fill="#797979" class="Black" d="M31,6.5C31,11.667 31.006,16.835 31,22.002C31,22.046 30.997,22.089 30.991,22.133L30.991,22.133C30.98,22.214 30.96,22.292 30.929,22.371C30.903,22.435 30.871,22.496 30.833,22.553C30.81,22.588 30.785,22.621 30.758,22.653C30.748,22.664 30.737,22.676 30.727,22.687L30.727,22.687C30.715,22.699 30.703,22.711 30.691,22.723L30.69,22.723C30.633,22.778 30.568,22.827 30.504,22.864C30.442,22.9 30.377,22.929 30.311,22.951C30.246,22.972 30.18,22.986 30.109,22.994C30.074,22.998 30.038,23 30.002,23C23.001,23.008 15.999,23.008 8.998,23C8.929,23 8.858,22.992 8.794,22.979C8.765,22.973 8.737,22.965 8.709,22.957L8.708,22.957C8.656,22.941 8.606,22.921 8.558,22.897C8.496,22.867 8.438,22.83 8.384,22.788C8.316,22.734 8.255,22.673 8.202,22.603C8.149,22.533 8.105,22.454 8.073,22.375C8.026,22.259 8.001,22.135 8,22.008C8,22.005 8,22.003 8,22.001L8,22L8,6.5L8.5,6L30.5,6C30.667,6.167 30.833,6.333 31,6.5ZM30,22.001C30,22.001 30,22.002 30,22.001C30,22.001 30,22.001 30,22.001ZM30,22.001C30,22 30,22.001 30,22.001ZM29.999,22L29.999,22.001C29.999,22.001 30,22 29.999,22ZM30,22.001C30,22.001 30,22.001 30,22.001ZM30,22.001C30,22.001 30,22 30,22.001ZM29.999,22C29.999,22 29.998,22.001 29.999,22C29.999,22 29.999,22 29.999,22ZM29.999,22.001C29.999,22.001 29.999,22.001 29.999,22.001ZM29.999,22C29.999,22 29.998,22.001 29.999,22C29.999,22 29.999,22 29.999,22ZM9,22.001C9,22.001 9,22.001 9,22.001ZM30,22C30,22 29.999,22.001 30,22C30,22 30,22 30,22ZM30,22L30,22.001C30,22.001 30,22 30,22ZM9.001,22.001C9,22 9.001,22.001 9.001,22.001ZM9,22.001L9,22.001ZM29.999,22.001C29.999,22.001 29.999,22.001 29.999,22.001ZM29.999,22C29.999,22 29.998,22.001 29.999,22C29.999,22 29.999,22 29.999,22ZM29.999,22.001C29.999,22.001 29.999,22.001 29.999,22.001ZM30,22.001C30,22.001 30,22 30,22.001ZM9.001,22.001C9.001,22.001 9,22 9.001,22.001ZM29.999,22C29.999,22 29.999,22 29.999,22ZM9.001,22.001C9.001,22.001 9.001,22 9.001,22.001ZM9.001,22.001C9.001,22.001 9,22 9.001,22.001ZM29.999,22C29.999,22 29.999,22 29.999,22ZM30,22.001C30,22.001 30,22.001 30,22.001ZM9.001,22.001C9.001,22 9,22 9.001,22.001ZM9.001,22.001C9.001,22.001 9,22 9.001,22.001ZM30,22C29.999,22 29.998,22.001 30,22C30,22 30,22 30,22ZM29.999,22C29.999,22 29.999,22 29.999,22ZM30,22C29.999,22 30,22 30,22ZM9,22C9,22 9,22 9,22ZM9.001,22C9,22 9,22 9.001,22ZM30,22L29.999,22C29.999,22 30,22 30,22ZM9,22L9.001,22C9.001,22 9,22 9,22ZM9.001,22C9.001,22 9,22 9.001,22ZM30,22L29.999,22C29.999,22 30,22 30,22ZM30,22C30,22 30,22 30,22ZM29.999,22C29.999,22 29.999,22 29.999,22ZM30,22L30,22ZM30,22C30,22 30,22 30,22ZM30,22C30,22 30,22 30,22ZM30,22C30,22 30,22 30,22ZM30,22L30,22C30,22 30,22 30,22ZM9,22L9.001,22C9.001,22 9,22 9,22ZM30,22C29.999,22.001 30,22 30,22ZM30,22M9.001,22L9,22C9,22 9,22 9.001,22ZM29.999,22C29.999,22 30,22 29.999,22ZM30,22C30,22 30,22 30,22ZM9.001,22L9,22C9,22 9,22 9.001,22ZM30,22C30,22 30,22 30,22ZM30,22L30,22C30,22 30,22 30,22ZM30,22M30,22C30,22 30,22 30,22ZM30,22C30,22 30,22 30,22ZM9.001,22C9.001,22 9,22 9.001,22ZM30,22C30,22 30,22 30,22ZM30,22L30,22C30,22 30,22 30,22ZM29.999,22C29.999,22 29.999,22 29.999,22ZM30,22C30,22 30,22 30,22ZM30,22C30,22 30,22 30,22ZM30,22C30,22 30,22 30,22ZM30,22C30,22 30,22 30,22ZM29.999,22C30,22 30,22 29.999,22ZM30,22C30,22 30,22 30,22ZM30,22C30,22 30,22 30,22ZM30,22C30,22 30,22 30,22ZM30,22C30,22 30,22 30,22ZM9,22L9,22C9,22 9,22 9,22ZM30,22C30,22 30,22 30,22ZM30,22C30,22 30,22 30,22ZM30,22C30,22 30,22 30,22ZM29.999,22C29.999,22 30,22 29.999,22ZM9,22L9.001,22C9.001,22 9,22 9,22ZM30,22C30,22 30,22 30,22ZM30,22C30,22 30,22 30,22ZM30,22C30,22 30,22 30,22ZM30,22C30,22 30,22 30,22ZM30,22L30,22ZM30,22C30,22 30,22 30,22ZM30,22C30,22 30,22 30,22ZM30,22C30,22 30,22 30,22ZM30,22C30,22 30,22 30,22ZM30,22C30,22 30,22 30,22ZM30,22C30,22 30,22 30,22ZM30,22C30,22 30,22 30,22ZM9,22C9,22 9,22 9,22ZM9,22C9,22 9,22 9,22ZM30,22C30,22 30,22 30,22ZM30,22L30,22ZM30,22C30,22 30,22 30,22ZM30,22C30,22 30,22 30,22ZM30,22C30,22 30,22 30,22ZM30,22C30,22 30,22 30,22ZM9,22C9,22 9,22 9,22ZM30,22C30,22 30,22 30,22ZM30,22C30,22 30,22 30,22ZM30,22C30,22 30,22 30,22ZM30,22C30,22 30,22 30,22ZM9,22C9,22 9,22 9,22ZM30,22C30,22 30,22 30,22ZM9,22C9,22 9,22 9,22ZM9,22C9,22 9,22 9,22ZM9,22C9,22 9,22 9,22ZM30,22C30,22 30,22 30,22ZM9,22C9,22 9,22 9,22ZM30,22C30,22 30,22 30,22ZM9,22C9,22 9,22 9,22ZM30,22C30,22 30,22 30,22ZM30,22C30,22 30,22 30,22ZM30,22C30,22 30,22 30,22ZM9,22C9,22 9,22 9,22ZM9,22C9,22 9,22 9,22ZM9,22C9,22 9,22 9,22ZM30,22C30,22 30,22 30,22ZM9,22C9,22 9,22 9,22ZM30,22C30,22 30,22 30,22ZM30,22C30,22 30,22 30,22ZM30,22C30,22 30,22 30,22ZM30,22C30,22 30,22 30,22ZM30,22C30,22 30,22 30,22ZM9,22C9,22 9,22 9,22ZM30,22C30,22 30,22 30,22ZM9,22C9,22 9,22 9,22ZM9,22C9,22 9,22 9,22ZM30,22C30,22 30,22 30,22ZM30,22C30,22 30,22 30,22ZM30,22C30,22 30,22 30,22ZM9,22C9,22 9,22 9,22ZM9,22C9,22 9,22 9,22ZM9,22C9,22 9,22 9,22ZM30,22C30,22 30,22 30,22ZM9,22C9,22 9,22 9,22ZM30,22C30,22 30,22 30,22ZM30,22C30,22 30,22 30,22ZM30,22C30,22 30,22 30,22ZM30,22C30,22 30,22 30,22ZM9,22C9,22 9,22 9,22ZM9,22C9,22 9,22 9,22ZM9,22C9,22 9,22 9,22ZM30,22C30,22 30,22 30,22ZM30,22L30,22ZM30,22C30,22 30,22 30,22ZM30,22C30,22 30,22 30,22ZM30,22C30,22 30,22 30,22ZM30,22C30,22 30,22 30,22ZM30,22C30,22 30,22 30,22ZM30,22C30,22 30,22 30,22ZM30,22C30,22 30,22 30,22ZM9,22C9,22 9,22 9,22ZM9,22C9,22 9,22 9,22ZM30,22M30,22C30,22 30,22 30,22ZM30,22M30,22C30,22 30,22 30,22ZM9,22C9,22 9,22 9,22ZM30,22C30,22 30,22 30,22ZM30,22C30,22 30,22 30,22ZM30,22C30,22 30,22 30,22ZM30,22C30,22 30,22 30,22ZM9,22C9,22 9,22 9,22ZM30,22C30,22 30,22 30,22ZM30,22C30,22 30,22 30,22ZM30,22C30,22 30,22 30,22ZM9,22C9,22 9,22 9,22ZM30,22C30,22 30,22 30,22ZM30,22C30,22 30,22 30,22ZM30,22M30,22C30,22 30,22 30,22ZM30,22C30,22 30,22 30,22ZM30,22C30,22 30,22 30,22ZM30,22C30,22 30,22 30,22ZM30,22C30,22 30,22 30,22ZM30,22C30,22 30,22 30,22ZM30,22M30,22L30,22ZM30,22C30,22 30,22 30,22ZM30,22C30,22 30,22 30,22ZM9,22C9,22 9,22 9,22ZM9,22C9,22 9,22 9,22ZM30,22C30,22 30,22 30,22ZM30,22C30,22 30,22 30,22ZM9,22C9,22 9,22 9,22ZM9,22C9,22 9,22 9,22ZM30,22C30,22 30,22 30,22ZM30,22C30,22 30,22 30,22ZM30,22C30,22 30,22 30,22ZM30,22C30,22 30,22 30,22ZM9,22C9,22 9,22 9,22ZM9,22L9,22C9,22 9,22 9,22ZM9,22C9,22 9,22 9,22ZM30,22C30,22 30,22 30,22ZM9,22C9,22 9,22 9,22ZM30,22C30,22 30,22 30,22ZM9,22C9,22 9,22 9,22ZM9,22C9,22 9,22 9,22ZM30,22C30,22 30,22 30,22ZM30,22C30,22 30,22 30,22ZM9,22C9,22 9,22 9,22ZM9,22C9,22 9,22 9,22ZM30,22C30,22 30,22 30,22ZM30,22C30,22 30,22 30,22ZM9,22C9,22 9,22 9,22ZM9,22C9,22 9,22 9,22ZM30,22C30,22 30,22 30,22ZM9,22C9,22 9,22 9,22ZM30,22C30,22 30,22 30,22ZM30,22C30,22 30,22 30,22ZM9,22C9,22 9,22 9,22ZM9,22C9,22 9,22 9,22ZM30,22C30,22 30,22 30,22ZM30,22L30,22ZM9,22C9,22 9,22 9,22ZM30,22C30,22 30,22 30,22ZM9,22C9,22 9,22 9,22ZM30,22C30,22 30,22 30,22ZM30,22C30,22 30,22 30,22ZM30,22C30,22 30,22 30,22ZM9,22C9,22 9,22 9,22ZM9,22C9,22 9,22 9,22ZM30,22C30,22 30,22 30,22ZM9,22C9,22 9,22 9,22ZM30,22C30,22 30,22 30,22ZM9,22C9,22 9,22 9,22ZM9,22C9,22 9,22 9,22ZM30,22C30,22 30,22 30,22ZM9,22C9,22 9,22 9,22ZM9,22C9,22 9,22 9,22ZM30,22C30,22 30,22 30,22ZM30,22C30,22 30,22 30,22ZM30,22C30,22 30,22 30,22ZM9,22C9,22 9,22 9,22ZM30,22C30,22 30,22 30,22ZM9,22C9,22 9,22 9,22ZM30,22C30,22 30,22 30,22ZM30,22C30,22 30,22 30,22ZM9,22C9,22 9,22 9,22ZM30,22C30,22 30,22 30,22ZM30,22M30,22M30,22C30,22 30,22 30,22ZM9,22C9,22 9,22 9,22ZM9,22C9,22 9,22 9,22ZM9,22C9,22 9,22 9,22ZM9,22C9,22 9,22 9,22ZM30,22C30,22 30,22 30,22ZM30,22C30,22 30,22 30,22ZM30,22C30,22 30,22 30,22ZM9,22C9,22 9,22 9,22ZM9,22C9,22 9,22 9,22ZM30,22L30,22ZM9,22C9,22 9,22 9,22ZM30,22C30,22 30,22 30,22ZM30,22C30,22 30,22 30,22ZM9,22C9,22 9,22 9,22ZM30,22C30,22 30,22 30,22ZM30,22C30,22 30,22 30,22ZM9,22C9,22 9,22 9,22ZM9,22C9,22 9,22 9,22ZM9,22C9,22 9,22 9,22ZM9,22C9,22 9,22 9,22ZM30,22C30,22 30,22 30,22ZM30,22M30,22M30,22C30,22 30,22 30,22ZM30,22C30,22 30,22 30,22ZM30,22M30,22M30,22C30,22 30,22 30,22ZM9,22C9,22 9,22 9,22ZM30,22C30,22 30,22 30,22ZM30,22C30,22 30,22 30,22ZM30,22C30,22 30,22 30,22ZM30,22C30,22 30,22 30,22ZM9,22C9,22 9,22 9,22ZM30,22C30,22 30,22 30,22ZM30,22C30,22 30,22 30,22ZM9,22C9,22 9,22 9,22ZM9,22C9,22 9,22 9,22ZM30,22L30,22ZM30,22C30,22 30,22 30,22ZM9,22C9,22 9,22 9,22ZM30,22M30,22C30,22 30,22 30,22ZM9,22C9,22 9,22 9,22ZM30,22C30,22 30,22 30,22ZM9,22C9,22 9,22 9,22ZM30,22C30,22 30,22 30,22ZM30,22C30,22 30,22 30,22ZM30,22C30,22 30,22 30,22ZM9,22C9,22 9,22 9,22ZM30,22C30,22 30,22 30,22ZM30,22C30,22 30,22 30,22ZM30,22M30,22C30,22 30,22 30,22ZM30,22C30,22 30,22 30,22ZM9,22C9,22 9,22 9,22ZM30,22C30,22 30,22 30,22ZM30,22C30,22 30,22 30,22ZM30,22C30,22 30,22 30,22ZM30,22C30,22 30,22 30,22ZM30,22C30,22 30,22 30,22ZM30,22C30,22 30,22 30,22ZM30,22M9,22C9,22 9,22 9,22ZM30,22C30,22 30,22 30,22ZM9,22C9,22 9,22 9,22ZM30,22C30,22 30,22 30,22ZM30,22L30,22ZM30,22C30,22 30,22 30,22ZM9,22C9,22 9,22 9,22ZM30,22C30,22 30,22 30,22ZM9,22C9,22 9,22 9,22ZM30,22M30,22C30,22 30,22 30,22ZM9,22C9,22 9,22 9,22ZM9,22M9,22C9,22 9,22 9,22ZM9,22L9,22ZM30,22C30,22 30,22 30,22ZM30,22C30,22 30,22 30,22ZM30,22L30,22ZM9,22C9,22 9,22 9,22ZM9,22C9,22 9,22 9,22ZM30,22L30,22ZM30,22C30,22 30,22 30,22ZM30,22C30,22 30,22 30,22ZM9,22C9,22 9,22 9,22ZM9,22C9,22 9,22 9,22ZM30,22C30,22 30,22 30,22ZM9,22C9,22 9,22 9,22ZM9,22C9,22 9,22 9,22ZM30,22C30,22 30,22 30,22ZM30,22C30,22 30,22 30,22ZM9,22C9,22 9,22 9,22ZM30,22C30,22 30,22 30,22ZM30,22C30,22 30,22 30,22ZM30,22C30,22 30,22 30,22ZM30,22C30,22 30,22 30,22ZM30,22C30,22 30,22 30,22ZM9,22C9,22 9,22 9,22ZM30,22L30,22ZM30,22C30,22 30,22 30,22ZM9,22C9,22 9,22 9,22ZM30,22C30,22 30,22 30,22ZM30,22C30,22 30,22 30,22ZM9,22C9,22 9,22 9,22ZM30,22C30,22 30,22 30,22ZM30,22C30,22 30,22 30,22ZM9,22M9,22C9,22 9,22 9,22ZM30,22C30,22 30,22 30,22ZM30,22C30,22 30,22 30,22ZM30,22C30,22 30,22 30,22ZM9,22C9,22 9,22 9,22ZM30,22C30,22 30,22 30,22ZM30,22L30,22ZM30,22C30,22 30,22 30,22ZM9,22C9,22 9,22 9,22ZM30,22C30,22 30,22 30,22ZM9,22C9,22 9,22 9,22ZM30,22M30,22C30,22 30,22 30,22ZM30,22C30,22 30,22 30,22ZM30,22C30,22 30,22 30,22ZM9,22C9,22 9,22 9,22ZM30,22C30,22 30,22 30,22ZM30,22C30,22 30,22 30,22ZM30,22C30,22 30,22 30,22ZM9,22C9,22 9,22 9,22ZM30,22C30,22 30,22 30,22ZM30,22C30,22 30,22 30,22ZM30,22C30,22 30,22 30,22ZM30,22C30,22 30,22 30,22ZM30,22C30,22 30,22 30,22ZM30,22C30,22 30,22 30,22ZM30,22C30,22 30,22 30,22ZM30,22C30,22 30,22 30,22ZM30,22L30,22ZM9,22L9,22C9,22 9,22 9,22ZM9,22L9,22C9,22 9,22 9,22ZM9,22L9,22C9,22 9,22 9,22ZM9,22C9,22 9,22 9,22ZM9,22C9,22 9,22 9,22ZM9,7C9,12 8.994,17 9,22L9,22L30,22C30,22 30,22 30,22L30,7C23,7 16,7 9,7ZM30,22C30,22 30,22 30,22ZM30,22C30,22 30,22 30,22ZM30,22C30,22 30,22 30,22ZM30,22C30,22 30,22 30,22ZM30,22C30,22 30,22 30,22ZM30,22C30,22 30,22 30,22ZM30,22C30,22 30,22 30,22ZM30,22C30,22 30,22 30,22ZM30,22C30,22 30,22 30,22ZM30,22C30,22 30,22 30,22ZM30,22C30,22 30,22 30,22ZM30,22C30,22 30,22 30,22ZM30,22C30,22 30,22 30,22ZM9,22C9,22 9,22 9,22ZM30,22C30,22 30,22 30,22ZM9,22C9,22 9,22 9,22ZM30,22C30,22 30,22 30,22ZM30,22C30,22 30,22 30,22ZM30,22C30,22 30,22 30,22ZM30,22C30,22 30,22 30,22ZM9,22C9,22 9,22 9,22ZM30,22C30,22 30,22 30,22ZM30,22C30,22 30,22 30,22ZM30,22C30,22 30,22 30,22ZM9,22C9,22 9,22 9,22ZM9,22C9,22 9,22 9,22ZM30,22C30,22 30,22 30,22ZM30,22C30,22 30,22 30,22ZM30,22C30,22 30,22 30,22ZM30,22C30,22 30,22 30,22ZM9,22C9,22 9,22 9,22ZM30,22C30,22 30,22 30,22ZM30,22L30,22ZM30,22C30,22 30,22 30,22ZM30,22C30,22 30,22 30,22ZM30.001,22C30.001,22 30.001,22 30.001,22ZM30,22C30,22 30,22 30,22ZM30,22C30,22 30,22 30,22ZM30,22C30,22 30.001,22 30,22ZM30,22C30,22 30,22 30,22ZM30,22C30,22 30,22 30,22ZM30,22C30,22 30.001,22 30,22ZM30,22C30,22 30,22 30,22ZM30,22C30,22 30,22 30,22ZM30,22C30,22 30,22 30,22ZM9,22C9,22 9,22 9,22ZM30,22C30,22 30,22 30,22ZM30,22C30,22 30,22 30,22ZM30,22L30,22ZM30,22C30,22 30,22 30,22ZM30.001,22C30.001,22 30.001,22 30.001,22ZM8.999,22C8.999,22 8.999,22 8.999,22ZM8.999,22C9,22 8.999,22 8.999,22ZM8.999,22C8.999,22 8.999,22 8.999,22ZM30,22L30,22ZM9,22C9,22 9,22 9,22ZM30,22C30,22 30,22 30,22ZM30.001,22C30.001,22 30.001,22 30.001,22ZM30,22C30,22 30,22 30,22ZM30,22M30,22L30,22ZM30.001,22C30.001,22 30.001,22 30.001,22ZM30,22C30,22 30,22 30,22ZM30,22C30,22 30,22 30,22ZM30,22C30,22 30,22 30,22ZM30,22C30,22 30,22 30,22ZM9,22C9,22 9,22 9,22ZM30,22C30,22 30,22 30,22ZM30,22C30,22 30,22 30,22ZM30,22C30,22 30,22 30,22ZM8.999,22C8.999,22 8.999,22 8.999,22ZM9,22C9,22 9,22 9,22ZM30,22C30,22 30,22 30,22ZM30,22C30,22 30,22 30,22ZM30,22C30,22 30,22 30,22ZM9,22C9,22 9,22 9,22ZM30.001,22C30.001,22 30.001,22 30.001,22ZM30,22C30,22 30,22 30,22ZM30,22C30,22 30,22 30,22ZM30,22M30,22L30,22ZM9,22C9,22 9,22 9,22ZM30,22C30,22 30,22 30,22ZM30,22C30,22 30,22 30,22ZM30,22C30,22 30,22 30,22ZM30,22C30,22 30,22 30,22ZM30,22L30,22ZM9,22C9,22 9,22 9,22ZM30,22C30,22 30,22 30,22ZM9,22C9,22 9,22 9,22ZM30,22C30,22 30,22 30,22ZM9,22C9,22 9,22 9,22ZM30,22C30,22 30,21.999 30,22ZM9,22C9,22 9,22 9,22ZM30,22C30,22 30,22 30,22ZM30,22C30,22 30,22 30,22ZM9,22C9,22 9,22 9,22ZM30,22C30,22 30,22 30,22ZM30,22C30,22 30,22 30,22ZM30,22C30,22 30,22 30,22ZM30,22C30,22 30,22 30,22ZM30,22C30,22 30,22 30,22ZM30,22C30,22 30,22 30,22ZM30,22C30,22 30,22 30,22ZM30,22C30,22 30,22 30,22ZM30,22C30,22 30.001,22 30,22ZM30,22C30,22 30,22 30,22ZM30,22C30,22 30,22 30,22ZM9,22C9,22 9,22 9,22ZM30,22C30,22 30,22 30,22ZM30,22M9,22C9,22 9,22 9,22ZM30,22C30,22 30,22 30,22ZM30,22C30,22 30,22 30,22ZM30,22C30,22 30,22 30,22ZM30,22L30,22ZM30,22C30,22 30,22 30,22ZM30,22L30,22ZM30,22C30,22 30,22 30,22ZM30,22C30,22 30,22 30,22ZM30,22C30,22 30,22 30,22ZM30,22C30,22 30,22 30,22ZM30,22C30,22 30,22 30,22ZM30,22C30,22 30,22 30,22ZM30,22C30,22 30,22 30,22ZM30,22L30,22ZM30,22C30,22 30,22 30,22ZM9,22C9,22 9,22 9,22ZM30,22C30,22 30,22 30,22ZM30,22C30,22 30,22 30,22ZM30,22C30,22 30,22 30,22ZM30,22C30,22 30,22 30,22ZM9,22C9,22 9,22 9,22ZM30,22C30,22 30,22 30,22ZM30,22C30,22 30,22 30,22ZM9,22C9,22 9,22 9,22ZM30,22C30,22 30,22 30,22ZM30,22C30,22 30,22 30,22ZM30,22C30,22 30,22 30,22ZM30,22C30,22 30,22 30,22ZM30,22C30,22 30,22 30,22ZM30,22C30,22 30,22 30,22ZM30,22C30,22 30,22 30,22ZM30,22L30,22ZM9,22C9,22 9,22 9,22ZM9,22C9,22 9,22 9,22ZM30,22C30,22 30,22 30,22ZM30,22C30,22 30,22 30,22ZM30,22C30,22 30,22 30,22ZM30,22C30,22 30,22 30,22ZM30,22L30,22ZM30,22C30,22 30,22 30,22ZM30,22C30,22 30,22 30,22ZM30,22C30,22 30,22 30,22ZM30,22C30,22 30,22 30,22ZM30,22C30,22 30,22 30,22ZM30,22C30,22 30.001,21.999 30,22ZM30,22C30,22 30,22 30,22ZM30,22M30,22C30,22 30,22 30,22ZM30,22C30,22 30,22 30,22ZM9,22C9,22 9,22 9,22ZM30,22C30,22 30,22 30,22ZM30,22C30,22 30,22 30,22ZM30,22C30,22 30,22 30,22ZM9,22C9,22 9,22 9,22ZM30,22C30,22 30,22 30,22ZM30,22C30,22 30,22 30,22ZM9,22M30,22C30,22 30,22 30,22ZM30,22C30,22 30,22 30,22ZM30,22C30,22 30,22 30,22ZM30,22C30,22 30,22 30,22ZM30,22L30,22ZM30,22C30,22 30,22 30,22ZM30,22C30,22 30,22 30,22ZM9,22C9,22 8.999,21.999 9,22ZM30,22C30,22 30,22 30,22ZM30,22C30,22 30,22 30,22ZM30,22C30,22 30,22 30,22ZM30,22C30,22 30,22 30,22ZM30,22C30,22 30,22 30,22ZM30,22C30,22 30,22 30,22ZM30,22C30,22 30,22 30,22ZM30,22C30,22 30,22 30,22ZM30,22C30,22 30,21.999 30,22ZM30,22L30,22ZM30,22C30,22 30,22 30,22ZM30,22C30,22 30,22 30,22ZM30,22C30,22 30,22 30,22ZM30,22C30,22 30,22 30,22ZM30,22C30,22 30,22 30,22ZM30,22C30,22 30.001,21.999 30,22ZM30,22C30,22 30,22 30,22ZM30,22C30,22 30,22 30,22ZM30,22C30,22 30,22 30,22ZM9,22M30,22C30,22 30,22 30,22ZM30,22C30,22 30,22 30,22ZM30,22C30,22 30,22 30,22ZM30,22C30,22 30,22 30,22ZM30,22C30,22 30,22 30,22ZM30,22C30,22 30,22 30,22ZM9,22L9,22ZM9,22C9,22 9,22 9,22ZM9,22C9,22 9,22 9,22ZM30,22M9,22M9,22C9,22 9,22 9,22ZM9,22C9,22 9,22 9,22ZM30,22C30,22 30,22 30,22ZM30,22C30,22 30,22 30,22ZM30,22C30,22 30,22 30,22ZM30,22C30,22 30,22 30,22ZM9,22C9,22 9,22 9,22ZM30,22L30,22ZM30,22M30,22C30,22 30,22 30,22ZM30,22M30,22C30,22 30,22 30,22ZM30,22M30,22M30,22C30,22 30,22 30,22ZM30,22C30,22 30,22 30,22ZM9,22C9,22 8.999,21.999 9,22ZM9,22C9,22 9,22 9,22ZM30,22M30,22C30,22 30,22 30,22ZM30,22C30,22 30,22 30,22ZM30,22C30,22 30,22 30,22ZM30,22C30,22 30,22 30,22ZM30,22C30,22 30,22 30,22ZM30,22C30,22 30,22 30,22ZM30,22C30,22 30,22 30,22ZM30,22C30,22 30,22 30,22ZM30,22C30,22 30,22 30,22ZM30,22C30,22 30,22 30,22ZM30,22C30,22 30,22 30,22ZM30,22C30,22 30,22 30,22ZM30,22C30,22 30,22 30,22ZM30,22C30,22 30,22 30,22ZM30,22C30,22 30,22 30,22ZM30,22C30,22 30.001,21.999 30,22ZM30,22C30,22 30,22 30,22ZM30,22C30,22 30,22 30,22ZM30,22C30,22 30,22 30,22ZM30,22C30,22 30,22 30,22ZM30,22C30,22 30,22 30,22ZM30,22C30,22 30,22 30,22ZM30,22C30,22 30,22 30,22ZM30,22C30,22 30,22 30,22ZM30,22C30,22 30,22 30,22ZM30,22C30,22 30,22 30,22ZM30,22C30,22 30,22 30,22ZM30,22C30,22 30,22 30,22ZM30,22M30,22C30,22 30,22 30,22ZM30,22C30,22 30,22 30,22ZM30,22C30,22 30,22 30,22ZM30,22C30,22 30,22 30,22ZM30,22C30,22 30,22 30,22ZM30,22C30,22 30,22 30,22ZM30,22C30,22 30.001,21.999 30,22ZM30,22C30,22 30,21.999 30,22ZM30,22C30,22 30,22 30,22ZM30,22C30,22 30,22 30,22L30,22C30,22 30,22 30,22ZM30,22C30,22 30,22 30,22ZM30,22C30,22 30,22 30,22ZM9,22C9,22 9,21.999 9,22ZM30,22C30,22 30.001,21.999 30,22ZM30,22C30,22 30,22 30,22ZM30,22C30,22 30.001,21.999 30,22ZM30,22C30,22 30,21.999 30,22ZM30,22C30,22 30.001,21.999 30,22ZM9,22L9,22C9,22 9,21.999 9,22ZM30,21.999C30,21.999 30.001,21.999 30.001,21.999C30.001,21.999 30.001,21.999 30,21.999ZM9,22C9,22 8.999,21.999 9,22ZM30,22C30,22 30.001,21.999 30,22ZM9,22C9,22 9,22 9,22ZM30,22C30,22 30,21.999 30,22ZM9,22C9,22 8.999,21.999 9,22ZM30,22C30,22 30.001,21.999 30,22ZM9,21.999C9,21.999 9,21.999 9,21.999ZM9,22C9,22 8.999,21.999 9,22ZM30,21.999C30,21.999 30.001,21.999 30,21.999ZM30,21.999C30,21.999 30.001,21.999 30,21.999ZM30,21.999C30,21.999 30.001,21.998 30,21.999ZM30,21.999C30,21.999 30.001,21.998 30,21.999ZM30,21.999C30,21.999 30.001,21.999 30,21.999ZM30,21.999C30,21.999 30,21.999 30,21.999ZM30.001,21.999C30.001,21.999 30.001,21.999 30.001,21.999ZM9,21.999C9,21.999 8.999,21.999 9,21.999ZM30,21.999C30,21.999 30.001,21.999 30,21.999ZM30,21.999C30,21.999 30.001,21.999 30,21.999ZM30.001,21.999C30.001,21.999 30.001,21.999 30.001,21.999ZM30.001,21.999C30.001,21.999 30.001,21.999 30.001,21.999Z" />
        <path fill="#3E79B4" class="Blue" d="M31,7L8,7L8,2.4C8,1.627 8.627,1 9.4,1L29.6,1C30.373,1 31,1.627 31,2.4L31,7Z" />
        <path fill="#FFFFFF" class="White" d="M7,22.225L7,14.5L1.5,14.5L1.5,30C1.5,30.276 1.724,30.5 2,30.5L23,30.5C23.276,30.5 23.5,30.276 23.5,30L23.5,24L8.775,24C7.795,24 7,23.205 7,22.225Z" />
        <path fill="#797979" class="Black" d="M23,24L23.001,30L2,30L2,15L7,15L7,14L1,14L1,30C1,30.551 1.449,31 2,31L23,31C23.551,31 24,30.551 24,30L24,24L23,24Z" />
        <path fill="#3E79B4" class="Blue" d="M7,9L2.4,9C1.627,9 1,9.627 1,10.4L1,15L7,15L7,9Z" />
    </g>
</svg>
