<?xml version="1.0" encoding="UTF-8"?>
<!DOCTYPE svg PUBLIC "-//W3C//DTD SVG 1.1//EN" "http://www.w3.org/Graphics/SVG/1.1/DTD/svg11.dtd">
<svg version="1.1" id="Layer_1" xmlns="http://www.w3.org/2000/svg" xmlns:xlink="http://www.w3.org/1999/xlink" x="0px" y="0px" width="32px" height="32px" viewBox="0 0 32 32" enable-background="new 0 0 32 32" xml:space="preserve">
  <style type="text / css">
    .Red{fill:#CD4C32;}
    .Green{fill:#4EA17E;}
    .Blue{fill:#3E79B4;}
    .Yellow{fill:#EAB765;}
    .Black{fill:#797979;}
    .Gray{fill:#B4B4B5;}
    .White{fill:#FFFFFF;}
  </style>
  <g id="icon">
    <path fill="#FFFFFF" class="White" d="M8.533,4.5v4.461c0.825,-0.262,1.797,-0.394,2.93,-0.394c0,0,0.004,0,0.007,0c2.405,0,4.103,0.577,5.193,1.764c1.248,1.36,1.392,3.22,1.392,4.501c0,1.801,-0.654,4.506,-2.075,6.601c0.438,0.154,0.845,0.295,1.222,0.426c0.633,0.22,1.202,0.417,1.714,0.607h11.518V4.5H8.533z" />
    <path fill="#797979" class="Black" d="M8,4v5.157c0.309,-0.131,0.642,-0.24,1,-0.328V5h21l0.001,17H17.606c1.049,0.365,1.911,0.673,2.621,1H30c0.551,0,1,-0.449,1,-1V4H8z" />
    <path fill="#3E79B4" class="Blue" d="M29.6,1H9.4c-0.773,0,-1.4,0.627,-1.4,1.4v2.6h23V2.4C31,1.627,30.373,1,29.6,1z" />
    <path fill="#4EA17E" class="Green" d="M23.541,10.314c-0.149,-0.149,-0.149,-0.39,0,-0.539l0.333,-0.333c0.149,-0.149,0.39,-0.149,0.539,0l0.939,0.939l2.257,-2.257c0.149,-0.149,0.39,-0.149,0.539,0l0.333,0.333c0.149,0.149,0.149,0.39,0,0.539l-2.859,2.859c-0.149,0.149,-0.39,0.149,-0.539,0L23.541,10.314zM28.147,15.124c-0.149,-0.149,-0.39,-0.149,-0.539,0l-2.257,2.257l-0.939,-0.939c-0.149,-0.149,-0.39,-0.149,-0.539,0l-0.333,0.333c-0.149,0.149,-0.149,0.39,0,0.539l1.541,1.541c0.149,0.149,0.39,0.149,0.539,0l2.859,-2.859c0.149,-0.149,0.149,-0.39,0,-0.539L28.147,15.124z" />
    <path fill="#797979" class="Black" fill-opacity="0.5" d="M21.5,19h-4.279c0.126,-0.334,0.238,-0.668,0.335,-1H21v-2h-3.025c0.044,-0.353,0.069,-0.688,0.076,-1H21.5c0.276,0,0.5,0.224,0.5,0.5v3C22,18.776,21.776,19,21.5,19zM11.463,8.567c0,0,0.004,0,0.007,0c1.197,0,2.219,0.143,3.078,0.433H21v2h-3.831c0.2,0.321,0.355,0.658,0.476,1H21.5c0.276,0,0.5,-0.224,0.5,-0.5V8.5c0,-0.276,-0.224,-0.5,-0.5,-0.5H11.5c-0.276,0,-0.5,0.224,-0.5,0.5v0.075C11.151,8.57,11.305,8.567,11.463,8.567z" />
    <path fill="#797979" class="Black" d="M21.934,27.117c-0.528,-2.666,-1.468,-2.711,-6.605,-4.525c-0.75,-0.282,-0.962,-0.687,-0.906,-1.266c1.449,-1.732,2.322,-4.535,2.322,-6.494c0,-3.034,-1.035,-4.956,-5.276,-4.956c-0.017,0,0.006,0,0,0c-4.24,0,-5.19,1.922,-5.19,4.956c0,1.959,0.87,4.756,2.319,6.489c0.056,0.579,-0.157,0.987,-0.907,1.269c-5.137,1.815,-6.078,1.86,-6.606,4.526c-0.159,1.072,-0.185,1.521,0.238,2.708c0.476,1.337,7.203,1.162,10.147,1.162c0.012,0,-0.02,0,0,0c2.945,0,9.75,0.175,10.226,-1.161C22.118,28.638,22.092,28.189,21.934,27.117z" fill-rule="evenodd" />
  </g>
</svg>
