<?xml version="1.0" encoding="UTF-8"?>
<!DOCTYPE svg PUBLIC "-//W3C//DTD SVG 1.1//EN" "http://www.w3.org/Graphics/SVG/1.1/DTD/svg11.dtd">
<svg version="1.1" id="Layer_1" xmlns="http://www.w3.org/2000/svg" xmlns:xlink="http://www.w3.org/1999/xlink" x="0px" y="0px" width="32px" height="32px" viewBox="0 0 32 32" enable-background="new 0 0 32 32" xml:space="preserve">
  <style type="text / css">
    .Red{fill:#CD4C32;}
    .Green{fill:#4EA17E;}
    .Blue{fill:#3E79B4;}
    .Yellow{fill:#EAB765;}
    .Black{fill:#797979;}
    .Gray{fill:#B4B4B5;}
    .White{fill:#FFFFFF;}
  </style>
  <g id="icon">
    <path fill="#797979" class="Black" d="M5,8v20.675C5,29.9591,6.0409,31,7.325,31h17.35c1.2841,0,2.325,-1.0409,2.325,-2.325V8H5zM11,26.5c0,0.2761,-0.2239,0.5,-0.5,0.5H9.5c-0.2761,0,-0.5,-0.2239,-0.5,-0.5V12.5c0,-0.2761,0.2239,-0.5,0.5,-0.5h1c0.2761,0,0.5,0.2239,0.5,0.5V26.5zM15,26.5c0,0.2761,-0.2239,0.5,-0.5,0.5h-1c-0.2761,0,-0.5,-0.2239,-0.5,-0.5V12.5c0,-0.2761,0.2239,-0.5,0.5,-0.5h1c0.2761,0,0.5,0.2239,0.5,0.5V26.5zM19,26.5c0,0.2761,-0.2239,0.5,-0.5,0.5h-1c-0.2761,0,-0.5,-0.2239,-0.5,-0.5V12.5c0,-0.2761,0.2239,-0.5,0.5,-0.5h1c0.2761,0,0.5,0.2239,0.5,0.5V26.5zM23,26.5c0,0.2761,-0.2239,0.5,-0.5,0.5h-1c-0.2761,0,-0.5,-0.2239,-0.5,-0.5V12.5c0,-0.2761,0.2239,-0.5,0.5,-0.5h1c0.2761,0,0.5,0.2239,0.5,0.5V26.5z" />
    <path fill="#3E79B4" class="Blue" d="M27.4625,3H19V2c0,-0.5523,-0.4477,-1,-1,-1h-4c-0.5523,0,-1,0.4477,-1,1v1H4.5375C3.6884,3,3,3.6884,3,4.5375v1.975C3,6.7817,3.2183,7,3.4875,7h25.025c0.2692,0,0.4875,-0.2183,0.4875,-0.4875v-1.975C29,3.6884,28.3116,3,27.4625,3z" />
    <path fill="#FFFFFF" class="White" d="M10.5,27H9.5c-0.2761,0,-0.5,-0.2239,-0.5,-0.5V12.5c0,-0.2761,0.2239,-0.5,0.5,-0.5h1c0.2761,0,0.5,0.2239,0.5,0.5v14C11,26.7761,10.7761,27,10.5,27zM15,26.5V12.5c0,-0.2761,-0.2239,-0.5,-0.5,-0.5h-1c-0.2761,0,-0.5,0.2239,-0.5,0.5v14c0,0.2761,0.2239,0.5,0.5,0.5h1C14.7761,27,15,26.7761,15,26.5zM19,26.5V12.5c0,-0.2761,-0.2239,-0.5,-0.5,-0.5h-1c-0.2761,0,-0.5,0.2239,-0.5,0.5v14c0,0.2761,0.2239,0.5,0.5,0.5h1C18.7761,27,19,26.7761,19,26.5zM23,26.5V12.5c0,-0.2761,-0.2239,-0.5,-0.5,-0.5h-1c-0.2761,0,-0.5,0.2239,-0.5,0.5v14c0,0.2761,0.2239,0.5,0.5,0.5h1C22.7761,27,23,26.7761,23,26.5z" />
  </g>
</svg>
