<?xml version="1.0" encoding="UTF-8"?>
<!DOCTYPE svg PUBLIC "-//W3C//DTD SVG 1.1//EN" "http://www.w3.org/Graphics/SVG/1.1/DTD/svg11.dtd">
<svg version="1.1" id="Layer_1" xmlns="http://www.w3.org/2000/svg" xmlns:xlink="http://www.w3.org/1999/xlink" x="0px" y="0px" width="32px" height="32px" viewBox="0 0 32 32" enable-background="new 0 0 32 32" xml:space="preserve">
  <style type="text / css">
    .Red{fill:#CD4C32;}
    .Green{fill:#4EA17E;}
    .Blue{fill:#3E79B4;}
    .Yellow{fill:#EAB765;}
    .Black{fill:#797979;}
    .Gray{fill:#B4B4B5;}
    .White{fill:#FFFFFF;}
  </style>
  <g id="icon">
    <clipPath id="clip_mask">
      <path d="M20,31.088V14.913c0,-1.055,0.858,-1.913,1.913,-1.913h9.175c0.33,0,0.641,0.084,0.913,0.232V0H0v32h20.232C20.084,31.729,20,31.418,20,31.088z"/>
    </clipPath>
    <g id="main" clip-path="url(#clip_mask)">
      <g id="transformed_icon" transform="translate(-1 -1)">
        <path fill="#797979" class="Black" d="M23.088,1H8.913C8.409,1,8,1.409,8,1.913V4h16V1.913C24,1.409,23.591,1,23.088,1zM22,3h-3V2h3V3zM8,8h16V5H8V8zM19,6h3v1h-3V6zM8,30.088c0,0.504,0.409,0.913,0.913,0.913h14.175c0.504,0,0.913,-0.409,0.913,-0.913V9H8V30.088zM16,23c1.105,0,2,0.895,2,2c0,1.105,-0.895,2,-2,2s-2,-0.895,-2,-2C14,23.895,14.895,23,16,23z" />
        <path fill="#FFFFFF" class="White" d="M22,3h-3V2h3V3zM22,6h-3v1h3V6zM16,23c-1.105,0,-2,0.895,-2,2c0,1.105,0.895,2,2,2s2,-0.895,2,-2C18,23.895,17.105,23,16,23z" />
      </g>
    </g>
    <g id="overlay">
      <path fill="#797979" class="Black" d="M31.088,14h-9.175c-0.504,0,-0.913,0.409,-0.913,0.913V17h11v-2.088C32,14.409,31.591,14,31.088,14zM30,16h-2v-1h2V16zM21,21h11v-3H21V21zM28,19h2v1h-2V19zM21,31.088c0,0.504,0.409,0.913,0.913,0.913h9.175c0.504,0,0.913,-0.409,0.913,-0.913V22H21V31.088zM26.5,27c0.828,0,1.5,0.672,1.5,1.5c0,0.828,-0.672,1.5,-1.5,1.5s-1.5,-0.672,-1.5,-1.5C25,27.672,25.672,27,26.5,27z" />
      <path fill="#FFFFFF" class="White" d="M30,16h-2v-1h2V16zM30,19h-2v1h2V19zM26.5,27c-0.828,0,-1.5,0.672,-1.5,1.5s0.672,1.5,1.5,1.5s1.5,-0.672,1.5,-1.5S27.328,27,26.5,27z" />
    </g>
  </g>
</svg>
