<?xml version="1.0" encoding="UTF-8" standalone="no"?>
<!DOCTYPE svg PUBLIC "-//W3C//DTD SVG 1.1//EN" "http://www.w3.org/Graphics/SVG/1.1/DTD/svg11.dtd">
<svg width="100%" height="100%" viewBox="0 0 32 32" version="1.1" xmlns="http://www.w3.org/2000/svg" xmlns:xlink="http://www.w3.org/1999/xlink" xml:space="preserve" xmlns:serif="http://www.serif.com/" style="fill-rule:evenodd;clip-rule:evenodd;stroke-linejoin:round;stroke-miterlimit:2;">
  <style type="text / css">
    .Red{fill:#CD4C32;}
    .Green{fill:#4EA17E;}
    .Blue{fill:#3E79B4;}
    .Yellow{fill:#EAB765;}
    .Black{fill:#797979;}
    .Gray{fill:#B4B4B5;}
    .White{fill:#FFFFFF;}
  </style>
    <g id="icon">
        <path class="White" d="M30.4,16C30.4,23.953 23.953,30.4 16,30.4C8.047,30.4 1.6,23.953 1.6,16C1.6,8.047 8.047,1.6 16,1.6C23.953,1.6 30.4,8.047 30.4,16Z" style="fill:#fff;fill-rule:nonzero;"/>
        <path class="White" d="M15.956,7.36C13.042,7.36 10.679,9.723 10.679,12.637C10.679,15.551 13.042,17.914 15.956,17.914C18.87,17.914 21.233,15.551 21.233,12.637C21.233,9.723 18.87,7.36 15.956,7.36ZM24.498,27.808C24.498,22.72 20.669,17.936 15.945,17.936C11.221,17.936 7.392,22.72 7.392,27.808" style="fill:#fff;fill-rule:nonzero;"/>
        <path class="Black" d="M13.224,17.841C11.354,16.858 10.079,14.896 10.079,12.637C10.079,9.392 12.711,6.76 15.956,6.76C19.201,6.76 21.833,9.392 21.833,12.637C21.833,14.9 20.554,16.864 18.679,17.846C22.387,19.26 25.098,23.415 25.098,27.808L23.898,27.808C23.898,23.05 20.363,18.536 15.945,18.536C11.527,18.536 7.992,23.05 7.992,27.808L6.792,27.808C6.792,23.41 9.51,19.251 13.224,17.841ZM15.956,7.96C13.373,7.96 11.279,10.054 11.279,12.637C11.279,15.22 13.373,17.314 15.956,17.314C18.539,17.314 20.633,15.22 20.633,12.637C20.633,10.054 18.539,7.96 15.956,7.96Z" style="fill:#797979;"/>
        <path class="Black" d="M16,31C7.729,31 1,24.271 1,16C1,7.729 7.729,1 16,1C24.271,1 31,7.729 31,16C31,24.271 24.271,31 16,31ZM16,2.2C8.391,2.2 2.2,8.391 2.2,16C2.2,23.609 8.391,29.8 16,29.8C23.609,29.8 29.8,23.609 29.8,16C29.8,8.391 23.609,2.2 16,2.2Z" style="fill:#797979;fill-rule:nonzero;"/>
    </g>
</svg>
