<?xml version="1.0" encoding="UTF-8"?>
<!DOCTYPE svg PUBLIC "-//W3C//DTD SVG 1.1//EN" "http://www.w3.org/Graphics/SVG/1.1/DTD/svg11.dtd">
<svg version="1.1" id="Layer_1" xmlns="http://www.w3.org/2000/svg" xmlns:xlink="http://www.w3.org/1999/xlink" x="0px" y="0px" width="32px" height="32px" viewBox="0 0 32 32" enable-background="new 0 0 32 32" xml:space="preserve">
  <style type="text / css">
    .Red{fill:#CD4C32;}
    .Green{fill:#4EA17E;}
    .Blue{fill:#3E79B4;}
    .Yellow{fill:#EAB765;}
    .Black{fill:#797979;}
    .Gray{fill:#B4B4B5;}
    .White{fill:#FFFFFF;}
  </style>
  <g id="icon">
    <path class="White" fill="#FFFFFF" d="M26.7,30.5H5.3c-0.442,0,-0.8,-0.358,-0.8,-0.8V2.3c0,-0.442,0.358,-0.8,0.8,-0.8h21.4c0.442,0,0.8,0.358,0.8,0.8v27.4C27.5,30.142,27.142,30.5,26.7,30.5z" />
    <path class="Black" fill="#797979" d="M26.7,31H5.3c-0.717,0,-1.3,-0.583,-1.3,-1.3V2.3c0,-0.717,0.583,-1.3,1.3,-1.3h21.4c0.717,0,1.3,0.583,1.3,1.3v27.4C28,30.417,27.417,31,26.7,31zM5.3,2c-0.165,0,-0.3,0.135,-0.3,0.3v27.4c0,0.165,0.135,0.3,0.3,0.3h21.4c0.165,0,0.3,-0.135,0.3,-0.3V2.3c0,-0.165,-0.135,-0.3,-0.3,-0.3H5.3z" />
    <path class="Black" fill="#797979" fill-opacity="0.5" d="M23.5,9H8.5c-0.276,0,-0.5,-0.224,-0.5,-0.5s0.224,-0.5,0.5,-0.5h15c0.276,0,0.5,0.224,0.5,0.5S23.776,9,23.5,9zM23.5,6H8.5c-0.276,0,-0.5,-0.224,-0.5,-0.5s0.224,-0.5,0.5,-0.5h15c0.276,0,0.5,0.224,0.5,0.5S23.776,6,23.5,6z" />
    <path class="Red" fill="#CD4C32" d="M16.026,12c3.007,0,5.444,2.427,5.444,5.421s-2.437,5.421,-5.444,5.421s-5.444,-2.427,-5.444,-5.421S13.019,12,16.026,12zM12.932,22.522l-2.087,3.709c-0.118,0.209,0.032,0.468,0.273,0.471l1.668,0.02l1.194,1.16c0.173,0.168,0.463,0.09,0.528,-0.141l1.236,-4.382C14.72,23.315,13.761,23.015,12.932,22.522zM19.108,22.508l2.096,3.723c0.118,0.209,-0.032,0.468,-0.273,0.471l-1.668,0.02l-1.194,1.16c-0.173,0.168,-0.463,0.09,-0.528,-0.141l-1.236,-4.383C17.326,23.308,18.282,23.004,19.108,22.508z" />
  </g>
</svg>
