<?xml version="1.0" encoding="UTF-8"?>
<!DOCTYPE svg PUBLIC "-//W3C//DTD SVG 1.1//EN" "http://www.w3.org/Graphics/SVG/1.1/DTD/svg11.dtd">
<svg version="1.1" id="Layer_1" xmlns="http://www.w3.org/2000/svg" xmlns:xlink="http://www.w3.org/1999/xlink" x="0px" y="0px" width="32px" height="32px" viewBox="0 0 32 32" enable-background="new 0 0 32 32" xml:space="preserve">
  <style type="text / css">
    .Red{fill:#CD4C32;}
    .Green{fill:#4EA17E;}
    .Blue{fill:#3E79B4;}
    .Yellow{fill:#EAB765;}
    .Black{fill:#797979;}
    .Gray{fill:#B4B4B5;}
    .White{fill:#FFFFFF;}
  </style>
  <g id="main">
    <g id="icon">
      <path class="Green" d="M14,27L2,27L2,29L24.69,29L24.72,27L16,27L16,23.5L14,23.5zz" fill="#4EA17E"/>
      <path class="Black" d="M12.36,26.04L12.17,26.16L12.05,26.34L12,26.55L12,29.5L12.05,29.71L12.17,29.86L12.36,29.96L12.58,30L17.48,30L17.69,29.96L17.86,29.86L17.98,29.71L18.02,29.5L18.02,26.55L17.98,26.34L17.86,26.16L17.69,26.04L17.48,26L12.58,26zz" fill="#797979"/>
      <path class="White" d="M6.874,0.5385L6.661,0.6596L6.539,0.8721L6.5,1.185L6.5,21.82L6.539,22.13L6.661,22.34L6.874,22.46L7.185,22.5L22.82,22.5L23.13,22.46L23.34,22.34L23.46,22.13L23.5,21.82L23.5,21.81L23.13,21.43L22.74,20.91L22.43,20.36L22.2,19.77L22.06,19.16L22,18.52L22.03,17.98L22.14,17.35L22.35,16.65L22.67,15.92L23.12,15.18L23.5,14.72L23.5,6.815L23.42,6.379L23.2,6.054L17.95,0.8043L17.75,0.6443L17.57,0.5521L17.26,0.5L7.185,0.5zz" fill-rule="evenodd" fill="#FFFFFF"/>
      <path class="Black" d="M7.123,0.003711L6.812,0.04219L6.713,0.05449L6.627,0.1039L6.414,0.225L6.296,0.2924L6.228,0.4105L6.105,0.623L6.055,0.7104L6.043,0.8102L6.004,1.123L6,1.154L6,1.185L6,21.82L6,21.85L6.004,21.88L6.043,22.19L6.055,22.29L6.105,22.38L6.228,22.59L6.296,22.71L6.414,22.78L6.627,22.9L6.713,22.95L6.812,22.96L7.123,23L7.154,23L7.185,23L22.82,23L22.85,23L22.88,23L23.19,22.96L23.29,22.95L23.37,22.9L23.59,22.78L23.7,22.71L23.77,22.59L23.89,22.38L23.94,22.29L23.96,22.2L23.6,21.92L23.13,21.43L23,21.26L23,21.78L22.98,21.97L22.97,21.97L22.97,21.98L22.78,22L7.216,22L7.034,21.98L7.027,21.97L7.023,21.97L7,21.78L7,1.215L7.023,1.034L7.027,1.027L7.034,1.022L7.216,1L17.22,1L17.41,1.033L17.48,1.065L17.61,1.175L22.81,6.376L22.95,6.574L23,6.861L23,15.38L23.12,15.18L23.72,14.46L24,14.21L24,6.815L24,6.77L23.99,6.725L23.91,6.288L23.89,6.182L23.83,6.094L23.61,5.77L23.58,5.733L23.55,5.701L18.3,0.4506L18.28,0.4338L18.26,0.4184L18.07,0.2584L18.03,0.2236L17.98,0.1988L17.8,0.1068L17.73,0.07188L17.65,0.05918L17.34,0.006836L17.3,0L17.26,0L7.185,0L7.154,0zz" fill="#797979"/>
      <path class="Black" d="M17,5.7L17,5.75L17.01,5.799L17.07,6.11L17.09,6.208L17.15,6.291L17.32,6.545L17.37,6.626L17.45,6.68L17.71,6.852L17.79,6.907L17.89,6.927L18.2,6.99L18.25,7L18.3,7L23.4,7L23.4,6L18.35,6L18.19,5.967L18.09,5.905L18.03,5.814L18,5.65L18,0.8L17,0.8zz" fill="#797979"/>
    </g>
    <g id="overlay">
      <path class="Black" d="M25.662,30.841l0.127,-8.667c-1.873,-0.898,-2.763,-2.219,-2.788,-3.673c-0.02,-1.155,0.657,-3.239,2.874,-4.418c0.034,-0.012,0.081,-0.023,0.125,-0.035l-0.007,4.33c-0.001,0.605,0.662,1.119,1.532,1.118c0.87,-0.001,1.485,-0.156,1.486,-1.101l-0.005,-4.347c0.041,0.008,0.085,0.016,0.115,0.025c2.196,1.058,2.882,3.057,2.88,4.415c-0.002,1.035,-0.818,2.825,-2.663,3.69l0.064,8.657c-0.001,0.594,-0.521,1.077,-1.161,1.078l-1.422,0.003C26.179,31.916,25.661,31.435,25.662,30.841zM27.546,30.801c0.455,-0.001,0.825,-0.344,0.826,-0.767c0.001,-0.423,-0.368,-0.765,-0.823,-0.765c-0.455,0.001,-0.825,0.344,-0.826,0.767C26.722,30.459,27.091,30.801,27.546,30.801z" fill-rule="evenodd" fill="#797979"/>
    </g>
  </g>
</svg>
