<?xml version="1.0" encoding="UTF-8" standalone="no"?>
<!DOCTYPE svg PUBLIC "-//W3C//DTD SVG 1.1//EN" "http://www.w3.org/Graphics/SVG/1.1/DTD/svg11.dtd">
<svg width="32" height="32" viewBox="0 0 32 32" version="1.1" xmlns="http://www.w3.org/2000/svg" xmlns:xlink="http://www.w3.org/1999/xlink" xml:space="preserve" xmlns:serif="http://www.serif.com/" >
  <style type="text / css">
    .Red{fill:#CD4C32;}
    .Green{fill:#4EA17E;}
    .Blue{fill:#3E79B4;}
    .Yellow{fill:#EAB765;}
    .Black{fill:#797979;}
    .Gray{fill:#B4B4B5;}
    .White{fill:#FFFFFF;}
  </style>
    <g id="icon" transform="matrix(0.8,0,0,0.8,0,0)">
        <g>
            <path fill="#FFFFFF" class="White" d="M5,37.5C3.622,37.5 2.5,36.378 2.5,35L2.5,5C2.5,3.622 3.622,2.5 5,2.5L35,2.5C36.378,2.5 37.5,3.622 37.5,5L37.5,35C37.5,36.378 36.378,37.5 35,37.5L5,37.5Z" />
            <path fill="#797979" class="Black" d="M35,3C36.103,3 37,3.897 37,5L37,35C37,36.103 36.103,37 35,37L5,37C3.897,37 3,36.103 3,35L3,5C3,3.897 3.897,3 5,3L35,3M35,2L5,2C3.343,2 2,3.343 2,5L2,35C2,36.657 3.343,38 5,38L35,38C36.657,38 38,36.657 38,35L38,5C38,3.343 36.657,2 35,2Z" />
        </g>
        <path fill="#4EA17E" class="Green" d="M11.542,16.002C11.564,16.004 11.569,16.004 11.591,16.008C11.713,16.031 11.825,16.1 11.9,16.2C11.935,16.246 11.961,16.299 11.978,16.354C11.985,16.375 11.985,16.38 11.99,16.402L13.526,24.079L17.012,8.392L17.018,8.367C17.02,8.359 17.023,8.351 17.025,8.343C17.064,8.225 17.15,8.122 17.259,8.062C17.354,8.01 17.466,7.99 17.573,8.005C17.705,8.025 17.828,8.099 17.906,8.208C17.95,8.269 17.979,8.339 17.992,8.413C17.994,8.421 17.995,8.43 17.996,8.438L20.686,29.967L25.018,14.366L25.025,14.343C25.028,14.335 25.031,14.327 25.034,14.32C25.081,14.197 25.178,14.096 25.298,14.043C25.418,13.99 25.559,13.986 25.681,14.034C25.819,14.087 25.929,14.203 25.975,14.345C25.978,14.353 25.98,14.361 25.982,14.368L28.59,23.929L30.036,20.314L30.046,20.292C30.055,20.272 30.057,20.267 30.068,20.248C30.135,20.133 30.249,20.048 30.377,20.015C30.401,20.009 30.426,20.005 30.45,20.002C30.472,20 30.478,20.001 30.5,20L37,20L37,21L30.839,21L28.964,25.686L28.954,25.709C28.951,25.716 28.947,25.724 28.943,25.731C28.882,25.849 28.772,25.94 28.644,25.979C28.509,26.019 28.358,26 28.236,25.925C28.137,25.863 28.061,25.767 28.025,25.655C28.022,25.648 28.02,25.64 28.018,25.632L25.496,16.384L20.982,32.641L20.974,32.665C20.972,32.672 20.969,32.68 20.966,32.688C20.921,32.804 20.831,32.902 20.718,32.957C20.613,33.008 20.49,33.02 20.377,32.992C20.264,32.963 20.162,32.894 20.094,32.799C20.05,32.738 20.021,32.668 20.008,32.594C20.006,32.585 20.005,32.577 20.004,32.569L17.362,11.427L13.988,26.608L13.982,26.633C13.98,26.64 13.978,26.648 13.975,26.656C13.936,26.774 13.852,26.876 13.744,26.936C13.657,26.985 13.556,27.007 13.458,26.998C13.342,26.988 13.231,26.937 13.149,26.856C13.084,26.792 13.037,26.711 13.015,26.622C13.013,26.614 13.012,26.606 13.01,26.598L11.296,18.027L9.947,20.724L9.936,20.745C9.925,20.763 9.923,20.768 9.91,20.786C9.842,20.884 9.737,20.957 9.619,20.986C9.596,20.991 9.572,20.995 9.548,20.998C9.527,21 9.521,20.999 9.5,21L3,21L3,20L9.191,20L11.053,16.276L11.064,16.254C11.076,16.236 11.078,16.231 11.091,16.213C11.162,16.111 11.272,16.038 11.394,16.011C11.418,16.006 11.443,16.003 11.467,16.001C11.489,16 11.495,16 11.517,16C11.525,16.001 11.533,16.001 11.542,16.002Z" />
    </g>
</svg>
