<?xml version="1.0" encoding="UTF-8" standalone="no"?>
<!DOCTYPE svg PUBLIC "-//W3C//DTD SVG 1.1//EN" "http://www.w3.org/Graphics/SVG/1.1/DTD/svg11.dtd">
<svg width="32" height="32" viewBox="0 0 32 32" version="1.1" xmlns="http://www.w3.org/2000/svg" xmlns:xlink="http://www.w3.org/1999/xlink" xml:space="preserve" xmlns:serif="http://www.serif.com/" style="fill-rule:evenodd;clip-rule:evenodd;stroke-linejoin:round;stroke-miterlimit:1.41421;">
  <style type="text / css">
    .Red{fill:#CD4C32;}
    .Green{fill:#4EA17E;}
    .Blue{fill:#3E79B4;}
    .Yellow{fill:#EAB765;}
    .Black{fill:#797979;}
    .Gray{fill:#B4B4B5;}
    .White{fill:#FFFFFF;}
  </style>
    <g id="icon" transform="matrix(2,0,0,2,0,0)">
        <g transform="matrix(0.996564,0,0,1.0795,-3.3666,-2.97822)">
            <ellipse fill="#FFFFFF" class="White" cx="11.406" cy="10.17" rx="7.526" ry="6.948" />
        </g>
        <g transform="matrix(1.23077,0,0,1.23077,0,0)">
            <path fill="#3E79B4" class="Blue" d="M8.19,1.524C8.191,1.525 8.199,1.53 8.201,1.531L8.266,1.562C8.277,1.568 8.299,1.571 8.31,1.569L8.339,1.615C8.355,1.635 8.355,1.635 8.497,1.682L8.506,1.682C8.511,1.682 8.517,1.682 8.52,1.681C8.535,1.678 8.548,1.669 8.555,1.655C8.563,1.641 8.565,1.632 8.56,1.617L8.612,1.617C8.63,1.614 8.65,1.6 8.656,1.581C8.663,1.562 8.652,1.532 8.635,1.519C8.629,1.514 8.627,1.513 8.574,1.487C8.581,1.466 8.571,1.45 8.536,1.391C8.533,1.388 8.53,1.385 8.526,1.382C8.511,1.368 8.507,1.366 8.44,1.345C8.435,1.344 8.431,1.343 8.426,1.343C8.422,1.343 8.412,1.343 8.408,1.344L8.342,1.357C8.335,1.359 8.33,1.362 8.324,1.365L8.3,1.377C8.298,1.375 8.295,1.374 8.291,1.373C8.285,1.371 8.27,1.368 8.263,1.37C8.248,1.371 8.238,1.378 8.23,1.384L8.157,1.384C8.138,1.384 8.118,1.396 8.109,1.413C8.105,1.42 8.103,1.428 8.103,1.436C8.104,1.468 8.114,1.475 8.19,1.524Z" />
            <path fill="#3E79B4" class="Blue" d="M12.386,5.988L12.314,5.721C12.318,5.72 12.322,5.718 12.326,5.716C12.344,5.706 12.354,5.686 12.351,5.666C12.165,4.351 11.528,3.123 10.56,2.207C10.272,1.942 9.958,1.704 9.628,1.502C9.625,1.5 9.623,1.498 9.62,1.496L9.588,1.478C9.588,1.477 9.586,1.477 9.586,1.476C9.547,1.452 9.508,1.428 9.468,1.406C9.463,1.403 9.458,1.401 9.454,1.4C9.445,1.396 9.437,1.39 9.428,1.386C9.41,1.375 9.392,1.364 9.387,1.361C9.386,1.361 9.385,1.36 9.384,1.36L9.364,1.349C9.363,1.348 9.361,1.347 9.359,1.346C9.349,1.34 9.339,1.335 9.33,1.331L9.321,1.328C9.319,1.325 9.311,1.321 9.309,1.319C9.303,1.315 9.292,1.313 9.284,1.312C9.281,1.311 9.277,1.309 9.275,1.308L9.242,1.291C9.237,1.289 9.233,1.287 9.229,1.287C9.225,1.286 9.222,1.285 9.218,1.285L9.198,1.276C9.196,1.275 9.194,1.274 9.191,1.273C9.188,1.272 9.183,1.271 9.18,1.271C9.156,1.267 9.137,1.28 9.128,1.301C9.119,1.321 9.126,1.345 9.143,1.359C9.157,1.37 9.173,1.378 9.188,1.387L9.2,1.393C9.21,1.4 9.21,1.4 9.34,1.468C9.349,1.472 9.348,1.473 9.4,1.492L9.401,1.492C9.406,1.493 9.41,1.494 9.413,1.494C9.418,1.496 9.421,1.498 9.425,1.5C9.429,1.503 9.44,1.508 9.445,1.509C9.447,1.51 9.448,1.51 9.448,1.51L9.533,1.56C9.535,1.564 9.538,1.568 9.541,1.571C9.543,1.573 9.548,1.579 9.55,1.581L9.573,1.599C9.617,1.633 9.67,1.674 9.711,1.712C9.711,1.712 9.713,1.714 9.714,1.714C9.708,1.72 9.704,1.726 9.701,1.733C9.693,1.753 9.698,1.774 9.714,1.788L9.734,1.806C9.727,1.803 9.721,1.801 9.713,1.797L9.609,1.722C9.607,1.72 9.604,1.718 9.602,1.716C9.598,1.704 9.583,1.685 9.527,1.618L9.53,1.61C9.532,1.604 9.532,1.597 9.532,1.591C9.53,1.577 9.516,1.558 9.505,1.549C9.491,1.539 9.491,1.539 9.39,1.493C9.371,1.487 9.346,1.492 9.334,1.505C9.315,1.503 9.301,1.51 9.29,1.521C9.274,1.537 9.272,1.563 9.285,1.583C9.314,1.625 9.351,1.656 9.386,1.688C9.401,1.701 9.418,1.715 9.432,1.729C9.442,1.74 9.45,1.746 9.467,1.753C9.472,1.781 9.491,1.804 9.505,1.819C9.51,1.825 9.515,1.831 9.523,1.842C9.535,1.859 9.535,1.859 9.742,1.966C9.748,1.968 9.762,1.971 9.768,1.971C9.775,1.971 9.781,1.969 9.788,1.966L9.808,1.957C9.812,1.96 9.818,1.964 9.826,1.968C9.817,1.978 9.812,1.991 9.813,2.006L9.815,2.024L9.719,1.972C9.698,1.962 9.673,1.966 9.657,1.984C9.649,1.993 9.646,2.005 9.646,2.016C9.626,2.007 9.605,1.998 9.585,1.989C9.56,1.978 9.535,1.968 9.51,1.956C9.507,1.954 9.498,1.951 9.493,1.95L9.384,1.932C9.377,1.931 9.362,1.933 9.354,1.936C9.35,1.937 9.346,1.938 9.343,1.94L9.282,1.922L9.211,1.884C9.209,1.882 9.195,1.878 9.192,1.877L9.095,1.861C9.092,1.86 9.085,1.859 9.081,1.859L9.013,1.859C9.004,1.859 8.99,1.865 8.982,1.87C8.972,1.875 8.966,1.884 8.962,1.894L8.951,1.922L8.903,1.933C8.892,1.936 8.878,1.947 8.871,1.957C8.867,1.963 8.864,1.97 8.863,1.978L8.846,2.007C8.839,2.014 8.834,2.023 8.832,2.033L8.807,2.066C8.803,2.072 8.798,2.086 8.796,2.095C8.795,2.101 8.795,2.107 8.796,2.113L8.802,2.143L8.783,2.335C8.783,2.338 8.784,2.345 8.785,2.351C8.78,2.354 8.776,2.358 8.773,2.362L8.665,2.494C8.652,2.511 8.65,2.535 8.663,2.553L8.813,2.775L8.834,2.824C8.837,2.832 8.842,2.838 8.848,2.842C8.883,2.873 8.934,2.88 8.975,2.887C8.98,2.887 8.986,2.888 8.991,2.889L8.981,2.971C8.979,2.985 8.983,2.999 8.993,3.01L9.037,3.062C9.04,3.068 9.041,3.074 9.045,3.079L8.967,3.106C8.961,3.108 8.954,3.112 8.949,3.116C8.947,3.118 8.94,3.125 8.939,3.127L8.903,3.173C8.892,3.174 8.881,3.179 8.872,3.186L8.842,3.214C8.839,3.217 8.832,3.227 8.83,3.231C8.828,3.233 8.825,3.241 8.823,3.244L8.809,3.279L8.816,3.232C8.817,3.229 8.816,3.215 8.816,3.213C8.812,3.19 8.812,3.189 8.534,2.933L8.53,2.87C8.53,2.867 8.527,2.854 8.526,2.85L8.52,2.835C8.519,2.832 8.515,2.821 8.513,2.818C8.501,2.797 8.501,2.796 8.41,2.754L8.399,2.725C8.385,2.7 8.367,2.689 8.334,2.687L8.265,2.687C8.217,2.691 8.217,2.691 8.176,2.899C8.175,2.902 8.175,2.91 8.175,2.914C8.175,2.922 8.177,2.929 8.18,2.935C8.184,2.943 8.188,2.951 8.193,2.96L8.185,2.96C8.177,2.958 8.17,2.958 8.166,2.958C8.162,2.958 8.146,2.96 8.142,2.962C8.13,2.964 8.12,2.969 8.11,2.979C8.105,2.981 8.101,2.982 8.097,2.983C8.091,2.987 8.085,2.989 8.072,2.995C8.069,2.997 8.062,3.002 8.06,3.004L8.055,3.008C8.027,3.008 8.016,3.018 7.975,3.061C7.967,3.073 7.962,3.096 7.965,3.111L7.979,3.167C7.984,3.183 7.99,3.19 8.01,3.204C8.007,3.207 8.005,3.211 8.004,3.213C8.001,3.218 8,3.223 7.998,3.228L7.981,3.318C7.979,3.336 7.986,3.354 7.998,3.368C8.009,3.378 8.034,3.395 8.067,3.389L8.2,3.362C8.203,3.361 8.211,3.358 8.213,3.358L8.327,3.305C8.333,3.302 8.338,3.3 8.341,3.296C8.342,3.303 8.344,3.31 8.346,3.318C8.347,3.32 8.348,3.321 8.349,3.322L8.331,3.335C8.327,3.338 8.322,3.343 8.319,3.349C8.317,3.351 8.312,3.36 8.31,3.363L8.285,3.429C8.281,3.447 8.285,3.466 8.296,3.481C8.308,3.498 8.328,3.509 8.356,3.511L8.405,3.511L8.386,3.57C8.384,3.575 8.384,3.58 8.384,3.585C8.384,3.588 8.384,3.598 8.384,3.601C8.389,3.62 8.394,3.642 8.398,3.661C8.401,3.669 8.418,3.691 8.424,3.696C8.432,3.706 8.445,3.711 8.459,3.712C8.489,3.713 8.514,3.713 8.539,3.713L8.635,3.795L8.628,3.834C8.628,3.838 8.629,3.854 8.629,3.858L8.642,3.915C8.596,3.906 8.591,3.905 8.408,3.882C8.406,3.881 8.404,3.881 8.403,3.881C8.388,3.878 8.378,3.876 8.315,3.865C8.308,3.864 8.302,3.864 8.295,3.866L8.273,3.872C8.259,3.876 8.246,3.886 8.241,3.901C8.238,3.907 8.234,3.914 8.23,3.922L8.197,3.929C8.185,3.931 8.174,3.938 8.166,3.947C8.165,3.95 8.16,3.955 8.156,3.959C8.146,3.97 8.143,3.986 8.145,3.999C8.155,4.062 8.166,4.146 8.175,4.211L8.137,4.396C8.137,4.4 8.137,4.408 8.138,4.412C8.139,4.418 8.14,4.424 8.141,4.44C8.143,4.451 8.149,4.463 8.158,4.471L8.187,4.499L8.234,4.627C8.247,4.657 8.284,4.675 8.318,4.669L8.406,4.651L8.445,4.695L8.145,4.954C8.14,4.958 8.13,4.973 8.129,4.978C8.126,4.981 8.124,4.986 8.123,4.99L8.075,5.197L7.861,5.351L7.762,5.391C7.751,5.396 7.741,5.404 7.735,5.416C7.694,5.507 7.628,5.616 7.569,5.713C7.545,5.755 7.521,5.795 7.496,5.84L7.379,6.096C7.376,6.103 7.374,6.111 7.375,6.119C7.377,6.148 7.377,6.162 7.377,6.178C7.377,6.186 7.378,6.193 7.382,6.199C7.382,6.202 7.388,6.213 7.389,6.215L7.42,6.264L7.454,6.506L7.305,6.802C7.295,6.821 7.298,6.844 7.314,6.859L7.376,6.922C7.376,6.952 7.375,6.981 7.374,7.012C7.373,7.017 7.372,7.023 7.372,7.029L7.374,7.051C7.374,7.061 7.377,7.069 7.382,7.077L7.429,7.151L7.501,7.237L7.655,7.457C7.659,7.463 7.664,7.467 7.669,7.47L7.762,7.542L7.835,7.633C7.837,7.635 7.842,7.641 7.843,7.642L7.87,7.663C7.871,7.664 7.879,7.671 7.88,7.672L7.892,7.683C7.896,7.686 7.903,7.688 7.909,7.69L8.127,7.819L8.199,7.88C8.207,7.887 8.215,7.891 8.225,7.892C8.227,7.892 8.238,7.893 8.241,7.893C8.276,7.893 8.313,7.878 8.341,7.864L8.504,7.837L8.757,7.837C8.759,7.837 8.771,7.836 8.773,7.835L8.995,7.811C9.001,7.813 9.006,7.813 9.011,7.811L9.041,7.806C9.047,7.805 9.052,7.803 9.056,7.801L9.149,7.749L9.248,7.747L9.312,7.733L9.365,7.88C9.373,7.902 9.394,7.917 9.416,7.913L9.589,7.9L9.66,7.997L9.671,8.025L9.536,8.31C9.53,8.323 9.529,8.338 9.535,8.35L9.65,8.641L9.673,8.705L9.678,8.763C9.678,8.764 9.68,8.775 9.68,8.775C9.68,8.783 9.686,8.796 9.69,8.802C9.692,8.81 9.695,8.818 9.698,8.825C9.701,8.834 9.704,8.841 9.706,8.852L9.714,8.889L9.687,8.98L9.623,9.323L9.52,9.416L9.462,9.553L9.432,9.565C9.428,9.566 9.413,9.576 9.409,9.579C9.402,9.585 9.398,9.591 9.394,9.599C9.367,9.665 9.343,9.722 9.319,9.781C9.317,9.786 9.315,9.8 9.315,9.805C9.314,9.81 9.315,9.816 9.316,9.82L9.347,9.948C9.293,10.15 9.222,10.38 9.166,10.536C9.166,10.539 9.164,10.546 9.164,10.548L9.156,10.586L9.113,10.702C9.093,10.743 9.084,10.759 9.048,10.827L8.999,10.874C8.97,10.907 8.947,10.953 8.926,10.993L8.909,11.026C8.902,11.038 8.901,11.053 8.906,11.067C8.911,11.08 8.921,11.091 8.935,11.096C8.966,11.107 8.99,11.107 9.012,11.107C9.018,11.107 9.023,11.106 9.029,11.104C9.047,11.097 9.069,11.086 9.088,11.075L9.101,11.067C9.182,11.051 9.288,11.03 9.38,11.01L9.545,10.934C9.548,10.933 9.555,10.93 9.557,10.929L9.817,10.748C9.819,10.746 9.82,10.745 9.822,10.743L9.83,10.739C9.861,10.718 9.929,10.67 9.948,10.654L10.079,10.514L10.134,10.46L10.173,10.434L10.2,10.434C10.207,10.434 10.213,10.432 10.219,10.43C10.246,10.419 10.269,10.398 10.287,10.379L10.443,10.221C10.446,10.217 10.45,10.213 10.452,10.209L10.545,10.033L10.561,10.008L10.57,10.008C10.578,10.008 10.585,10.006 10.591,10.003C10.618,9.991 10.64,9.968 10.656,9.948L10.688,9.922C10.69,9.92 10.691,9.919 10.693,9.916C10.762,9.868 10.842,9.808 10.891,9.771L10.9,9.771C10.91,9.771 10.918,9.769 10.927,9.764L10.927,9.763C10.917,9.775 10.907,9.79 10.895,9.805C10.892,9.807 10.884,9.819 10.882,9.823L10.814,9.94L10.682,10.054C10.672,10.065 10.672,10.065 10.51,10.303C10.498,10.324 10.496,10.348 10.496,10.378C10.494,10.397 10.504,10.416 10.52,10.425L10.522,10.427C10.533,10.432 10.545,10.434 10.557,10.432C10.56,10.432 10.568,10.43 10.57,10.428L10.673,10.383C10.684,10.378 10.734,10.334 10.847,10.209C10.855,10.214 10.863,10.219 10.87,10.221C10.876,10.223 10.883,10.225 10.89,10.225L10.891,10.225C10.893,10.225 10.896,10.225 10.899,10.224C10.924,10.22 10.942,10.199 10.942,10.195C10.963,10.172 10.982,10.148 11,10.123L11.02,10.095C11.028,10.085 11.046,10.06 11.031,10.031C11.028,10.024 11.023,10.019 11.018,10.015C11.051,9.976 11.089,9.933 11.128,9.886C11.124,9.893 11.121,9.902 11.121,9.912C11.121,9.925 11.131,9.943 11.141,9.952C11.143,9.954 11.149,9.959 11.151,9.961C11.164,9.971 11.182,9.973 11.197,9.968C11.213,9.961 11.213,9.961 11.284,9.877C11.298,9.858 11.299,9.851 11.31,9.809C11.311,9.805 11.311,9.799 11.311,9.796C11.311,9.783 11.306,9.77 11.296,9.761C11.282,9.745 11.257,9.743 11.237,9.753C11.23,9.757 11.227,9.759 11.216,9.772C11.227,9.756 11.238,9.739 11.248,9.723C11.251,9.722 11.254,9.721 11.257,9.72C11.275,9.714 11.284,9.708 11.299,9.686L11.467,9.394C11.474,9.379 11.474,9.377 11.484,9.317C11.488,9.299 11.479,9.28 11.464,9.268C11.432,9.246 11.412,9.251 11.395,9.262C11.387,9.267 11.384,9.269 11.338,9.323C11.347,9.291 11.329,9.27 11.316,9.262C11.312,9.26 11.307,9.258 11.303,9.257C11.288,9.252 11.271,9.252 11.256,9.252L11.242,9.252C11.242,9.252 11.235,9.252 11.23,9.252C11.235,9.242 11.239,9.233 11.243,9.223C11.252,9.207 11.26,9.19 11.268,9.172L11.284,9.139C11.287,9.133 11.289,9.126 11.29,9.118L11.29,9.093L11.365,8.884L11.378,8.821L11.443,8.714L11.469,8.688C11.473,8.683 11.477,8.678 11.479,8.673C11.501,8.622 11.512,8.586 11.521,8.559L11.584,8.458L11.622,8.404C11.631,8.4 11.639,8.393 11.644,8.386L11.826,8.11L11.871,8.089C11.881,8.085 11.89,8.076 11.895,8.065L12.01,7.819C12.012,7.817 12.013,7.814 12.014,7.811C12.066,7.701 12.121,7.556 12.126,7.538L12.149,7.434C12.175,7.319 12.204,7.189 12.22,7.092C12.224,7.083 12.225,7.074 12.223,7.065L12.214,7.01C12.211,6.994 12.199,6.979 12.184,6.973C12.168,6.966 12.15,6.968 12.136,6.978L12.062,7.031C12.037,7.049 12.011,7.068 11.986,7.085C11.984,7.08 11.981,7.075 11.977,7.072L11.973,7.068L11.976,7.035C11.976,7.034 11.975,7.028 11.974,7.024C11.979,7.023 11.983,7.021 11.986,7.02C11.989,7.018 11.995,7.015 11.997,7.013L12.151,6.89C12.156,6.886 12.162,6.878 12.165,6.872L12.27,6.684C12.274,6.679 12.275,6.673 12.276,6.666C12.278,6.645 12.28,6.63 12.281,6.616C12.291,6.61 12.297,6.602 12.301,6.591L12.354,6.454C12.355,6.452 12.356,6.443 12.357,6.441L12.363,6.377C12.375,6.255 12.389,6.116 12.393,5.999C12.387,5.996 12.387,5.991 12.386,5.988ZM11.839,6.568L11.836,6.691C11.831,6.68 11.822,6.672 11.81,6.668C11.809,6.667 11.807,6.667 11.806,6.666L11.783,6.473L11.781,6.46C11.78,6.459 11.777,6.449 11.776,6.449L11.762,6.391C11.79,6.452 11.817,6.513 11.839,6.568ZM9.845,4.715C9.851,4.733 9.859,4.752 9.868,4.771C9.874,4.782 9.879,4.792 9.885,4.807C9.903,4.838 9.93,4.844 9.937,4.845L9.948,4.797L9.938,4.845C9.944,4.847 9.949,4.847 9.955,4.846C9.986,4.841 9.99,4.834 10.041,4.755C10.044,4.751 10.047,4.745 10.048,4.74C10.051,4.731 10.052,4.72 10.051,4.712C10.049,4.7 10.046,4.69 10.041,4.682C10.063,4.673 10.078,4.652 10.08,4.624L10.08,4.54C10.093,4.536 10.104,4.527 10.11,4.513L10.157,4.417C10.164,4.404 10.164,4.387 10.157,4.374L10.145,4.348L10.153,4.348C10.164,4.348 10.175,4.345 10.184,4.338L10.198,4.364C10.201,4.37 10.204,4.375 10.208,4.378C10.213,4.382 10.217,4.386 10.225,4.392C10.233,4.398 10.242,4.402 10.252,4.403L10.312,4.485C10.319,4.495 10.33,4.501 10.342,4.504C10.348,4.505 10.353,4.506 10.359,4.507C10.36,4.509 10.361,4.511 10.362,4.513C10.373,4.533 10.387,4.559 10.4,4.582L10.419,4.616C10.423,4.624 10.432,4.633 10.44,4.638L10.452,4.645C10.46,4.651 10.469,4.654 10.48,4.654L10.525,4.654C10.524,4.66 10.525,4.666 10.525,4.673C10.528,4.684 10.528,4.684 10.558,4.741C10.576,4.769 10.576,4.769 10.781,4.81L10.788,4.81C10.846,4.804 10.844,4.761 10.839,4.676L10.855,4.691C10.868,4.703 10.884,4.709 10.902,4.704L11,4.679C11.007,4.677 11.012,4.675 11.019,4.67L11.025,4.674C11.019,4.682 11.014,4.691 11.012,4.699C11.008,4.723 11.018,4.749 11.038,4.768C11.043,4.772 11.043,4.772 11.118,4.816C11.121,4.818 11.126,4.82 11.129,4.821L11.134,4.822C11.145,4.824 11.163,4.822 11.173,4.818C11.181,4.814 11.188,4.809 11.193,4.803L11.218,4.771C11.224,4.792 11.229,4.812 11.235,4.832L11.226,5.032L11.096,4.992C11.075,4.986 11.053,4.994 11.041,5.011L11.006,5.064L10.819,4.991C10.813,4.989 10.806,4.987 10.8,4.988C10.77,4.989 10.745,4.989 10.721,4.989L10.706,4.965C10.698,4.953 10.686,4.945 10.672,4.942C10.608,4.932 10.562,4.932 10.514,4.932C10.508,4.932 10.502,4.933 10.496,4.935C10.493,4.936 10.484,4.941 10.481,4.942L10.432,4.972C10.42,4.98 10.412,4.991 10.41,5.005L10.394,5.094L10.178,4.97C10.176,4.969 10.162,4.964 10.16,4.963L9.928,4.907L9.854,4.88C9.859,4.871 9.862,4.861 9.862,4.85C9.858,4.801 9.851,4.756 9.845,4.715ZM9.414,3.009L9.434,3.003C9.455,2.996 9.47,2.975 9.469,2.953L9.463,2.843L9.481,2.801L9.507,2.685C9.508,2.68 9.508,2.676 9.508,2.671L9.596,2.709C9.607,2.713 9.617,2.714 9.628,2.711C9.637,2.743 9.649,2.763 9.662,2.784C9.665,2.79 9.669,2.794 9.673,2.798C9.678,2.802 9.684,2.806 9.69,2.809C9.686,2.819 9.686,2.83 9.69,2.84L9.726,2.943C9.689,2.932 9.637,2.943 9.598,2.953C9.587,2.956 9.575,2.959 9.566,2.961C9.563,2.962 9.557,2.963 9.554,2.965L9.431,3.012C9.426,3.014 9.422,3.017 9.419,3.02L9.394,3.016C9.401,3.013 9.408,3.011 9.414,3.009ZM10.662,3.956C10.669,3.948 10.674,3.939 10.676,3.929C10.679,3.92 10.68,3.908 10.68,3.897L10.685,3.83C10.688,3.835 10.693,3.84 10.698,3.845C10.801,3.938 10.801,3.938 10.826,3.938C10.836,3.938 10.843,3.937 10.851,3.932C10.86,3.928 10.866,3.923 10.872,3.916C10.883,3.901 10.892,3.888 10.9,3.877C10.903,3.881 10.908,3.885 10.913,3.888L11.075,4L11.144,4.053L11.07,4.064C11.001,4.016 10.998,4.013 10.977,4.013C10.972,4.013 10.962,4.016 10.957,4.018C10.924,4.029 10.886,4.044 10.848,4.058C10.816,4.07 10.783,4.082 10.754,4.093L10.723,4.09L10.663,4.024C10.661,4.021 10.66,4.019 10.659,4.016C10.663,4.008 10.666,3.998 10.666,3.985L10.662,3.956ZM10.648,4.484C10.647,4.477 10.644,4.47 10.639,4.464L10.629,4.45C10.635,4.457 10.642,4.464 10.648,4.471C10.659,4.483 10.671,4.496 10.675,4.499L10.727,4.606C10.7,4.604 10.671,4.602 10.643,4.601L10.618,4.598L10.64,4.578C10.65,4.569 10.655,4.556 10.655,4.542C10.655,4.516 10.652,4.501 10.648,4.484ZM8.679,4.663L8.788,4.646C8.793,4.646 8.797,4.645 8.802,4.643L8.812,4.638C8.817,4.636 8.821,4.633 8.824,4.63L8.918,4.548L8.94,4.524C8.953,4.508 8.967,4.492 8.983,4.478C8.996,4.465 9.001,4.445 8.995,4.426L8.956,4.306L8.964,4.28L9.009,4.261L9.025,4.261C9.031,4.261 9.037,4.26 9.042,4.258C9.043,4.258 9.055,4.253 9.056,4.253L9.111,4.225C9.126,4.218 9.137,4.203 9.139,4.187L9.149,4.097L9.156,4.085L9.297,4.105C9.307,4.105 9.317,4.102 9.325,4.097L9.395,4.051L9.409,4.051C9.405,4.056 9.401,4.061 9.397,4.066C9.391,4.073 9.389,4.072 9.388,4.082C9.386,4.086 9.382,4.098 9.387,4.13C9.392,4.147 9.396,4.166 9.399,4.183C9.4,4.187 9.402,4.191 9.404,4.195C9.408,4.204 9.413,4.21 9.418,4.215C9.416,4.225 9.415,4.236 9.416,4.252L9.424,4.281C9.431,4.312 9.438,4.344 9.445,4.378C9.456,4.419 9.489,4.428 9.503,4.431C9.512,4.433 9.52,4.433 9.528,4.431C9.53,4.43 9.539,4.428 9.54,4.427L9.611,4.399C9.637,4.391 9.654,4.368 9.654,4.34C9.654,4.33 9.654,4.33 9.619,4.222C9.612,4.201 9.598,4.187 9.576,4.179C9.58,4.166 9.585,4.151 9.589,4.134C9.589,4.132 9.589,4.13 9.591,4.128L9.68,4.215C9.682,4.219 9.692,4.226 9.696,4.228L9.881,4.33L9.899,4.343L9.916,4.384L9.796,4.364C9.785,4.363 9.76,4.372 9.751,4.376C9.73,4.385 9.719,4.406 9.721,4.428C9.724,4.444 9.726,4.456 9.73,4.478C9.732,4.486 9.736,4.494 9.741,4.5C9.776,4.544 9.833,4.579 9.882,4.61C9.887,4.613 9.892,4.616 9.896,4.619C9.895,4.619 9.894,4.619 9.893,4.619C9.861,4.624 9.839,4.65 9.839,4.685C9.834,4.662 9.83,4.641 9.826,4.621C9.824,4.61 9.817,4.599 9.809,4.592L9.768,4.56L9.685,4.513C9.674,4.506 9.662,4.503 9.65,4.503C9.644,4.503 9.63,4.505 9.625,4.508L9.55,4.533L9.094,4.561C9.09,4.561 9.081,4.563 9.077,4.565L8.781,4.675L8.671,4.675C8.674,4.671 8.676,4.667 8.679,4.663ZM11.147,9.554L11.044,9.616C11.044,9.617 11.043,9.617 11.042,9.618L11.15,9.446C11.162,9.453 11.176,9.455 11.187,9.457C11.191,9.459 11.195,9.459 11.2,9.459L11.209,9.459C11.217,9.457 11.222,9.457 11.229,9.452C11.206,9.482 11.179,9.515 11.147,9.554Z" />
            <path fill="#3E79B4" class="Blue" d="M9.532,8.224C9.543,8.185 9.536,8.143 9.513,8.113C9.489,8.08 9.449,8.062 9.401,8.062C9.399,8.062 9.39,8.062 9.388,8.062C9.316,8.072 9.259,8.118 9.245,8.182C9.234,8.234 9.253,8.285 9.296,8.314C9.319,8.33 9.346,8.338 9.375,8.338C9.448,8.338 9.514,8.29 9.532,8.224Z" />
            <path fill="#3E79B4" class="Blue" d="M7.334,2.027C7.354,2.027 7.37,2.017 7.379,1.999L7.397,1.961C7.408,1.938 7.42,1.915 7.428,1.895C7.432,1.887 7.434,1.878 7.432,1.868C7.431,1.855 7.43,1.845 7.42,1.837C7.432,1.829 7.44,1.817 7.443,1.803L7.468,1.64C7.469,1.631 7.468,1.622 7.464,1.613C7.47,1.6 7.47,1.585 7.464,1.571C7.448,1.538 7.432,1.506 7.416,1.476C7.425,1.473 7.434,1.466 7.44,1.456L7.461,1.463C7.478,1.47 7.496,1.466 7.51,1.454L7.553,1.419C7.563,1.41 7.569,1.397 7.569,1.384C7.569,1.382 7.569,1.381 7.569,1.379C7.569,1.368 7.566,1.355 7.561,1.347C7.532,1.307 7.479,1.295 7.436,1.286C7.423,1.282 7.41,1.28 7.39,1.275C7.388,1.275 7.379,1.274 7.377,1.274C7.359,1.274 7.341,1.278 7.324,1.284C7.322,1.274 7.316,1.265 7.308,1.258C7.298,1.249 7.291,1.238 7.282,1.223C7.271,1.204 7.256,1.18 7.231,1.161C7.19,1.126 7.135,1.117 7.087,1.11C7.002,1.099 6.914,1.107 6.831,1.115C6.8,1.118 6.769,1.117 6.739,1.116C6.706,1.114 6.67,1.113 6.643,1.116C6.624,1.117 6.61,1.126 6.597,1.131C6.584,1.126 6.557,1.119 6.537,1.123C6.48,1.138 6.424,1.182 6.37,1.223C6.359,1.233 6.346,1.241 6.335,1.25C6.334,1.248 6.333,1.247 6.331,1.245C6.323,1.23 6.307,1.22 6.289,1.22C6.243,1.219 6.233,1.216 6.22,1.199C6.217,1.194 6.214,1.187 6.211,1.179C6.203,1.154 6.188,1.109 6.127,1.098C6.125,1.098 6.112,1.097 6.109,1.097C6.093,1.097 6.078,1.1 6.065,1.104C6.065,1.104 6.064,1.104 6.063,1.104C6.064,1.103 6.064,1.103 6.065,1.101C6.065,1.078 6.065,1.024 5.986,1.003C5.976,1 5.965,0.999 5.953,0.999C5.941,0.999 5.895,1 5.865,1.02C5.838,1.037 5.83,1.059 5.83,1.067C5.823,1.073 5.818,1.076 5.806,1.081C5.795,1.085 5.782,1.091 5.771,1.099C5.753,1.11 5.739,1.125 5.726,1.14C5.711,1.155 5.695,1.172 5.674,1.169C5.661,1.163 5.646,1.163 5.634,1.169C5.594,1.187 5.578,1.21 5.574,1.233C5.556,1.25 5.531,1.279 5.525,1.307C5.517,1.312 5.505,1.318 5.49,1.328L5.486,1.265C5.481,1.24 5.449,1.22 5.428,1.222C5.407,1.224 5.388,1.234 5.371,1.258L5.289,1.311C5.285,1.313 5.275,1.321 5.271,1.325L5.189,1.417C5.177,1.431 5.172,1.46 5.179,1.477C5.18,1.478 5.18,1.479 5.181,1.48C5.18,1.481 5.179,1.482 5.178,1.482C5.169,1.468 5.153,1.464 5.104,1.452C5.104,1.452 5.105,1.452 5.106,1.452L5.116,1.438L5.152,1.373C5.16,1.36 5.162,1.337 5.155,1.323C5.147,1.305 5.123,1.293 5.103,1.291C5.081,1.293 5.08,1.294 5,1.351C4.997,1.353 4.989,1.363 4.987,1.365L4.947,1.434C4.941,1.431 4.936,1.429 4.93,1.428C4.936,1.418 4.941,1.405 4.94,1.396C4.938,1.37 4.923,1.358 4.891,1.333C4.88,1.327 4.868,1.324 4.856,1.327C4.846,1.328 4.841,1.33 4.802,1.349L4.794,1.345C4.765,1.331 4.729,1.352 4.717,1.361C4.707,1.371 4.698,1.38 4.689,1.389C4.689,1.388 4.688,1.386 4.688,1.385C4.678,1.365 4.656,1.353 4.635,1.355L4.472,1.372C4.469,1.372 4.46,1.375 4.457,1.376L4.343,1.422C4.316,1.434 4.31,1.444 4.282,1.489C4.282,1.49 4.281,1.491 4.281,1.491C4.276,1.49 4.271,1.49 4.266,1.49L4.174,1.49C4.169,1.49 4.165,1.491 4.161,1.492C4.158,1.492 4.146,1.495 4.145,1.496L3.953,1.575C3.95,1.577 3.939,1.583 3.937,1.585L3.824,1.657C3.807,1.669 3.798,1.681 3.793,1.696C3.788,1.716 3.797,1.738 3.812,1.75C3.806,1.755 3.802,1.761 3.798,1.768L3.785,1.735C3.781,1.72 3.769,1.71 3.756,1.705C3.754,1.698 3.751,1.694 3.747,1.688C3.735,1.673 3.713,1.665 3.693,1.673L3.674,1.679L3.661,1.673C3.654,1.669 3.635,1.668 3.627,1.668L3.508,1.688C3.509,1.684 3.51,1.679 3.511,1.674C3.517,1.651 3.522,1.626 3.53,1.608C3.539,1.585 3.529,1.558 3.509,1.545C3.499,1.539 3.489,1.537 3.477,1.538C3.437,1.542 3.383,1.548 3.343,1.553C3.342,1.553 3.33,1.557 3.329,1.557L3.166,1.622C2.899,1.807 2.645,2.013 2.412,2.235C2.408,2.239 2.404,2.247 2.4,2.254L2.289,2.393C2.279,2.404 2.277,2.419 2.279,2.434L2.242,2.47L2.224,2.47C2.199,2.471 2.199,2.471 2.081,2.591C2.075,2.596 2.066,2.606 2.06,2.62C2.051,2.625 2.039,2.635 2.013,2.657L1.99,2.685C1.976,2.7 1.964,2.716 1.95,2.731C1.948,2.734 1.946,2.739 1.945,2.743C1.94,2.746 1.935,2.75 1.931,2.755C1.91,2.78 1.889,2.806 1.869,2.832C1.858,2.848 1.856,2.869 1.865,2.886L1.849,2.906C1.845,2.906 1.831,2.908 1.824,2.913C1.81,2.92 1.81,2.92 1.718,3.031C1.717,3.032 1.708,3.043 1.708,3.045L1.698,3.06C1.692,3.068 1.684,3.087 1.664,3.132L1.645,3.174C1.632,3.175 1.62,3.182 1.612,3.193L1.573,3.24C1.147,3.882 0.854,4.591 0.704,5.352L0.688,5.55L0.697,5.806L0.662,6.077C0.662,6.084 0.662,6.09 0.664,6.098L0.692,6.196C0.72,6.294 0.751,6.404 0.783,6.492C0.786,6.498 0.794,6.509 0.798,6.515L0.92,6.641C0.935,6.656 0.96,6.66 0.979,6.65L1.044,6.616L1.093,6.739C1.093,6.739 1.099,6.75 1.099,6.751C1.101,6.756 1.105,6.76 1.109,6.763L1.14,6.813C1.142,6.816 1.145,6.821 1.148,6.823L1.204,6.883C1.208,6.885 1.226,6.899 1.229,6.901L1.312,6.95C1.312,6.952 1.313,6.955 1.314,6.957L1.435,7.321C1.436,7.324 1.443,7.334 1.445,7.336L1.474,7.37C1.487,7.387 1.512,7.393 1.531,7.384L1.545,7.378L1.593,7.433L1.593,7.435C1.597,7.447 1.604,7.457 1.615,7.464C1.626,7.471 1.633,7.475 1.64,7.478C1.646,7.48 1.65,7.482 1.655,7.483L1.718,7.574C1.731,7.593 1.757,7.6 1.779,7.591L1.847,7.561C1.858,7.557 1.866,7.549 1.871,7.539L1.897,7.579C1.916,7.715 1.941,7.852 1.969,7.989L1.952,8.079L1.924,8.172L1.884,8.371C1.883,8.377 1.883,8.383 1.884,8.389C1.884,8.39 1.887,8.402 1.887,8.404C1.9,8.45 1.914,8.497 1.927,8.541L1.932,8.555C1.934,8.563 1.938,8.57 1.944,8.576C1.948,8.579 1.952,8.584 1.964,8.594C1.965,8.595 1.966,8.596 1.968,8.597L1.96,8.608C1.954,8.618 1.952,8.629 1.955,8.64C1.956,8.644 1.959,8.66 1.961,8.663L2.061,8.882C2.063,8.886 2.066,8.891 2.068,8.894L2.265,9.062L2.362,9.207C2.364,9.21 2.372,9.22 2.374,9.222C2.378,9.227 2.382,9.232 2.382,9.232C2.531,9.426 2.745,9.685 2.785,9.713L3.056,9.858C3.06,9.859 3.063,9.86 3.065,9.861C3.091,9.877 3.118,9.893 3.205,9.944L3.233,9.971C3.341,10.134 3.497,10.371 3.624,10.549C3.91,10.91 3.987,11.006 4.35,11.369C4.352,11.371 4.358,11.377 4.361,11.379L4.459,11.448C4.472,11.462 4.487,11.476 4.5,11.489L4.521,11.51C4.525,11.514 4.528,11.516 4.532,11.518C4.551,11.529 4.574,11.536 4.595,11.541C4.598,11.559 4.606,11.565 4.686,11.621C4.7,11.632 4.715,11.637 4.731,11.637C4.731,11.638 4.731,11.639 4.733,11.639L4.761,11.682C4.767,11.69 4.774,11.695 4.783,11.7L4.85,11.729L4.862,11.748C4.866,11.754 4.87,11.758 4.875,11.762C4.903,11.781 4.938,11.793 4.969,11.804L4.989,11.811L4.99,11.812C4.994,11.827 5.005,11.843 5.016,11.852C5.022,11.857 5.029,11.862 5.033,11.865C5.042,11.871 5.05,11.875 5.064,11.878L5.115,11.905C5.122,11.909 5.141,11.915 5.148,11.915L5.15,11.915C5.153,11.915 5.156,11.914 5.159,11.914L5.178,11.925C5.18,11.927 5.189,11.931 5.191,11.932L5.217,11.943C5.222,11.954 5.23,11.964 5.243,11.97L5.349,12.018C5.362,12.024 5.377,12.024 5.389,12.018C5.391,12.017 5.393,12.016 5.395,12.015C5.397,12.017 5.4,12.018 5.403,12.02C5.408,12.029 5.416,12.037 5.427,12.041L5.523,12.083C5.527,12.085 5.532,12.086 5.537,12.086C5.545,12.087 5.553,12.088 5.558,12.088C5.561,12.089 5.565,12.091 5.568,12.091C5.6,12.098 5.616,12.098 5.632,12.098C5.65,12.098 5.667,12.088 5.675,12.072L5.684,12.07C5.701,12.068 5.715,12.057 5.723,12.041C5.73,12.025 5.728,12.007 5.718,11.992C5.718,11.992 5.717,11.992 5.717,11.991C5.718,11.992 5.719,11.992 5.721,11.993C5.728,11.995 5.745,11.995 5.752,11.994C5.759,11.993 5.766,11.99 5.771,11.986C5.782,11.977 5.791,11.964 5.793,11.951C5.795,11.937 5.789,11.918 5.779,11.907L5.737,11.857C5.727,11.847 5.726,11.846 5.671,11.82C5.666,11.819 5.654,11.817 5.649,11.817C5.642,11.815 5.634,11.819 5.627,11.822C5.617,11.825 5.609,11.825 5.601,11.829C5.58,11.841 5.569,11.871 5.577,11.893C5.58,11.902 5.585,11.912 5.593,11.927L5.518,11.902C5.515,11.9 5.507,11.898 5.501,11.896C5.497,11.895 5.492,11.895 5.489,11.894L5.466,11.875C5.463,11.871 5.456,11.867 5.453,11.865L5.392,11.83L5.329,11.737C5.328,11.735 5.321,11.727 5.32,11.726C5.307,11.714 5.295,11.702 5.283,11.688C5.278,11.682 5.271,11.678 5.262,11.675L5.199,11.653C5.199,11.642 5.194,11.631 5.187,11.621C5.138,11.565 5.094,11.512 5.05,11.456C5.046,11.451 5.041,11.446 5.036,11.444L5.022,11.436C5.034,11.421 5.036,11.399 5.027,11.382C5.024,11.375 5.02,11.37 5.017,11.365L5.08,11.32C5.09,11.312 5.1,11.293 5.101,11.281C5.103,11.275 5.103,11.27 5.102,11.265L5.085,11.16C5.084,11.15 5.079,11.14 5.072,11.133C5.062,11.123 5.051,11.115 5.039,11.108L5.049,11.104C5.059,11.101 5.073,11.088 5.079,11.079C5.083,11.075 5.086,11.069 5.087,11.064L5.111,10.985L5.122,10.971C5.127,10.965 5.13,10.958 5.132,10.951L5.154,10.851L5.162,10.842C5.167,10.837 5.173,10.825 5.174,10.818C5.176,10.813 5.177,10.806 5.177,10.8L5.174,10.748L5.177,10.745C5.19,10.731 5.194,10.711 5.187,10.693L5.09,10.442C5.203,10.38 5.34,10.305 5.447,10.249C5.461,10.241 5.471,10.228 5.473,10.213L5.484,10.136C5.502,10.021 5.521,9.889 5.539,9.785C5.54,9.778 5.539,9.768 5.537,9.761L5.471,9.473L5.499,9.437L5.547,9.419C5.553,9.416 5.559,9.413 5.564,9.409L5.574,9.398C5.578,9.395 5.582,9.39 5.584,9.387L5.669,9.227C5.67,9.226 5.67,9.224 5.671,9.223L5.767,9.051C5.771,9.045 5.774,9.027 5.775,9.021C5.775,9.016 5.775,9.01 5.774,9.006L5.721,8.735C5.718,8.721 5.709,8.708 5.695,8.701C5.553,8.63 5.366,8.536 5.214,8.463C5.212,8.461 5.201,8.46 5.199,8.459L4.815,8.407L4.683,8.355L4.529,8.245C4.528,8.244 4.518,8.239 4.515,8.238L4.482,8.225L4.487,8.216C4.494,8.202 4.49,8.178 4.483,8.165C4.48,8.156 4.475,8.148 4.471,8.142C4.462,8.13 4.443,8.117 4.43,8.121L4.425,8.123L4.313,8.03L4.173,7.832C4.171,7.824 4.167,7.817 4.162,7.811L4.147,7.794C4.142,7.788 4.135,7.784 4.128,7.781L3.888,7.672L3.813,7.613C3.803,7.604 3.789,7.601 3.776,7.602L3.629,7.622L3.45,7.452C3.46,7.454 3.463,7.452 3.47,7.449L3.483,7.444C3.499,7.438 3.512,7.422 3.514,7.404C3.518,7.367 3.518,7.339 3.517,7.315L3.568,7.267C3.578,7.257 3.583,7.244 3.583,7.231L3.583,7.205C3.583,7.178 3.563,7.157 3.537,7.156C3.473,7.151 3.419,7.149 3.366,7.149C3.366,7.146 3.367,7.143 3.367,7.14C3.367,7.13 3.367,7.129 3.346,7.07C3.366,7.058 3.378,7.037 3.378,7.013C3.378,7.003 3.378,7.003 3.348,6.921C3.347,6.908 3.341,6.888 3.329,6.851C3.336,6.846 3.342,6.84 3.348,6.831C3.362,6.804 3.356,6.783 3.329,6.701C3.328,6.698 3.326,6.696 3.326,6.693C3.329,6.682 3.33,6.668 3.326,6.656C3.35,6.646 3.366,6.623 3.369,6.594C3.369,6.583 3.369,6.583 3.342,6.497C3.33,6.476 3.314,6.465 3.298,6.46C3.298,6.459 3.298,6.457 3.299,6.455C3.301,6.436 3.295,6.416 3.282,6.402C3.27,6.388 3.252,6.379 3.23,6.378L3.213,6.378C3.208,6.355 3.192,6.332 3.161,6.324C3.119,6.313 3.066,6.303 3.016,6.294C2.991,6.29 2.967,6.285 2.953,6.283C2.944,6.281 2.929,6.279 2.92,6.281C2.903,6.285 2.889,6.293 2.879,6.306C2.86,6.292 2.841,6.277 2.822,6.263L2.78,6.231C2.77,6.222 2.745,6.211 2.731,6.215C2.709,6.217 2.692,6.228 2.679,6.248L2.678,6.247L2.533,6.165L2.466,6.141C2.457,6.136 2.45,6.134 2.432,6.129C2.425,6.127 2.413,6.127 2.405,6.129C2.405,6.129 2.404,6.129 2.403,6.129L2.365,6.129C2.36,6.129 2.354,6.13 2.349,6.132C2.346,6.133 2.335,6.138 2.333,6.139L2.327,6.142C2.327,6.141 2.328,6.141 2.328,6.141C2.329,6.138 2.33,6.135 2.331,6.132C2.331,6.131 2.332,6.129 2.332,6.128L2.387,6.128C2.424,6.125 2.447,6.096 2.45,6.073C2.454,6.051 2.454,6.051 2.411,5.945C2.398,5.916 2.365,5.9 2.337,5.908C2.325,5.911 2.308,5.917 2.293,5.94C2.282,5.959 2.27,5.983 2.26,6.004L2.254,6.016C2.202,5.979 2.144,5.941 2.087,5.901C2.006,5.847 1.925,5.792 1.857,5.742C1.85,5.737 1.829,5.732 1.821,5.731C1.815,5.731 1.811,5.731 1.807,5.733L1.666,5.763C1.662,5.763 1.655,5.765 1.652,5.767C1.626,5.776 1.625,5.777 1.557,5.93C1.549,5.923 1.541,5.918 1.532,5.915C1.525,5.913 1.518,5.912 1.51,5.913L1.285,5.946C1.266,5.949 1.25,5.963 1.244,5.981L1.193,6.17L1.119,6.183L1.057,6.011L1.12,5.679L1.176,5.511L1.226,5.432C1.282,5.344 1.344,5.248 1.398,5.169L1.475,5.169L1.584,5.274C1.6,5.289 1.624,5.292 1.643,5.281C1.688,5.255 1.705,5.205 1.718,5.16L1.857,5.207L1.841,5.604C1.839,5.624 1.851,5.642 1.867,5.651C1.909,5.673 1.939,5.673 1.96,5.673C1.972,5.673 1.986,5.668 1.994,5.659L2.014,5.642C2.014,5.646 2.015,5.653 2.015,5.655L2.037,5.717C2.042,5.734 2.055,5.756 2.098,5.763L2.168,5.763C2.197,5.76 2.22,5.739 2.226,5.714C2.233,5.697 2.233,5.697 2.209,5.572C2.201,5.541 2.178,5.521 2.147,5.521L2.096,5.521L2.134,5.395C2.146,5.311 2.16,5.228 2.175,5.146L2.296,4.938L2.306,4.938C2.314,4.938 2.32,4.936 2.326,4.933L2.474,4.836C2.558,4.778 2.648,4.717 2.722,4.667C2.728,4.663 2.733,4.658 2.736,4.653C2.749,4.634 2.754,4.626 2.756,4.615C2.769,4.559 2.782,4.503 2.796,4.448C2.799,4.45 2.802,4.453 2.807,4.457C2.827,4.473 2.856,4.471 2.874,4.453L3.085,4.241C3.088,4.238 3.095,4.231 3.096,4.228L3.125,4.182L3.352,4.158C3.364,4.157 3.375,4.152 3.384,4.143L3.447,4.072C3.46,4.059 3.463,4.039 3.458,4.021L3.453,4.008L3.497,3.947L3.543,3.947C3.548,3.947 3.552,3.946 3.556,3.945C3.559,3.945 3.573,3.939 3.575,3.939L3.739,3.86L3.729,3.9C3.725,3.914 3.729,3.931 3.739,3.943L3.752,3.959C3.765,3.975 3.788,3.981 3.807,3.974C3.888,3.943 3.987,3.905 4.078,3.87L4.177,3.833C4.184,3.83 4.191,3.825 4.197,3.82L4.212,3.803C4.215,3.799 4.217,3.795 4.219,3.79L4.278,3.79C4.301,3.789 4.306,3.786 4.372,3.738C4.377,3.733 4.386,3.72 4.388,3.713C4.402,3.685 4.392,3.665 4.372,3.644L4.388,3.575C4.39,3.562 4.383,3.536 4.374,3.525C4.362,3.511 4.345,3.506 4.318,3.503C4.29,3.506 4.288,3.506 4.141,3.66L4.105,3.619C4.11,3.6 4.115,3.58 4.119,3.561L4.12,3.561C4.133,3.561 4.146,3.556 4.154,3.548L4.225,3.479C4.236,3.469 4.241,3.445 4.239,3.429L4.238,3.417C4.237,3.406 4.231,3.395 4.224,3.387L4.449,3.387L4.448,3.388C4.439,3.394 4.419,3.407 4.416,3.435C4.414,3.45 4.419,3.463 4.427,3.475L4.401,3.518C4.394,3.532 4.392,3.559 4.399,3.572C4.413,3.602 4.423,3.605 4.569,3.63L4.58,3.659C4.586,3.666 4.6,3.687 4.637,3.689L4.687,3.688C4.7,3.686 4.708,3.684 4.721,3.673C4.731,3.681 4.745,3.686 4.762,3.689L4.806,3.689C4.809,3.689 4.812,3.689 4.815,3.688C4.837,3.684 4.837,3.684 4.935,3.615C4.94,3.61 4.953,3.598 4.957,3.578C4.959,3.567 4.961,3.555 4.964,3.537C4.964,3.51 4.954,3.495 4.933,3.483L4.945,3.462C4.95,3.449 4.952,3.427 4.948,3.415C4.94,3.397 4.932,3.389 4.893,3.37L4.973,3.305C4.994,3.286 5.001,3.259 4.991,3.234C4.986,3.22 4.975,3.208 4.959,3.201L5.01,3.128C5.011,3.127 5.012,3.126 5.013,3.124C5.02,3.112 5.023,3.097 5.019,3.084C5.013,3.067 5,3.054 4.983,3.05L4.878,3.024C4.881,3.02 4.883,3.016 4.885,3.011C4.899,2.973 4.907,2.942 4.915,2.914L4.919,2.901C4.923,2.88 4.915,2.858 4.896,2.846L4.879,2.834C4.88,2.83 4.88,2.827 4.881,2.824L4.893,2.785C4.916,2.637 4.932,2.563 4.933,2.557C4.937,2.536 4.929,2.516 4.91,2.505L4.9,2.497C4.92,2.49 4.926,2.483 4.969,2.408C4.973,2.41 4.977,2.412 4.981,2.413C4.985,2.414 4.998,2.417 5.002,2.417L5.034,2.417C5.064,2.416 5.065,2.415 5.189,2.287C5.198,2.292 5.21,2.296 5.218,2.296C5.243,2.296 5.251,2.291 5.452,2.184C5.456,2.183 5.461,2.179 5.463,2.177C5.473,2.168 5.484,2.151 5.486,2.139C5.489,2.114 5.49,2.112 5.38,1.977L5.433,1.915C5.451,1.882 5.451,1.882 5.344,1.727C5.341,1.722 5.333,1.715 5.329,1.712C5.324,1.709 5.321,1.706 5.317,1.705L5.31,1.702C5.324,1.693 5.34,1.675 5.376,1.636C5.378,1.635 5.38,1.633 5.38,1.631C5.388,1.634 5.396,1.634 5.404,1.632C5.454,1.621 5.502,1.589 5.545,1.56C5.556,1.552 5.568,1.545 5.579,1.538L5.597,1.538C5.601,1.538 5.61,1.537 5.613,1.536L5.693,1.517C5.704,1.511 5.715,1.503 5.726,1.487L5.727,1.498C5.727,1.506 5.73,1.514 5.734,1.521C5.734,1.521 5.734,1.522 5.735,1.522C5.731,1.533 5.728,1.544 5.725,1.555C5.723,1.56 5.723,1.57 5.723,1.575C5.723,1.58 5.724,1.585 5.725,1.589L5.737,1.623C5.741,1.634 5.757,1.649 5.767,1.655C5.774,1.659 5.781,1.661 5.79,1.661C5.837,1.662 5.881,1.663 5.916,1.661L5.962,1.67L5.973,1.7L5.934,1.805C5.931,1.813 5.932,1.829 5.933,1.837C5.934,1.847 5.939,1.858 5.946,1.866C5.941,1.878 5.941,1.893 5.948,1.906C5.952,1.916 5.959,1.928 5.965,1.938L5.973,1.954C5.977,1.96 5.98,1.965 5.984,1.968L5.912,1.969C5.887,1.972 5.887,1.972 5.779,2.063C5.773,2.068 5.765,2.083 5.761,2.09C5.76,2.093 5.758,2.098 5.758,2.102L5.74,2.201C5.739,2.21 5.739,2.218 5.742,2.227C5.746,2.237 5.752,2.246 5.759,2.254C5.759,2.256 5.758,2.258 5.758,2.261L5.736,2.268C5.731,2.27 5.726,2.273 5.723,2.275C5.716,2.28 5.701,2.29 5.694,2.311C5.691,2.32 5.691,2.329 5.693,2.338L5.75,2.559C5.753,2.569 5.759,2.578 5.767,2.585C5.777,2.593 5.784,2.598 5.792,2.601C5.798,2.604 5.805,2.606 5.811,2.606L5.864,2.606L5.896,2.661C5.899,2.667 5.904,2.672 5.909,2.676C5.925,2.688 5.948,2.696 5.971,2.691L6.074,2.667C6.08,2.666 6.085,2.663 6.09,2.66L6.165,2.587C6.235,2.514 6.314,2.431 6.377,2.364L6.532,2.309C6.535,2.309 6.547,2.301 6.549,2.3L6.571,2.284L6.597,2.292C6.601,2.293 6.61,2.295 6.614,2.295C6.64,2.295 6.646,2.289 6.731,2.226L6.883,2.141L6.965,2.157C6.97,2.158 6.974,2.158 6.979,2.157L7.003,2.153C7.098,2.118 7.227,2.07 7.323,2.033C7.327,2.032 7.331,2.03 7.334,2.027ZM4.507,2.286C4.511,2.292 4.517,2.298 4.525,2.303L4.456,2.267C4.452,2.265 4.448,2.263 4.444,2.262L4.46,2.169C4.461,2.163 4.461,2.158 4.46,2.152L4.619,2.121C4.611,2.126 4.601,2.132 4.587,2.141C4.586,2.142 4.578,2.149 4.577,2.15L4.512,2.225C4.507,2.233 4.491,2.259 4.507,2.286ZM3.99,2.324C3.996,2.322 4.002,2.318 4.007,2.314C4.01,2.31 4.015,2.306 4.018,2.303C4.028,2.296 4.033,2.286 4.036,2.275L4.118,2.275L4.116,2.29C4.113,2.314 4.127,2.338 4.151,2.345C4.183,2.355 4.206,2.355 4.223,2.355C4.23,2.355 4.243,2.352 4.248,2.35L4.283,2.338L4.291,2.34C4.256,2.374 4.226,2.415 4.197,2.453C4.177,2.479 4.158,2.504 4.14,2.524L4.037,2.562C4.027,2.566 4.018,2.573 4.011,2.582L3.896,2.768L3.661,2.85C3.649,2.853 3.638,2.86 3.631,2.871C3.627,2.879 3.622,2.886 3.618,2.894C3.617,2.893 3.616,2.892 3.616,2.891L3.55,2.787L3.513,2.66C3.509,2.646 3.498,2.634 3.483,2.629L3.489,2.625C3.499,2.616 3.506,2.604 3.507,2.59L3.508,2.567L3.669,2.45C3.723,2.429 3.786,2.404 3.849,2.379L3.99,2.324ZM4.667,2.103L4.819,1.965C4.838,1.972 4.861,1.98 4.887,1.988L4.818,2.047C4.816,2.049 4.809,2.055 4.807,2.057L4.772,2.103L4.667,2.103ZM4.7,2.534C4.719,2.516 4.72,2.485 4.702,2.466L4.587,2.338C4.584,2.336 4.579,2.332 4.576,2.33L4.532,2.307C4.562,2.321 4.574,2.314 4.683,2.297L4.699,2.308L4.69,2.321C4.658,2.372 4.671,2.381 4.836,2.493C4.837,2.493 4.838,2.494 4.839,2.495L4.675,2.583L4.662,2.572L4.7,2.534ZM1.567,6.02C1.571,6.024 1.577,6.027 1.583,6.029L1.573,6.052C1.567,6.071 1.568,6.078 1.577,6.133C1.585,6.157 1.595,6.165 1.614,6.176C1.626,6.183 1.641,6.184 1.654,6.18C1.657,6.178 1.666,6.175 1.67,6.173C1.664,6.231 1.686,6.287 1.728,6.318C1.748,6.331 1.771,6.339 1.794,6.339C1.862,6.339 1.92,6.279 1.93,6.202C1.933,6.175 1.93,6.149 1.922,6.126L1.946,6.149C1.946,6.159 1.946,6.169 1.945,6.178L1.944,6.222C1.947,6.248 1.961,6.268 1.985,6.279C1.989,6.281 1.994,6.282 1.998,6.283C2.003,6.284 2.012,6.284 2.018,6.284L2.171,6.261C2.171,6.266 2.171,6.269 2.171,6.271C2.171,6.275 2.172,6.277 2.172,6.279C2.16,6.295 2.158,6.314 2.158,6.331C2.149,6.322 2.14,6.316 2.13,6.314C2.095,6.303 2.052,6.296 2.011,6.289L1.958,6.279L1.958,6.282C1.949,6.279 1.94,6.279 1.936,6.279C1.912,6.284 1.907,6.289 1.862,6.345C1.85,6.362 1.845,6.381 1.849,6.401C1.852,6.419 1.862,6.435 1.873,6.441C1.897,6.463 1.93,6.481 1.96,6.497L1.992,6.516C1.997,6.52 2.002,6.521 2.008,6.523L2.015,6.524C2.021,6.525 2.027,6.525 2.033,6.525C2.037,6.524 2.047,6.521 2.051,6.52L2.135,6.487C2.139,6.486 2.144,6.483 2.147,6.48C2.164,6.467 2.174,6.449 2.176,6.422C2.176,6.412 2.176,6.402 2.176,6.388C2.199,6.404 2.252,6.413 2.395,6.436C2.398,6.437 2.407,6.439 2.411,6.439C2.413,6.439 2.422,6.44 2.424,6.44L2.426,6.44C2.429,6.44 2.429,6.44 2.432,6.439L2.67,6.439C2.672,6.439 2.674,6.439 2.676,6.438C2.687,6.457 2.708,6.469 2.733,6.47L2.889,6.47C2.907,6.469 2.922,6.461 2.933,6.452C2.936,6.454 2.939,6.457 2.941,6.459C2.951,6.468 2.959,6.475 2.972,6.487C2.985,6.497 3,6.503 3.016,6.503C3.019,6.503 3.036,6.5 3.039,6.499L3.07,6.489L3.07,6.5C3.072,6.526 3.087,6.546 3.112,6.557C3.106,6.567 3.103,6.579 3.102,6.593C3.102,6.625 3.102,6.657 3.103,6.689L3.104,6.722C3.108,6.759 3.133,6.773 3.149,6.779L3.15,6.811C3.15,6.811 3.15,6.813 3.151,6.814C3.144,6.824 3.14,6.836 3.14,6.851C3.14,6.877 3.142,6.904 3.143,6.933C3.145,6.952 3.154,6.969 3.169,6.981C3.17,6.996 3.171,7.012 3.172,7.028C3.172,7.029 3.172,7.03 3.172,7.032C3.164,7.043 3.159,7.059 3.158,7.077C3.16,7.098 3.161,7.119 3.162,7.14L3.163,7.156C3.167,7.183 3.188,7.211 3.224,7.216C3.224,7.217 3.224,7.218 3.224,7.22L3.226,7.254L3.128,7.166C3.124,7.162 3.12,7.16 3.116,7.158L2.932,7.118C2.925,7.117 2.92,7.117 2.913,7.118L2.898,7.121C2.893,7.122 2.889,7.124 2.885,7.126L2.852,7.144L2.662,7.095L2.546,6.955C2.542,6.949 2.536,6.945 2.53,6.943L2.516,6.936C2.498,6.926 2.475,6.93 2.459,6.944L2.425,6.979L2.394,6.965C2.38,6.957 2.365,6.95 2.354,6.943C2.338,6.935 2.321,6.935 2.305,6.943L2.08,7.069C2.075,7.071 2.064,7.082 2.061,7.085C2.057,7.09 2.054,7.095 2.051,7.1L1.98,7.265L1.914,7.219C1.908,7.215 1.9,7.212 1.892,7.21L1.879,7.209L1.865,7.209L1.727,7.232L1.679,7.146L1.692,6.723C1.694,6.713 1.694,6.701 1.694,6.691C1.694,6.682 1.692,6.674 1.688,6.666C1.664,6.626 1.626,6.581 1.595,6.544L1.581,6.527C1.578,6.523 1.564,6.513 1.56,6.511C1.555,6.508 1.549,6.505 1.543,6.504L1.428,6.48C1.428,6.479 1.428,6.478 1.428,6.478L1.428,6.376L1.567,6.02Z" />
            <path fill="#3E79B4" class="Blue" d="M7.472,2.499L7.476,2.499C7.493,2.499 7.493,2.499 7.757,2.384C7.787,2.364 7.787,2.337 7.782,2.318C7.779,2.304 7.774,2.29 7.767,2.27C7.764,2.263 7.761,2.257 7.755,2.251C7.754,2.25 7.745,2.241 7.744,2.24L7.638,2.157C7.628,2.15 7.608,2.143 7.584,2.142L7.388,2.177L7.343,2.15C7.337,2.146 7.32,2.142 7.313,2.142C7.298,2.142 7.28,2.146 7.177,2.167C7.154,2.174 7.139,2.189 7.134,2.209C7.129,2.227 7.138,2.255 7.151,2.268C7.169,2.284 7.192,2.299 7.214,2.312L7.197,2.35C7.192,2.363 7.193,2.384 7.199,2.396C7.213,2.424 7.213,2.424 7.457,2.497C7.462,2.498 7.467,2.499 7.472,2.499Z" />
        </g>
        <g transform="matrix(1.23077,0,0,1.23077,0,0)">
            <path fill="#3E79B4" class="Blue" d="M6.503,0.075C6.624,0.075 6.747,0.079 6.869,0.085C7.232,0.106 7.593,0.157 7.948,0.239C8.211,0.3 8.471,0.377 8.724,0.471C8.868,0.524 9.009,0.582 9.148,0.645C9.298,0.713 9.445,0.787 9.59,0.866C9.669,0.91 9.747,0.955 9.825,1.002C9.958,1.083 10.088,1.168 10.215,1.258C10.403,1.392 10.585,1.537 10.758,1.69C10.866,1.786 10.969,1.884 11.069,1.985C11.126,2.042 11.181,2.1 11.236,2.159C11.316,2.248 11.395,2.338 11.471,2.431C11.503,2.47 11.535,2.51 11.566,2.549C11.604,2.599 11.642,2.649 11.679,2.699C11.771,2.824 11.859,2.953 11.942,3.085C12.001,3.179 12.057,3.273 12.111,3.37C12.138,3.417 12.163,3.465 12.189,3.513C12.235,3.601 12.279,3.69 12.321,3.779C12.359,3.859 12.395,3.94 12.429,4.022C12.46,4.096 12.489,4.17 12.518,4.246C12.544,4.316 12.569,4.387 12.593,4.456C12.611,4.513 12.629,4.569 12.647,4.626C12.661,4.674 12.676,4.722 12.689,4.771C12.719,4.876 12.745,4.982 12.769,5.089C12.783,5.148 12.795,5.207 12.807,5.267C12.841,5.445 12.868,5.623 12.888,5.803C12.899,5.906 12.907,6.01 12.914,6.114C12.919,6.211 12.923,6.307 12.924,6.404C12.925,6.462 12.925,6.52 12.925,6.578C12.923,6.679 12.92,6.78 12.914,6.881C12.911,6.933 12.907,6.985 12.903,7.037C12.893,7.153 12.88,7.268 12.865,7.383C12.856,7.444 12.847,7.506 12.837,7.567C12.827,7.624 12.817,7.681 12.806,7.737C12.789,7.824 12.77,7.909 12.75,7.994C12.735,8.056 12.72,8.118 12.703,8.179C12.682,8.257 12.66,8.333 12.636,8.41C12.62,8.461 12.604,8.511 12.586,8.562L12.586,8.564C12.573,8.6 12.561,8.636 12.548,8.671L12.547,8.674C12.524,8.739 12.499,8.806 12.473,8.871C12.431,8.976 12.387,9.079 12.34,9.181C12.296,9.277 12.25,9.371 12.201,9.463C12.178,9.507 12.155,9.551 12.131,9.594C12.1,9.651 12.067,9.708 12.034,9.764C12.004,9.815 11.973,9.866 11.942,9.915C11.887,10.002 11.83,10.089 11.771,10.173C11.715,10.253 11.659,10.33 11.6,10.407C11.559,10.459 11.518,10.511 11.477,10.562C11.435,10.613 11.391,10.665 11.348,10.715C11.274,10.799 11.2,10.88 11.123,10.96C11.072,11.013 11.02,11.065 10.967,11.117C10.919,11.163 10.871,11.208 10.821,11.253C10.788,11.284 10.754,11.314 10.72,11.343C10.642,11.411 10.564,11.476 10.483,11.54C10.433,11.58 10.383,11.618 10.332,11.656C10.283,11.693 10.233,11.729 10.183,11.764C10.107,11.817 10.03,11.869 9.952,11.918C9.755,12.044 9.551,12.159 9.342,12.263C9.25,12.308 9.158,12.351 9.065,12.392C8.991,12.424 8.915,12.456 8.839,12.485C8.752,12.519 8.664,12.551 8.576,12.582C8.533,12.596 8.49,12.61 8.447,12.624C8.308,12.668 8.166,12.708 8.025,12.742C7.939,12.764 7.852,12.783 7.764,12.8C7.705,12.812 7.645,12.823 7.584,12.834C7.441,12.858 7.295,12.878 7.149,12.893C7.063,12.901 6.978,12.908 6.892,12.913C6.809,12.918 6.727,12.922 6.645,12.923C6.571,12.925 6.497,12.925 6.422,12.925C6.321,12.923 6.22,12.92 6.119,12.914C6.067,12.911 6.015,12.907 5.963,12.903C5.73,12.883 5.497,12.851 5.267,12.807C5.218,12.797 5.169,12.787 5.121,12.776C4.996,12.749 4.871,12.717 4.747,12.682C4.677,12.663 4.607,12.642 4.538,12.619C4.456,12.593 4.375,12.565 4.294,12.536C4.208,12.504 4.123,12.471 4.038,12.436L4.036,12.435C3.981,12.412 3.926,12.388 3.872,12.364C3.735,12.302 3.6,12.236 3.468,12.165C3.385,12.12 3.302,12.074 3.221,12.025C3.125,11.968 3.031,11.909 2.938,11.847C2.772,11.736 2.611,11.617 2.455,11.491C2.361,11.414 2.269,11.335 2.179,11.253C2.127,11.206 2.075,11.157 2.025,11.108C1.936,11.022 1.85,10.933 1.766,10.842C1.643,10.708 1.524,10.567 1.412,10.422C1.363,10.358 1.314,10.293 1.267,10.227C1.158,10.073 1.055,9.916 0.96,9.754C0.792,9.469 0.646,9.17 0.524,8.862C0.44,8.651 0.369,8.437 0.308,8.22C0.254,8.023 0.209,7.824 0.173,7.624C0.082,7.108 0.054,6.582 0.09,6.06C0.099,5.919 0.114,5.778 0.133,5.637C0.166,5.392 0.213,5.148 0.274,4.907C0.294,4.83 0.316,4.752 0.338,4.675C0.389,4.505 0.446,4.337 0.51,4.172C0.64,3.838 0.798,3.517 0.981,3.211C1.036,3.118 1.094,3.026 1.154,2.936C1.277,2.753 1.41,2.575 1.551,2.405C1.704,2.22 1.866,2.044 2.038,1.878C2.09,1.828 2.143,1.779 2.197,1.73C2.444,1.507 2.708,1.303 2.987,1.121C3.148,1.016 3.313,0.917 3.483,0.827C3.546,0.793 3.609,0.761 3.674,0.729C3.79,0.672 3.908,0.619 4.027,0.569C4.233,0.483 4.443,0.408 4.656,0.344C4.876,0.278 5.099,0.224 5.324,0.183C5.445,0.16 5.566,0.141 5.688,0.126C5.796,0.112 5.905,0.101 6.014,0.093C6.156,0.083 6.298,0.077 6.44,0.075C6.461,0.075 6.482,0.075 6.503,0.075ZM6.498,0.89C5.966,0.89 5.436,0.965 4.927,1.114C4.789,1.154 4.651,1.2 4.516,1.251C4.321,1.325 4.129,1.41 3.944,1.506C3.738,1.612 3.539,1.73 3.347,1.86C3.255,1.923 3.165,1.988 3.078,2.056C2.925,2.174 2.778,2.3 2.638,2.433C2.42,2.64 2.218,2.865 2.035,3.104C1.99,3.164 1.946,3.224 1.903,3.285C1.769,3.477 1.646,3.678 1.536,3.885C1.435,4.076 1.345,4.274 1.267,4.476C1.224,4.587 1.184,4.699 1.149,4.812C1.107,4.945 1.07,5.079 1.038,5.214C0.992,5.413 0.956,5.614 0.931,5.816C0.921,5.897 0.913,5.978 0.907,6.059C0.884,6.355 0.884,6.652 0.908,6.947C0.92,7.102 0.938,7.256 0.963,7.409C0.983,7.528 1.006,7.647 1.033,7.764C1.086,7.994 1.154,8.221 1.236,8.442C1.274,8.546 1.316,8.65 1.361,8.751C1.439,8.929 1.527,9.104 1.623,9.273C1.715,9.433 1.814,9.589 1.922,9.741C1.996,9.846 2.074,9.948 2.156,10.048C2.224,10.132 2.295,10.213 2.368,10.293C2.482,10.417 2.603,10.537 2.727,10.651C2.802,10.718 2.878,10.784 2.957,10.848C3.022,10.901 3.088,10.953 3.155,11.003C3.225,11.055 3.298,11.106 3.37,11.155C3.449,11.209 3.53,11.26 3.612,11.31C3.673,11.346 3.735,11.382 3.798,11.416C3.83,11.435 3.863,11.452 3.897,11.47L3.898,11.471C3.93,11.488 3.963,11.504 3.995,11.52L3.997,11.521C4.081,11.563 4.165,11.603 4.251,11.64C4.33,11.675 4.409,11.708 4.49,11.739C4.581,11.774 4.672,11.806 4.765,11.836C4.813,11.852 4.861,11.867 4.909,11.881C4.983,11.903 5.057,11.923 5.132,11.942C5.299,11.984 5.466,12.017 5.635,12.044C5.71,12.055 5.786,12.065 5.862,12.074C5.985,12.088 6.108,12.098 6.231,12.104C6.344,12.109 6.456,12.111 6.568,12.11C6.663,12.108 6.759,12.105 6.854,12.099C6.933,12.094 7.012,12.087 7.091,12.079C7.161,12.072 7.23,12.063 7.3,12.053C7.424,12.036 7.548,12.014 7.671,11.987C7.75,11.971 7.83,11.952 7.908,11.932C7.93,11.926 7.953,11.92 7.975,11.914L7.977,11.913C8.046,11.894 8.115,11.874 8.184,11.853C8.228,11.839 8.271,11.824 8.315,11.81L8.317,11.809C8.409,11.777 8.501,11.743 8.592,11.707C8.604,11.701 8.617,11.696 8.629,11.691L8.631,11.69C8.667,11.676 8.704,11.66 8.739,11.645L8.741,11.644C8.761,11.635 8.78,11.627 8.8,11.618L8.802,11.617C8.822,11.608 8.843,11.598 8.864,11.589L8.866,11.588C8.88,11.581 8.895,11.574 8.91,11.567L8.912,11.566C8.97,11.538 9.029,11.509 9.087,11.479C9.164,11.438 9.239,11.397 9.315,11.353L9.317,11.352C9.341,11.338 9.364,11.324 9.388,11.31L9.39,11.309C9.431,11.283 9.472,11.258 9.513,11.232C9.578,11.19 9.642,11.148 9.705,11.104L9.707,11.103C9.763,11.063 9.819,11.023 9.874,10.981C9.876,10.979 9.878,10.978 9.881,10.976L9.882,10.975C9.935,10.935 9.986,10.895 10.036,10.854C10.085,10.815 10.132,10.775 10.178,10.735C10.18,10.733 10.181,10.732 10.183,10.73L10.185,10.729C10.254,10.669 10.321,10.607 10.386,10.544C10.435,10.497 10.484,10.449 10.531,10.4C10.566,10.364 10.601,10.327 10.635,10.29C10.708,10.21 10.779,10.128 10.847,10.045C10.89,9.992 10.933,9.938 10.974,9.884L10.975,9.882C10.979,9.877 10.983,9.871 10.988,9.865L10.989,9.864C11.017,9.826 11.045,9.788 11.072,9.75C11.134,9.663 11.194,9.574 11.25,9.485C11.324,9.367 11.394,9.246 11.46,9.122C11.463,9.116 11.466,9.11 11.47,9.103L11.471,9.102C11.482,9.08 11.493,9.059 11.504,9.037L11.505,9.036C11.529,8.988 11.553,8.939 11.576,8.891L11.577,8.889C11.617,8.803 11.656,8.716 11.691,8.629C11.73,8.534 11.767,8.438 11.801,8.341L11.801,8.339C11.823,8.276 11.844,8.213 11.863,8.149C11.877,8.104 11.89,8.059 11.903,8.014C11.906,8.003 11.909,7.992 11.912,7.981L11.913,7.979C11.937,7.888 11.96,7.796 11.98,7.705C11.99,7.658 12,7.612 12.009,7.564C12.026,7.478 12.04,7.393 12.052,7.306C12.057,7.273 12.062,7.239 12.066,7.206C12.08,7.094 12.091,6.981 12.098,6.867C12.106,6.749 12.11,6.63 12.11,6.511C12.11,6.382 12.106,6.253 12.098,6.124C12.094,6.065 12.089,6.005 12.083,5.946C12.075,5.865 12.065,5.784 12.054,5.702C12.04,5.607 12.024,5.513 12.006,5.419C11.992,5.348 11.976,5.276 11.96,5.206C11.946,5.148 11.932,5.091 11.916,5.034C11.915,5.031 11.915,5.028 11.914,5.025L11.913,5.023C11.89,4.939 11.866,4.856 11.839,4.773C11.824,4.729 11.81,4.685 11.794,4.641C11.743,4.494 11.685,4.35 11.621,4.208C11.62,4.205 11.619,4.203 11.618,4.2L11.617,4.198C11.594,4.149 11.571,4.099 11.547,4.05L11.546,4.048C11.512,3.978 11.477,3.909 11.44,3.84L11.439,3.838C11.435,3.831 11.431,3.824 11.427,3.816L11.426,3.814C11.388,3.746 11.349,3.678 11.309,3.61C11.265,3.538 11.219,3.466 11.172,3.395C11.121,3.318 11.068,3.244 11.014,3.17C10.879,2.987 10.734,2.814 10.579,2.65C10.512,2.579 10.443,2.51 10.373,2.443C10.234,2.31 10.088,2.184 9.936,2.066C9.833,1.986 9.727,1.91 9.62,1.838C9.455,1.727 9.284,1.625 9.109,1.533C8.919,1.433 8.723,1.344 8.524,1.267C8.411,1.223 8.297,1.183 8.182,1.147C8.029,1.099 7.874,1.057 7.718,1.023C7.64,1.005 7.561,0.99 7.482,0.976C7.191,0.924 6.895,0.896 6.6,0.891C6.567,0.89 6.535,0.89 6.502,0.89C6.501,0.89 6.499,0.89 6.498,0.89Z" />
        </g>
    </g>
</svg>
