<?xml version="1.0" encoding="UTF-8" standalone="no"?>
<!DOCTYPE svg PUBLIC "-//W3C//DTD SVG 1.1//EN" "http://www.w3.org/Graphics/SVG/1.1/DTD/svg11.dtd">
<svg width="32" height="32" viewBox="0 0 32 32" version="1.1" xmlns="http://www.w3.org/2000/svg" xmlns:xlink="http://www.w3.org/1999/xlink" xml:space="preserve" xmlns:serif="http://www.serif.com/" >
  <style type="text / css">
    .Red{fill:#CD4C32;}
    .Green{fill:#4EA17E;}
    .Blue{fill:#3E79B4;}
    .Yellow{fill:#EAB765;}
    .Black{fill:#797979;}
    .Gray{fill:#B4B4B5;}
    .White{fill:#FFFFFF;}
  </style>
    <g id="icon">
        <path fill="#797979" class="Black" d="M31,6.5C31,14.001 31.009,21.501 31,29.002C31,29.046 30.997,29.089 30.991,29.133L30.991,29.133C30.98,29.214 30.96,29.292 30.929,29.371C30.903,29.435 30.871,29.496 30.833,29.553C30.81,29.588 30.785,29.621 30.758,29.653C30.748,29.664 30.737,29.676 30.727,29.687L30.727,29.687C30.715,29.699 30.703,29.711 30.691,29.723L30.69,29.723C30.633,29.778 30.568,29.827 30.504,29.864C30.442,29.9 30.377,29.929 30.311,29.951C30.246,29.972 30.18,29.986 30.109,29.994C30.074,29.998 30.038,30 30.002,30C20.667,30.011 11.333,30.011 1.998,30C1.916,30 1.834,29.99 1.755,29.97C1.652,29.944 1.554,29.901 1.463,29.844C1.339,29.765 1.231,29.658 1.148,29.524C1.077,29.408 1.031,29.28 1.011,29.147C1.004,29.098 1,29.049 1,29L1,29L1,6.5L1.5,6L30.5,6C30.667,6.167 30.833,6.333 31,6.5ZM30,29.001C30,29.001 30,29.002 30,29.001C30,29.001 30,29.001 30,29.001ZM30,29.001C30,29 30,29.001 30,29.001ZM29.999,29L29.999,29.001C29.999,29.001 30,29 29.999,29ZM30,29.001C30,29.001 30,29.001 30,29.001ZM30,29.001C30,29.001 30,29 30,29.001ZM29.999,29C29.999,29 29.998,29.001 29.999,29C29.999,29 29.999,29 29.999,29ZM29.999,29.001C29.999,29.001 29.999,29.001 29.999,29.001ZM29.999,29C29.999,29 29.998,29.001 29.999,29C29.999,29 29.999,29 29.999,29ZM30,29C30,29 29.999,29.001 30,29C30,29 30,29 30,29ZM30,29L30,29.001C30,29.001 30,29 30,29ZM29.999,29.001C29.999,29.001 29.999,29.001 29.999,29.001ZM29.999,29C29.999,29 29.998,29.001 29.999,29C29.999,29 29.999,29 29.999,29ZM2.001,29.001C2.001,29.001 2,29 2.001,29.001ZM29.999,29.001C29.999,29.001 29.999,29.001 29.999,29.001ZM30,29.001C30,29.001 30,29 30,29.001ZM29.999,29C29.999,29 29.999,29 29.999,29ZM2.001,29.001C2,29 2.001,29 2.001,29.001ZM29.999,29C29.999,29 29.999,29 29.999,29ZM30,29.001C30,29.001 30,29.001 30,29.001ZM29.999,29.001C29.999,29.001 30,29 29.999,29.001ZM30,29C30,29 29.998,29.001 30,29C30,29 30,29 30,29ZM29.999,29C29.999,29 29.999,29 29.999,29ZM2,29C2.001,29.001 2,29 2,29ZM2.001,29C2.001,29 2,29 2.001,29ZM2.001,29L2,29C2,29 2,29 2.001,29ZM30,29C29.999,29 30,29 30,29ZM30,29L29.999,29C29.999,29 30,29 30,29ZM30,29L29.999,29C29.999,29 30,29 30,29ZM30,29C30,29 30,29 30,29ZM29.999,29C29.999,29 29.999,29 29.999,29ZM30,29C30,29 30,29 30,29ZM30,29C30,29 30,29 30,29ZM2,29L2.001,29C2.001,29 2,29 2,29ZM30,29C30,29 30,29 30,29ZM30,29L30,29C30,29 30,29 30,29ZM30,29C29.999,29.001 30,29 30,29ZM30,29C30,29 30,29 30,29ZM30,29L30,29ZM2,29L2.001,29C2.001,29 2,29 2,29ZM30,29C30,29 30,29 30,29ZM30,29C30,29 30,29 30,29ZM30,29L30,29C30,29 30,29 30,29ZM2.001,29C2.001,29 2,29 2.001,29ZM30,29C30,29 30,29 30,29ZM30,29C30,29 30,29 30,29ZM30,29C30,29 30,29 30,29ZM30,29C30,29 30,29 30,29ZM30,29L30,29C30,29 30,29 30,29ZM29.999,29C29.999,29 29.999,29 29.999,29ZM30,29C30,29 30,29 30,29ZM30,29L30,29ZM2,29C2,29 2,29 2,29ZM30,29C30,29 30,29 30,29ZM30,29C30,29 30,29 30,29ZM29.999,29C30,29 30,29 29.999,29ZM30,29C30,29 30,29 30,29ZM30,29C30,29 30,29 30,29ZM30,29C30,29 30,29 30,29ZM30,29C30,29 30,29 30,29ZM30,29C30,29 30,29 30,29ZM30,29L30,29ZM30,29C30,29 30,29 30,29ZM30,29C30,29 29.999,29.001 30,29C30,29 30,29 30,29ZM30,29C30,29 30,29 30,29ZM2,29L2.001,29C2,29 2,29 2,29ZM30,29C30,29 30,29 30,29ZM2,29C2,29 2,29 2,29ZM2,29C2,29 2,29 2,29ZM30,29C30,29 30,29 30,29ZM30,29C30,29 30,29 30,29ZM30,29C30,29 30,29 30,29ZM30,29C30,29 30,29 30,29ZM30,29C30,29 30,29 30,29ZM30,29C30,29 30,29 30,29ZM30,29C30,29 30,29 30,29ZM30,29C30,29 30,29 30,29ZM30,29C30,29 30,29 30,29ZM30,29C30,29 30,29 30,29ZM30,29C30,29 30,29 30,29ZM2,29C2,29 2,29 2,29ZM30,29C30,29 30,29 30,29ZM2,29C2,29 2,29 2,29ZM2,29C2,29 2,29 2,29ZM30,29C30,29 30,29 30,29ZM30,29C30,29 30,29 30,29ZM30,29C30,29 30,29 30,29ZM30,29C30,29 30,29 30,29ZM2,29C2,29 2,29 2,29ZM30,29C30,29 30,29 30,29ZM30,29C30,29 30,29 30,29ZM2,29C2,29 2,29 2,29ZM30,29C30,29 30,29 30,29ZM30,29C30,29 30,29 30,29ZM30,29C30,29 30,29 30,29ZM30,29C30,29 30,29 30,29ZM2,29C2,29 2,29 2,29ZM30,29C30,29 30,29 30,29ZM2,29C2,29 2,29 2,29ZM30,29C30,29 30,29 30,29ZM30,29C30,29 30,29 30,29ZM30,29C30,29 30,29 30,29ZM2,29C2,29 2,29 2,29ZM30,29C30,29 30,29 30,29ZM30,29C30,29 30,29 30,29ZM30,29C30,29 30,29 30,29ZM30,29C30,29 30,29 30,29ZM30,29C30,29 30,29 30,29ZM30,29C30,29 30,29 30,29ZM30,29C30,29 30,29 30,29ZM30,29C30,29 30,29 30,29ZM30,29C30,29 30,29 30,29ZM2,29C2,29 2,29 2,29ZM30,29C30,29 30,29 30,29ZM2,29C2,29 2,29 2,29ZM2,29C2,29 2,29 2,29ZM30,29C30,29 30,29 30,29ZM30,29C30,29 30,29 30,29ZM2,29C2,29 2,29 2,29ZM2,29C2,29 2,29 2,29ZM30,29C30,29 30,29 30,29ZM2,29C2,29 2,29 2,29ZM30,29C30,29 30,29 30,29ZM30,29C30,29 30,29 30,29ZM30,29C30,29 30,29 30,29ZM30,29C30,29 30,29 30,29ZM2,29C2,29 2,29 2,29ZM30,29C30,29 30,29 30,29ZM30,29C30,29 30,29 30,29ZM2,29C2,29 2,29 2,29ZM30,29C30,29 30,29 30,29ZM2,29C2,29 2,29 2,29ZM2,29C2,29 2,29 2,29ZM2,29C2,29 2,29 2,29ZM2,29C2,29 2,29 2,29ZM30,29C30,29 30,29 30,29ZM30,29L30,29ZM30,29C30,29 30,29 30,29ZM30,29C30,29 30,29 30,29ZM2,29C2,29 2,29 2,29ZM30,29C30,29 30,29 30,29ZM30,29C30,29 30,29 30,29ZM2,29C2,29 2,29 2,29ZM30,29C30,29 30,29 30,29ZM30,29L30,29ZM30,29C30,29 30,29 30,29ZM30,29C30,29 30,29 30,29ZM2,29C2,29 2,29 2,29ZM30,29C30,29 30,29 30,29ZM2,29C2,29 2,29 2,29ZM2,29C2,29 2,29 2,29ZM30,29M30,29C30,29 30,29 30,29ZM2,29L2,29C2,29 2,29 2,29ZM30,29M30,29C30,29 30,29 30,29ZM30,29C30,29 30,29 30,29ZM2,29C2,29 2,29 2,29ZM30,29C30,29 30,29 30,29ZM30,29C30,29 30,29 30,29ZM2,29C2,29 2,29 2,29ZM30,29C30,29 30,29 30,29ZM30,29C30,29 30,29 30,29ZM30,29C30,29 30,29 30,29ZM2,29C2,29 2,29 2,29ZM30,29C30,29 30,29 30,29ZM2,29C2,29 2,29 2,29ZM2,29C2,29 2,29 2,29ZM2,29C2,29 2,29 2,29ZM30,29C30,29 30,29 30,29ZM30,29C30,29 30,29 30,29ZM30,29C30,29 30,29 30,29ZM30,29L30,29ZM30,29C30,29 30,29 30,29ZM2,29C2,29 2,29 2,29ZM2,29C2,29 2,29 2,29ZM2,29C2,29 2,29 2,29ZM30,29C30,29 30,29 30,29ZM30,29C30,29 30,29 30,29ZM2,29C2,29 2,29 2,29ZM30,29C30,29 30,29 30,29ZM2,29C2,29 2,29 2,29ZM2,29C2,29 2,29 2,29ZM30,29C30,29 30,29 30,29ZM30,29C30,29 30,29 30,29ZM30,29C30,29 30,29 30,29ZM2,29C2,29 2,29 2,29ZM2,29C2,29 2,29 2,29ZM2,29C2,29 2,29 2,29ZM2,29C2,29 2,29 2,29ZM30,29C30,29 30,29 30,29ZM2,29C2,29 2,29 2,29ZM2,29C2,29 2,29 2,29ZM30,29C30,29 30,29 30,29ZM30,29C30,29 30,29 30,29ZM30,29C30,29 30,29 30,29ZM2,29C2,29 2,29 2,29ZM2,29C2,29 2,29 2,29ZM30,29C30,29 30,29 30,29ZM2,29C2,29 2,29 2,29ZM30,29C30,29 30,29 30,29ZM2,29C2,29 2,29 2,29ZM30,29C30,29 30,29 30,29ZM30,29C30,29 30,29 30,29ZM2,29L2,29C2,29 2,29 2,29ZM30,29C30,29 30,29 30,29ZM30,29C30,29 30,29 30,29ZM30,29C30,29 30,29 30,29ZM30,29C30,29 30,29 30,29ZM2,29C2,29 2,29 2,29ZM2,29C2,29 2,29 2,29ZM2,29C2,29 2,29 2,29ZM30,29C30,29 30,29 30,29ZM2,29C2,29 2,29 2,29ZM30,29C30,29 30,29 30,29ZM30,29L30,29ZM2,29C2,29 2,29 2,29ZM30,29C30,29 30,29 30,29ZM30,29C30,29 30,29 30,29ZM30,29C30,29 30,29 30,29ZM30,29M30,29C30,29 30,29 30,29ZM2,29C2,29 2,29 2,29ZM30,29M30,29C30,29 30,29 30,29ZM30,29C30,29 30,29 30,29ZM2,29C2,29 2,29 2,29ZM30,29C30,29 30,29 30,29ZM30,29C30,29 30,29 30,29ZM30,29C30,29 30,29 30,29ZM30,29C30,29 30,29 30,29ZM2,29C2,29 2,29 2,29ZM30,29C30,29 30,29 30,29ZM30,29C30,29 30,29 30,29ZM30,29M30,29C30,29 30,29 30,29ZM2,29C2,29 2,29 2,29ZM30,29M30,29C30,29 30,29 30,29ZM30,29C30,29 30,29 30,29ZM30,29C30,29 30,29 30,29ZM30,29C30,29 30,29 30,29ZM2,29C2,29 2,29 2,29ZM30,29L30,29ZM2,29C2,29 2,29 2,29ZM30,29C30,29 30,29 30,29ZM30,29C30,29 30,29 30,29ZM30,29C30,29 30,29 30,29ZM30,29C30,29 30,29 30,29ZM2,29C2,29 2,29 2,29ZM2,29C2,29 2,29 2,29ZM30,29C30,29 30,29 30,29ZM30,29M30,29C30,29 30,29 30,29ZM30,29C30,29 30,29 30,29ZM30,29C30,29 30,29 30,29ZM30,29M30,29M30,29C30,29 30,29 30,29ZM2,29C2,29 2,29 2,29ZM30,29C30,29 30,29 30,29ZM2,29C2,29 2,29 2,29ZM30,29C30,29 30,29 30,29ZM2,29C2,29 2,29 2,29ZM30,29C30,29 30,29 30,29ZM2,29C2,29 2,29 2,29ZM30,29C30,29 30,29 30,29ZM2,29C2,29 2,29 2,29ZM30,29C30,29 30,29 30,29ZM30,29C30,29 30,29 30,29ZM2,29C2,29 2,29 2,29ZM2,29C2,29 2,29 2,29ZM2,29C2,29 2,29 2,29ZM30,29L30,29ZM30,29C30,29 30,29 30,29ZM2,29C2,29 2,29 2,29ZM30,29M30,29C30,29 30,29 30,29ZM30,29C30,29 30,29 30,29ZM30,29C30,29 30,29 30,29ZM2,29C2,29 2,29 2,29ZM30,29C30,29 30,29 30,29ZM2,29C2,29 2,29 2,29ZM30,29C30,29 30,29 30,29ZM30,29C30,29 30,29 30,29ZM30,29C30,29 30,29 30,29ZM30,29C30,29 30,29 30,29ZM2,29C2,29 2,29 2,29ZM30,29C30,29 30,29 30,29ZM2,29C2,29 2,29 2,29ZM30,29C30,29 30,29 30,29ZM30,29C30,29 30,29 30,29ZM30,29C30,29 30,29 30,29ZM30,29C30,29 30,29 30,29ZM30,29C30,29 30,29 30,29ZM2,29C2,29 2,29 2,29ZM30,29M2,29C2,29 2,29 2,29ZM30,29C30,29 30,29 30,29ZM30,29C30,29 30,29 30,29ZM30,29C30,29 30,29 30,29ZM30,29C30,29 30,29 30,29ZM2,29C2,29 2,29 2,29ZM30,29C30,29 30,29 30,29ZM2,29C2,29 2,29 2,29ZM30,29M30,29C30,29 30,29 30,29ZM2,29C2,29 2,29 2,29ZM2,29C2,29 2,29 2,29ZM30,29C30,29 30,29 30,29ZM30,29C30,29 30,29 30,29ZM2,29C2,29 2,29 2,29ZM30,29M30,29C30,29 30,29 30,29ZM30,29C30,29 30,29 30,29ZM2,29C2,29 2,29 2,29ZM30,29C30,29 30,29 30,29ZM2,29C2,29 2,29 2,29ZM30,29C30,29 30,29 30,29ZM30,29C30,29 30,29 30,29ZM2,29C2,29 2,29 2,29ZM2,29C2,29 2,29 2,29ZM30,29C30,29 30,29 30,29ZM30,29C30,29 30,29 30,29ZM30,29C30,29 30,29 30,29ZM30,29C30,29 30,29 30,29ZM30,29C30,29 30,29 30,29ZM2,29C2,29 2,29 2,29ZM30,29L30,29ZM30,29C30,29 30,29 30,29ZM2,29C2,29 2,29 2,29ZM30,29M30,29C30,29 30,29 30,29ZM30,29C30,29 30,29 30,29ZM30,29C30,29 30,29 30,29ZM30,29C30,29 30,29 30,29ZM2,29C2,29 2,29 2,29ZM30,29C30,29 30,29 30,29ZM30,29M30,29C30,29 30,29 30,29ZM2,29C2,29 2,29 2,29ZM30,29C30,29 30,29 30,29ZM30,29C30,29 30,29 30,29ZM30,29C30,29 30,29 30,29ZM30,29C30,29 30,29 30,29ZM2,29C2,29 2,29 2,29ZM30,29C30,29 30,29 30,29ZM2,29C2,29 2,29 2,29ZM30,29M30,29C30,29 30,29 30,29ZM30,29C30,29 30,29 30,29ZM30,29C30,29 30,29 30,29ZM2,29C2,29 2,29 2,29ZM30,29C30,29 30,29 30,29ZM30,29C30,29 30,29 30,29ZM30,29C30,29 30,29 30,29ZM30,29C30,29 30,29 30,29ZM30,29C30,29 30,29 30,29ZM30,29C30,29 30,29 30,29ZM30,29C30,29 30,29 30,29ZM30,29C30,29 30,29 30,29ZM30,29C30,29 30,29 30,29ZM30,29C30,29 30,29 30,29ZM30,29C30,29 30,29 30,29ZM30,29M2,29L2,29C2,29 2,29 2,29ZM2,29L2,29C2,29 2,29 2,29ZM2,29C2,29 2,29 2,29ZM2,29L2,29C2,29 2,29 2,29ZM2,7L2,29L2,29L30,29L30,29L30,7C20.667,7 11.333,7 2,7ZM30,29C30,29 30,29 30,29ZM30,29C30,29 30,29 30,29ZM30,29C30,29 30,29 30,29ZM30,29C30,29 30,29 30,29ZM30,29C30,29 30,29 30,29ZM30,29C30,29 30,29 30,29ZM30,29C30,29 30,29 30,29ZM30,29C30,29 30,29 30,29ZM30,29C30,29 30,29 30,29ZM30,29C30,29 30,29 30,29ZM30,29C30,29 30,29 30,29ZM30,29C30,29 30,29 30,29ZM30,29C30,29 30,29 30,29ZM2,29C2,29 2,29 2,29ZM30,29C30,29 30,29 30,29ZM30,29C30,29 30,29 30,29ZM2,29C2,29 2,29 2,29ZM30,29C30,29 30,29 30,29ZM30,29C30,29 30,29 30,29ZM30,29C30,29 30,29 30,29ZM30,29C30,29 30,29 30,29ZM30,29C30,29 30,29 30,29ZM30,29C30,29 30,29 30,29ZM30,29C30,29 30,29 30,29ZM30,29C30,29 30,29 30,29ZM30,29C30,29 30,29 30,29ZM30,29C30,29 30,29 30,29ZM30,29C30,29 30,29 30,29ZM30,29C30,29 30,29 30,29ZM30.001,29C30.001,29 30.001,29 30.001,29ZM30,29C30,29 30,29 30,29ZM30,29L30,29ZM30,29C30,29 30.001,29 30,29ZM30,29C30,29 30,29 30,29ZM30,29M30,29C30,29 30.001,29 30,29ZM2,29C2,29 2,29 2,29ZM30,29C30,29 30,29 30,29ZM30,29C30,29 30,29 30,29ZM30,29C30,29 30,29 30,29ZM30,29C30,29 30,29 30,29ZM30,29C30,29 30,29 30,29ZM30,29L30,29ZM30,29C30,29 30,29 30,29ZM30.001,29C30.001,29 30.001,29 30.001,29ZM1.999,29L1.999,29C1.999,29 1.999,29 1.999,29ZM1.999,29C1.999,29 1.999,29 1.999,29ZM30,29L30,29ZM2,29C2,29 2,29 2,29ZM30,29C30,29 30,29 30,29ZM30.001,29C30.001,29 30.001,29 30.001,29ZM30,29C30,29 30,29 30,29ZM30,29M1.999,29C1.999,29 1.999,29 1.999,29ZM30,29L30,29ZM30.001,29C30.001,29 30.001,29 30.001,29ZM30,29C30,29 30,29 30,29ZM30,29C30,29 30,29 30,29ZM30,29C30,29 30,29 30,29ZM30,29C30,29 30,29 30,29ZM30,29C30,29 30,29 30,29ZM30,29C30,29 30,29 30,29ZM30,29C30,29 30,29 30,29ZM30,29C30,29 30,29 30,29ZM30,29C30,29 30,29 30,29ZM30,29C30,29 30,29 30,29ZM30.001,29C30.001,29 30.001,29 30.001,29ZM30,29C30,29 30,29 30,29ZM30,29C30,29 30,29 30,29ZM30,29L30,29ZM30,29L30,29ZM30,29L30,29ZM30,29C30,29 30,29 30,29ZM30,29C30,29 30,29 30,29ZM30,29C30,29 30,29 30,29ZM30,29M30,29L30,29ZM30,29C30,29 30,29 30,29ZM30,29C30,29 30,28.999 30,29ZM30,29C30,29 30,29 30,29ZM30,29C30,29 30,29 30,29ZM30,29C30,29 30,29 30,29ZM30,29L30,29ZM30,29C30,29 30,29 30,29ZM30,29C30,29 30,29 30,29ZM30,29C30,29 30,29 30,29ZM30,29C30,29 30,29 30,29ZM30,29C30,29 30,29 30,29ZM30,29C30,29 30,29 30,29ZM30,29C30,29 30.001,29 30,29ZM30,29C30,29 30,29 30,29ZM30,29C30,29 30,29 30,29ZM30,29C30,29 30,29 30,29ZM30,29M2,29C2,29 2,29 2,29ZM30,29C30,29 30,29 30,29ZM30,29C30,29 30,29 30,29ZM30,29C30,29 30,29 30,29ZM30,29L30,29ZM30,29C30,29 30,29 30,29ZM30,29L30,29ZM30,29C30,29 30,29 30,29ZM30,29C30,29 30,29 30,29ZM30,29C30,29 30,29 30,29ZM30,29C30,29 30,29 30,29ZM30,29C30,29 30,29 30,29ZM30,29M30,29C30,29 30,29 30,29ZM30,29C30,29 30,29 30,29ZM30,29C30,29 30,29 30,29ZM2,29C2,29 2,29 2,29ZM30,29C30,29 30,29 30,29ZM30,29C30,29 30,29 30,29ZM30,29C30,29 30,29 30,29ZM30,29C30,29 30,29 30,29ZM30,29C30,29 30,29 30,29ZM30,29C30,29 30,29 30,29ZM30,29C30,29 30,29 30,29ZM30,29L30,29ZM30,29C30,29 30,29 30,29ZM30,29C30,29 30,29 30,29ZM30,29C30,29 30,29 30,29ZM30,29C30,29 30,29 30,29ZM30,29C30,29 30,29 30,29ZM30,29M30,29L30,29ZM30,29C30,29 30,29 30,29ZM30,29C30,29 30,29 30,29ZM30,29C30,29 30,29 30,29ZM30,29M30,29C30,29 30,29 30,29ZM2,29C2,29 2,29 2,29ZM30,29C30,29 30,29 30,29ZM30,29C30,29 30,29 30,29ZM30,29L30,29ZM30,29C30,29 30,29 30,29ZM30,29C30,29 30.001,28.999 30,29ZM30,29C30,29 30,29 30,29ZM30,29M30,29C30,29 30,29 30,29ZM30,29C30,29 30,29 30,29ZM30,29C30,29 30,29 30,29ZM30,29C30,29 30,29 30,29ZM30,29C30,29 30,29 30,29ZM30,29C30,29 30,29 30,29ZM30,29C30,29 30,29 30,29ZM30,29C30,29 30,29 30,29ZM30,29C30,29 30,29 30,29ZM30,29C30,29 30,29 30,29ZM30,29C30,29 30,28.999 30,29ZM30,29L30,29ZM30,29C30,29 30,29 30,29ZM30,29C30,29 30,29 30,29ZM30,29C30,29 30,29 30,29ZM30,29C30,29 30,29 30,29ZM30,29C30,29 30,29 30,29ZM30,29C30,29 30,29 30,29ZM30,29C30,29 30,29 30,29ZM30,29C30,29 30,29 30,29ZM30,29C30,29 30,29 30,29ZM30,29C30,29 30,29 30,29ZM30,29C30,29 30,29 30,29ZM30,29C30,29 30,29 30,29ZM30,29C30,29 30,29 30,29ZM30,29C30,29 30,29 30,29ZM30,29L30,29ZM30,29C30,29 30,29 30,29ZM30,29C30,29 30,29 30,29ZM30,29C30,29 30,29 30,29ZM30,29C30,29 30.001,28.999 30,29ZM30,29C30,29 30,29 30,29ZM30,29C30,29 30,29 30,29ZM30,29C30,29 30,29 30,29ZM30,29C30,29 30,29 30,29ZM30,29C30,29 30,29 30,29ZM30,29C30,29 30,29 30,29ZM30,29C30,29 30,29 30,29ZM30,29C30,29 30,29 30,29ZM30,29C30,29 30,29 30,29ZM30,29C30,29 30,29 30,29ZM30,29L30,29ZM30,29C30,29 30,29 30,29ZM30,29C30,29 30,29 30,29ZM30,29C30,29 30,29 30,29ZM2,29L2,29C2,29 2,29 2,29ZM30,29C30,29 30,29 30,29ZM30,29C30,29 30,29 30,29ZM30,29M30,29L30,29ZM30,29C30,29 30,29 30,29ZM30,29C30,29 30,29 30,29ZM30,29C30,29 30,29 30,29ZM30,29C30,29 30,29 30,29ZM30,29C30,29 30,29 30,29ZM30,29L30,29ZM30,29C30,29 30,29 30,29ZM30,29C30,29 30,29 30,29ZM30,29C30,29 30,29 30,29ZM30,29C30,29 30,29 30,29ZM30,29C30,29 30,29 30,29ZM30,29M30,29C30,29 30,29 30,29ZM30,29C30,29 30,29 30,29ZM30,29C30,29 30,29 30,29ZM30,29C30,29 30,29 30,29ZM30,29C30,29 30,29 30,29ZM30,29C30,29 30,29 30,29ZM30,29C30,29 30,29 30,29ZM30,29C30,29 30,29 30,29ZM30,29C30,29 30,29 30,29ZM30,29C30,29 30,29 30,29ZM30,29C30,29 30,29 30,29ZM30,29C30,29 30.001,28.999 30,29ZM30,29C30,29 30,29 30,29ZM30,29C30,29 30,29 30,29ZM30,29C30,29 30,29 30,29ZM30,29C30,29 30,29 30,29ZM30,29C30,29 30,29 30,29ZM30,29C30,29 30,29 30,29ZM30,29C30,29 30,29 30,29ZM30,29C30,29 30,29 30,29ZM30,29C30,29 30,29 30,29ZM30,29C30,29 30,29 30,29ZM30,29C30,29 30,29 30,29ZM30,29C30,29 30,29 30,29ZM30,29C30,29 30,29 30,29ZM30,29C30,29 30,29 30,29ZM30,29C30,29 30,29 30,29ZM30,29C30,29 30,29 30,29ZM30,29C30,29 30,29 30,29ZM30,29C30,29 30,29 30,29ZM30,29C30,29 30,29 30,29ZM30,29C30,29 30,29 30,29ZM30,29C30,29 30,29 30,29ZM30,29C30,29 30,28.999 30,29ZM30,29C30,29 30.001,28.999 30,29ZM30,29C30,29 30,29 30,29ZM30,29C30,29 30,29 30,29ZM30,29C30,29 30,29 30,29ZM30,29C30,29 30,29 30,29ZM30,29C30,29 30,29 30,29ZM30,29C30,29 30,29 30,29ZM30,29C30,29 30.001,28.999 30,29ZM30,29C30,29 30,29 30,29ZM30,29C30,29 30.001,28.999 30,29ZM30,29C30,29 30,28.999 30,29ZM2,29C2,29 1.999,28.999 2,29ZM30,29C30,29 30.001,28.999 30,29ZM2,29C2,29 2,29 2,29ZM30,29C30,29 30,29 30,29ZM2,29C2,29 2,28.999 2,29ZM30,28.999C30,28.999 30.001,28.999 30.001,28.999C30.001,28.999 30.001,28.999 30,28.999ZM2,29C2,29 2,29 2,29ZM2,29C2,29 2,29 2,29ZM2,29C2,29 2,29 2,29ZM30,29C30,29 30.001,28.999 30,29ZM30,29C30,29 30,28.999 30,29ZM30,29C30,29 30.001,28.999 30,29ZM30,28.999C30,28.999 30.001,28.999 30,28.999ZM30,28.999C30,28.999 30.001,28.999 30,28.999ZM30,28.999C30,28.999 30.001,28.998 30,28.999ZM30,28.999C30,28.999 30.001,28.998 30,28.999ZM30,28.999C30,28.999 30.001,28.999 30,28.999ZM30,28.999C30,28.999 30,28.999 30,28.999ZM30.001,28.999C30.001,28.999 30.001,28.999 30.001,28.999ZM30,28.999C30,28.999 30.001,28.999 30,28.999ZM30,28.999C30,28.999 30.001,28.999 30,28.999ZM30.001,28.999C30.001,28.999 30.001,28.999 30.001,28.999ZM30.001,28.999C30.001,28.999 30.001,28.999 30.001,28.999Z" />
        <path fill="#3e79b4" class="Blue" d="M31,7L1,7L1,3.4C1,2.627 1.627,2 2.4,2L29.6,2C30.373,2 31,2.627 31,3.4L31,7Z" />
        <path fill="#FFFFFF" class="White" d="M30,29.5L2,29.5C1.724,29.5 1.5,29.276 1.5,29L1.5,6.5L30.5,6.5L30.5,29C30.5,29.276 30.276,29.5 30,29.5Z" />
        <g>
            <rect fill="#FFFFFF" class="White" x="2" y="7" width="28" height="4" />
            <rect fill="#FFFFFF" class="White" x="2" y="12" width="8" height="17" />
        </g>
        <g>
            <rect fill="#B4B4B5" class="Gray" x="3" y="8" width="3" height="2" />
            <rect fill="#B4B4B5" class="Gray" x="7" y="8" width="3" height="2" />
            <rect fill="#B4B4B5" class="Gray" x="11" y="8" width="3" height="2" />
            <rect fill="#B4B4B5" class="Gray" x="15" y="8" width="3" height="2" />
        </g>
        <g>
            <path fill="#B4B4B5" class="Gray" d="M2,11L2,12L10,12L10,29L11,29L11,12L30,12L30,11L2,11Z" />
            <rect fill="#B4B4B5" class="Gray" x="14" y="14" width="13" height="1" />
            <rect fill="#B4B4B5" class="Gray" x="14" y="16" width="13" height="1" />
            <rect fill="#B4B4B5" class="Gray" x="14" y="18" width="13" height="1" />
            <rect fill="#B4B4B5" class="Gray" x="14" y="20" width="13" height="1" />
            <rect fill="#B4B4B5" class="Gray" x="22" y="25" width="5" height="2" />
        </g>
    </g>
</svg>
