<?xml version="1.0" encoding="UTF-8" standalone="no"?>
<!DOCTYPE svg PUBLIC "-//W3C//DTD SVG 1.1//EN" "http://www.w3.org/Graphics/SVG/1.1/DTD/svg11.dtd">
<svg version="1.1" id="Layer_1" xmlns="http://www.w3.org/2000/svg" xmlns:xlink="http://www.w3.org/1999/xlink" x="0px"
     y="0px" width="32px" height="32px" viewBox="0 0 32 32" enable-background="new 0 0 32 32" xml:space="preserve">
      <style type="text / css">
    .Red{fill:#CD4C32;}
    .Green{fill:#4EA17E;}
    .Blue{fill:#3E79B4;}
    .Yellow{fill:#EAB765;}
    .Black{fill:#797979;}
    .Gray{fill:#B4B4B5;}
    .White{fill:#FFFFFF;}
  </style>
    <g id="icon">
    <g id="g41">
        <path id="path43"
              d="M16.292,9.789c0,0 1.111,-0.863 1.604,0.124c0.493,0.986 2.22,3.7 2.713,4.563c0.494,0.864 0.919,2.302 0.494,3.824c-0.494,1.768 -2.714,3.084 -4.07,1.973c-1.357,-1.11 -0.741,-10.484 -0.741,-10.484Z"
              style="fill:#6eb7c8;fill-rule:nonzero;"/>
        <path id="path45"
              d="M16.424,10.16c-0,-0 2.057,3.129 2.538,4.153c1.173,2.498 0.685,3.882 0.685,3.882l-1.628,0.936l-2.53,0l0.935,-8.971Z"
              style="fill:#073653;fill-rule:nonzero;"/>
        <path id="path47"
              d="M7.659,23.481c-0,-0 -0.452,-6.139 0.616,-9.509c1.234,-3.895 6.336,-11.628 9.128,-11.953c2.025,-0.236 1.508,1.817 0.569,3.869c-0.939,2.051 -1.595,6.614 -0.895,11.507c0.819,5.715 -9.418,6.086 -9.418,6.086Z"
              style="fill:#4b8ca1;fill-rule:nonzero;"/>
        <path id="path49"
              d="M5.985,32l20.518,-0c0.161,-1.611 0.059,-3.537 -0.379,-6.072c-2.554,-14.782 -23.791,-8.035 -20.315,5.488c0.031,0.121 0.091,0.323 0.176,0.584Z"
              style="fill:#6eb7c8;fill-rule:nonzero;"/>
        <g id="g51">
            <path id="path53"
                  d="M17.494,28.045c0,2.087 -1.692,3.779 -3.779,3.779c-2.088,0 -3.78,-1.692 -3.78,-3.779c0,-2.087 1.692,-3.779 3.78,-3.779c2.087,-0 3.779,1.692 3.779,3.779Z"
                  style="fill:#073653;fill-rule:nonzero;"/>
            <path id="path55"
                  d="M16.625,28.299c-0,1.645 -1.334,2.978 -2.979,2.978c-1.645,0 -2.978,-1.333 -2.978,-2.978c-0,-1.646 1.333,-2.979 2.978,-2.979c1.645,-0 2.979,1.333 2.979,2.979Z"
                  style="fill:#fff;fill-rule:nonzero;"/>
            <circle id="circle57" cx="14.697" cy="27.382" r="1.405" style="fill:#073653;"/>
        </g>
        <path id="path59"
              d="M21.267,30.151c0,0 1.026,-1.548 3.779,-1.107c0.678,0.109 0.207,0.902 0.207,0.902l-1.468,1.58c-0,-0 -0.142,0.365 -0.497,0.047c-0.247,-0.22 -1.665,-0.524 -1.946,-0.767c-0.28,-0.243 -0.075,-0.655 -0.075,-0.655Z"
              style="fill:#073653;fill-rule:nonzero;"/>
        <path id="path61"
              d="M23.934,23.476c0,0 -0.049,0.49 0.271,0.78c0.32,0.29 1.528,0.265 1.569,0.065c0.04,-0.2 -0.11,-1.041 -0.511,-1.081c-0.4,-0.04 -1.06,-0.018 -1.171,-0c-0.075,0.013 -0.161,0.047 -0.158,0.236Z"
              style="fill:#073653;fill-rule:nonzero;"/>
        <path id="path63"
              d="M15.321,25.89c0.192,0.289 0.124,0.672 -0.153,0.856c-0.276,0.184 -0.656,0.1 -0.849,-0.189c-0.192,-0.289 -0.123,-0.672 0.153,-0.856c0.276,-0.184 0.657,-0.1 0.849,0.189Z"
              style="fill:#fffaea;fill-rule:nonzero;"/>
        <path id="path65"
              d="M24.891,29.377c0.012,0.187 -0.349,0.363 -0.807,0.394c-0.458,0.031 -0.84,-0.095 -0.852,-0.282c-0.013,-0.186 0.348,-0.363 0.806,-0.394c0.458,-0.031 0.841,0.096 0.853,0.282Z"
              style="fill:#fffaea;fill-rule:nonzero;"/>
        <path id="path67"
              d="M23.74,32c-0.024,-0.277 -0.033,-0.452 -0.108,-0.482c-0.103,-0.041 -0.226,0.165 -0.226,0.165l-0,0.317l0.334,0Z"
              style="fill:#073653;fill-rule:nonzero;"/>
    </g>
  </g>
</svg>
