<?xml version="1.0" encoding="UTF-8" standalone="no"?>
<!DOCTYPE svg PUBLIC "-//W3C//DTD SVG 1.1//EN" "http://www.w3.org/Graphics/SVG/1.1/DTD/svg11.dtd">
<svg width="100%" height="100%" viewBox="0 0 32 32" version="1.1" xmlns="http://www.w3.org/2000/svg" xmlns:xlink="http://www.w3.org/1999/xlink" xml:space="preserve" xmlns:serif="http://www.serif.com/" style="fill-rule:evenodd;clip-rule:evenodd;stroke-linejoin:round;stroke-miterlimit:2;">
  <style type="text / css">
    .Red{fill:#CD4C32;}
    .Green{fill:#4EA17E;}
    .Blue{fill:#3E79B4;}
    .Yellow{fill:#EAB765;}
    .Black{fill:#797979;}
    .Gray{fill:#B4B4B5;}
    .White{fill:#FFFFFF;}
  </style>
    <g id="main">
        <g id="icon">
            <path class="Black" d="M7.558,0.072L7.268,0.268L7.072,0.558L7,0.913L7,3L23,3L23,0.913L22.93,0.558L22.73,0.268L22.44,0.072L22.09,0L7.913,0L7.558,0.072ZM21,1L21,2L18,2L18,1L21,1ZM7,7L23,7L23,4L7,4L7,7ZM21,5L21,6L18,6L18,5L21,5ZM7,29.09L7.072,29.44L7.268,29.73L7.558,29.93L7.913,30L18,30L18,20.1L18.04,19.68L18.17,19.28L18.36,18.93L18.62,18.62L18.93,18.36L19.28,18.17L19.68,18.04L20.1,18L23,18L23,8L7,8L7,29.09ZM15.4,22.04L15.78,22.16L16.12,22.34L16.41,22.59L16.66,22.88L16.84,23.22L16.96,23.6L17,24L16.96,24.4L16.84,24.78L16.66,25.12L16.41,25.41L16.12,25.66L15.78,25.84L15.4,25.96L15,26L14.6,25.96L14.22,25.84L13.88,25.66L13.59,25.41L13.34,25.12L13.16,24.78L13.04,24.4L13,24L13.04,23.6L13.16,23.22L13.34,22.88L13.59,22.59L13.88,22.34L14.22,22.16L14.6,22.04L15,22L15.4,22.04Z" style="fill:#797979;fill-rule:nonzero;"/>
            <path class="White" d="M18,2L21,2L21,1L18,1L18,2ZM18,6L21,6L21,5L18,5L18,6ZM14.6,22.04L14.22,22.16L13.88,22.34L13.59,22.59L13.34,22.88L13.16,23.22L13.04,23.6L13,24L13.04,24.4L13.16,24.78L13.34,25.12L13.59,25.41L13.88,25.66L14.22,25.84L14.6,25.96L15,26L15.4,25.96L15.78,25.84L16.12,25.66L16.41,25.41L16.66,25.12L16.84,24.78L16.96,24.4L17,24L16.96,23.6L16.84,23.22L16.66,22.88L16.41,22.59L16.12,22.34L15.78,22.16L15.4,22.04L15,22L14.6,22.04Z" style="fill:#fff;fill-rule:nonzero;"/>
        </g>
        <g id="overlay">
            <path class="White" d="M30.9,31.5L20.1,31.5C19.77,31.5 19.5,31.23 19.5,30.9L19.5,20.1C19.5,19.77 19.77,19.5 20.1,19.5L30.9,19.5C31.23,19.5 31.5,19.77 31.5,20.1L31.5,30.9C31.5,31.23 31.23,31.5 30.9,31.5Z" style="fill:#fff;fill-rule:nonzero;"/>
            <path class="Blue" d="M30.9,32L20.1,32C19.495,32 19,31.505 19,30.9L19,20.1C19,19.495 19.495,19 20.1,19L30.9,19C31.505,19 32,19.495 32,20.1L32,30.9C32,31.505 31.505,32 30.9,32ZM30.9,31C30.955,31 31,30.955 31,30.9L31,20.1C31,20.045 30.955,20 30.9,20L20.1,20C20.045,20 20,20.045 20,20.1L20,30.9C20,30.955 20.045,31 20.1,31L30.9,31Z" style="fill:#3e79b4;"/>
            <g>
                <path class="Blue" d="M30.821,27.664C30.821,27.664 30.262,28.225 30.262,28.225C30.164,28.323 30.003,28.324 29.904,28.226L25.769,24.102C25.573,23.906 25.572,23.583 25.768,23.386L26.327,22.826C26.327,22.826 30.821,27.307 30.821,27.307C30.919,27.405 30.919,27.566 30.821,27.664Z" style="fill:#3e79b4;fill-rule:nonzero;"/>
                <path class="Blue" d="M30.179,19.303L30.739,19.862C30.838,19.96 30.838,20.122 30.74,20.22L26.324,24.648L25.764,24.089C25.567,23.893 25.567,23.57 25.763,23.373L29.82,19.304C29.918,19.206 30.08,19.205 30.178,19.303L30.179,19.303Z" style="fill:#3e79b4;fill-rule:nonzero;"/>
                <path class="Blue" d="M24.673,26.296L25.232,26.857C25.428,27.054 25.427,27.377 25.231,27.573L21.096,31.697C20.997,31.795 20.836,31.794 20.738,31.696L20.179,31.135C20.081,31.037 20.081,30.876 20.179,30.778L24.673,26.296Z" style="fill:#3e79b4;fill-rule:nonzero;"/>
                <path class="Blue" d="M25.236,27.56L24.675,28.119L20.26,23.691C20.163,23.593 20.163,23.432 20.261,23.334L20.821,22.775C20.92,22.677 21.081,22.677 21.179,22.775L25.237,26.844C25.433,27.041 25.432,27.365 25.236,27.561L25.236,27.56Z" style="fill:#3e79b4;fill-rule:nonzero;"/>
            </g>
        </g>
    </g>
</svg>
