<?xml version="1.0" encoding="UTF-8"?>
<!DOCTYPE svg PUBLIC "-//W3C//DTD SVG 1.1//EN" "http://www.w3.org/Graphics/SVG/1.1/DTD/svg11.dtd">
<svg version="1.1" id="Layer_1" xmlns="http://www.w3.org/2000/svg" xmlns:xlink="http://www.w3.org/1999/xlink" x="0px" y="0px" width="32px" height="32px" viewBox="0 0 32 32" enable-background="new 0 0 32 32" xml:space="preserve">
  <style type="text / css">
    .Red{fill:#CD4C32;}
    .Green{fill:#4EA17E;}
    .Blue{fill:#3E79B4;}
    .Yellow{fill:#EAB765;}
    .Black{fill:#797979;}
    .Gray{fill:#B4B4B5;}
    .White{fill:#FFFFFF;}
  </style>
  <g id="icon">
    <g>
      <path fill="#FFFFFF" class="White" d="M26.6,30.5H5.4c-0.6351,0,-0.9,-0.2594,-0.9,-0.9V2.4c0,-0.6407,0.2649,-0.9,0.9,-0.9c0,0,13.6626,0,13.9,0c0.2375,0,0.5495,0.0496,0.8997,0.3998C20.499,2.199,25.6164,7.3164,27.1,8.8c0.2527,0.2527,0.4,0.55,0.4,1c0,0.3125,0,19.8,0,19.8C27.5,30.2406,27.2351,30.5,26.6,30.5z" />
      <path fill="#797979" class="Black" d="M27.4535,8.4464l-6.9001,-6.9002C20.1858,1.1787,19.7758,1,19.3,1H5.4c-0.9159,0,-1.4,0.4841,-1.4,1.4v27.2c0,0.9159,0.4841,1.4,1.4,1.4h21.2c0.9159,0,1.4,-0.4841,1.4,-1.4V9.8C28,9.2494,27.8264,8.8192,27.4535,8.4464zM20,2.4071L26.5929,9H20.3c-0.1654,0,-0.3,-0.1346,-0.3,-0.3V2.4071zM26.6,30H5.4c-0.3626,0,-0.4,-0.0374,-0.4,-0.4V2.4c0,-0.3626,0.0374,-0.4,0.4,-0.4h13.6v6.7c0,0.7168,0.5832,1.3,1.3,1.3h6.7v19.6C27,29.9626,26.9626,30,26.6,30z" />
    </g>
    <path fill="#797979" class="Black" fill-opacity="0.5" d="M16.5,6H7.5c-0.2761,0,-0.5,-0.2239,-0.5,-0.5s0.2239,-0.5,0.5,-0.5h9c0.2761,0,0.5,0.2239,0.5,0.5S16.7761,6,16.5,6zM16.5,8H7.5c-0.2761,0,-0.5,-0.2239,-0.5,-0.5s0.2239,-0.5,0.5,-0.5h9c0.2761,0,0.5,0.2239,0.5,0.5S16.7761,8,16.5,8zM16.5,10H7.5c-0.2761,0,-0.5,-0.2239,-0.5,-0.5s0.2239,-0.5,0.5,-0.5h9c0.2761,0,0.5,0.2239,0.5,0.5S16.7761,10,16.5,10zM16.5,12H7.5c-0.2761,0,-0.5,-0.2239,-0.5,-0.5s0.2239,-0.5,0.5,-0.5h9c0.2761,0,0.5,0.2239,0.5,0.5S16.7761,12,16.5,12zM24.5,14H7.5c-0.2761,0,-0.5,-0.2239,-0.5,-0.5s0.2239,-0.5,0.5,-0.5h17c0.2761,0,0.5,0.2239,0.5,0.5S24.7761,14,24.5,14zM24.5,16H7.5c-0.2761,0,-0.5,-0.2239,-0.5,-0.5s0.2239,-0.5,0.5,-0.5h17c0.2761,0,0.5,0.2239,0.5,0.5S24.7761,16,24.5,16zM24.5,18H7.5c-0.2761,0,-0.5,-0.2239,-0.5,-0.5s0.2239,-0.5,0.5,-0.5h17c0.2761,0,0.5,0.2239,0.5,0.5S24.7761,18,24.5,18zM24.5,20H7.5c-0.2761,0,-0.5,-0.2239,-0.5,-0.5s0.2239,-0.5,0.5,-0.5h17c0.2761,0,0.5,0.2239,0.5,0.5S24.7761,20,24.5,20zM24.5,22H7.5c-0.2761,0,-0.5,-0.2239,-0.5,-0.5s0.2239,-0.5,0.5,-0.5h17c0.2761,0,0.5,0.2239,0.5,0.5S24.7761,22,24.5,22zM24.5,24H7.5c-0.2761,0,-0.5,-0.2239,-0.5,-0.5s0.2239,-0.5,0.5,-0.5h17c0.2761,0,0.5,0.2239,0.5,0.5S24.7761,24,24.5,24zM24.5,26H7.5c-0.2761,0,-0.5,-0.2239,-0.5,-0.5s0.2239,-0.5,0.5,-0.5h17c0.2761,0,0.5,0.2239,0.5,0.5S24.7761,26,24.5,26zM24.5,28H7.5c-0.2761,0,-0.5,-0.2239,-0.5,-0.5s0.2239,-0.5,0.5,-0.5h17c0.2761,0,0.5,0.2239,0.5,0.5S24.7761,28,24.5,28z" />
  </g>
</svg>
