<?xml version="1.0" encoding="UTF-8"?>
<!DOCTYPE svg PUBLIC "-//W3C//DTD SVG 1.1//EN" "http://www.w3.org/Graphics/SVG/1.1/DTD/svg11.dtd">
<svg version="1.1" id="Layer_1" xmlns="http://www.w3.org/2000/svg" xmlns:xlink="http://www.w3.org/1999/xlink" x="0px" y="0px" width="32px" height="32px" viewBox="0 0 32 32" enable-background="new 0 0 32 32" xml:space="preserve">
  <style type="text / css">
    .Red{fill:#CD4C32;}
    .Green{fill:#4EA17E;}
    .Blue{fill:#3E79B4;}
    .Yellow{fill:#EAB765;}
    .Black{fill:#797979;}
    .Gray{fill:#B4B4B5;}
    .White{stroke:#FFFFFF;}
  </style>
  <g id="icon">
    <path fill="#EAB765" class="Yellow" d="M5.821,29.666c-0.307,0.305,-0.443,0.288,-0.821,0.062C2.481,28.1,1.054,24.001,1.016,23.827c-0.068,-0.312,0.088,-0.645,0.417,-0.782c0.08,-0.033,0.168,-0.045,0.255,-0.045h6.706c0.753,0,0.682,0.136,0.682,0.693C9.074,23.822,8.984,26.873,5.821,29.666zM8.336,2.176c1.984,1.754,3.017,5.249,3.023,5.281c0.064,0.316,0.331,0.544,0.64,0.544h18.538c0.08,0,0.162,-0.012,0.236,-0.043c0.31,-0.127,0.466,-0.448,0.416,-0.756C31.151,6.955,29.962,1,25.897,1H8.818C7.25,1,7.315,1.273,8.336,2.176zM28.141,16.769c1.464,2.84,2.846,5.523,2.859,7.382c0,6.177,-4.757,6.849,-4.974,6.849c-0.095,0,-13.041,0,-17.254,0c-0.59,0,-2.267,-0.085,-2.591,-0.409c-0.119,-0.119,0.358,-0.443,0.841,-0.866c0.001,-0.001,0.003,-0.001,0.004,-0.002C7.561,29.25,9.489,27.355,10,24.3c0.272,-2.366,-1.95,-5.669,-3.836,-8.863C4.33,12.331,2.597,9.396,2.597,6.975c0,-3.694,1.905,-4.979,3.044,-5.416c0.215,-0.082,0.456,-0.05,0.646,0.081c2.768,1.907,3.714,4.431,4.274,6.66c0.108,0.427,0.49,0.7,0.931,0.7H24.38c0.319,0,0.594,0.245,0.674,0.554C25.609,11.701,26.896,14.353,28.141,16.769zM26.4,20H13.3c-0.276,0,-0.5,0.224,-0.5,0.5s0.224,0.5,0.5,0.5h13.1c0.276,0,0.5,-0.224,0.5,-0.5S26.676,20,26.4,20zM22.1,12c0.276,0,0.5,-0.224,0.5,-0.5s-0.224,-0.5,-0.5,-0.5H9.3c-0.276,0,-0.5,0.224,-0.5,0.5s0.224,0.5,0.5,0.5H22.1zM10.7,15h12.8c0.276,0,0.5,-0.224,0.5,-0.5s-0.224,-0.5,-0.5,-0.5H10.7c-0.276,0,-0.5,0.224,-0.5,0.5S10.424,15,10.7,15zM12.1,18h12.9c0.276,0,0.5,-0.224,0.5,-0.5s-0.224,-0.5,-0.5,-0.5H12.1c-0.276,0,-0.5,0.224,-0.5,0.5S11.824,18,12.1,18zM26.5,26.5c0,-0.276,-0.224,-0.5,-0.5,-0.5H13.2c-0.276,0,-0.5,0.224,-0.5,0.5s0.224,0.5,0.5,0.5h12.8C26.276,27,26.5,26.776,26.5,26.5zM27.7,23.5c0,-0.276,-0.224,-0.5,-0.5,-0.5H14.1c-0.276,0,-0.5,0.224,-0.5,0.5s0.224,0.5,0.5,0.5h13.1C27.476,24,27.7,23.776,27.7,23.5z" />
    <path fill="#FFFFFF" class="White" d="M9.3,11.5h12.8M10.7,14.5h12.8M12.1,17.5h12.9M13.3,20.5h13.1M14.1,23.5h13.1M13.2,26.5h12.8" />
  </g>
</svg>
