<?xml version="1.0" encoding="UTF-8" standalone="no"?>
<!DOCTYPE svg PUBLIC "-//W3C//DTD SVG 1.1//EN" "http://www.w3.org/Graphics/SVG/1.1/DTD/svg11.dtd">
<svg width="100%" height="100%" viewBox="0 0 32 32" version="1.1" xmlns="http://www.w3.org/2000/svg" xmlns:xlink="http://www.w3.org/1999/xlink" xml:space="preserve" xmlns:serif="http://www.serif.com/" style="fill-rule:evenodd;clip-rule:evenodd;stroke-linejoin:round;stroke-miterlimit:2;">
  <style type="text / css">
    .Red{fill:#CD4C32;}
    .Green{fill:#4EA17E;}
    .Blue{fill:#3E79B4;}
    .Yellow{fill:#EAB765;}
    .Black{fill:#797979;}
    .Gray{fill:#B4B4B5;}
    .White{fill:#FFFFFF;}
  </style>
    <g id="main">
        <g id="icon">
            <clipPath id="_clip1">
                <path d="M18.027,31.058L20.899,25.4L19.254,25.4C18.8,25.4 18.392,25.163 18.188,24.757C17.985,24.351 18.027,23.88 18.299,23.516L23.422,16.563C23.652,16.256 24.009,16.1 24.382,16.1L31.705,16.1C31.806,16.1 31.905,16.112 32,16.135L32,0L0,0L0,32L17.97,32C17.863,31.695 17.88,31.353 18.027,31.058Z"/>
            </clipPath>
            <g clip-path="url(#_clip1)">
                <g id="transformed_icon">
                    <path fill="#FFFFFF" class="White" d="M26,29.5L4,29.5C3.724,29.5 3.5,29.276 3.5,29L3.5,3.5L26.5,3.5L26.5,29C26.5,29.276 26.276,29.5 26,29.5Z" />
                    <path fill="#797979" class="Black" d="M26,30C26.552,30 27,29.552 27,29L27,3L3,3L3,29C3,29.552 3.448,30 4,30L26,30ZM26,29L26,4L4,4L4,29L26,29Z" />
                    <path fill="#3E79B4" class="Blue" d="M27,4L3,4L3,1.4C3,0.627 3.627,0 4.4,0L25.6,0C26.373,0 27,0.627 27,1.4L27,4Z" />
                    <path fill="#797979" class="Black" d="M7,26L10,26C10.276,26 10.5,25.776 10.5,25.5C10.5,25.224 10.276,25 10,25L7,25C6.724,25 6.5,25.224 6.5,25.5C6.5,25.776 6.724,26 7,26ZM7,23L10,23C10.276,23 10.5,22.776 10.5,22.5C10.5,22.224 10.276,22 10,22L7,22C6.724,22 6.5,22.224 6.5,22.5C6.5,22.776 6.724,23 7,23ZM7,20L10,20C10.276,20 10.5,19.776 10.5,19.5C10.5,19.224 10.276,19 10,19L7,19C6.724,19 6.5,19.224 6.5,19.5C6.5,19.776 6.724,20 7,20ZM7,17L10,17C10.276,17 10.5,16.776 10.5,16.5C10.5,16.224 10.276,16 10,16L7,16C6.724,16 6.5,16.224 6.5,16.5C6.5,16.776 6.724,17 7,17ZM7,14L10,14C10.276,14 10.5,13.776 10.5,13.5C10.5,13.224 10.276,13 10,13L7,13C6.724,13 6.5,13.224 6.5,13.5C6.5,13.776 6.724,14 7,14ZM7,11L10,11C10.276,11 10.5,10.776 10.5,10.5C10.5,10.224 10.276,10 10,10L7,10C6.724,10 6.5,10.224 6.5,10.5C6.5,10.776 6.724,11 7,11ZM7,8L10,8C10.276,8 10.5,7.776 10.5,7.5C10.5,7.224 10.276,7 10,7L7,7C6.724,7 6.5,7.224 6.5,7.5C6.5,7.776 6.724,8 7,8Z" />
                    <path fill="#B4B4B5" class="Gray" d="M12.5,26L23,26C23.276,26 23.5,25.776 23.5,25.5C23.5,25.224 23.276,25 23,25L12.5,25C12.224,25 12,25.224 12,25.5C12,25.776 12.224,26 12.5,26ZM12.5,23L23,23C23.276,23 23.5,22.776 23.5,22.5C23.5,22.224 23.276,22 23,22L12.5,22C12.224,22 12,22.224 12,22.5C12,22.776 12.224,23 12.5,23ZM12.5,20L23,20C23.276,20 23.5,19.776 23.5,19.5C23.5,19.224 23.276,19 23,19L12.5,19C12.224,19 12,19.224 12,19.5C12,19.776 12.224,20 12.5,20ZM12.5,17L23,17C23.276,17 23.5,16.776 23.5,16.5C23.5,16.224 23.276,16 23,16L12.5,16C12.224,16 12,16.224 12,16.5C12,16.776 12.224,17 12.5,17ZM12.5,14L23,14C23.276,14 23.5,13.776 23.5,13.5C23.5,13.224 23.276,13 23,13L12.5,13C12.224,13 12,13.224 12,13.5C12,13.776 12.224,14 12.5,14ZM12.5,11L23,11C23.276,11 23.5,10.776 23.5,10.5C23.5,10.224 23.276,10 23,10L12.5,10C12.224,10 12,10.224 12,10.5C12,10.776 12.224,11 12.5,11ZM12.5,8L23,8C23.276,8 23.5,7.776 23.5,7.5C23.5,7.224 23.276,7 23,7L12.5,7C12.224,7 12,7.224 12,7.5C12,7.776 12.224,8 12.5,8Z" />
                </g>
            </g>
        </g>
        <g id="overlay">
            <path fill="#EAB765" class="Yellow" d="M26.715,22.589L30.36,22.589C30.541,22.589 30.622,22.815 30.482,22.93L19.216,31.755C19.055,31.887 18.829,31.706 18.922,31.52L22.53,24.43L19.254,24.43C19.096,24.43 19.005,24.25 19.1,24.123L24.228,17.141C24.265,17.092 24.322,17.063 24.382,17.063L31.704,17.063C31.879,17.063 31.964,17.277 31.836,17.397L26.715,22.589Z" />
        </g>
    </g>
</svg>
