<?xml version="1.0" encoding="UTF-8" standalone="no"?>
<!DOCTYPE svg PUBLIC "-//W3C//DTD SVG 1.1//EN" "http://www.w3.org/Graphics/SVG/1.1/DTD/svg11.dtd">
<svg width="32" height="32" viewBox="0 0 32 32" version="1.1" xmlns="http://www.w3.org/2000/svg" xmlns:xlink="http://www.w3.org/1999/xlink" xml:space="preserve" xmlns:serif="http://www.serif.com/" >
  <style type="text / css">
    .Red{fill:#CD4C32;}
    .Green{fill:#4EA17E;}
    .Blue{fill:#3E79B4;}
    .Yellow{fill:#EAB765;}
    .Black{fill:#797979;}
    .Gray{fill:#B4B4B5;}
    .White{fill:#FFFFFF;}
  </style>
    <g id="icon">
        <g transform="matrix(1.88722,0,0,1.9147,0.805547,0.608417)">
            <ellipse cx="8.051" cy="8.039" rx="7.418" ry="7.312" style="fill:white;"/>
        </g>
        <g transform="matrix(0.00316721,-2.28851e-17,1.34879e-15,-0.00316604,-0.211041,32.207)">
            <path d="M4920,9244C4780,9236 4543,9209 4407,9185C3301,8994 2311,8347 1683,7405C803,6085 761,4362 1577,3000C1757,2701 1937,2471 2204,2204C2472,1937 2703,1755 2997,1579C3882,1051 4916,872 5925,1071C6577,1199 7173,1478 7715,1909C7869,2031 8209,2371 8331,2525C8788,3101 9073,3735 9190,4434C9233,4691 9244,4839 9244,5120C9244,5394 9233,5537 9194,5780C8981,7105 8127,8251 6916,8836C6478,9047 6033,9174 5546,9225C5400,9240 5043,9251 4920,9244ZM4753,7260C4956,6908 5123,6620 5125,6620C5127,6620 5294,6908 5496,7260C5699,7612 5870,7900 5877,7900C5886,7900 7145,7178 7158,7165C7160,7163 6995,6873 6791,6520C6587,6167 6420,5876 6420,5874C6420,5872 6755,5870 7165,5870L7910,5870L7910,5125L7910,4380L7165,4380C6755,4380 6420,4378 6420,4376C6420,4374 6587,4083 6791,3730C6995,3377 7160,3087 7158,3085C7145,3072 5886,2350 5877,2350C5870,2350 5699,2638 5496,2990C5294,3342 5127,3630 5125,3630C5123,3630 4956,3342 4754,2990C4551,2638 4380,2350 4373,2350C4364,2350 3105,3072 3092,3085C3090,3087 3255,3377 3459,3730C3663,4083 3830,4373 3830,4376C3830,4378 3495,4380 3085,4380L2340,4380L2340,5870L3085,5870C3495,5870 3830,5872 3830,5874C3830,5876 3663,6167 3459,6521C3178,7008 3091,7165 3101,7171C3322,7303 4359,7898 4370,7899C4380,7899 4518,7669 4753,7260Z" style="fill:rgb(175,8,9);fill-rule:nonzero;"/>
        </g>
    </g>
</svg>
