<?xml version="1.0" encoding="UTF-8" standalone="no"?>
<!DOCTYPE svg PUBLIC "-//W3C//DTD SVG 1.1//EN" "http://www.w3.org/Graphics/SVG/1.1/DTD/svg11.dtd">
<svg width="32" height="32" viewBox="0 0 32 32" version="1.1" xmlns="http://www.w3.org/2000/svg" xmlns:xlink="http://www.w3.org/1999/xlink" xml:space="preserve" xmlns:serif="http://www.serif.com/" >
  <style type="text / css">
    .Red{fill:#CD4C32;}
    .Green{fill:#4EA17E;}
    .Blue{fill:#3E79B4;}
    .Yellow{fill:#EAB765;}
    .Black{fill:#797979;}
    .Gray{fill:#B4B4B5;}
    .White{fill:#FFFFFF;}
  </style>
  <g id="icon">
    <g transform="matrix(0.736855,0,0,0.736855,-1.96866,-1.68041)">
        <path d="M29.4,8.4C30.5,7.7 34.7,5.1 38.2,5.1C44.8,5.1 41.7,12.8 41.7,12.8L41.9,13C45.7,3.3 38.4,4 38.4,4C34.3,4 29.1,7.4 28,8.2C27,8.1 26,8 24.9,8C9.7,8 7.4,19.6 7.1,23C7,23.5 7,23.8 7,23.8C7,23.9 7,24 7,24C7,23.9 7,23.8 7,23.7C13.1,15 21.5,11.5 21.5,11.5L21.5,12.1C9,20.6 6,33.2 5.3,35.7C4.5,38.3 5,44 10.3,44C15.6,44 20.7,39.8 20.7,39.8C20.7,39.8 21.9,40 25,40C38.2,40 41.7,28 41.7,28L30,28C30,28 28.8,32 24.6,32C18.8,32 19,26 19,26L42,26C42.4,20.5 40.9,16.7 38.7,14.1C36.9,11.5 34,9.3 29.4,8.4ZM20,39.6C20,39.6 12.2,44.5 8.6,41.1C6.7,37.7 9.8,32.9 9.8,32.9C9.8,32.9 12.2,37.8 20,39.6ZM18.8,10.3C18.8,10.3 18.7,10.3 18.8,10.3ZM19,21C19,21 18.9,16 24.5,16C29.9,16 30,21 30,21L19,21Z" style="fill:rgb(41,182,246);fill-rule:nonzero;"/>
    </g>
  </g>
</svg>
